G04*
G04 #@! TF.GenerationSoftware,Altium Limited,Altium Designer,20.0.2 (26)*
G04*
G04 Layer_Color=32768*
%FSLAX25Y25*%
%MOIN*%
G70*
G01*
G75*
%ADD77C,0.00200*%
G36*
X-3408Y78940D02*
Y78843D01*
Y78745D01*
X-3546Y78606D01*
X-3742D01*
X-3880Y78745D01*
Y78843D01*
Y78940D01*
X-3742Y79079D01*
X-3546D01*
X-3408Y78940D01*
D02*
G37*
G36*
X17644Y73724D02*
X13707D01*
Y77268D01*
X17644D01*
Y73724D01*
D02*
G37*
G36*
X293D02*
X-3644D01*
Y77268D01*
X293D01*
Y73724D01*
D02*
G37*
G36*
X-15323Y66878D02*
X-21622D01*
Y75539D01*
X-15323D01*
Y66878D01*
D02*
G37*
G36*
X-49378D02*
X-55677D01*
Y75539D01*
X-49378D01*
Y66878D01*
D02*
G37*
G36*
X117949Y66833D02*
Y66735D01*
Y66637D01*
X117811Y66499D01*
X117615D01*
X117477Y66637D01*
Y66735D01*
Y66833D01*
X117615Y66971D01*
X117811D01*
X117949Y66833D01*
D02*
G37*
G36*
X17644Y60732D02*
X13707D01*
Y64276D01*
X17644D01*
Y60732D01*
D02*
G37*
G36*
X293D02*
X-3644D01*
Y64276D01*
X293D01*
Y60732D01*
D02*
G37*
G36*
X86216Y60227D02*
X82279D01*
Y66723D01*
X86216D01*
Y60227D01*
D02*
G37*
G36*
X78342D02*
X74405D01*
Y66723D01*
X78342D01*
Y60227D01*
D02*
G37*
G36*
X70468D02*
X66531D01*
Y66723D01*
X70468D01*
Y60227D01*
D02*
G37*
G36*
X62594D02*
X58657D01*
Y66723D01*
X62594D01*
Y60227D01*
D02*
G37*
G36*
X54720D02*
X50783D01*
Y66723D01*
X54720D01*
Y60227D01*
D02*
G37*
G36*
X46847D02*
X42910D01*
Y66723D01*
X46847D01*
Y60227D01*
D02*
G37*
G36*
X38972D02*
X35035D01*
Y66723D01*
X38972D01*
Y60227D01*
D02*
G37*
G36*
X31098Y60227D02*
X27161D01*
Y66723D01*
X31098D01*
Y60227D01*
D02*
G37*
G36*
X-97264Y60338D02*
Y60142D01*
X-97402Y60004D01*
X-97598D01*
X-97736Y60142D01*
Y60338D01*
X-97598Y60476D01*
X-97402D01*
X-97264Y60338D01*
D02*
G37*
G36*
X-27527Y62941D02*
Y59004D01*
X-28709D01*
Y62941D01*
X-27527Y62941D01*
D02*
G37*
G36*
X-32448Y59004D02*
X-33630D01*
Y62941D01*
X-32448D01*
Y59004D01*
D02*
G37*
G36*
X-37369D02*
X-38551D01*
Y62941D01*
X-37369Y62941D01*
Y59004D01*
D02*
G37*
G36*
X-42291D02*
X-43473D01*
Y62941D01*
X-42291Y62941D01*
Y59004D01*
D02*
G37*
G36*
X-15087Y59101D02*
Y59004D01*
Y58906D01*
X-15225Y58767D01*
X-15421D01*
X-15559Y58906D01*
Y59004D01*
Y59101D01*
X-15421Y59240D01*
X-15225D01*
X-15087Y59101D01*
D02*
G37*
G36*
X-106378Y57090D02*
X-116220D01*
Y60240D01*
X-106378D01*
Y57090D01*
D02*
G37*
G36*
X26768Y52944D02*
X23225D01*
Y56881D01*
X26768D01*
Y52944D01*
D02*
G37*
G36*
X-97500Y50988D02*
X-100650D01*
Y51776D01*
X-97500D01*
X-97500Y50988D01*
D02*
G37*
G36*
X-97500Y46067D02*
X-100650D01*
Y46855D01*
X-97500D01*
Y46067D01*
D02*
G37*
G36*
X26768Y45077D02*
X23225D01*
Y49014D01*
X26768D01*
Y45077D01*
D02*
G37*
G36*
X-49386Y42220D02*
Y42024D01*
X-49524Y41886D01*
X-49720D01*
X-49858Y42024D01*
Y42220D01*
X-49720Y42358D01*
X-49524D01*
X-49386Y42220D01*
D02*
G37*
G36*
X-97500Y41145D02*
X-100650D01*
Y41933D01*
X-97500D01*
Y41145D01*
D02*
G37*
G36*
X-10803Y39760D02*
Y38146D01*
X-11669D01*
Y39760D01*
Y42122D01*
X-10803D01*
Y39760D01*
D02*
G37*
G36*
X-12772D02*
Y38146D01*
X-13638D01*
Y39760D01*
Y42122D01*
X-12772Y42122D01*
Y39760D01*
D02*
G37*
G36*
X-14740D02*
Y38146D01*
X-15606D01*
Y39760D01*
Y42122D01*
X-14740D01*
Y39760D01*
D02*
G37*
G36*
X-16709Y39799D02*
Y38146D01*
X-17575D01*
Y39760D01*
Y42122D01*
X-16709Y42122D01*
Y39799D01*
D02*
G37*
G36*
X-18677Y39783D02*
X-18677Y38146D01*
X-19543D01*
Y39760D01*
Y42122D01*
X-18677D01*
X-18677Y39783D01*
D02*
G37*
G36*
X-20646Y39799D02*
Y38146D01*
X-21512D01*
Y39760D01*
Y42122D01*
X-20646Y42122D01*
Y39799D01*
D02*
G37*
G36*
X-22614Y39760D02*
Y38146D01*
X-23480D01*
Y39760D01*
Y42122D01*
X-22614D01*
Y39760D01*
D02*
G37*
G36*
X-24583Y39799D02*
Y38146D01*
X-25449D01*
Y39760D01*
Y39799D01*
Y42122D01*
X-24583Y42122D01*
Y39799D01*
D02*
G37*
G36*
X-26551Y42122D02*
Y39760D01*
Y38146D01*
X-27417D01*
Y39760D01*
Y42122D01*
X-26551Y42122D01*
D02*
G37*
G36*
X-28520Y39799D02*
Y38146D01*
X-29386D01*
Y39760D01*
Y42122D01*
X-28520D01*
Y39799D01*
D02*
G37*
G36*
X-30488Y42122D02*
Y39760D01*
Y38146D01*
X-31354D01*
Y39760D01*
Y42122D01*
X-30488Y42122D01*
D02*
G37*
G36*
X-32457Y39760D02*
Y38146D01*
X-33323D01*
X-33323Y39783D01*
X-33323Y42122D01*
X-32457D01*
Y39760D01*
D02*
G37*
G36*
X-34425Y42122D02*
Y39760D01*
Y38146D01*
X-35291D01*
Y39760D01*
Y42122D01*
X-34425Y42122D01*
D02*
G37*
G36*
X-36394Y39760D02*
Y38146D01*
X-37260D01*
Y39760D01*
Y42122D01*
X-36394D01*
Y39760D01*
D02*
G37*
G36*
X-38362Y42122D02*
Y39760D01*
Y38146D01*
X-39228D01*
Y39760D01*
Y42122D01*
X-38362Y42122D01*
D02*
G37*
G36*
X-40331Y39760D02*
Y38146D01*
X-41197D01*
Y39760D01*
Y42122D01*
X-40331D01*
Y39760D01*
D02*
G37*
G36*
X26768Y37208D02*
X23225D01*
Y41145D01*
X26768D01*
Y37208D01*
D02*
G37*
G36*
X-97500Y36213D02*
X-100650D01*
Y37000D01*
X-97500D01*
Y36213D01*
D02*
G37*
G36*
X-2378Y32831D02*
X-6354D01*
Y33697D01*
X-2378D01*
Y32831D01*
D02*
G37*
G36*
X-45646D02*
X-49622D01*
Y33697D01*
X-45646D01*
Y32831D01*
D02*
G37*
G36*
X-67185Y31397D02*
Y31202D01*
X-67323Y31063D01*
X-67519D01*
X-67657Y31202D01*
Y31397D01*
X-67519Y31536D01*
X-67323D01*
X-67185Y31397D01*
D02*
G37*
G36*
X-2378Y30862D02*
X-6354D01*
Y31728D01*
X-2378D01*
X-2378Y30862D01*
D02*
G37*
G36*
X-45646D02*
X-49622D01*
X-49622Y31728D01*
X-45646D01*
Y30862D01*
D02*
G37*
G36*
X26768Y29331D02*
X23225D01*
Y33268D01*
X26768D01*
Y29331D01*
D02*
G37*
G36*
X-2378Y28894D02*
X-6354D01*
Y29760D01*
X-2378D01*
Y28894D01*
D02*
G37*
G36*
X-45646D02*
X-49622D01*
Y29760D01*
X-45646D01*
Y28894D01*
D02*
G37*
G36*
X-106378Y27760D02*
X-116220D01*
Y30910D01*
X-106378D01*
Y27760D01*
D02*
G37*
G36*
X-2378Y26925D02*
X-6354D01*
Y27791D01*
X-2378D01*
X-2378Y26925D01*
D02*
G37*
G36*
X-45646D02*
X-49622D01*
X-49622Y27791D01*
X-45646D01*
Y26925D01*
D02*
G37*
G36*
X-57972Y30906D02*
Y26772D01*
X-61122D01*
Y30906D01*
X-57972Y30906D01*
D02*
G37*
G36*
X-63878D02*
Y26772D01*
X-67027D01*
Y30906D01*
X-63878Y30906D01*
D02*
G37*
G36*
X-2378Y24957D02*
X-6354D01*
Y25823D01*
X-4717Y25823D01*
X-2378Y25823D01*
Y24957D01*
D02*
G37*
G36*
X-45646D02*
X-49622D01*
Y25823D01*
X-47283Y25823D01*
X-45646Y25823D01*
Y24957D01*
D02*
G37*
G36*
X-97264Y23838D02*
Y23642D01*
X-97402Y23504D01*
X-97598D01*
X-97736Y23642D01*
Y23838D01*
X-97598Y23976D01*
X-97402D01*
X-97264Y23838D01*
D02*
G37*
G36*
X-2378Y22988D02*
X-6354D01*
Y23854D01*
X-2378D01*
X-2378Y22988D01*
D02*
G37*
G36*
X-45646D02*
X-49622D01*
X-49622Y23854D01*
X-45646D01*
Y22988D01*
D02*
G37*
G36*
X26768Y21460D02*
X23225D01*
Y25397D01*
X26768D01*
Y21460D01*
D02*
G37*
G36*
X-2378Y21020D02*
X-6354D01*
Y21886D01*
X-2378D01*
Y21020D01*
D02*
G37*
G36*
X-45646D02*
X-49622D01*
Y21886D01*
X-45646D01*
Y21020D01*
D02*
G37*
G36*
X-106378Y20590D02*
X-116220D01*
Y23740D01*
X-106378D01*
Y20590D01*
D02*
G37*
G36*
X-57972Y19095D02*
X-61122D01*
Y23228D01*
X-57972D01*
Y19095D01*
D02*
G37*
G36*
X-63878D02*
X-67027D01*
Y23228D01*
X-63878D01*
Y19095D01*
D02*
G37*
G36*
X-2378Y19051D02*
X-6354D01*
Y19917D01*
X-2378D01*
X-2378Y19051D01*
D02*
G37*
G36*
X-45646D02*
X-49622D01*
X-49622Y19917D01*
X-45646D01*
Y19051D01*
D02*
G37*
G36*
X-2378Y17083D02*
X-6354D01*
Y17949D01*
X-2378D01*
X-2378Y17083D01*
D02*
G37*
G36*
X-45646D02*
X-49622D01*
X-49622Y17949D01*
X-45646D01*
Y17083D01*
D02*
G37*
G36*
X-2378Y15114D02*
X-6354D01*
Y15980D01*
X-2378D01*
Y15114D01*
D02*
G37*
G36*
X-45646D02*
X-49622D01*
Y15980D01*
X-45646D01*
Y15114D01*
D02*
G37*
G36*
X-97500Y14488D02*
X-100650D01*
Y15276D01*
X-97500D01*
X-97500Y14488D01*
D02*
G37*
G36*
X26768Y13587D02*
X23225D01*
Y17524D01*
X26768D01*
Y13587D01*
D02*
G37*
G36*
X-2378Y13146D02*
X-6354D01*
Y14012D01*
X-2378D01*
X-2378Y13146D01*
D02*
G37*
G36*
X-45646D02*
X-49622D01*
X-49622Y14012D01*
X-45646D01*
Y13146D01*
D02*
G37*
G36*
X-2378Y11177D02*
X-4717Y11177D01*
X-6354Y11177D01*
Y12043D01*
X-2378D01*
Y11177D01*
D02*
G37*
G36*
X-45646D02*
X-47283Y11177D01*
X-49622Y11177D01*
Y12043D01*
X-45646D01*
Y11177D01*
D02*
G37*
G36*
X-97500Y9567D02*
X-100650D01*
Y10355D01*
X-97500D01*
Y9567D01*
D02*
G37*
G36*
X-2378Y9209D02*
X-6354D01*
Y10075D01*
X-2378D01*
X-2378Y9209D01*
D02*
G37*
G36*
X-45646D02*
X-49622D01*
X-49622Y10075D01*
X-45646D01*
Y9209D01*
D02*
G37*
G36*
X-55421Y9307D02*
Y9209D01*
Y9111D01*
X-55560Y8973D01*
X-55755D01*
X-55894Y9111D01*
Y9209D01*
Y9307D01*
X-55755Y9445D01*
X-55560D01*
X-55421Y9307D01*
D02*
G37*
G36*
X-2378Y7240D02*
X-6354D01*
Y8106D01*
X-2378D01*
Y7240D01*
D02*
G37*
G36*
X-45646D02*
X-49622D01*
Y8106D01*
X-45646D01*
Y7240D01*
D02*
G37*
G36*
X-2378Y5272D02*
X-6354D01*
Y6138D01*
X-2378D01*
X-2378Y5272D01*
D02*
G37*
G36*
X-45646D02*
X-49622D01*
X-49622Y6138D01*
X-45646D01*
Y5272D01*
D02*
G37*
G36*
X-97500Y4645D02*
X-100650D01*
Y5433D01*
X-97500D01*
Y4645D01*
D02*
G37*
G36*
X62594Y3731D02*
X58657D01*
Y10227D01*
X62594D01*
Y3731D01*
D02*
G37*
G36*
X38972D02*
X35035D01*
Y10227D01*
X38972D01*
Y3731D01*
D02*
G37*
G36*
X86216Y3731D02*
X82279D01*
Y10227D01*
X86216D01*
Y3731D01*
D02*
G37*
G36*
X78342D02*
X74405D01*
Y10227D01*
X78342D01*
Y3731D01*
D02*
G37*
G36*
X70468D02*
X66531D01*
Y10227D01*
X70468D01*
Y3731D01*
D02*
G37*
G36*
X54720D02*
X50783D01*
Y10227D01*
X54720D01*
Y3731D01*
D02*
G37*
G36*
X46847D02*
X42910D01*
Y10227D01*
X46847D01*
Y3731D01*
D02*
G37*
G36*
X31098D02*
X27161D01*
Y10227D01*
X31098D01*
Y3731D01*
D02*
G37*
G36*
X-2378Y3303D02*
X-6354D01*
Y4169D01*
X-2378D01*
Y3303D01*
D02*
G37*
G36*
X-45646D02*
X-49622D01*
Y4169D01*
X-45646D01*
Y3303D01*
D02*
G37*
G36*
X-55658Y941D02*
X-60382D01*
Y6059D01*
X-55658D01*
Y941D01*
D02*
G37*
G36*
X-70618D02*
X-75343D01*
Y6059D01*
X-70618D01*
Y941D01*
D02*
G37*
G36*
X-97500Y-287D02*
X-100650D01*
Y500D01*
X-97500D01*
Y-287D01*
D02*
G37*
G36*
X64563Y-3523D02*
X59839D01*
Y-2342D01*
X64563D01*
X64563Y-3523D01*
D02*
G37*
G36*
X-10803Y-2799D02*
Y-5122D01*
X-11669D01*
Y-2799D01*
Y-1146D01*
X-10803D01*
Y-2799D01*
D02*
G37*
G36*
X-14740D02*
Y-5122D01*
X-15606D01*
Y-2799D01*
Y-1146D01*
X-14740D01*
Y-2799D01*
D02*
G37*
G36*
X-18677Y-2783D02*
X-18677Y-5122D01*
X-19543D01*
Y-2799D01*
Y-1146D01*
X-18677D01*
X-18677Y-2783D01*
D02*
G37*
G36*
X-22614Y-2760D02*
Y-5122D01*
X-23480D01*
Y-2799D01*
Y-2760D01*
Y-1146D01*
X-22614D01*
Y-2760D01*
D02*
G37*
G36*
X-28520Y-2799D02*
Y-5122D01*
X-29386D01*
Y-2799D01*
Y-1146D01*
X-28520D01*
Y-2799D01*
D02*
G37*
G36*
X-32457D02*
Y-5122D01*
X-33323D01*
X-33323Y-2783D01*
X-33323Y-1146D01*
X-32457D01*
Y-2799D01*
D02*
G37*
G36*
X-36394D02*
Y-5122D01*
X-37260D01*
Y-2799D01*
Y-1146D01*
X-36394D01*
Y-2799D01*
D02*
G37*
G36*
X-40331D02*
Y-5122D01*
X-41197D01*
Y-2799D01*
Y-1146D01*
X-40331D01*
Y-2799D01*
D02*
G37*
G36*
X-12772D02*
Y-5122D01*
X-13638Y-5122D01*
Y-2799D01*
Y-1146D01*
X-12772D01*
Y-2799D01*
D02*
G37*
G36*
X-16709D02*
Y-5122D01*
X-17575Y-5122D01*
Y-2799D01*
Y-1146D01*
X-16709D01*
Y-2799D01*
D02*
G37*
G36*
X-20646D02*
Y-5122D01*
X-21512Y-5122D01*
Y-2799D01*
Y-1146D01*
X-20646D01*
Y-2799D01*
D02*
G37*
G36*
X-24583D02*
Y-5122D01*
X-25449Y-5122D01*
Y-2799D01*
Y-1146D01*
X-24583D01*
Y-2799D01*
D02*
G37*
G36*
X-26551Y-2760D02*
Y-5122D01*
X-27417Y-5122D01*
Y-2799D01*
Y-2760D01*
Y-1146D01*
X-26551D01*
Y-2760D01*
D02*
G37*
G36*
X-30488D02*
Y-5122D01*
X-31354Y-5122D01*
Y-2799D01*
Y-2760D01*
Y-1146D01*
X-30488D01*
Y-2760D01*
D02*
G37*
G36*
X-34425D02*
Y-5122D01*
X-35291Y-5122D01*
Y-2799D01*
Y-2760D01*
Y-1146D01*
X-34425D01*
Y-2760D01*
D02*
G37*
G36*
X-38362Y-2799D02*
Y-5122D01*
X-39228Y-5122D01*
Y-2799D01*
Y-1146D01*
X-38362D01*
Y-2799D01*
D02*
G37*
G36*
X-106378Y-8740D02*
X-116220D01*
Y-5590D01*
X-106378D01*
Y-8740D01*
D02*
G37*
G36*
X94091Y-9015D02*
X92909D01*
X92909Y-6653D01*
X94091D01*
Y-9015D01*
D02*
G37*
G36*
X-80276Y-12693D02*
Y-12790D01*
Y-12888D01*
X-80414Y-13027D01*
X-80610D01*
X-80748Y-12888D01*
Y-12790D01*
Y-12693D01*
X-80610Y-12554D01*
X-80414D01*
X-80276Y-12693D01*
D02*
G37*
G36*
X-102240Y-13972D02*
X-101610Y-13973D01*
Y-15547D01*
X-104012D01*
Y-13972D01*
X-102240D01*
Y-13972D01*
D02*
G37*
G36*
X-69488Y-13973D02*
X-69488Y-15548D01*
X-71890D01*
X-71890Y-13973D01*
X-71260D01*
Y-13972D01*
X-69488Y-13973D01*
D02*
G37*
G36*
X-78110Y-15548D02*
X-78779D01*
Y-15547D01*
X-80512D01*
Y-13973D01*
X-78779D01*
Y-13973D01*
X-78110Y-13972D01*
X-78110Y-15548D01*
D02*
G37*
G36*
X-94721Y-13973D02*
X-92988D01*
X-92988Y-15548D01*
X-94760Y-15547D01*
X-95390D01*
X-95390Y-13972D01*
X-94721D01*
Y-13973D01*
D02*
G37*
G36*
X39799Y-17618D02*
X38618D01*
Y-15256D01*
X39799D01*
Y-17618D01*
D02*
G37*
G36*
X94091Y-19015D02*
X92909Y-19015D01*
X92909Y-16653D01*
X94091Y-16653D01*
Y-19015D01*
D02*
G37*
G36*
X-92988Y-19287D02*
X-95390D01*
X-95390Y-17713D01*
X-92988D01*
X-92988Y-19287D01*
D02*
G37*
G36*
X-78740Y-17713D02*
X-78110Y-17713D01*
X-78110Y-19287D01*
X-78740Y-19287D01*
D01*
X-80512D01*
X-80512Y-17713D01*
X-78740D01*
D01*
D02*
G37*
G36*
X49799Y-22618D02*
X48618Y-22618D01*
Y-20256D01*
X49799Y-20256D01*
X49799Y-22618D01*
D02*
G37*
G36*
X-69488Y-23028D02*
X-71260D01*
Y-23028D01*
X-71890Y-23027D01*
Y-21453D01*
X-69488D01*
Y-23028D01*
D02*
G37*
G36*
X-94721Y-21453D02*
X-92988D01*
Y-23027D01*
X-94721D01*
X-95390Y-23028D01*
X-95390Y-21452D01*
X-94721D01*
Y-21453D01*
D02*
G37*
G36*
X-101610Y-23027D02*
X-102240D01*
Y-23028D01*
X-104012Y-23027D01*
X-104012Y-21452D01*
X-101610D01*
X-101610Y-23027D01*
D02*
G37*
G36*
X-78740Y-21453D02*
D01*
X-78110Y-21453D01*
X-78110Y-23028D01*
X-78779Y-23028D01*
Y-23027D01*
X-80512D01*
X-80512Y-21452D01*
X-78740Y-21453D01*
D02*
G37*
G36*
X-92752Y-24112D02*
Y-24209D01*
Y-24307D01*
X-92891Y-24446D01*
X-93086D01*
X-93224Y-24307D01*
Y-24209D01*
Y-24112D01*
X-93086Y-23973D01*
X-92891D01*
X-92752Y-24112D01*
D02*
G37*
G36*
X39799Y-25256D02*
Y-27618D01*
X38618Y-27618D01*
Y-25256D01*
X39799Y-25256D01*
D02*
G37*
G36*
X-69941Y-27343D02*
Y-27441D01*
Y-27539D01*
X-70079Y-27677D01*
X-70275D01*
X-70414Y-27539D01*
Y-27441D01*
Y-27343D01*
X-70275Y-27205D01*
X-70079D01*
X-69941Y-27343D01*
D02*
G37*
G36*
X-78839Y-29370D02*
X-78406Y-29370D01*
Y-30630D01*
X-78839Y-30630D01*
Y-30630D01*
X-80020D01*
Y-29370D01*
X-78878Y-29370D01*
D01*
X-78867D01*
X-78839D01*
D01*
D02*
G37*
G36*
X-70177Y-30630D02*
X-71358D01*
Y-30630D01*
X-71791D01*
Y-29370D01*
X-70177D01*
X-70177Y-30630D01*
D02*
G37*
G36*
X49799Y-30256D02*
X49799Y-32618D01*
X48618Y-32618D01*
Y-30256D01*
X49799Y-30256D01*
D02*
G37*
G36*
X-15157Y-34784D02*
X-15157Y-37500D01*
D01*
Y-37519D01*
Y-37539D01*
D01*
X-15157Y-38760D01*
X-16063D01*
Y-37539D01*
X-16063Y-34784D01*
X-15157Y-34784D01*
D02*
G37*
G36*
X-19094D02*
X-19094Y-37500D01*
D01*
Y-37519D01*
Y-37539D01*
D01*
X-19094Y-38760D01*
X-20000D01*
Y-37539D01*
X-20000Y-34784D01*
X-19094Y-34784D01*
D02*
G37*
G36*
X39799Y-35256D02*
Y-37618D01*
X38618Y-37618D01*
Y-35256D01*
X39799Y-35256D01*
D02*
G37*
G36*
X-17126Y-37500D02*
D01*
X-17126Y-38760D01*
X-18032D01*
X-18032Y-37519D01*
X-18032Y-34784D01*
X-17126D01*
X-17126Y-37500D01*
D02*
G37*
G36*
X-21063Y-37507D02*
X-21063Y-38760D01*
X-21969D01*
Y-37539D01*
Y-34784D01*
X-21063Y-34784D01*
X-21063Y-37507D01*
D02*
G37*
G36*
X-28937Y-37539D02*
Y-38760D01*
X-29843D01*
X-29843Y-37512D01*
X-29843Y-34784D01*
X-28937Y-34784D01*
Y-37539D01*
D02*
G37*
G36*
X-11220Y-37519D02*
X-11220Y-38760D01*
X-12126Y-38760D01*
Y-37539D01*
X-12126Y-34784D01*
X-11220D01*
X-11220Y-37519D01*
D02*
G37*
G36*
X-13189Y-37509D02*
X-13189Y-38760D01*
X-14095Y-38760D01*
X-14095Y-37519D01*
X-14095Y-34784D01*
X-13189D01*
X-13189Y-37509D01*
D02*
G37*
G36*
X-23031Y-34784D02*
X-23031Y-37500D01*
D01*
Y-37512D01*
Y-37539D01*
D01*
X-23031Y-38760D01*
X-23937Y-38760D01*
Y-37539D01*
Y-34784D01*
X-23031Y-34784D01*
D02*
G37*
G36*
X-25000Y-37539D02*
Y-38760D01*
X-25906Y-38760D01*
Y-37539D01*
Y-34784D01*
X-25000Y-34784D01*
Y-37539D01*
D02*
G37*
G36*
X-26968Y-37500D02*
Y-38760D01*
X-27874Y-38760D01*
Y-37500D01*
D01*
X-27874Y-34784D01*
X-26968D01*
Y-37500D01*
D02*
G37*
G36*
X-30905Y-37500D02*
D01*
Y-37512D01*
Y-37539D01*
D01*
X-30905Y-38760D01*
X-31811Y-38760D01*
Y-37539D01*
Y-34784D01*
X-30905D01*
X-30905Y-37500D01*
D02*
G37*
G36*
X-32874Y-37539D02*
Y-38760D01*
X-33780Y-38760D01*
X-33780Y-37505D01*
X-33780Y-34784D01*
X-32874D01*
X-32874Y-37539D01*
D02*
G37*
G36*
X-4783Y-42126D02*
X-7539Y-42126D01*
X-8760D01*
Y-41220D01*
X-7539D01*
X-4783Y-41220D01*
X-4783Y-42126D01*
D02*
G37*
G36*
X-37461Y-41220D02*
X-36240D01*
Y-42126D01*
X-37461D01*
X-40216Y-42126D01*
X-40216Y-41220D01*
X-37461Y-41220D01*
D02*
G37*
G36*
X49799Y-40256D02*
X49799Y-42618D01*
X48618D01*
Y-40256D01*
X49799Y-40256D01*
D02*
G37*
G36*
X-4783Y-44095D02*
X-8760D01*
X-8760Y-43189D01*
X-7512Y-43189D01*
X-4783Y-43189D01*
Y-44095D01*
D02*
G37*
G36*
X-36240D02*
X-40216D01*
X-40216Y-43189D01*
X-36240D01*
Y-44095D01*
D02*
G37*
G36*
X-4783Y-46063D02*
X-8760D01*
X-8760Y-45157D01*
X-7512Y-45157D01*
X-4783Y-45157D01*
X-4783Y-46063D01*
D02*
G37*
G36*
X-36240D02*
X-40216D01*
X-40216Y-45157D01*
X-37488Y-45157D01*
X-36240Y-45157D01*
Y-46063D01*
D02*
G37*
G36*
X-63130Y-46433D02*
Y-46629D01*
X-63268Y-46767D01*
X-63464D01*
X-63602Y-46629D01*
Y-46433D01*
X-63464Y-46295D01*
X-63268D01*
X-63130Y-46433D01*
D02*
G37*
G36*
X-37461Y-47126D02*
X-36240Y-47126D01*
Y-48032D01*
X-40216D01*
X-40216Y-47126D01*
X-37500Y-47126D01*
D01*
X-37481D01*
X-37461D01*
D01*
D02*
G37*
G36*
X39799Y-47618D02*
X38618D01*
Y-45256D01*
X39799D01*
Y-47618D01*
D02*
G37*
G36*
X-4783Y-48032D02*
X-7539Y-48032D01*
X-8760D01*
Y-47126D01*
X-4783D01*
X-4783Y-48032D01*
D02*
G37*
G36*
X-7500Y-49094D02*
X-4783Y-49094D01*
X-4783Y-50000D01*
X-7539Y-50000D01*
X-8760D01*
Y-49094D01*
X-7500D01*
D01*
D02*
G37*
G36*
X-37461D02*
X-36240D01*
X-36240Y-50000D01*
X-40216D01*
Y-49094D01*
X-37461Y-49094D01*
D02*
G37*
G36*
X-53917Y-51059D02*
X-57067Y-51059D01*
Y-46925D01*
X-53917D01*
X-53917Y-51059D01*
D02*
G37*
G36*
X-59823Y-46925D02*
X-59823Y-51059D01*
X-62972Y-51059D01*
Y-46925D01*
X-59823Y-46925D01*
D02*
G37*
G36*
X-37461Y-51063D02*
X-36240Y-51063D01*
Y-51969D01*
X-40216D01*
X-40216Y-51063D01*
X-37500Y-51063D01*
D01*
X-37488D01*
X-37461D01*
D01*
D02*
G37*
G36*
X94091Y-51181D02*
X92909D01*
Y-48819D01*
X94091D01*
Y-51181D01*
D02*
G37*
G36*
X-7507Y-51063D02*
X-4783Y-51063D01*
X-4783Y-51969D01*
X-8760D01*
Y-51063D01*
X-7507Y-51063D01*
D02*
G37*
G36*
X49799Y-52618D02*
X48618Y-52618D01*
Y-50256D01*
X49799D01*
Y-52618D01*
D02*
G37*
G36*
X-36240Y-53937D02*
X-40216D01*
Y-53031D01*
X-36240D01*
X-36240Y-53937D01*
D02*
G37*
G36*
X-4783D02*
X-7500Y-53937D01*
D01*
X-8760D01*
Y-53031D01*
X-4783D01*
X-4783Y-53937D01*
D02*
G37*
G36*
X-37461Y-55000D02*
X-36240Y-55000D01*
Y-55906D01*
X-37461Y-55906D01*
D01*
X-37481D01*
X-37500D01*
D01*
X-40216Y-55906D01*
X-40216Y-55000D01*
X-37461D01*
D01*
D02*
G37*
G36*
X-4783Y-55906D02*
X-7500D01*
X-8760Y-55906D01*
Y-55000D01*
X-7539D01*
X-4783Y-55000D01*
X-4783Y-55906D01*
D02*
G37*
G36*
X-36240Y-57874D02*
X-37500D01*
D01*
X-40216Y-57874D01*
X-40216Y-56968D01*
X-37488Y-56968D01*
X-36240Y-56968D01*
X-36240Y-57874D01*
D02*
G37*
G36*
X-7500Y-56968D02*
X-4783Y-56968D01*
X-4783Y-57874D01*
X-7500Y-57874D01*
D01*
X-8760D01*
Y-56968D01*
X-7500D01*
D01*
D02*
G37*
G36*
X-53917Y-58736D02*
X-57067Y-58736D01*
X-57067Y-54602D01*
X-53917Y-54602D01*
Y-58736D01*
D02*
G37*
G36*
X-59823Y-58736D02*
X-62972Y-58736D01*
X-62972Y-54602D01*
X-59823D01*
X-59823Y-58736D01*
D02*
G37*
G36*
X-4783Y-59843D02*
X-7500Y-59843D01*
D01*
X-8760Y-59843D01*
Y-58937D01*
X-4783D01*
X-4783Y-59843D01*
D02*
G37*
G36*
X-36240Y-59843D02*
X-37461Y-59843D01*
D01*
X-37484D01*
X-37500D01*
D01*
X-40216Y-59843D01*
X-40216Y-58937D01*
X-36240D01*
Y-59843D01*
D02*
G37*
G36*
X94091Y-58819D02*
Y-61181D01*
X92909D01*
Y-58819D01*
X94091Y-58819D01*
D02*
G37*
G36*
X-4783Y-61811D02*
X-8760D01*
Y-60905D01*
X-7539Y-60905D01*
D01*
X-4783Y-60905D01*
Y-61811D01*
D02*
G37*
G36*
X-37481Y-60905D02*
X-36240Y-60905D01*
Y-61811D01*
X-37488Y-61811D01*
X-40216Y-61811D01*
X-40216Y-60905D01*
X-37481Y-60905D01*
D02*
G37*
G36*
X-4783Y-63780D02*
X-8760D01*
X-8760Y-62874D01*
X-7539D01*
X-4783Y-62874D01*
Y-63780D01*
D02*
G37*
G36*
X-37461Y-62874D02*
X-36240D01*
X-36240Y-63780D01*
X-40216D01*
X-40216Y-62874D01*
X-37461Y-62874D01*
D02*
G37*
G36*
X64563Y-65492D02*
X59839D01*
X59839Y-64311D01*
X64563Y-64311D01*
X64563Y-65492D01*
D02*
G37*
G36*
X33500Y-65394D02*
Y-65590D01*
X33362Y-65728D01*
X33166D01*
X33028Y-65590D01*
Y-65394D01*
X33166Y-65256D01*
X33362D01*
X33500Y-65394D01*
D02*
G37*
G36*
X-11220Y-66240D02*
X-11220Y-67488D01*
X-11220Y-70217D01*
X-12126D01*
X-12126Y-67461D01*
Y-66240D01*
X-11220Y-66240D01*
D02*
G37*
G36*
X-32874D02*
X-32874Y-67488D01*
X-32874Y-70217D01*
X-33780D01*
X-33780Y-67461D01*
Y-66240D01*
X-32874Y-66240D01*
D02*
G37*
G36*
X-13189Y-67461D02*
X-13189Y-70217D01*
X-14095Y-70217D01*
X-14095Y-67461D01*
Y-66240D01*
X-13189Y-66240D01*
Y-67461D01*
D02*
G37*
G36*
X-15157Y-66240D02*
Y-67500D01*
Y-70217D01*
X-16063Y-70217D01*
Y-67500D01*
Y-66240D01*
X-15157Y-66240D01*
D02*
G37*
G36*
X-17126Y-67461D02*
D01*
Y-67488D01*
Y-67500D01*
D01*
X-17126Y-70217D01*
X-18032D01*
X-18032Y-67500D01*
D01*
Y-67488D01*
Y-67461D01*
D01*
X-18032Y-66240D01*
X-17126D01*
X-17126Y-67461D01*
D02*
G37*
G36*
X-19094Y-66240D02*
X-19094Y-67500D01*
D01*
X-19094Y-70217D01*
X-20000Y-70217D01*
X-20000Y-67461D01*
Y-66240D01*
X-19094Y-66240D01*
D02*
G37*
G36*
X-21063D02*
X-21063Y-67461D01*
D01*
Y-67488D01*
Y-67500D01*
D01*
X-21063Y-70217D01*
X-21969D01*
Y-67500D01*
Y-66240D01*
X-21063Y-66240D01*
D02*
G37*
G36*
X-23031D02*
X-23031Y-67488D01*
X-23031Y-70217D01*
X-23937D01*
Y-67500D01*
Y-66240D01*
X-23031Y-66240D01*
D02*
G37*
G36*
X-25000Y-67461D02*
Y-70217D01*
X-25906Y-70217D01*
X-25906Y-67500D01*
D01*
Y-67488D01*
Y-67461D01*
D01*
X-25906Y-66240D01*
X-25000D01*
Y-67461D01*
D02*
G37*
G36*
X-26968Y-66240D02*
Y-67461D01*
X-26968Y-70217D01*
X-27874Y-70217D01*
X-27874Y-67500D01*
D01*
Y-66240D01*
X-26968Y-66240D01*
D02*
G37*
G36*
X-28937Y-67500D02*
D01*
X-28937Y-70217D01*
X-29843Y-70217D01*
Y-67500D01*
Y-66240D01*
X-28937Y-66240D01*
Y-67500D01*
D02*
G37*
G36*
X-30905Y-67488D02*
X-30905Y-70217D01*
X-31811Y-70217D01*
X-31811Y-67488D01*
X-31811Y-66240D01*
X-30905D01*
X-30905Y-67488D01*
D02*
G37*
G36*
X-4547Y-70119D02*
Y-70314D01*
X-4686Y-70453D01*
X-4881D01*
X-5020Y-70314D01*
Y-70119D01*
X-4881Y-69980D01*
X-4686D01*
X-4547Y-70119D01*
D02*
G37*
D77*
X-55382Y77705D02*
X-48886Y77705D01*
Y79280D01*
X-22114D01*
Y77705D02*
Y79280D01*
Y77705D02*
X-15421Y77705D01*
Y66681D02*
Y77705D01*
X-22114Y66681D02*
X-15421Y66681D01*
X-22114Y62744D02*
Y66681D01*
X-48886Y62744D02*
X-22114D01*
X-48886D02*
Y66681D01*
X-55382Y66681D02*
X-48886Y66681D01*
X-55382Y66681D02*
Y77705D01*
X-116571Y60240D02*
X-100429D01*
Y27760D02*
Y60240D01*
X-116571Y27760D02*
X-100429D01*
X-116571D02*
Y60240D01*
Y23740D02*
X-100429D01*
Y-8740D02*
Y23740D01*
X-116571Y-8740D02*
X-100429D01*
X-116571D02*
Y23740D01*
X23225Y3743D02*
Y66735D01*
Y3743D02*
X117713D01*
Y66735D01*
X23225D02*
X117713D01*
X-36279Y-66280D02*
Y-38721D01*
X-8721D01*
X-8721Y-66280D01*
X-36279D02*
X-8721D01*
X117122Y-65492D02*
Y-2342D01*
X33264Y-2342D02*
X117122Y-2342D01*
X33264Y-65492D02*
X33264Y-2342D01*
X33264Y-65492D02*
X117122D01*
X-63366Y-59129D02*
Y-46531D01*
Y-59129D02*
X-53523D01*
X-53523Y-46531D01*
X-63366D02*
X-53523D01*
X-45685Y38185D02*
X-6315D01*
X-45685Y-1185D02*
Y38185D01*
Y-1185D02*
X-6315D01*
Y38185D01*
X-2843Y78843D02*
X16842D01*
Y59158D02*
Y78843D01*
X-2843Y59158D02*
X16842D01*
X-2843D02*
Y78843D01*
X-67421Y18701D02*
Y31299D01*
Y18701D02*
X-57578D01*
Y31299D01*
X-67421D02*
X-57578D01*
X-95350Y-24209D02*
Y-12791D01*
X-101650Y-12791D02*
X-95350Y-12791D01*
X-101650Y-24209D02*
Y-12791D01*
Y-24209D02*
X-95350D01*
X-78149D02*
Y-12791D01*
Y-24209D02*
X-71850Y-24208D01*
Y-12791D01*
X-78149Y-12791D02*
X-71850Y-12791D01*
X-73374Y-2209D02*
X-57626D01*
Y9209D01*
X-73374D02*
X-57626D01*
X-73374Y-2209D02*
Y9209D01*
X-78445Y-32559D02*
Y-27441D01*
X-71752D01*
Y-32559D02*
Y-27441D01*
X-78445Y-32559D02*
X-71752Y-32559D01*
M02*
