G04*
G04 #@! TF.GenerationSoftware,Altium Limited,Altium Designer,20.0.2 (26)*
G04*
G04 Layer_Color=8388736*
%FSLAX25Y25*%
%MOIN*%
G70*
G01*
G75*
%ADD10C,0.01000*%
%ADD11C,0.01575*%
%ADD12C,0.01181*%
%ADD14C,0.00787*%
%ADD74C,0.01968*%
%ADD75C,0.05512*%
%ADD76C,0.00945*%
G36*
X16842Y59158D02*
X11724D01*
X16842Y63882D01*
Y59158D01*
D02*
G37*
G36*
X-69000Y31500D02*
Y34000D01*
X-66500D01*
X-69000Y31500D01*
D02*
G37*
G36*
X-70177Y-30276D02*
X-72634D01*
Y-29661D01*
X-70177D01*
Y-30276D01*
D02*
G37*
G36*
X-78650Y-29740D02*
X-77720D01*
Y-30354D01*
X-78650D01*
Y-32087D01*
X-79264Y-32087D01*
Y-30354D01*
X-80177D01*
Y-29740D01*
X-79264D01*
Y-27992D01*
X-78650Y-27992D01*
Y-29740D01*
D02*
G37*
G36*
X-64945Y-46330D02*
X-64945Y-43830D01*
X-62445D01*
X-64945Y-46330D01*
D02*
G37*
D10*
X-96850Y51250D02*
G03*
X-96850Y51250I-500J0D01*
G01*
Y14750D02*
G03*
X-96850Y14750I-500J0D01*
G01*
D11*
X-26445Y58217D02*
G03*
X-26445Y58217I-787J0D01*
G01*
D12*
X-3208Y-63327D02*
G03*
X-3208Y-63327I-591J0D01*
G01*
X-50291Y33303D02*
G03*
X-50291Y33303I-591J0D01*
G01*
X-93539Y-23422D02*
G03*
X-93539Y-23422I-591J0D01*
G01*
X-78779Y-13578D02*
G03*
X-78779Y-13578I-591J0D01*
G01*
D14*
X47221Y-53720D02*
G03*
X47221Y-53720I-394J0D01*
G01*
D74*
X85612Y68227D02*
G03*
X85612Y68227I-984J0D01*
G01*
X-60961Y-47330D02*
G03*
X-60961Y-47330I-984J0D01*
G01*
X-65016Y30501D02*
G03*
X-65016Y30501I-984J0D01*
G01*
D75*
X76965Y-11417D02*
G03*
X76965Y-11417I-2756J0D01*
G01*
Y-56417D02*
G03*
X76965Y-56417I-2756J0D01*
G01*
D76*
X-3552Y76480D02*
G03*
X-3552Y76480I-472J0D01*
G01*
M02*
