G04*
G04 #@! TF.GenerationSoftware,Altium Limited,Altium Designer,20.0.2 (26)*
G04*
G04 Layer_Color=2752767*
%FSLAX25Y25*%
%MOIN*%
G70*
G01*
G75*
%ADD77C,0.00200*%
%ADD78C,0.00267*%
D77*
X111405Y72035D02*
Y73635D01*
X113005D01*
Y72035D01*
X111405D01*
Y-73635D02*
Y-72035D01*
X113005D01*
Y-73635D01*
X111405D01*
X-113005D02*
Y-72035D01*
X-111405D01*
Y-73635D01*
X-113005D01*
Y72035D02*
Y73635D01*
X-111405D01*
Y72035D01*
X-113005D01*
X93500Y-8634D02*
X92700Y-7034D01*
X94300D01*
X93500Y-8634D01*
Y-18634D02*
X92700Y-17034D01*
X94300D01*
X93500Y-18634D01*
Y-50800D02*
X92700Y-49200D01*
X94300D01*
X93500Y-50800D01*
Y-60800D02*
X92700Y-59200D01*
X94300D01*
X93500Y-60800D01*
X39209Y-17237D02*
X39609Y-16838D01*
X40009D01*
X39609Y-16438D01*
X40009Y-16037D01*
X39609D01*
X39209Y-15638D01*
X38809Y-16037D01*
X38409D01*
X38809Y-16438D01*
X38409Y-16838D01*
X38809D01*
X39209Y-17237D01*
X49209Y-22238D02*
X49609Y-21837D01*
X50009D01*
X49609Y-21438D01*
X50009Y-21037D01*
X49609D01*
X49209Y-20638D01*
X48809Y-21037D01*
X48409D01*
X48809Y-21438D01*
X48409Y-21837D01*
X48809D01*
X49209Y-22238D01*
X39209Y-27237D02*
X39609Y-26838D01*
X40009D01*
X39609Y-26438D01*
X40009Y-26037D01*
X39609D01*
X39209Y-25638D01*
X38809Y-26037D01*
X38409D01*
X38809Y-26438D01*
X38409Y-26838D01*
X38809D01*
X39209Y-27237D01*
X49209Y-32237D02*
X49609Y-31837D01*
X50009D01*
X49609Y-31438D01*
X50009Y-31038D01*
X49609D01*
X49209Y-30637D01*
X48809Y-31038D01*
X48409D01*
X48809Y-31438D01*
X48409Y-31837D01*
X48809D01*
X49209Y-32237D01*
X39209Y-37238D02*
X39609Y-36838D01*
X40009D01*
X39609Y-36437D01*
X40009Y-36037D01*
X39609D01*
X39209Y-35638D01*
X38809Y-36037D01*
X38409D01*
X38809Y-36437D01*
X38409Y-36838D01*
X38809D01*
X39209Y-37238D01*
X49209Y-42237D02*
X49609Y-41837D01*
X50009D01*
X49609Y-41438D01*
X50009Y-41037D01*
X49609D01*
X49209Y-40637D01*
X48809Y-41037D01*
X48409D01*
X48809Y-41438D01*
X48409Y-41837D01*
X48809D01*
X49209Y-42237D01*
X39209Y-47238D02*
X39609Y-46837D01*
X40009D01*
X39609Y-46437D01*
X40009Y-46038D01*
X39609D01*
X39209Y-45638D01*
X38809Y-46038D01*
X38409D01*
X38809Y-46437D01*
X38409Y-46837D01*
X38809D01*
X39209Y-47238D01*
X49209Y-52237D02*
X49609Y-51837D01*
X50009D01*
X49609Y-51437D01*
X50009Y-51037D01*
X49609D01*
X49209Y-50637D01*
X48809Y-51037D01*
X48409D01*
X48809Y-51437D01*
X48409Y-51837D01*
X48809D01*
X49209Y-52237D01*
X-95442Y-35922D02*
X-95042Y-35122D01*
X-95442Y-34322D01*
X-94642Y-34722D01*
X-93842Y-34322D01*
X-94242Y-35122D01*
X-93842Y-35922D01*
X-94642Y-35522D01*
X-95442Y-35922D01*
X-95442Y-58678D02*
X-95042Y-57878D01*
X-95442Y-57078D01*
X-94642Y-57478D01*
X-93842Y-57078D01*
X-94242Y-57878D01*
X-93842Y-58678D01*
X-94642Y-58278D01*
X-95442Y-58678D01*
X-108821Y-63928D02*
Y-64328D01*
X-108021D01*
Y-63928D01*
X-107621D01*
Y-63128D01*
X-108021D01*
Y-62728D01*
X-108821D01*
Y-63128D01*
X-109221D01*
Y-63928D01*
X-108821D01*
Y-29872D02*
Y-30272D01*
X-108021D01*
Y-29872D01*
X-107621D01*
Y-29072D01*
X-108021D01*
Y-28672D01*
X-108821D01*
Y-29072D01*
X-109221D01*
Y-29872D01*
X-108821D01*
X-93473Y-64328D02*
X-93073D01*
X-92673Y-63928D01*
X-92273Y-64328D01*
X-91873D01*
Y-63928D01*
X-92273Y-63528D01*
X-91873Y-63128D01*
Y-62728D01*
X-92273D01*
X-92673Y-63128D01*
X-93073Y-62728D01*
X-93473D01*
Y-63128D01*
X-93073Y-63528D01*
X-93473Y-63928D01*
Y-64328D01*
X-93473Y-30272D02*
X-93073D01*
X-92673Y-29872D01*
X-92273Y-30272D01*
X-91873D01*
Y-29872D01*
X-92273Y-29472D01*
X-91873Y-29072D01*
Y-28672D01*
X-92273D01*
X-92673Y-29072D01*
X-93073Y-28672D01*
X-93473D01*
Y-29072D01*
X-93073Y-29472D01*
X-93473Y-29872D01*
Y-30272D01*
X-44800Y-61500D02*
X-44000Y-60700D01*
X-43200Y-61500D01*
X-44000Y-62300D01*
X-44800Y-61500D01*
X-38800Y55500D02*
X-38000Y56300D01*
X-37200Y55500D01*
X-38000Y54700D01*
X-38800Y55500D01*
X-69995Y20920D02*
X-69195Y21720D01*
X-68395Y20920D01*
X-69195Y20120D01*
X-69995Y20920D01*
X-56605Y29081D02*
X-55805Y29880D01*
X-55005Y29081D01*
X-55805Y28280D01*
X-56605Y29081D01*
X-67800Y-32000D02*
X-67000Y-31200D01*
X-66200Y-32000D01*
X-67000Y-32800D01*
X-67800Y-32000D01*
Y-29500D02*
X-67000Y-28700D01*
X-66200Y-29500D01*
X-67000Y-30300D01*
X-67800Y-29500D01*
Y-27000D02*
X-67000Y-26200D01*
X-66200Y-27000D01*
X-67000Y-27800D01*
X-67800Y-27000D01*
X-44753Y-49547D02*
X-43953Y-48747D01*
X-43153Y-49547D01*
X-43953Y-50347D01*
X-44753Y-49547D01*
X18985Y-33500D02*
X19785Y-32700D01*
X20585Y-33500D01*
X19785Y-34300D01*
X18985Y-33500D01*
X25080Y5758D02*
X25880Y6558D01*
X26680Y5758D01*
X25880Y4958D01*
X25080Y5758D01*
X19095Y62254D02*
X19895Y63054D01*
X20696Y62254D01*
X19895Y61454D01*
X19095Y62254D01*
X-10050Y66285D02*
X-9250Y67085D01*
X-8450Y66285D01*
X-9250Y65485D01*
X-10050Y66285D01*
X-97550Y67250D02*
X-96750Y68050D01*
X-95950Y67250D01*
X-96750Y66450D01*
X-97550Y67250D01*
X-94550Y9750D02*
X-93750Y10550D01*
X-92950Y9750D01*
X-93750Y8950D01*
X-94550Y9750D01*
X-95050Y46250D02*
X-94250Y47050D01*
X-93450Y46250D01*
X-94250Y45450D01*
X-95050Y46250D01*
X-59018Y-9121D02*
X-58218Y-8321D01*
X-57418Y-9121D01*
X-58218Y-9921D01*
X-59018Y-9121D01*
X-85550Y-24715D02*
X-84750Y-23915D01*
X-83950Y-24715D01*
X-84750Y-25515D01*
X-85550Y-24715D01*
X-114050Y-12285D02*
X-113250Y-11485D01*
X-112450Y-12285D01*
X-113250Y-13085D01*
X-114050Y-12285D01*
X-87050Y-30250D02*
X-86250Y-29450D01*
X-85450Y-30250D01*
X-86250Y-31050D01*
X-87050Y-30250D01*
X-85050Y-59250D02*
X-84250Y-58450D01*
X-83450Y-59250D01*
X-84250Y-60050D01*
X-85050Y-59250D01*
X-48550Y-69715D02*
X-47750Y-68915D01*
X-46950Y-69715D01*
X-47750Y-70515D01*
X-48550Y-69715D01*
X-65940Y-56911D02*
X-65140Y-56111D01*
X-64340Y-56911D01*
X-65140Y-57711D01*
X-65940Y-56911D01*
X-55300Y-45000D02*
X-54500Y-44200D01*
X-53700Y-45000D01*
X-54500Y-45800D01*
X-55300Y-45000D01*
X-52300Y-39500D02*
X-51500Y-38700D01*
X-50700Y-39500D01*
X-51500Y-40300D01*
X-52300Y-39500D01*
X-38800Y-10000D02*
X-38000Y-9200D01*
X-37200Y-10000D01*
X-38000Y-10800D01*
X-38800Y-10000D01*
X-9800Y-32500D02*
X-9000Y-31700D01*
X-8200Y-32500D01*
X-9000Y-33300D01*
X-9800Y-32500D01*
X-7800Y-22500D02*
X-7000Y-21700D01*
X-6200Y-22500D01*
X-7000Y-23300D01*
X-7800Y-22500D01*
Y-5000D02*
X-7000Y-4200D01*
X-6200Y-5000D01*
X-7000Y-5800D01*
X-7800Y-5000D01*
X-83300Y-5500D02*
X-82500Y-4700D01*
X-81700Y-5500D01*
X-82500Y-6300D01*
X-83300Y-5500D01*
X-101132Y-22059D02*
X-100332Y-21259D01*
X-99532Y-22059D01*
X-100332Y-22859D01*
X-101132Y-22059D01*
X-94300Y-10000D02*
X-93500Y-9200D01*
X-92700Y-10000D01*
X-93500Y-10800D01*
X-94300Y-10000D01*
X-54300Y-2000D02*
X-53500Y-1200D01*
X-52700Y-2000D01*
X-53500Y-2800D01*
X-54300Y-2000D01*
X-70300Y-12000D02*
X-69500Y-11200D01*
X-68700Y-12000D01*
X-69500Y-12800D01*
X-70300Y-12000D01*
X-54300Y9500D02*
X-53500Y10300D01*
X-52700Y9500D01*
X-53500Y8700D01*
X-54300Y9500D01*
X-40800Y23000D02*
X-40000Y23800D01*
X-39200Y23000D01*
X-40000Y22200D01*
X-40800Y23000D01*
X-49800Y-10307D02*
X-49000Y-9507D01*
X-48200Y-10307D01*
X-49000Y-11107D01*
X-49800Y-10307D01*
X2200Y75500D02*
X3000Y76300D01*
X3800Y75500D01*
X3000Y74700D01*
X2200Y75500D01*
X-49300Y58500D02*
X-48500Y59300D01*
X-47700Y58500D01*
X-48500Y57700D01*
X-49300Y58500D01*
X-35050Y15750D02*
X-34250Y16550D01*
X-33450Y15750D01*
X-34250Y14950D01*
X-35050Y15750D01*
X-36800Y13000D02*
X-36000Y13800D01*
X-35200Y13000D01*
X-36000Y12200D01*
X-36800Y13000D01*
X-40300Y11000D02*
X-39500Y11800D01*
X-38700Y11000D01*
X-39500Y10200D01*
X-40300Y11000D01*
X-42800D02*
X-42000Y11800D01*
X-41200Y11000D01*
X-42000Y10200D01*
X-42800Y11000D01*
X-92800Y1500D02*
X-92000Y2300D01*
X-91200Y1500D01*
X-92000Y700D01*
X-92800Y1500D01*
Y4000D02*
X-92000Y4800D01*
X-91200Y4000D01*
X-92000Y3200D01*
X-92800Y4000D01*
X-93300Y40500D02*
X-92500Y41300D01*
X-91700Y40500D01*
X-92500Y39700D01*
X-93300Y40500D01*
Y37500D02*
X-92500Y38300D01*
X-91700Y37500D01*
X-92500Y36700D01*
X-93300Y37500D01*
X-82300Y63000D02*
X-81500Y63800D01*
X-80700Y63000D01*
X-81500Y62200D01*
X-82300Y63000D01*
X-69300Y63500D02*
X-68500Y64300D01*
X-67700Y63500D01*
X-68500Y62700D01*
X-69300Y63500D01*
X-37800Y51500D02*
X-37000Y52300D01*
X-36200Y51500D01*
X-37000Y50700D01*
X-37800Y51500D01*
X-39800Y49500D02*
X-39000Y50300D01*
X-38200Y49500D01*
X-39000Y48700D01*
X-39800Y49500D01*
X-70300Y75500D02*
X-69500Y76300D01*
X-68700Y75500D01*
X-69500Y74700D01*
X-70300Y75500D01*
X-45300Y72000D02*
X-44500Y72800D01*
X-43700Y72000D01*
X-44500Y71200D01*
X-45300Y72000D01*
X-12300Y25000D02*
X-11500Y25800D01*
X-10700Y25000D01*
X-11500Y24200D01*
X-12300Y25000D01*
Y27500D02*
X-11500Y28300D01*
X-10700Y27500D01*
X-11500Y26700D01*
X-12300Y27500D01*
X-69800Y-48500D02*
X-69000Y-47700D01*
X-68200Y-48500D01*
X-69000Y-49300D01*
X-69800Y-48500D01*
Y-43500D02*
X-69000Y-42700D01*
X-68200Y-43500D01*
X-69000Y-44300D01*
X-69800Y-43500D01*
X-36300Y-13000D02*
X-35500Y-12200D01*
X-34700Y-13000D01*
X-35500Y-13800D01*
X-36300Y-13000D01*
X-40800Y-38000D02*
X-40000Y-37200D01*
X-39200Y-38000D01*
X-40000Y-38800D01*
X-40800Y-38000D01*
X74200Y-72000D02*
X75000Y-71200D01*
X75800Y-72000D01*
X75000Y-72800D01*
X74200Y-72000D01*
X76700Y-75000D02*
X77500Y-74200D01*
X78300Y-75000D01*
X77500Y-75800D01*
X76700Y-75000D01*
X89200Y-70000D02*
X90000Y-69200D01*
X90800Y-70000D01*
X90000Y-70800D01*
X89200Y-70000D01*
X-44800Y-46000D02*
X-44000Y-45200D01*
X-43200Y-46000D01*
X-44000Y-46800D01*
X-44800Y-46000D01*
X-44300Y-41000D02*
X-43500Y-40200D01*
X-42700Y-41000D01*
X-43500Y-41800D01*
X-44300Y-41000D01*
X10700Y75500D02*
X11500Y76300D01*
X12300Y75500D01*
X11500Y74700D01*
X10700Y75500D01*
X-14402Y32897D02*
X-13602Y33698D01*
X-12802Y32897D01*
X-13602Y32098D01*
X-14402Y32897D01*
X3700Y17500D02*
X4500Y18300D01*
X5300Y17500D01*
X4500Y16700D01*
X3700Y17500D01*
X83700Y58500D02*
X84500Y59300D01*
X85300Y58500D01*
X84500Y57700D01*
X83700Y58500D01*
X1604Y-5000D02*
X2404Y-4200D01*
X3204Y-5000D01*
X2404Y-5800D01*
X1604Y-5000D01*
X81700Y14000D02*
X82500Y14800D01*
X83300Y14000D01*
X82500Y13200D01*
X81700Y14000D01*
X77200D02*
X78000Y14800D01*
X78800Y14000D01*
X78000Y13200D01*
X77200Y14000D01*
X6700Y24500D02*
X7500Y25300D01*
X8300Y24500D01*
X7500Y23700D01*
X6700Y24500D01*
Y20500D02*
X7500Y21300D01*
X8300Y20500D01*
X7500Y19700D01*
X6700Y20500D01*
X28735Y-22150D02*
X29535Y-21350D01*
X30335Y-22150D01*
X29535Y-22950D01*
X28735Y-22150D01*
X18665Y-44850D02*
X19465Y-44050D01*
X20265Y-44850D01*
X19465Y-45650D01*
X18665Y-44850D01*
X18700Y-61500D02*
X19500Y-60700D01*
X20300Y-61500D01*
X19500Y-62300D01*
X18700Y-61500D01*
X18200Y-22500D02*
X19000Y-21700D01*
X19800Y-22500D01*
X19000Y-23300D01*
X18200Y-22500D01*
X-21300Y-12500D02*
X-20500Y-11700D01*
X-19700Y-12500D01*
X-20500Y-13300D01*
X-21300Y-12500D01*
X-24300Y-15500D02*
X-23500Y-14700D01*
X-22700Y-15500D01*
X-23500Y-16300D01*
X-24300Y-15500D01*
X-27300Y-14000D02*
X-26500Y-13200D01*
X-25700Y-14000D01*
X-26500Y-14800D01*
X-27300Y-14000D01*
X-30300Y-17000D02*
X-29500Y-16200D01*
X-28700Y-17000D01*
X-29500Y-17800D01*
X-30300Y-17000D01*
X-33800Y-16500D02*
X-33000Y-15700D01*
X-32200Y-16500D01*
X-33000Y-17300D01*
X-33800Y-16500D01*
X-17800Y-58000D02*
X-17000Y-57200D01*
X-16200Y-58000D01*
X-17000Y-58800D01*
X-17800Y-58000D01*
X-20800Y-56500D02*
X-20000Y-55700D01*
X-19200Y-56500D01*
X-20000Y-57300D01*
X-20800Y-56500D01*
X-24300Y-56000D02*
X-23500Y-55200D01*
X-22700Y-56000D01*
X-23500Y-56800D01*
X-24300Y-56000D01*
X-34177Y-65623D02*
X-33377Y-64823D01*
X-32577Y-65623D01*
X-33377Y-66423D01*
X-34177Y-65623D01*
X-27300Y-54500D02*
X-26500Y-53700D01*
X-25700Y-54500D01*
X-26500Y-55300D01*
X-27300Y-54500D01*
X-31300Y-54000D02*
X-30500Y-53200D01*
X-29700Y-54000D01*
X-30500Y-54800D01*
X-31300Y-54000D01*
D78*
X63001Y-3425D02*
G03*
X63001Y-3425I-800J0D01*
G01*
Y-64409D02*
G03*
X63001Y-64409I-800J0D01*
G01*
M02*
