G04*
G04 #@! TF.GenerationSoftware,Altium Limited,Altium Designer,20.0.2 (26)*
G04*
G04 Layer_Physical_Order=2*
G04 Layer_Color=16711680*
%FSLAX25Y25*%
%MOIN*%
G70*
G01*
G75*
%ADD10C,0.01000*%
%ADD18C,0.00800*%
%ADD60C,0.02000*%
%ADD61C,0.01200*%
%ADD64C,0.09843*%
%ADD65C,0.09843*%
%ADD66C,0.07087*%
%ADD67C,0.06299*%
%ADD68R,0.06299X0.06299*%
%ADD69C,0.02559*%
%ADD70O,0.06299X0.03937*%
%ADD71O,0.08268X0.03937*%
%ADD72C,0.01800*%
G36*
X87500Y83D02*
X87604Y-21D01*
X117569D01*
Y-70076D01*
X117079Y-70174D01*
X117027Y-70050D01*
X116142Y-68897D01*
X114989Y-68012D01*
X113646Y-67456D01*
X112205Y-67266D01*
X110763Y-67456D01*
X109420Y-68012D01*
X108267Y-68897D01*
X107382Y-70050D01*
X106826Y-71393D01*
X106636Y-72835D01*
X106826Y-74276D01*
X107382Y-75619D01*
X108267Y-76772D01*
X109420Y-77658D01*
X109544Y-77709D01*
X109446Y-78199D01*
X-109446D01*
X-109544Y-77709D01*
X-109420Y-77658D01*
X-108267Y-76772D01*
X-107382Y-75619D01*
X-106826Y-74276D01*
X-106636Y-72835D01*
X-106826Y-71393D01*
X-107382Y-70050D01*
X-108267Y-68897D01*
X-109420Y-68012D01*
X-110763Y-67456D01*
X-112205Y-67266D01*
X-113646Y-67456D01*
X-114989Y-68012D01*
X-116142Y-68897D01*
X-117027Y-70050D01*
X-117079Y-70174D01*
X-117569Y-70076D01*
X-117569Y70076D01*
X-117079Y70174D01*
X-117027Y70050D01*
X-116142Y68897D01*
X-114989Y68012D01*
X-113646Y67456D01*
X-112205Y67266D01*
X-110763Y67456D01*
X-109420Y68012D01*
X-108267Y68897D01*
X-107382Y70050D01*
X-106826Y71393D01*
X-106636Y72835D01*
X-106826Y74276D01*
X-107382Y75619D01*
X-108267Y76772D01*
X-109420Y77658D01*
X-109544Y77709D01*
X-109446Y78199D01*
X87500D01*
Y83D01*
D02*
G37*
%LPC*%
G36*
X-69500Y77029D02*
X-70085Y76913D01*
X-70581Y76581D01*
X-70913Y76085D01*
X-71029Y75500D01*
X-70913Y74915D01*
X-70581Y74419D01*
X-70085Y74087D01*
X-69751Y74020D01*
X-66865Y71135D01*
X-66468Y70870D01*
X-66000Y70776D01*
X-45369D01*
X-45085Y70587D01*
X-44500Y70471D01*
X-43915Y70587D01*
X-43419Y70919D01*
X-43087Y71415D01*
X-42971Y72000D01*
X-43087Y72585D01*
X-43419Y73081D01*
X-43915Y73413D01*
X-44500Y73529D01*
X-45085Y73413D01*
X-45369Y73224D01*
X-65493D01*
X-68020Y75751D01*
X-68087Y76085D01*
X-68419Y76581D01*
X-68915Y76913D01*
X-69500Y77029D01*
D02*
G37*
G36*
X-68500Y65029D02*
X-69085Y64913D01*
X-69581Y64581D01*
X-69913Y64085D01*
X-70029Y63500D01*
X-69913Y62915D01*
X-69616Y62470D01*
X-69536Y62071D01*
X-69293Y61707D01*
X-67708Y60122D01*
X-67915Y59622D01*
X-79035D01*
X-80345Y60932D01*
X-80326Y61589D01*
X-80297Y61929D01*
X-80282Y62031D01*
X-80270Y62085D01*
X-80255Y62131D01*
X-80257Y62160D01*
X-80087Y62415D01*
X-79971Y63000D01*
X-80087Y63585D01*
X-80419Y64081D01*
X-80915Y64413D01*
X-81500Y64529D01*
X-82085Y64413D01*
X-82581Y64081D01*
X-82913Y63585D01*
X-83029Y63000D01*
X-82913Y62415D01*
X-82743Y62160D01*
X-82745Y62131D01*
X-82730Y62085D01*
X-82724Y62058D01*
X-82651Y60807D01*
X-82649Y60497D01*
X-82595Y60368D01*
X-82536Y60071D01*
X-82293Y59707D01*
X-80293Y57707D01*
X-80293Y57707D01*
X-79929Y57464D01*
X-79500Y57378D01*
X-79500Y57378D01*
X-67965D01*
X-59293Y48707D01*
X-59293Y48707D01*
X-58929Y48464D01*
X-58500Y48378D01*
X-40021D01*
X-39585Y48087D01*
X-39000Y47971D01*
X-38415Y48087D01*
X-37919Y48419D01*
X-37587Y48915D01*
X-37471Y49500D01*
X-37482Y49557D01*
X-37057Y49982D01*
X-37000Y49971D01*
X-36415Y50087D01*
X-35919Y50419D01*
X-35587Y50915D01*
X-35471Y51500D01*
X-35587Y52085D01*
X-35919Y52581D01*
X-36415Y52913D01*
X-37000Y53029D01*
X-37585Y52913D01*
X-38021Y52622D01*
X-57035D01*
X-67184Y62770D01*
X-67087Y62915D01*
X-66971Y63500D01*
X-67087Y64085D01*
X-67419Y64581D01*
X-67915Y64913D01*
X-68500Y65029D01*
D02*
G37*
G36*
X3000Y77131D02*
X-29500D01*
X-30124Y77007D01*
X-30654Y76653D01*
X-47176Y60131D01*
X-48500D01*
X-49124Y60007D01*
X-49654Y59654D01*
X-50007Y59124D01*
X-50131Y58500D01*
X-50007Y57876D01*
X-49654Y57346D01*
X-49124Y56993D01*
X-48500Y56869D01*
X-46500D01*
X-45876Y56993D01*
X-45347Y57346D01*
X-28824Y73869D01*
X3000D01*
X3624Y73993D01*
X4154Y74347D01*
X4507Y74876D01*
X4631Y75500D01*
X4507Y76124D01*
X4154Y76653D01*
X3624Y77007D01*
X3000Y77131D01*
D02*
G37*
G36*
X11500Y77029D02*
X10915Y76913D01*
X10419Y76581D01*
X10087Y76085D01*
X9971Y75500D01*
X10087Y74915D01*
X10378Y74479D01*
Y40965D01*
X3433Y34019D01*
X-12581D01*
X-13017Y34310D01*
X-13602Y34427D01*
X-14188Y34310D01*
X-14684Y33979D01*
X-15015Y33483D01*
X-15132Y32897D01*
X-15015Y32312D01*
X-14684Y31816D01*
X-14188Y31484D01*
X-13602Y31368D01*
X-13017Y31484D01*
X-12581Y31776D01*
X3898D01*
X3898Y31776D01*
X4327Y31861D01*
X4691Y32105D01*
X12293Y39707D01*
X12293Y39707D01*
X12536Y40071D01*
X12622Y40500D01*
Y74479D01*
X12913Y74915D01*
X13029Y75500D01*
X12913Y76085D01*
X12581Y76581D01*
X12085Y76913D01*
X11500Y77029D01*
D02*
G37*
G36*
X84500Y60029D02*
X83915Y59913D01*
X83419Y59581D01*
X83087Y59085D01*
X82971Y58500D01*
X83087Y57915D01*
X83378Y57479D01*
Y31965D01*
X79535Y28122D01*
X6500D01*
X6500Y28122D01*
X6071Y28036D01*
X5707Y27793D01*
X5707Y27793D01*
X3707Y25793D01*
X3464Y25429D01*
X3378Y25000D01*
X3379Y25000D01*
Y18521D01*
X3087Y18085D01*
X2971Y17500D01*
X3087Y16915D01*
X3419Y16419D01*
X3915Y16087D01*
X4500Y15971D01*
X5085Y16087D01*
X5581Y16419D01*
X5913Y16915D01*
X6029Y17500D01*
X5913Y18085D01*
X5621Y18521D01*
Y19511D01*
X5710Y19578D01*
X6387Y19465D01*
X6419Y19419D01*
X6915Y19087D01*
X7500Y18971D01*
X8085Y19087D01*
X8581Y19419D01*
X8913Y19915D01*
X8926Y19979D01*
X9651Y20778D01*
X78035D01*
X78378Y20435D01*
Y16016D01*
X78215Y15864D01*
X77972Y15660D01*
X77885Y15596D01*
X77817Y15551D01*
X77783Y15532D01*
X77774Y15530D01*
X77766Y15525D01*
X77733Y15511D01*
X77702Y15480D01*
X77683Y15466D01*
X77415Y15413D01*
X76919Y15081D01*
X76587Y14585D01*
X76471Y14000D01*
X76587Y13415D01*
X76919Y12919D01*
X77415Y12587D01*
X78000Y12471D01*
X78585Y12587D01*
X79081Y12919D01*
X79413Y13415D01*
X79466Y13683D01*
X79480Y13702D01*
X79511Y13733D01*
X79524Y13766D01*
X79530Y13774D01*
X79532Y13783D01*
X79551Y13817D01*
X79582Y13864D01*
X79920Y14256D01*
X80101Y14320D01*
X80537Y14297D01*
X80596Y14262D01*
X80678Y14172D01*
X80856Y13955D01*
X80910Y13878D01*
X80948Y13817D01*
X80967Y13781D01*
X80971Y13761D01*
X80979Y13750D01*
X80985Y13735D01*
X81002Y13717D01*
X81037Y13666D01*
X81087Y13415D01*
X81419Y12919D01*
X81915Y12587D01*
X82500Y12471D01*
X83085Y12587D01*
X83581Y12919D01*
X83913Y13415D01*
X84029Y14000D01*
X83913Y14585D01*
X83581Y15081D01*
X83085Y15413D01*
X82834Y15463D01*
X82783Y15498D01*
X82765Y15515D01*
X82750Y15521D01*
X82739Y15529D01*
X82718Y15533D01*
X82683Y15552D01*
X82622Y15590D01*
X82554Y15638D01*
X82222Y15928D01*
Y21563D01*
X82222Y21563D01*
X82136Y21992D01*
X81893Y22356D01*
X79956Y24293D01*
X79592Y24536D01*
X79163Y24622D01*
X79163Y24622D01*
X9181D01*
X8962Y24841D01*
X8913Y25085D01*
X8717Y25379D01*
X8968Y25878D01*
X80000D01*
X80000Y25878D01*
X80429Y25964D01*
X80793Y26207D01*
X85293Y30707D01*
X85293Y30707D01*
X85536Y31071D01*
X85622Y31500D01*
X85622Y31500D01*
Y57479D01*
X85913Y57915D01*
X86029Y58500D01*
X85913Y59085D01*
X85581Y59581D01*
X85085Y59913D01*
X84500Y60029D01*
D02*
G37*
G36*
X-11500Y29029D02*
X-12085Y28913D01*
X-12581Y28581D01*
X-12746Y28334D01*
X-12754Y28330D01*
X-12758Y28329D01*
X-12770Y28320D01*
X-12826Y28288D01*
X-12834Y28278D01*
X-12892Y28251D01*
X-13034Y28207D01*
X-13241Y28163D01*
X-13496Y28126D01*
X-14632Y28054D01*
X-15101Y28049D01*
X-15154Y28027D01*
X-15211Y28039D01*
X-15241Y28020D01*
X-21328D01*
X-21719Y27942D01*
X-22049Y27721D01*
X-29221Y20549D01*
X-29442Y20219D01*
X-29520Y19828D01*
Y15922D01*
X-43221Y2221D01*
X-43442Y1890D01*
X-43520Y1500D01*
Y-32078D01*
X-45422Y-33980D01*
X-66627D01*
X-66749Y-33531D01*
X-66749Y-33528D01*
X-66415Y-33413D01*
X-66322Y-33351D01*
X-65919Y-33081D01*
X-65587Y-32585D01*
X-65471Y-32000D01*
X-65587Y-31415D01*
X-65919Y-30919D01*
Y-30581D01*
X-65587Y-30085D01*
X-65471Y-29500D01*
X-65587Y-28915D01*
X-65919Y-28419D01*
Y-28081D01*
X-65587Y-27585D01*
X-65471Y-27000D01*
X-65587Y-26415D01*
X-65919Y-25919D01*
X-66415Y-25587D01*
X-67000Y-25471D01*
X-67585Y-25587D01*
X-68081Y-25919D01*
X-68413Y-26415D01*
X-68529Y-27000D01*
X-68413Y-27585D01*
X-68081Y-28081D01*
Y-28419D01*
X-68413Y-28915D01*
X-68529Y-29500D01*
X-68413Y-30085D01*
X-68081Y-30581D01*
Y-30919D01*
X-68413Y-31415D01*
X-68529Y-32000D01*
X-68413Y-32585D01*
X-68081Y-33081D01*
X-67678Y-33351D01*
X-67585Y-33413D01*
X-67251Y-33528D01*
X-67251Y-33531D01*
X-67373Y-33980D01*
X-70000D01*
X-70390Y-34058D01*
X-70721Y-34279D01*
X-76221Y-39779D01*
X-76442Y-40110D01*
X-76520Y-40500D01*
Y-44828D01*
X-76442Y-45219D01*
X-76221Y-45549D01*
X-74049Y-47721D01*
X-73719Y-47942D01*
X-73328Y-48020D01*
X-70979D01*
X-70964Y-48036D01*
X-70750Y-48293D01*
X-70677Y-48395D01*
X-70618Y-48487D01*
X-70578Y-48562D01*
X-70554Y-48616D01*
X-70545Y-48645D01*
X-70536Y-48698D01*
X-70469Y-48802D01*
X-70413Y-49085D01*
X-70081Y-49581D01*
X-69585Y-49913D01*
X-69000Y-50029D01*
X-68415Y-49913D01*
X-67919Y-49581D01*
X-67587Y-49085D01*
X-67471Y-48500D01*
X-67587Y-47915D01*
X-67919Y-47419D01*
X-68415Y-47087D01*
X-68698Y-47031D01*
X-68802Y-46964D01*
X-68855Y-46955D01*
X-68884Y-46946D01*
X-68938Y-46922D01*
X-69013Y-46881D01*
X-69105Y-46823D01*
X-69202Y-46753D01*
X-69613Y-46399D01*
X-69727Y-46288D01*
X-69744Y-46249D01*
X-69759Y-45970D01*
X-69750Y-45778D01*
X-69727Y-45713D01*
X-69464Y-45464D01*
X-69207Y-45250D01*
X-69105Y-45177D01*
X-69013Y-45118D01*
X-68938Y-45078D01*
X-68884Y-45054D01*
X-68855Y-45045D01*
X-68802Y-45036D01*
X-68698Y-44969D01*
X-68415Y-44913D01*
X-67919Y-44581D01*
X-67587Y-44085D01*
X-67471Y-43500D01*
X-67587Y-42915D01*
X-67919Y-42419D01*
X-68415Y-42087D01*
X-69000Y-41971D01*
X-69585Y-42087D01*
X-70081Y-42419D01*
X-70413Y-42915D01*
X-70469Y-43198D01*
X-70536Y-43302D01*
X-70545Y-43355D01*
X-70554Y-43384D01*
X-70578Y-43439D01*
X-70618Y-43513D01*
X-70677Y-43605D01*
X-70747Y-43702D01*
X-70987Y-43980D01*
X-72078D01*
X-72980Y-43078D01*
Y-41422D01*
X-69078Y-37520D01*
X-44500D01*
X-44110Y-37442D01*
X-43779Y-37221D01*
X-40365Y-33807D01*
X-40144Y-33476D01*
X-40066Y-33086D01*
Y-8D01*
X-26279Y13779D01*
X-26058Y14110D01*
X-25980Y14500D01*
Y18578D01*
X-20078Y24480D01*
X-15241D01*
X-15211Y24461D01*
X-15158Y24473D01*
X-15108Y24451D01*
X-14202Y24431D01*
X-13501Y24375D01*
X-13241Y24337D01*
X-13034Y24293D01*
X-12892Y24249D01*
X-12834Y24222D01*
X-12826Y24212D01*
X-12770Y24180D01*
X-12758Y24171D01*
X-12754Y24170D01*
X-12746Y24166D01*
X-12581Y23919D01*
X-12085Y23587D01*
X-11500Y23471D01*
X-10915Y23587D01*
X-10419Y23919D01*
X-10087Y24415D01*
X-9971Y25000D01*
X-10087Y25585D01*
X-10296Y25899D01*
X-10379Y26250D01*
X-10296Y26601D01*
X-10087Y26915D01*
X-9971Y27500D01*
X-10087Y28085D01*
X-10419Y28581D01*
X-10915Y28913D01*
X-11500Y29029D01*
D02*
G37*
G36*
X-40000Y24529D02*
X-40585Y24413D01*
X-41081Y24081D01*
X-41413Y23585D01*
X-41529Y23000D01*
X-41413Y22415D01*
X-41081Y21919D01*
X-40585Y21587D01*
X-40000Y21471D01*
X-39415Y21587D01*
X-38919Y21919D01*
X-38587Y22415D01*
X-38471Y23000D01*
X-38587Y23585D01*
X-38919Y24081D01*
X-39415Y24413D01*
X-40000Y24529D01*
D02*
G37*
G36*
X-92500Y42029D02*
X-93085Y41913D01*
X-93581Y41581D01*
X-93913Y41085D01*
X-94029Y40500D01*
X-93913Y39915D01*
X-93581Y39419D01*
X-93405Y39301D01*
Y38699D01*
X-93581Y38581D01*
X-93913Y38085D01*
X-94029Y37500D01*
X-93913Y36915D01*
X-93581Y36419D01*
X-93085Y36087D01*
X-92500Y35971D01*
X-91915Y36087D01*
X-91479Y36378D01*
X-43465D01*
X-37372Y30285D01*
Y13647D01*
X-37413Y13585D01*
X-37529Y13000D01*
X-37413Y12415D01*
X-37081Y11919D01*
X-36585Y11587D01*
X-36000Y11471D01*
X-35415Y11587D01*
X-34919Y11919D01*
X-34587Y12415D01*
X-34471Y13000D01*
X-34587Y13585D01*
X-34735Y13807D01*
X-34435Y14257D01*
X-34250Y14221D01*
X-33665Y14337D01*
X-33169Y14669D01*
X-32837Y15165D01*
X-32721Y15750D01*
X-32837Y16335D01*
X-33128Y16771D01*
Y31493D01*
X-33128Y31493D01*
X-33214Y31922D01*
X-33457Y32286D01*
X-33457Y32286D01*
X-41464Y40293D01*
X-41828Y40536D01*
X-42257Y40622D01*
X-42257Y40622D01*
X-90995D01*
X-91087Y41085D01*
X-91419Y41581D01*
X-91915Y41913D01*
X-92500Y42029D01*
D02*
G37*
G36*
X-39500Y12529D02*
X-40085Y12413D01*
X-40581Y12081D01*
X-40919D01*
X-41415Y12413D01*
X-42000Y12529D01*
X-42585Y12413D01*
X-43081Y12081D01*
X-43413Y11585D01*
X-43529Y11000D01*
X-43413Y10415D01*
X-43316Y10270D01*
X-48465Y5122D01*
X-90979D01*
X-91415Y5413D01*
X-92000Y5529D01*
X-92585Y5413D01*
X-93081Y5081D01*
X-93413Y4585D01*
X-93529Y4000D01*
X-93413Y3415D01*
X-93081Y2919D01*
Y2581D01*
X-93413Y2085D01*
X-93529Y1500D01*
X-93413Y915D01*
X-93081Y419D01*
X-92585Y87D01*
X-92000Y-29D01*
X-91415Y87D01*
X-90979Y378D01*
X-46964D01*
X-46964Y378D01*
X-46535Y464D01*
X-46171Y707D01*
X-38707Y8171D01*
X-38464Y8535D01*
X-38405Y8830D01*
X-38351Y8959D01*
X-38349Y9184D01*
X-38334Y9566D01*
X-38305Y9860D01*
X-38290Y9959D01*
X-38273Y10033D01*
X-38262Y10070D01*
X-38253Y10084D01*
X-38251Y10096D01*
X-38242Y10118D01*
X-38241Y10151D01*
X-38233Y10197D01*
X-38087Y10415D01*
X-37971Y11000D01*
X-38087Y11585D01*
X-38419Y12081D01*
X-38915Y12413D01*
X-39500Y12529D01*
D02*
G37*
G36*
X-53500Y11029D02*
X-54085Y10913D01*
X-54581Y10581D01*
X-54913Y10085D01*
X-55029Y9500D01*
X-54913Y8915D01*
X-54581Y8419D01*
X-54085Y8087D01*
X-53500Y7971D01*
X-52915Y8087D01*
X-52419Y8419D01*
X-52087Y8915D01*
X-51971Y9500D01*
X-52087Y10085D01*
X-52419Y10581D01*
X-52915Y10913D01*
X-53500Y11029D01*
D02*
G37*
G36*
Y-471D02*
X-54085Y-587D01*
X-54474Y-847D01*
X-56949Y-851D01*
X-57031Y-885D01*
X-57429Y-964D01*
X-57793Y-1207D01*
X-57793Y-1207D01*
X-67432Y-10846D01*
X-68089Y-10826D01*
X-68429Y-10797D01*
X-68530Y-10782D01*
X-68585Y-10770D01*
X-68631Y-10755D01*
X-68660Y-10757D01*
X-68915Y-10587D01*
X-69500Y-10471D01*
X-70085Y-10587D01*
X-70581Y-10919D01*
X-70913Y-11415D01*
X-71029Y-12000D01*
X-70913Y-12585D01*
X-70581Y-13081D01*
X-70152Y-13369D01*
X-70157Y-13632D01*
X-70235Y-13869D01*
X-71824D01*
X-81346Y-4346D01*
X-81876Y-3993D01*
X-82500Y-3869D01*
X-83124Y-3993D01*
X-83653Y-4346D01*
X-84007Y-4876D01*
X-84131Y-5500D01*
X-84007Y-6124D01*
X-83653Y-6654D01*
X-73654Y-16654D01*
X-73124Y-17007D01*
X-72500Y-17131D01*
X-72500Y-17131D01*
X-54193D01*
X-53568Y-17007D01*
X-53039Y-16654D01*
X-47846Y-11461D01*
X-47493Y-10932D01*
X-47369Y-10307D01*
X-47493Y-9683D01*
X-47846Y-9154D01*
X-48376Y-8800D01*
X-49000Y-8676D01*
X-49624Y-8800D01*
X-50153Y-9154D01*
X-54868Y-13869D01*
X-68367D01*
X-68488Y-13766D01*
X-68665Y-13369D01*
X-68581Y-13229D01*
X-68558Y-13224D01*
X-67307Y-13151D01*
X-66997Y-13149D01*
X-66868Y-13095D01*
X-66571Y-13036D01*
X-66207Y-12793D01*
X-56564Y-3150D01*
X-54474Y-3153D01*
X-54085Y-3413D01*
X-53500Y-3529D01*
X-52915Y-3413D01*
X-52419Y-3081D01*
X-52087Y-2585D01*
X-51971Y-2000D01*
X-52087Y-1415D01*
X-52419Y-919D01*
X-52915Y-587D01*
X-53500Y-471D01*
D02*
G37*
G36*
X74849Y-4272D02*
X73569D01*
X73508Y-4297D01*
X73442Y-4284D01*
X72187Y-4534D01*
X72132Y-4571D01*
X72066D01*
X70883Y-5060D01*
X70836Y-5107D01*
X70771Y-5120D01*
X69707Y-5831D01*
X69670Y-5886D01*
X69609Y-5912D01*
X68704Y-6817D01*
X68678Y-6878D01*
X68623Y-6915D01*
X67912Y-7979D01*
X67899Y-8044D01*
X67852Y-8091D01*
X67362Y-9274D01*
Y-9340D01*
X67326Y-9396D01*
X67076Y-10650D01*
X67089Y-10716D01*
X67063Y-10777D01*
Y-12057D01*
X67089Y-12118D01*
X67076Y-12184D01*
X67326Y-13439D01*
X67362Y-13494D01*
Y-13560D01*
X67852Y-14743D01*
X67899Y-14790D01*
X67912Y-14855D01*
X68623Y-15919D01*
X68678Y-15956D01*
X68704Y-16017D01*
X69609Y-16922D01*
X69670Y-16948D01*
X69707Y-17003D01*
X70771Y-17714D01*
X70836Y-17727D01*
X70883Y-17774D01*
X72066Y-18263D01*
X72132D01*
X72187Y-18300D01*
X73442Y-18550D01*
X73508Y-18537D01*
X73569Y-18563D01*
X74849D01*
X74910Y-18537D01*
X74975Y-18550D01*
X76230Y-18300D01*
X76286Y-18263D01*
X76352D01*
X77535Y-17774D01*
X77582Y-17727D01*
X77647Y-17714D01*
X78711Y-17003D01*
X78748Y-16948D01*
X78809Y-16922D01*
X79714Y-16017D01*
X79739Y-15956D01*
X79795Y-15919D01*
X80506Y-14855D01*
X80519Y-14790D01*
X80566Y-14743D01*
X81055Y-13560D01*
Y-13494D01*
X81092Y-13439D01*
X81342Y-12184D01*
X81329Y-12118D01*
X81354Y-12057D01*
Y-10777D01*
X81329Y-10716D01*
X81342Y-10650D01*
X81092Y-9396D01*
X81055Y-9340D01*
Y-9274D01*
X80566Y-8091D01*
X80519Y-8044D01*
X80506Y-7979D01*
X79795Y-6915D01*
X79739Y-6878D01*
X79714Y-6817D01*
X78809Y-5912D01*
X78748Y-5886D01*
X78711Y-5831D01*
X77647Y-5120D01*
X77582Y-5107D01*
X77535Y-5060D01*
X76352Y-4571D01*
X76286D01*
X76230Y-4534D01*
X74975Y-4284D01*
X74910Y-4297D01*
X74849Y-4272D01*
D02*
G37*
G36*
X62201Y2144D02*
X60760Y1954D01*
X59417Y1398D01*
X58263Y513D01*
X57378Y-641D01*
X56822Y-1984D01*
X56632Y-3425D01*
X56822Y-4866D01*
X57378Y-6209D01*
X58263Y-7363D01*
X59417Y-8248D01*
X60760Y-8804D01*
X62201Y-8994D01*
X63642Y-8804D01*
X64986Y-8248D01*
X66139Y-7363D01*
X67024Y-6209D01*
X67580Y-4866D01*
X67770Y-3425D01*
X67580Y-1984D01*
X67024Y-641D01*
X66139Y513D01*
X64986Y1398D01*
X63642Y1954D01*
X62201Y2144D01*
D02*
G37*
G36*
X93500Y-3655D02*
X92418Y-3797D01*
X91411Y-4215D01*
X90545Y-4879D01*
X89881Y-5745D01*
X89464Y-6752D01*
X89321Y-7834D01*
X89464Y-8916D01*
X89881Y-9923D01*
X90545Y-10789D01*
X91411Y-11453D01*
X92418Y-11871D01*
X93500Y-12013D01*
X94582Y-11871D01*
X95590Y-11453D01*
X96455Y-10789D01*
X97119Y-9923D01*
X97537Y-8916D01*
X97679Y-7834D01*
X97537Y-6752D01*
X97119Y-5745D01*
X96455Y-4879D01*
X95590Y-4215D01*
X94582Y-3797D01*
X93500Y-3655D01*
D02*
G37*
G36*
X-7000Y-3471D02*
X-7585Y-3587D01*
X-8081Y-3919D01*
X-8413Y-4415D01*
X-8529Y-5000D01*
X-8413Y-5585D01*
X-8123Y-6019D01*
X-8049Y-8525D01*
X-8020Y-8591D01*
Y-15687D01*
X-8520Y-15894D01*
X-16207Y-8207D01*
X-16571Y-7964D01*
X-17000Y-7878D01*
X-17000Y-7878D01*
X-37000D01*
X-37429Y-7964D01*
X-37793Y-8207D01*
X-37793Y-8207D01*
X-38071Y-8485D01*
X-38585Y-8587D01*
X-39081Y-8919D01*
X-39413Y-9415D01*
X-39529Y-10000D01*
X-39413Y-10585D01*
X-39081Y-11081D01*
X-38585Y-11413D01*
X-38000Y-11529D01*
X-37415Y-11413D01*
X-36919Y-11081D01*
X-36587Y-10585D01*
X-36495Y-10122D01*
X-17465D01*
X-10122Y-17465D01*
Y-31479D01*
X-10413Y-31915D01*
X-10529Y-32500D01*
X-10413Y-33085D01*
X-10081Y-33581D01*
X-9585Y-33913D01*
X-9000Y-34029D01*
X-8415Y-33913D01*
X-7919Y-33581D01*
X-7587Y-33085D01*
X-7471Y-32500D01*
X-7587Y-31915D01*
X-7878Y-31479D01*
Y-24273D01*
X-7378Y-23954D01*
X-7000Y-24029D01*
X-6415Y-23913D01*
X-5919Y-23581D01*
X-5587Y-23085D01*
X-5471Y-22500D01*
X-5587Y-21915D01*
X-5877Y-21481D01*
X-5951Y-18974D01*
X-5980Y-18909D01*
Y-8581D01*
X-5951Y-8510D01*
X-5943Y-7139D01*
X-5912Y-6071D01*
X-5587Y-5585D01*
X-5471Y-5000D01*
X-5587Y-4415D01*
X-5919Y-3919D01*
X-6415Y-3587D01*
X-7000Y-3471D01*
D02*
G37*
G36*
X93500Y-13655D02*
X92418Y-13797D01*
X91411Y-14215D01*
X90545Y-14879D01*
X89881Y-15744D01*
X89464Y-16752D01*
X89321Y-17834D01*
X89464Y-18916D01*
X89881Y-19924D01*
X90545Y-20789D01*
X91411Y-21453D01*
X92418Y-21871D01*
X93500Y-22013D01*
X94582Y-21871D01*
X95590Y-21453D01*
X96455Y-20789D01*
X97119Y-19924D01*
X97537Y-18916D01*
X97679Y-17834D01*
X97537Y-16752D01*
X97119Y-15744D01*
X96455Y-14879D01*
X95590Y-14215D01*
X94582Y-13797D01*
X93500Y-13655D01*
D02*
G37*
G36*
X-93500Y-8369D02*
X-94124Y-8493D01*
X-94653Y-8846D01*
X-101486Y-15679D01*
X-101839Y-16208D01*
X-101963Y-16832D01*
Y-22059D01*
X-101839Y-22684D01*
X-101486Y-23213D01*
X-100956Y-23567D01*
X-100332Y-23691D01*
X-99708Y-23567D01*
X-99179Y-23213D01*
X-98825Y-22684D01*
X-98701Y-22059D01*
Y-17508D01*
X-92347Y-11153D01*
X-91993Y-10624D01*
X-91869Y-10000D01*
X-91993Y-9376D01*
X-92347Y-8846D01*
X-92876Y-8493D01*
X-93500Y-8369D01*
D02*
G37*
G36*
X39209Y-22655D02*
X38230Y-22784D01*
X37318Y-23162D01*
X36535Y-23763D01*
X35934Y-24546D01*
X35556Y-25458D01*
X35427Y-26437D01*
X35556Y-27416D01*
X35934Y-28328D01*
X36535Y-29111D01*
X37318Y-29712D01*
X38230Y-30090D01*
X39209Y-30219D01*
X40188Y-30090D01*
X41100Y-29712D01*
X41883Y-29111D01*
X42484Y-28328D01*
X42862Y-27416D01*
X42991Y-26437D01*
X42862Y-25458D01*
X42484Y-24546D01*
X41883Y-23763D01*
X41100Y-23162D01*
X40188Y-22784D01*
X39209Y-22655D01*
D02*
G37*
G36*
X-107240Y-26882D02*
X-109602D01*
X-110273Y-26970D01*
X-110898Y-27229D01*
X-111434Y-27641D01*
X-111846Y-28177D01*
X-112105Y-28802D01*
X-112193Y-29472D01*
X-112105Y-30143D01*
X-111846Y-30768D01*
X-111434Y-31304D01*
X-110898Y-31716D01*
X-110273Y-31975D01*
X-109602Y-32063D01*
X-107240D01*
X-106570Y-31975D01*
X-105945Y-31716D01*
X-105408Y-31304D01*
X-104997Y-30768D01*
X-104738Y-30143D01*
X-104649Y-29472D01*
X-104738Y-28802D01*
X-104997Y-28177D01*
X-105408Y-27641D01*
X-105945Y-27229D01*
X-106570Y-26970D01*
X-107240Y-26882D01*
D02*
G37*
G36*
X-90508Y-26882D02*
X-94839D01*
X-95509Y-26970D01*
X-96134Y-27229D01*
X-96671Y-27641D01*
X-97082Y-28177D01*
X-97341Y-28802D01*
X-97429Y-29472D01*
X-97341Y-30143D01*
X-97082Y-30768D01*
X-96671Y-31304D01*
X-96134Y-31716D01*
X-95509Y-31975D01*
X-94839Y-32063D01*
X-90508D01*
X-89837Y-31975D01*
X-89213Y-31716D01*
X-88676Y-31304D01*
X-88264Y-30768D01*
X-88006Y-30143D01*
X-87917Y-29472D01*
X-88006Y-28802D01*
X-88264Y-28177D01*
X-88676Y-27641D01*
X-89213Y-27229D01*
X-89837Y-26970D01*
X-90508Y-26882D01*
D02*
G37*
G36*
X49209Y-27655D02*
X48230Y-27784D01*
X47318Y-28162D01*
X46535Y-28763D01*
X45934Y-29546D01*
X45556Y-30458D01*
X45427Y-31437D01*
X45556Y-32416D01*
X45934Y-33328D01*
X46535Y-34111D01*
X47318Y-34712D01*
X48230Y-35090D01*
X49209Y-35219D01*
X50188Y-35090D01*
X51100Y-34712D01*
X51883Y-34111D01*
X52484Y-33328D01*
X52862Y-32416D01*
X52991Y-31437D01*
X52862Y-30458D01*
X52484Y-29546D01*
X51883Y-28763D01*
X51100Y-28162D01*
X50188Y-27784D01*
X49209Y-27655D01*
D02*
G37*
G36*
X-94642Y-33206D02*
X-95375Y-33352D01*
X-95997Y-33767D01*
X-96412Y-34389D01*
X-96558Y-35122D01*
X-96412Y-35855D01*
X-95997Y-36477D01*
X-95375Y-36893D01*
X-94642Y-37038D01*
X-93908Y-36893D01*
X-93287Y-36477D01*
X-92871Y-35855D01*
X-92725Y-35122D01*
X-92871Y-34389D01*
X-93287Y-33767D01*
X-93908Y-33352D01*
X-94642Y-33206D01*
D02*
G37*
G36*
X49209Y-37655D02*
X48230Y-37784D01*
X47318Y-38162D01*
X46535Y-38763D01*
X45934Y-39546D01*
X45556Y-40458D01*
X45427Y-41437D01*
X45556Y-42416D01*
X45934Y-43328D01*
X46535Y-44111D01*
X47318Y-44712D01*
X48230Y-45090D01*
X49209Y-45219D01*
X50188Y-45090D01*
X51100Y-44712D01*
X51883Y-44111D01*
X52484Y-43328D01*
X52862Y-42416D01*
X52991Y-41437D01*
X52862Y-40458D01*
X52484Y-39546D01*
X51883Y-38763D01*
X51100Y-38162D01*
X50188Y-37784D01*
X49209Y-37655D01*
D02*
G37*
G36*
X74849Y-49272D02*
X73569D01*
X73508Y-49297D01*
X73443Y-49284D01*
X72188Y-49534D01*
X72132Y-49571D01*
X72066D01*
X70884Y-50060D01*
X70837Y-50107D01*
X70771Y-50120D01*
X69707Y-50831D01*
X69670Y-50886D01*
X69609Y-50912D01*
X68704Y-51817D01*
X68679Y-51878D01*
X68623Y-51915D01*
X67912Y-52979D01*
X67899Y-53044D01*
X67852Y-53091D01*
X67363Y-54274D01*
Y-54340D01*
X67326Y-54396D01*
X67076Y-55651D01*
X67089Y-55716D01*
X67063Y-55777D01*
Y-57057D01*
X67089Y-57118D01*
X67076Y-57183D01*
X67326Y-58439D01*
X67363Y-58494D01*
Y-58560D01*
X67852Y-59743D01*
X67899Y-59790D01*
X67912Y-59855D01*
X68623Y-60919D01*
X68678Y-60956D01*
X68704Y-61017D01*
X69609Y-61922D01*
X69670Y-61948D01*
X69707Y-62003D01*
X70771Y-62714D01*
X70837Y-62727D01*
X70884Y-62774D01*
X72066Y-63263D01*
X72132D01*
X72188Y-63300D01*
X73443Y-63550D01*
X73508Y-63537D01*
X73569Y-63563D01*
X74849D01*
X74910Y-63537D01*
X74976Y-63550D01*
X76231Y-63300D01*
X76286Y-63263D01*
X76353D01*
X77535Y-62774D01*
X77582Y-62727D01*
X77647Y-62714D01*
X78711Y-62003D01*
X78748Y-61948D01*
X78809Y-61922D01*
X79714Y-61017D01*
X79740Y-60956D01*
X79795Y-60919D01*
X80506Y-59855D01*
X80519Y-59790D01*
X80566Y-59743D01*
X81055Y-58560D01*
Y-58494D01*
X81093Y-58439D01*
X81342Y-57183D01*
X81329Y-57118D01*
X81355Y-57057D01*
Y-55777D01*
X81329Y-55716D01*
X81342Y-55651D01*
X81093Y-54396D01*
X81056Y-54340D01*
Y-54274D01*
X80566Y-53091D01*
X80519Y-53044D01*
X80506Y-52979D01*
X79795Y-51915D01*
X79740Y-51878D01*
X79714Y-51817D01*
X78809Y-50912D01*
X78748Y-50886D01*
X78711Y-50831D01*
X77647Y-50120D01*
X77582Y-50107D01*
X77535Y-50060D01*
X76353Y-49571D01*
X76286D01*
X76231Y-49534D01*
X74976Y-49284D01*
X74910Y-49297D01*
X74849Y-49272D01*
D02*
G37*
G36*
X39209Y-42655D02*
X38230Y-42784D01*
X37318Y-43162D01*
X36535Y-43763D01*
X35934Y-44546D01*
X35556Y-45458D01*
X35427Y-46437D01*
X35556Y-47416D01*
X35934Y-48328D01*
X36535Y-49111D01*
X37318Y-49712D01*
X38230Y-50090D01*
X39209Y-50219D01*
X40188Y-50090D01*
X41100Y-49712D01*
X41883Y-49111D01*
X42484Y-48328D01*
X42862Y-47416D01*
X42991Y-46437D01*
X42862Y-45458D01*
X42484Y-44546D01*
X41883Y-43763D01*
X41100Y-43162D01*
X40188Y-42784D01*
X39209Y-42655D01*
D02*
G37*
G36*
X93500Y-45821D02*
X92418Y-45963D01*
X91411Y-46381D01*
X90545Y-47045D01*
X89881Y-47910D01*
X89464Y-48918D01*
X89321Y-50000D01*
X89464Y-51082D01*
X89881Y-52090D01*
X90545Y-52955D01*
X91411Y-53619D01*
X92418Y-54037D01*
X93500Y-54179D01*
X94582Y-54037D01*
X95590Y-53619D01*
X96455Y-52955D01*
X97119Y-52090D01*
X97537Y-51082D01*
X97679Y-50000D01*
X97537Y-48918D01*
X97119Y-47910D01*
X96455Y-47045D01*
X95590Y-46381D01*
X94582Y-45963D01*
X93500Y-45821D01*
D02*
G37*
G36*
X52959Y-47687D02*
X45459D01*
Y-55187D01*
X52959D01*
Y-47687D01*
D02*
G37*
G36*
X-94642Y-55962D02*
X-95375Y-56107D01*
X-95997Y-56523D01*
X-96412Y-57145D01*
X-96558Y-57878D01*
X-96412Y-58611D01*
X-95997Y-59233D01*
X-95375Y-59648D01*
X-94642Y-59794D01*
X-93908Y-59648D01*
X-93287Y-59233D01*
X-92871Y-58611D01*
X-92725Y-57878D01*
X-92871Y-57145D01*
X-93287Y-56523D01*
X-93908Y-56107D01*
X-94642Y-55962D01*
D02*
G37*
G36*
X93500Y-55821D02*
X92418Y-55963D01*
X91411Y-56381D01*
X90545Y-57045D01*
X89881Y-57911D01*
X89464Y-58918D01*
X89321Y-60000D01*
X89464Y-61082D01*
X89881Y-62090D01*
X90545Y-62955D01*
X91411Y-63619D01*
X92418Y-64037D01*
X93500Y-64179D01*
X94582Y-64037D01*
X95590Y-63619D01*
X96455Y-62955D01*
X97119Y-62090D01*
X97537Y-61082D01*
X97679Y-60000D01*
X97537Y-58918D01*
X97119Y-57911D01*
X96455Y-57045D01*
X95590Y-56381D01*
X94582Y-55963D01*
X93500Y-55821D01*
D02*
G37*
G36*
X-90508Y-60937D02*
X-94839D01*
X-95509Y-61025D01*
X-96134Y-61284D01*
X-96670Y-61696D01*
X-97082Y-62232D01*
X-97341Y-62857D01*
X-97429Y-63528D01*
X-97341Y-64198D01*
X-97082Y-64823D01*
X-96670Y-65359D01*
X-96134Y-65771D01*
X-95509Y-66030D01*
X-94839Y-66118D01*
X-90508D01*
X-89837Y-66030D01*
X-89213Y-65771D01*
X-88676Y-65359D01*
X-88264Y-64823D01*
X-88006Y-64198D01*
X-87917Y-63528D01*
X-88006Y-62857D01*
X-88264Y-62232D01*
X-88676Y-61696D01*
X-89213Y-61284D01*
X-89837Y-61025D01*
X-90508Y-60937D01*
D02*
G37*
G36*
X-107240D02*
X-109602D01*
X-110273Y-61025D01*
X-110898Y-61284D01*
X-111434Y-61696D01*
X-111846Y-62232D01*
X-112105Y-62857D01*
X-112193Y-63528D01*
X-112105Y-64198D01*
X-111846Y-64823D01*
X-111434Y-65359D01*
X-110898Y-65771D01*
X-110273Y-66030D01*
X-109602Y-66118D01*
X-107240D01*
X-106570Y-66030D01*
X-105945Y-65771D01*
X-105408Y-65359D01*
X-104997Y-64823D01*
X-104738Y-64198D01*
X-104649Y-63528D01*
X-104738Y-62857D01*
X-104997Y-62232D01*
X-105408Y-61696D01*
X-105945Y-61284D01*
X-106570Y-61025D01*
X-107240Y-60937D01*
D02*
G37*
G36*
X11500Y-3369D02*
X2404D01*
X1779Y-3493D01*
X1250Y-3847D01*
X897Y-4376D01*
X772Y-5000D01*
X897Y-5624D01*
X1250Y-6154D01*
X1779Y-6507D01*
X2404Y-6631D01*
X10824D01*
X16369Y-12176D01*
Y-16024D01*
X16351Y-16062D01*
X16338Y-16432D01*
X16301Y-16766D01*
X16240Y-17086D01*
X16155Y-17394D01*
X16046Y-17691D01*
X15913Y-17977D01*
X15755Y-18255D01*
X15572Y-18525D01*
X15363Y-18787D01*
X15110Y-19058D01*
X15096Y-19097D01*
X14846Y-19346D01*
X14493Y-19876D01*
X14369Y-20500D01*
Y-41385D01*
X14493Y-42010D01*
X14846Y-42539D01*
X17869Y-45561D01*
Y-61500D01*
Y-61930D01*
X17852Y-61966D01*
X17833Y-62306D01*
X17789Y-62560D01*
X17722Y-62761D01*
X17638Y-62917D01*
X17538Y-63038D01*
X17417Y-63138D01*
X17261Y-63222D01*
X17060Y-63289D01*
X16806Y-63334D01*
X16466Y-63352D01*
X16430Y-63369D01*
X-12500D01*
X-13124Y-63493D01*
X-13654Y-63846D01*
X-17676Y-67869D01*
X-32708D01*
X-32996Y-67518D01*
X-32840Y-67045D01*
X-32792Y-67036D01*
X-32296Y-66704D01*
X-31964Y-66208D01*
X-31863Y-65697D01*
X-30143Y-63872D01*
X-30117Y-63804D01*
X-28332Y-62020D01*
X-17313D01*
X-16923Y-61942D01*
X-16592Y-61721D01*
X-13779Y-58908D01*
X-13558Y-58577D01*
X-13480Y-58187D01*
Y-48000D01*
X-13558Y-47610D01*
X-13779Y-47279D01*
X-19480Y-41578D01*
Y-16081D01*
X-19451Y-16010D01*
X-19443Y-14639D01*
X-19412Y-13571D01*
X-19087Y-13085D01*
X-18971Y-12500D01*
X-19087Y-11915D01*
X-19419Y-11419D01*
X-19915Y-11087D01*
X-20500Y-10971D01*
X-21085Y-11087D01*
X-21581Y-11419D01*
X-21913Y-11915D01*
X-22029Y-12500D01*
X-21913Y-13085D01*
X-21623Y-13519D01*
X-21583Y-14886D01*
X-22081Y-14943D01*
X-22087Y-14915D01*
X-22419Y-14419D01*
X-22915Y-14087D01*
X-23500Y-13971D01*
X-24085Y-14087D01*
X-24538Y-14390D01*
X-24702Y-14339D01*
X-24999Y-14144D01*
X-24971Y-14000D01*
X-25087Y-13415D01*
X-25419Y-12919D01*
X-25915Y-12587D01*
X-26500Y-12471D01*
X-27085Y-12587D01*
X-27581Y-12919D01*
X-27913Y-13415D01*
X-28029Y-14000D01*
X-27913Y-14585D01*
X-27623Y-15019D01*
X-27583Y-16386D01*
X-28081Y-16443D01*
X-28087Y-16415D01*
X-28419Y-15919D01*
X-28915Y-15587D01*
X-29500Y-15471D01*
X-30085Y-15587D01*
X-30581Y-15919D01*
X-30913Y-16415D01*
X-31029Y-17000D01*
X-30913Y-17585D01*
X-30623Y-18019D01*
X-30549Y-20526D01*
X-30520Y-20591D01*
Y-46000D01*
X-30442Y-46390D01*
X-30221Y-46721D01*
X-24521Y-52421D01*
X-24549Y-52490D01*
X-24557Y-53861D01*
X-24561Y-53998D01*
X-25062Y-54040D01*
X-25087Y-53915D01*
X-25419Y-53419D01*
X-25915Y-53087D01*
X-26500Y-52971D01*
X-26535Y-52978D01*
X-28023Y-51677D01*
X-28370Y-51333D01*
X-28421Y-51312D01*
X-28450Y-51265D01*
X-28489Y-51256D01*
X-31980Y-47765D01*
Y-20081D01*
X-31951Y-20010D01*
X-31943Y-18639D01*
X-31912Y-17571D01*
X-31587Y-17085D01*
X-31471Y-16500D01*
X-31587Y-15915D01*
X-31919Y-15419D01*
X-32415Y-15087D01*
X-33000Y-14971D01*
X-33585Y-15087D01*
X-33944Y-15327D01*
X-34371Y-15166D01*
X-34442Y-15104D01*
X-34412Y-14071D01*
X-34087Y-13585D01*
X-33971Y-13000D01*
X-34087Y-12415D01*
X-34419Y-11919D01*
X-34915Y-11587D01*
X-35500Y-11471D01*
X-36085Y-11587D01*
X-36581Y-11919D01*
X-36913Y-12415D01*
X-37029Y-13000D01*
X-36913Y-13585D01*
X-36623Y-14019D01*
X-36549Y-16525D01*
X-36520Y-16591D01*
Y-49000D01*
X-36442Y-49390D01*
X-36221Y-49721D01*
X-33753Y-52189D01*
X-33724Y-52260D01*
X-32760Y-53235D01*
X-32027Y-54012D01*
X-31913Y-54585D01*
X-31581Y-55081D01*
X-31085Y-55413D01*
X-30500Y-55529D01*
X-29915Y-55413D01*
X-29419Y-55081D01*
X-29087Y-54585D01*
X-29035Y-54326D01*
X-28492Y-54159D01*
X-28001Y-54642D01*
X-27913Y-55085D01*
X-27581Y-55581D01*
X-27085Y-55913D01*
X-26500Y-56029D01*
X-25915Y-55913D01*
X-25462Y-55610D01*
X-25298Y-55661D01*
X-25001Y-55856D01*
X-25029Y-56000D01*
X-24913Y-56585D01*
X-24581Y-57081D01*
X-24085Y-57413D01*
X-23500Y-57529D01*
X-22915Y-57413D01*
X-22419Y-57081D01*
X-22087Y-56585D01*
X-21971Y-56000D01*
X-22087Y-55415D01*
X-22377Y-54981D01*
X-22451Y-52474D01*
X-22480Y-52409D01*
Y-52000D01*
X-22558Y-51610D01*
X-22779Y-51279D01*
X-28480Y-45578D01*
Y-20581D01*
X-28451Y-20510D01*
X-28443Y-19139D01*
X-28412Y-18071D01*
X-28087Y-17585D01*
X-28053Y-17413D01*
X-27551Y-17455D01*
X-27549Y-17526D01*
X-27520Y-17591D01*
Y-44500D01*
X-27442Y-44890D01*
X-27221Y-45221D01*
X-21020Y-51422D01*
Y-52919D01*
X-21049Y-52990D01*
X-21057Y-54361D01*
X-21088Y-55429D01*
X-21413Y-55915D01*
X-21529Y-56500D01*
X-21413Y-57085D01*
X-21081Y-57581D01*
X-20585Y-57913D01*
X-20000Y-58029D01*
X-19415Y-57913D01*
X-18962Y-57610D01*
X-18798Y-57661D01*
X-18501Y-57856D01*
X-18529Y-58000D01*
X-18413Y-58585D01*
X-18081Y-59081D01*
X-18016Y-59125D01*
X-17919Y-59736D01*
X-18119Y-59980D01*
X-28755D01*
X-29145Y-60058D01*
X-29476Y-60279D01*
X-31566Y-62370D01*
X-31638Y-62399D01*
X-32612Y-63363D01*
X-33389Y-64096D01*
X-33963Y-64210D01*
X-34459Y-64541D01*
X-34790Y-65037D01*
X-34817Y-65169D01*
X-35359Y-65334D01*
X-37769Y-62924D01*
Y-42130D01*
X-37893Y-41506D01*
X-38247Y-40977D01*
X-38369Y-40854D01*
Y-38000D01*
X-38493Y-37376D01*
X-38846Y-36847D01*
X-39376Y-36493D01*
X-40000Y-36369D01*
X-40624Y-36493D01*
X-41153Y-36847D01*
X-41507Y-37376D01*
X-41631Y-38000D01*
Y-40265D01*
X-41868Y-40343D01*
X-42131Y-40348D01*
X-42419Y-39919D01*
X-42915Y-39587D01*
X-43500Y-39471D01*
X-44085Y-39587D01*
X-44581Y-39919D01*
X-44913Y-40415D01*
X-45029Y-41000D01*
X-44913Y-41585D01*
X-44581Y-42081D01*
X-44085Y-42413D01*
X-43818Y-42466D01*
X-42622Y-43538D01*
Y-44532D01*
X-43122Y-44783D01*
X-43415Y-44587D01*
X-44000Y-44471D01*
X-44585Y-44587D01*
X-45081Y-44919D01*
X-45413Y-45415D01*
X-45515Y-45929D01*
X-47793Y-48207D01*
X-48036Y-48571D01*
X-48122Y-49000D01*
X-48122Y-49000D01*
Y-62000D01*
X-48122Y-62000D01*
X-48036Y-62429D01*
X-47793Y-62793D01*
X-33793Y-76793D01*
X-33429Y-77036D01*
X-33000Y-77122D01*
X-33000Y-77122D01*
X76500D01*
X76500Y-77122D01*
X76929Y-77036D01*
X77293Y-76793D01*
X77571Y-76515D01*
X78085Y-76413D01*
X78581Y-76081D01*
X78913Y-75585D01*
X79029Y-75000D01*
X78913Y-74415D01*
X78581Y-73919D01*
X78085Y-73587D01*
X77500Y-73471D01*
X76915Y-73587D01*
X76419Y-73919D01*
X76087Y-74415D01*
X75995Y-74878D01*
X74457D01*
X74257Y-74378D01*
X74923Y-73744D01*
X75165Y-73538D01*
X75220Y-73498D01*
X75250Y-73480D01*
X75585Y-73413D01*
X76081Y-73081D01*
X76413Y-72585D01*
X76529Y-72000D01*
X76413Y-71415D01*
X76224Y-71131D01*
X76483Y-70631D01*
X88324D01*
X88846Y-71153D01*
X89376Y-71507D01*
X90000Y-71631D01*
X90624Y-71507D01*
X91154Y-71153D01*
X91507Y-70624D01*
X91631Y-70000D01*
X91507Y-69376D01*
X91154Y-68846D01*
X90153Y-67847D01*
X89624Y-67493D01*
X89000Y-67369D01*
X71000D01*
X70376Y-67493D01*
X69846Y-67847D01*
X68394Y-69299D01*
X65719D01*
X65550Y-68799D01*
X66139Y-68347D01*
X67024Y-67193D01*
X67580Y-65850D01*
X67770Y-64409D01*
X67580Y-62968D01*
X67024Y-61624D01*
X66139Y-60471D01*
X64986Y-59586D01*
X63642Y-59030D01*
X62201Y-58840D01*
X60760Y-59030D01*
X59417Y-59586D01*
X58263Y-60471D01*
X57378Y-61624D01*
X56822Y-62968D01*
X56632Y-64409D01*
X56822Y-65850D01*
X57378Y-67193D01*
X58263Y-68347D01*
X58813Y-68769D01*
X58643Y-69269D01*
X26076D01*
X22404Y-65597D01*
X22390Y-65557D01*
X22138Y-65287D01*
X21928Y-65025D01*
X21745Y-64755D01*
X21587Y-64478D01*
X21454Y-64191D01*
X21345Y-63894D01*
X21260Y-63586D01*
X21199Y-63266D01*
X21162Y-62932D01*
X21149Y-62563D01*
X21131Y-62524D01*
Y-61500D01*
Y-44886D01*
X21131Y-44886D01*
X21007Y-44261D01*
X20653Y-43732D01*
X17631Y-40710D01*
Y-23983D01*
X18131Y-23724D01*
X18415Y-23913D01*
X18929Y-24015D01*
X32144Y-37230D01*
X32144Y-37230D01*
X32508Y-37473D01*
X32791Y-37530D01*
X32916Y-37586D01*
X33386Y-37601D01*
X33809Y-37644D01*
X34207Y-37714D01*
X34579Y-37812D01*
X34928Y-37935D01*
X35253Y-38084D01*
X35558Y-38260D01*
X35843Y-38462D01*
X36109Y-38691D01*
X36378Y-38969D01*
X36383Y-38972D01*
X36386Y-38978D01*
X36454Y-39006D01*
X36535Y-39111D01*
X37318Y-39712D01*
X38230Y-40090D01*
X39209Y-40219D01*
X40188Y-40090D01*
X41100Y-39712D01*
X41883Y-39111D01*
X42484Y-38328D01*
X42862Y-37416D01*
X42991Y-36437D01*
X42862Y-35458D01*
X42484Y-34546D01*
X41883Y-33763D01*
X41100Y-33162D01*
X40188Y-32784D01*
X39209Y-32655D01*
X38230Y-32784D01*
X37318Y-33162D01*
X36535Y-33763D01*
X36454Y-33868D01*
X36387Y-33896D01*
X36384Y-33902D01*
X36378Y-33905D01*
X36109Y-34183D01*
X35843Y-34413D01*
X35558Y-34615D01*
X35254Y-34790D01*
X34928Y-34939D01*
X34579Y-35063D01*
X34207Y-35160D01*
X33809Y-35230D01*
X33386Y-35273D01*
X33360Y-35274D01*
X20515Y-22429D01*
X20413Y-21915D01*
X20081Y-21419D01*
X19585Y-21087D01*
X19000Y-20971D01*
X18797Y-21011D01*
X18641Y-20532D01*
X18809Y-20454D01*
X19106Y-20345D01*
X19414Y-20260D01*
X19735Y-20199D01*
X20068Y-20162D01*
X20437Y-20149D01*
X20476Y-20131D01*
X25210D01*
X28382Y-23304D01*
X28911Y-23657D01*
X29535Y-23781D01*
X30160Y-23657D01*
X30689Y-23304D01*
X31043Y-22774D01*
X31167Y-22150D01*
X31043Y-21526D01*
X30689Y-20997D01*
X27039Y-17346D01*
X26510Y-16993D01*
X25885Y-16869D01*
X21070D01*
X21034Y-16851D01*
X20694Y-16834D01*
X20440Y-16789D01*
X20239Y-16722D01*
X20083Y-16638D01*
X19962Y-16538D01*
X19862Y-16417D01*
X19778Y-16261D01*
X19711Y-16060D01*
X19667Y-15806D01*
X19648Y-15466D01*
X19631Y-15430D01*
Y-11500D01*
X19507Y-10876D01*
X19153Y-10346D01*
X12653Y-3847D01*
X12124Y-3493D01*
X11500Y-3369D01*
D02*
G37*
%LPD*%
G36*
X-80870Y62338D02*
X-80898Y62257D01*
X-80922Y62146D01*
X-80942Y62003D01*
X-80974Y61626D01*
X-80998Y60828D01*
X-81000Y60500D01*
X-82000D01*
X-82002Y60828D01*
X-82078Y62146D01*
X-82102Y62257D01*
X-82130Y62338D01*
X-82160Y62388D01*
X-80840D01*
X-80870Y62338D01*
D02*
G37*
G36*
X9470Y21546D02*
X8388Y20352D01*
X7480Y21400D01*
X7572Y21410D01*
X7672Y21437D01*
X7780Y21481D01*
X7896Y21541D01*
X8020Y21618D01*
X8152Y21712D01*
X8442Y21949D01*
X8598Y22093D01*
X8763Y22254D01*
X9470Y21546D01*
D02*
G37*
G36*
X79853Y15146D02*
X79677Y14967D01*
X79063Y14257D01*
X78994Y14153D01*
X78944Y14061D01*
X78911Y13981D01*
X78896Y13914D01*
X77914Y14896D01*
X77981Y14911D01*
X78061Y14943D01*
X78153Y14994D01*
X78257Y15063D01*
X78374Y15150D01*
X78646Y15377D01*
X78967Y15677D01*
X79146Y15854D01*
X79853Y15146D01*
D02*
G37*
G36*
X81613Y15597D02*
X82152Y15127D01*
X82262Y15049D01*
X82361Y14987D01*
X82451Y14940D01*
X82531Y14909D01*
X82601Y14894D01*
X81606Y13899D01*
X81590Y13969D01*
X81560Y14049D01*
X81513Y14139D01*
X81451Y14239D01*
X81372Y14348D01*
X81169Y14598D01*
X80903Y14887D01*
X80747Y15046D01*
X81454Y15754D01*
X81613Y15597D01*
D02*
G37*
G36*
X-12163Y26891D02*
X-14948Y26600D01*
X-15094Y27400D01*
X-14609Y27405D01*
X-13428Y27479D01*
X-13126Y27524D01*
X-12870Y27578D01*
X-12661Y27643D01*
X-12498Y27717D01*
X-12380Y27801D01*
X-12308Y27895D01*
X-12163Y26891D01*
D02*
G37*
G36*
Y25609D02*
X-12308Y24605D01*
X-12380Y24699D01*
X-12498Y24783D01*
X-12661Y24857D01*
X-12870Y24922D01*
X-13126Y24976D01*
X-13428Y25021D01*
X-14169Y25080D01*
X-15094Y25100D01*
X-14948Y25900D01*
X-12163Y25609D01*
D02*
G37*
G36*
X-68914Y-44396D02*
X-69010Y-44413D01*
X-69113Y-44445D01*
X-69225Y-44494D01*
X-69344Y-44559D01*
X-69470Y-44640D01*
X-69604Y-44736D01*
X-69895Y-44978D01*
X-70217Y-45283D01*
X-70783Y-44717D01*
X-70622Y-44552D01*
X-70236Y-44104D01*
X-70140Y-43970D01*
X-70059Y-43843D01*
X-69994Y-43725D01*
X-69946Y-43613D01*
X-69913Y-43510D01*
X-69896Y-43414D01*
X-68914Y-44396D01*
D02*
G37*
G36*
X-70052Y-46878D02*
X-69604Y-47264D01*
X-69470Y-47360D01*
X-69344Y-47441D01*
X-69225Y-47506D01*
X-69113Y-47554D01*
X-69010Y-47587D01*
X-68914Y-47604D01*
X-69896Y-48586D01*
X-69913Y-48490D01*
X-69946Y-48386D01*
X-69994Y-48275D01*
X-70059Y-48156D01*
X-70140Y-48030D01*
X-70236Y-47896D01*
X-70478Y-47605D01*
X-70783Y-47283D01*
X-70217Y-46717D01*
X-70052Y-46878D01*
D02*
G37*
G36*
X-38838Y10375D02*
X-38872Y10296D01*
X-38902Y10198D01*
X-38928Y10080D01*
X-38950Y9943D01*
X-38982Y9610D01*
X-38998Y9199D01*
X-39000Y8964D01*
X-40000D01*
X-40002Y9199D01*
X-40050Y9943D01*
X-40072Y10080D01*
X-40098Y10198D01*
X-40128Y10296D01*
X-40162Y10375D01*
X-40200Y10435D01*
X-38800D01*
X-38838Y10375D01*
D02*
G37*
G36*
X-54246Y-2504D02*
X-56948Y-2500D01*
Y-1500D01*
X-54246Y-1496D01*
Y-2504D01*
D02*
G37*
G36*
X-68838Y-11371D02*
X-68757Y-11398D01*
X-68646Y-11422D01*
X-68503Y-11442D01*
X-68126Y-11474D01*
X-67328Y-11498D01*
X-67000Y-11500D01*
Y-12500D01*
X-67328Y-12502D01*
X-68646Y-12578D01*
X-68757Y-12602D01*
X-68838Y-12630D01*
X-68888Y-12660D01*
Y-11340D01*
X-68838Y-11371D01*
D02*
G37*
G36*
X-6534Y-5797D02*
X-6548Y-5887D01*
X-6560Y-6029D01*
X-6593Y-7128D01*
X-6600Y-8506D01*
X-7400D01*
X-7481Y-5760D01*
X-6519D01*
X-6534Y-5797D01*
D02*
G37*
G36*
X-6519Y-21739D02*
X-7481D01*
X-7466Y-21703D01*
X-7452Y-21613D01*
X-7440Y-21471D01*
X-7407Y-20372D01*
X-7400Y-18994D01*
X-6600D01*
X-6519Y-21739D01*
D02*
G37*
G36*
X-20034Y-13297D02*
X-20048Y-13387D01*
X-20060Y-13529D01*
X-20093Y-14627D01*
X-20100Y-16006D01*
X-20900D01*
X-20981Y-13261D01*
X-20019D01*
X-20034Y-13297D01*
D02*
G37*
G36*
X-35034Y-13797D02*
X-35048Y-13887D01*
X-35060Y-14029D01*
X-35093Y-15127D01*
X-35100Y-16506D01*
X-35900D01*
X-35981Y-13760D01*
X-35019D01*
X-35034Y-13797D01*
D02*
G37*
G36*
X-26034Y-14797D02*
X-26048Y-14887D01*
X-26060Y-15029D01*
X-26093Y-16127D01*
X-26100Y-17506D01*
X-26900D01*
X-26981Y-14761D01*
X-26019D01*
X-26034Y-14797D01*
D02*
G37*
G36*
X-23034Y-16297D02*
X-23048Y-16387D01*
X-23060Y-16529D01*
X-23093Y-17627D01*
X-23100Y-19006D01*
X-23900D01*
X-23981Y-16261D01*
X-23019D01*
X-23034Y-16297D01*
D02*
G37*
G36*
X-32534Y-17297D02*
X-32548Y-17387D01*
X-32560Y-17529D01*
X-32593Y-18628D01*
X-32600Y-20006D01*
X-33400D01*
X-33481Y-17260D01*
X-32519D01*
X-32534Y-17297D01*
D02*
G37*
G36*
X-29034Y-17797D02*
X-29048Y-17887D01*
X-29060Y-18029D01*
X-29093Y-19128D01*
X-29100Y-20506D01*
X-29900D01*
X-29981Y-17761D01*
X-29019D01*
X-29034Y-17797D01*
D02*
G37*
G36*
X19020Y-15880D02*
X19080Y-16220D01*
X19180Y-16520D01*
X19320Y-16780D01*
X19500Y-17000D01*
X19720Y-17180D01*
X19980Y-17320D01*
X20280Y-17420D01*
X20620Y-17480D01*
X21000Y-17500D01*
X20414Y-19500D01*
X20020Y-19514D01*
X19638Y-19557D01*
X19267Y-19627D01*
X18908Y-19726D01*
X18561Y-19854D01*
X18225Y-20009D01*
X17901Y-20193D01*
X17589Y-20405D01*
X17289Y-20646D01*
X17000Y-20914D01*
X15586Y-19500D01*
X15855Y-19211D01*
X16095Y-18911D01*
X16307Y-18599D01*
X16491Y-18275D01*
X16646Y-17939D01*
X16774Y-17592D01*
X16873Y-17233D01*
X16943Y-16862D01*
X16986Y-16480D01*
X17000Y-16086D01*
X19000Y-15500D01*
X19020Y-15880D01*
D02*
G37*
G36*
X36845Y-38519D02*
X36555Y-38218D01*
X36243Y-37949D01*
X35908Y-37712D01*
X35551Y-37506D01*
X35172Y-37332D01*
X34770Y-37190D01*
X34345Y-37079D01*
X33898Y-37000D01*
X33429Y-36953D01*
X32937Y-36937D01*
Y-35937D01*
X33429Y-35921D01*
X33898Y-35874D01*
X34345Y-35795D01*
X34770Y-35684D01*
X35172Y-35542D01*
X35552Y-35368D01*
X35909Y-35162D01*
X36244Y-34925D01*
X36556Y-34656D01*
X36846Y-34356D01*
X36845Y-38519D01*
D02*
G37*
G36*
X-42586Y-41069D02*
X-42544Y-41141D01*
X-42471Y-41238D01*
X-42239Y-41511D01*
X-41423Y-42368D01*
X-41146Y-42646D01*
X-41854Y-43354D01*
X-43477Y-41900D01*
X-42600Y-41023D01*
X-42586Y-41069D01*
D02*
G37*
G36*
X-30697Y-53122D02*
X-31378Y-53803D01*
X-31393Y-53766D01*
X-31447Y-53693D01*
X-31539Y-53583D01*
X-32292Y-52784D01*
X-33262Y-51804D01*
X-32696Y-51238D01*
X-30697Y-53122D01*
D02*
G37*
G36*
X-28466Y-52153D02*
X-26786Y-53621D01*
X-26728Y-53629D01*
X-27385Y-54337D01*
X-29299Y-52454D01*
X-28827Y-51794D01*
X-28466Y-52153D01*
D02*
G37*
G36*
X-23019Y-55239D02*
X-23981D01*
X-23966Y-55203D01*
X-23952Y-55113D01*
X-23940Y-54971D01*
X-23907Y-53873D01*
X-23900Y-52494D01*
X-23100D01*
X-23019Y-55239D01*
D02*
G37*
G36*
X-19519Y-55739D02*
X-20481D01*
X-20466Y-55703D01*
X-20452Y-55613D01*
X-20440Y-55471D01*
X-20407Y-54373D01*
X-20400Y-52994D01*
X-19600D01*
X-19519Y-55739D01*
D02*
G37*
G36*
X-16519Y-57240D02*
X-17481D01*
X-17466Y-57203D01*
X-17452Y-57113D01*
X-17440Y-56971D01*
X-17407Y-55872D01*
X-17400Y-54494D01*
X-16600D01*
X-16519Y-57240D01*
D02*
G37*
G36*
X-42622Y-47468D02*
Y-64139D01*
X-43084Y-64330D01*
X-45878Y-61535D01*
Y-49465D01*
X-43929Y-47515D01*
X-43415Y-47413D01*
X-43122Y-47217D01*
X-42622Y-47468D01*
D02*
G37*
G36*
X-30615Y-63426D02*
X-32499Y-65425D01*
X-33180Y-64745D01*
X-33143Y-64730D01*
X-33070Y-64676D01*
X-32961Y-64584D01*
X-32161Y-63830D01*
X-31181Y-62861D01*
X-30615Y-63426D01*
D02*
G37*
G36*
X20500Y-62586D02*
X20514Y-62980D01*
X20557Y-63362D01*
X20627Y-63733D01*
X20726Y-64092D01*
X20854Y-64439D01*
X21009Y-64775D01*
X21193Y-65099D01*
X21405Y-65411D01*
X21645Y-65711D01*
X21914Y-66000D01*
X20500Y-67414D01*
X20211Y-67146D01*
X19911Y-66905D01*
X19599Y-66693D01*
X19275Y-66509D01*
X18939Y-66353D01*
X18592Y-66226D01*
X18233Y-66127D01*
X17862Y-66057D01*
X17480Y-66014D01*
X17086Y-66000D01*
X16500Y-64000D01*
X16880Y-63980D01*
X17220Y-63920D01*
X17520Y-63820D01*
X17780Y-63680D01*
X18000Y-63500D01*
X18180Y-63280D01*
X18320Y-63020D01*
X18420Y-62720D01*
X18480Y-62380D01*
X18500Y-62000D01*
X20500Y-62586D01*
D02*
G37*
G36*
X74977Y-72900D02*
X74931Y-72913D01*
X74859Y-72957D01*
X74761Y-73029D01*
X74489Y-73261D01*
X73632Y-74077D01*
X73353Y-74353D01*
X72646Y-73646D01*
X74100Y-72023D01*
X74977Y-72900D01*
D02*
G37*
D10*
X-47000Y-49000D02*
X-44000Y-46000D01*
X-47000Y-62000D02*
Y-49000D01*
Y-62000D02*
X-33000Y-76000D01*
X-57000Y-2000D02*
X-53500D01*
X-67000Y-12000D02*
X-57000Y-2000D01*
X-69500Y-12000D02*
X-67000D01*
X-37000Y-9000D02*
X-17000D01*
X-38000Y-10000D02*
X-37000Y-9000D01*
X-9000Y-32500D02*
Y-17000D01*
X-17000Y-9000D02*
X-9000Y-17000D01*
X-34250Y15750D02*
Y31493D01*
X-42257Y39500D02*
X-34250Y31493D01*
X-36250Y13250D02*
Y30750D01*
Y13250D02*
X-36000Y13000D01*
X-43000Y37500D02*
X-36250Y30750D01*
X-92500Y37500D02*
X-43000D01*
X-39500Y8964D02*
Y11000D01*
X-46964Y1500D02*
X-39500Y8964D01*
X-42000Y10000D02*
Y11000D01*
X-48000Y4000D02*
X-42000Y10000D01*
X-92000Y1500D02*
X-46964D01*
X-92000Y4000D02*
X-48000D01*
X-92500Y40500D02*
X-91500Y39500D01*
X-42257D01*
X-68500Y62500D02*
Y63500D01*
Y62500D02*
X-57500Y51500D01*
X-37000D01*
X-81500Y60500D02*
Y63000D01*
X-79500Y58500D02*
X-67500D01*
X-81500Y60500D02*
X-79500Y58500D01*
X-67500D02*
X-58500Y49500D01*
X-39000D01*
X-43500Y-41000D02*
X-41500Y-43000D01*
Y-65000D02*
Y-43000D01*
Y-65000D02*
X-32500Y-74000D01*
X73000D01*
X75000Y-72000D01*
X76500Y-76000D02*
X77500Y-75000D01*
X-33000Y-76000D02*
X76500D01*
X11500Y40500D02*
Y75500D01*
X3898Y32897D02*
X11500Y40500D01*
X-13602Y32897D02*
X3898D01*
X6500Y27000D02*
X80000D01*
X4500Y25000D02*
X6500Y27000D01*
X4500Y17500D02*
Y25000D01*
X80000Y27000D02*
X84500Y31500D01*
Y58500D01*
X81100Y15400D02*
X82500Y14000D01*
X78000D02*
X79500Y15500D01*
X9116Y21900D02*
X78500D01*
X7717Y24500D02*
X8716Y23500D01*
X7500Y24500D02*
X7717D01*
Y20500D02*
X9116Y21900D01*
X7500Y20500D02*
X7717D01*
X81100Y15400D02*
Y21563D01*
X79163Y23500D02*
X81100Y21563D01*
X8716Y23500D02*
X79163D01*
X79500Y15500D02*
Y20900D01*
X78500Y21900D02*
X79500Y20900D01*
X39209Y-36437D02*
X39209Y-36437D01*
X32937Y-36437D02*
X39209D01*
X19000Y-22500D02*
X32937Y-36437D01*
D18*
X-33000Y-48187D02*
X-26687Y-54500D01*
X-33000Y-48187D02*
Y-16500D01*
X-26687Y-54500D02*
X-26500D01*
X-7000Y-22500D02*
Y-5000D01*
X-74000Y-41000D02*
X-69500Y-36500D01*
X-74000Y-43500D02*
Y-41000D01*
Y-43500D02*
X-72500Y-45000D01*
X-44500Y-36500D02*
X-41086Y-33086D01*
X-69500Y-36500D02*
X-44500D01*
X-41086Y-33086D02*
Y414D01*
X-20500Y25500D02*
X-12000D01*
X-27000Y19000D02*
X-20500Y25500D01*
X-27000Y14500D02*
Y19000D01*
X-41086Y414D02*
X-27000Y14500D01*
X-28500Y19828D02*
X-21328Y27000D01*
X-28500Y15500D02*
Y19828D01*
X-42500Y1500D02*
X-28500Y15500D01*
X-12000Y25500D02*
X-11500Y25000D01*
X-12000Y27000D02*
X-11500Y27500D01*
X-21328Y27000D02*
X-12000D01*
X-73328Y-47000D02*
X-70500D01*
X-69000Y-48500D01*
X-70500Y-45000D02*
X-69000Y-43500D01*
X-72500Y-45000D02*
X-70500D01*
X-42500Y-32500D02*
Y1500D01*
X-45000Y-35000D02*
X-42500Y-32500D01*
X-70000Y-35000D02*
X-45000D01*
X-75500Y-40500D02*
X-70000Y-35000D01*
X-75500Y-44828D02*
Y-40500D01*
Y-44828D02*
X-73328Y-47000D01*
X-35500Y-49000D02*
Y-13000D01*
Y-49000D02*
X-30500Y-54000D01*
X-14500Y-58187D02*
Y-48000D01*
X-17313Y-61000D02*
X-14500Y-58187D01*
X-28755Y-61000D02*
X-17313D01*
X-20500Y-42000D02*
Y-12500D01*
Y-42000D02*
X-14500Y-48000D01*
X-17000Y-58000D02*
Y-49000D01*
X-20000Y-56500D02*
Y-51000D01*
X-26500Y-44500D02*
X-20000Y-51000D01*
X-33377Y-65623D02*
X-28755Y-61000D01*
X-23500Y-42500D02*
Y-15500D01*
Y-42500D02*
X-17000Y-49000D01*
X-23500Y-56000D02*
Y-52000D01*
X-26500Y-44500D02*
Y-14000D01*
X-29500Y-46000D02*
Y-17000D01*
Y-46000D02*
X-23500Y-52000D01*
D60*
X-54193Y-15500D02*
X-49000Y-10307D01*
X-72500Y-15500D02*
X-54193D01*
X-82500Y-5500D02*
X-72500Y-15500D01*
X-100332Y-16832D02*
X-93500Y-10000D01*
X-100332Y-22059D02*
Y-16832D01*
X-46500Y58500D02*
X-29500Y75500D01*
X3000D01*
X-48500Y58500D02*
X-46500D01*
X-40000Y-41530D02*
Y-38000D01*
Y-41530D02*
X-39400Y-42130D01*
Y-63600D02*
Y-42130D01*
X-33500Y-69500D02*
X-17000D01*
X-39400Y-63600D02*
X-33500Y-69500D01*
X-12500Y-65000D02*
X19500D01*
X-17000Y-69500D02*
X-12500Y-65000D01*
X89000Y-69000D02*
X90000Y-70000D01*
X71000Y-69000D02*
X89000D01*
X69070Y-70930D02*
X71000Y-69000D01*
X59500Y-70930D02*
X69070D01*
X59470Y-70900D02*
X59500Y-70930D01*
X25400Y-70900D02*
X59470D01*
X19500Y-65000D02*
X25400Y-70900D01*
X19500Y-65000D02*
Y-61500D01*
X2404Y-5000D02*
X11500D01*
X18000Y-11500D01*
Y-18500D02*
Y-11500D01*
X19465Y-44850D02*
X19500Y-44886D01*
Y-61500D02*
Y-44886D01*
X16000Y-41385D02*
X19465Y-44850D01*
X16000Y-20500D02*
X18000Y-18500D01*
X16000Y-41385D02*
Y-20500D01*
X18000Y-18500D02*
X25885D01*
X29535Y-22150D01*
D61*
X-66000Y72000D02*
X-44500D01*
X-69500Y75500D02*
X-66000Y72000D01*
D64*
X112205Y72835D02*
D03*
Y-72835D02*
D03*
X-112205D02*
D03*
Y72835D02*
D03*
D65*
X62201Y-3425D02*
D03*
Y-64409D02*
D03*
D66*
X93500Y-7834D02*
D03*
Y-17834D02*
D03*
Y-50000D02*
D03*
Y-60000D02*
D03*
D67*
X39209Y-16437D02*
D03*
X49209Y-21437D02*
D03*
X39209Y-26437D02*
D03*
X49209Y-31437D02*
D03*
X39209Y-36437D02*
D03*
X49209Y-41437D02*
D03*
X39209Y-46437D02*
D03*
D68*
X49209Y-51437D02*
D03*
D69*
X-94642Y-35122D02*
D03*
X-94642Y-57878D02*
D03*
D70*
X-108421Y-63528D02*
D03*
Y-29472D02*
D03*
D71*
X-92673Y-63528D02*
D03*
X-92673Y-29472D02*
D03*
D72*
X-44000Y-61500D02*
D03*
X-38000Y55500D02*
D03*
X-69195Y20920D02*
D03*
X-55805Y29081D02*
D03*
X-67000Y-32000D02*
D03*
Y-29500D02*
D03*
Y-27000D02*
D03*
X-43953Y-49547D02*
D03*
X19785Y-33500D02*
D03*
X25880Y5758D02*
D03*
X19895Y62254D02*
D03*
X-9250Y66285D02*
D03*
X-96750Y67250D02*
D03*
X-93750Y9750D02*
D03*
X-94250Y46250D02*
D03*
X-58218Y-9121D02*
D03*
X-84750Y-24715D02*
D03*
X-113250Y-12285D02*
D03*
X-86250Y-30250D02*
D03*
X-84250Y-59250D02*
D03*
X-47750Y-69715D02*
D03*
X-65140Y-56911D02*
D03*
X-54500Y-45000D02*
D03*
X-51500Y-39500D02*
D03*
X-38000Y-10000D02*
D03*
X-9000Y-32500D02*
D03*
X-7000Y-22500D02*
D03*
Y-5000D02*
D03*
X-82500Y-5500D02*
D03*
X-100332Y-22059D02*
D03*
X-93500Y-10000D02*
D03*
X-53500Y-2000D02*
D03*
X-69500Y-12000D02*
D03*
X-53500Y9500D02*
D03*
X-40000Y23000D02*
D03*
X-49000Y-10307D02*
D03*
X3000Y75500D02*
D03*
X-48500Y58500D02*
D03*
X-34250Y15750D02*
D03*
X-36000Y13000D02*
D03*
X-39500Y11000D02*
D03*
X-42000D02*
D03*
X-92000Y1500D02*
D03*
Y4000D02*
D03*
X-92500Y40500D02*
D03*
Y37500D02*
D03*
X-81500Y63000D02*
D03*
X-68500Y63500D02*
D03*
X-37000Y51500D02*
D03*
X-39000Y49500D02*
D03*
X-69500Y75500D02*
D03*
X-44500Y72000D02*
D03*
X-11500Y25000D02*
D03*
Y27500D02*
D03*
X-69000Y-48500D02*
D03*
Y-43500D02*
D03*
X-35500Y-13000D02*
D03*
X-40000Y-38000D02*
D03*
X75000Y-72000D02*
D03*
X77500Y-75000D02*
D03*
X90000Y-70000D02*
D03*
X-44000Y-46000D02*
D03*
X-43500Y-41000D02*
D03*
X11500Y75500D02*
D03*
X-13602Y32897D02*
D03*
X4500Y17500D02*
D03*
X84500Y58500D02*
D03*
X2404Y-5000D02*
D03*
X82500Y14000D02*
D03*
X78000D02*
D03*
X7500Y24500D02*
D03*
Y20500D02*
D03*
X29535Y-22150D02*
D03*
X19465Y-44850D02*
D03*
X19500Y-61500D02*
D03*
X19000Y-22500D02*
D03*
X-20500Y-12500D02*
D03*
X-23500Y-15500D02*
D03*
X-26500Y-14000D02*
D03*
X-29500Y-17000D02*
D03*
X-33000Y-16500D02*
D03*
X-17000Y-58000D02*
D03*
X-20000Y-56500D02*
D03*
X-23500Y-56000D02*
D03*
X-33377Y-65623D02*
D03*
X-26500Y-54500D02*
D03*
X-30500Y-54000D02*
D03*
M02*
