G04*
G04 #@! TF.GenerationSoftware,Altium Limited,Altium Designer,20.0.2 (26)*
G04*
G04 Layer_Color=65535*
%FSLAX25Y25*%
%MOIN*%
G70*
G01*
G75*
%ADD10C,0.01000*%
%ADD11C,0.01575*%
%ADD12C,0.01181*%
%ADD13C,0.02362*%
%ADD14C,0.00787*%
%ADD15C,0.00799*%
%ADD16C,0.00600*%
%ADD17C,0.00598*%
%ADD18C,0.00800*%
G36*
X-71949Y-33159D02*
Y-31772D01*
X-70749D01*
Y-33159D01*
X-71949D01*
D01*
D02*
G37*
G36*
Y-26841D02*
Y-28228D01*
X-70749D01*
Y-26841D01*
X-71949D01*
D01*
D02*
G37*
G36*
X-45685Y34765D02*
Y34765D01*
X-42265Y38185D01*
X-45685D01*
Y34765D01*
D01*
D02*
G37*
G36*
X12512Y61913D02*
Y59551D01*
X12118Y59157D01*
X9756D01*
X12512Y61913D01*
D01*
D02*
G37*
G36*
X-96561Y63384D02*
X-100439D01*
Y76618D01*
X-96561D01*
Y63384D01*
D02*
G37*
G36*
X-90975Y-68044D02*
X-90962Y-68057D01*
X-90955Y-68063D01*
X-90949Y-68076D01*
X-90936Y-68095D01*
X-90923Y-68128D01*
X-90917Y-68173D01*
X-90910Y-68219D01*
X-90917Y-68277D01*
X-90936Y-68348D01*
X-90943Y-68361D01*
X-90955Y-68387D01*
X-90988Y-68432D01*
X-91027Y-68497D01*
X-91079Y-68568D01*
X-91143Y-68646D01*
X-91221Y-68724D01*
X-91312Y-68808D01*
X-91318Y-68815D01*
X-91344Y-68841D01*
X-91383Y-68873D01*
X-91422Y-68912D01*
X-91519Y-68996D01*
X-91565Y-69029D01*
X-91603Y-69055D01*
X-91610Y-69061D01*
X-91629Y-69080D01*
X-91662Y-69100D01*
X-91694Y-69119D01*
X-91701Y-69126D01*
X-91707Y-69152D01*
X-91727Y-69178D01*
X-91746Y-69217D01*
X-91765Y-69249D01*
X-91778Y-69275D01*
X-91791Y-69294D01*
X-91811D01*
X-91830Y-69275D01*
X-91843Y-69262D01*
X-91850Y-69242D01*
Y-69210D01*
X-91843Y-69165D01*
Y-69158D01*
Y-69139D01*
Y-69106D01*
Y-69074D01*
X-91856Y-68996D01*
X-91863Y-68964D01*
X-91869Y-68931D01*
Y-68925D01*
Y-68918D01*
Y-68893D01*
X-91863Y-68854D01*
X-91850Y-68821D01*
Y-68815D01*
X-91843Y-68802D01*
Y-68782D01*
X-91837Y-68756D01*
X-91830Y-68698D01*
X-91824Y-68640D01*
Y-68633D01*
Y-68614D01*
X-91830Y-68588D01*
Y-68549D01*
X-91824Y-68497D01*
Y-68445D01*
X-91811Y-68374D01*
X-91798Y-68303D01*
Y-68296D01*
Y-68270D01*
Y-68238D01*
Y-68199D01*
X-91817D01*
Y-68193D01*
X-91798D01*
X-91804Y-68186D01*
X-91817Y-68183D01*
X-91798Y-68180D01*
X-91752Y-68154D01*
X-91739D01*
X-91720Y-68160D01*
X-91662D01*
X-91616Y-68154D01*
X-91565Y-68141D01*
X-91500Y-68128D01*
X-91487Y-68121D01*
X-91461Y-68115D01*
X-91416Y-68102D01*
X-91364Y-68082D01*
X-91241Y-68057D01*
X-91176Y-68050D01*
X-91124Y-68044D01*
X-91117D01*
X-91098Y-68037D01*
X-90994D01*
X-90975Y-68044D01*
D02*
G37*
G36*
X-89951Y-70020D02*
X-89957Y-69962D01*
X-89964Y-69897D01*
X-89977Y-69819D01*
Y-69813D01*
X-89983Y-69787D01*
X-89990Y-69748D01*
X-89996Y-69703D01*
X-90022Y-69605D01*
X-90035Y-69560D01*
X-90055Y-69528D01*
X-90061Y-69515D01*
X-90087Y-69476D01*
X-90132Y-69417D01*
X-90197Y-69333D01*
X-90204Y-69327D01*
X-90217Y-69314D01*
X-90243Y-69301D01*
X-90269Y-69275D01*
X-90333Y-69230D01*
X-90392Y-69191D01*
X-90398Y-69184D01*
X-90424Y-69178D01*
X-90463Y-69165D01*
X-90515Y-69145D01*
X-90573Y-69132D01*
X-90638Y-69113D01*
X-90774Y-69087D01*
X-90781D01*
X-90800Y-69080D01*
X-90819D01*
X-90845Y-69074D01*
X-90868D01*
X-90858Y-69068D01*
X-90832Y-69055D01*
X-90800Y-69042D01*
X-90793Y-69035D01*
X-90774Y-69022D01*
X-90742Y-68996D01*
X-90703Y-68964D01*
X-90657Y-68918D01*
X-90605Y-68867D01*
X-90554Y-68808D01*
X-90508Y-68737D01*
Y-68730D01*
X-90502Y-68724D01*
X-90482Y-68692D01*
X-90456Y-68653D01*
X-90424Y-68620D01*
X-90418Y-68607D01*
X-90405Y-68594D01*
X-90392Y-68568D01*
X-90379Y-68543D01*
X-90359Y-68504D01*
X-90340Y-68458D01*
X-90320Y-68406D01*
Y-68400D01*
X-90314Y-68374D01*
Y-68342D01*
X-90307Y-68296D01*
Y-68244D01*
Y-68186D01*
X-90320Y-68063D01*
X-90327Y-68050D01*
X-90340Y-68018D01*
X-90359Y-67972D01*
X-90392Y-67914D01*
X-90431Y-67849D01*
X-90476Y-67784D01*
X-90528Y-67720D01*
X-90593Y-67668D01*
X-90599Y-67661D01*
X-90625Y-67648D01*
X-90664Y-67635D01*
X-90716Y-67610D01*
X-90774Y-67590D01*
X-90852Y-67577D01*
X-90930Y-67564D01*
X-91020Y-67558D01*
X-89951D01*
Y-70020D01*
D02*
G37*
G36*
X-90845Y-69502D02*
X-90826D01*
X-90813Y-69515D01*
X-90787Y-69521D01*
X-90761Y-69534D01*
X-90709Y-69560D01*
X-90683Y-69573D01*
X-90670Y-69579D01*
X-90664Y-69592D01*
X-90644Y-69618D01*
X-90612Y-69651D01*
X-90573Y-69696D01*
Y-69703D01*
Y-69709D01*
Y-69748D01*
Y-69800D01*
Y-69864D01*
X-90586Y-70007D01*
X-90599Y-70072D01*
X-90618Y-70124D01*
X-90625Y-70130D01*
X-90638Y-70156D01*
X-90657Y-70188D01*
X-90690Y-70240D01*
X-90729Y-70299D01*
X-90781Y-70363D01*
X-90845Y-70441D01*
X-90923Y-70519D01*
X-90936Y-70525D01*
X-90962Y-70551D01*
X-91007Y-70584D01*
X-91059Y-70629D01*
X-91169Y-70713D01*
X-91221Y-70752D01*
X-91267Y-70778D01*
X-91273D01*
X-91279Y-70785D01*
X-91318Y-70804D01*
X-91377Y-70830D01*
X-91454Y-70856D01*
X-91545Y-70888D01*
X-91636Y-70921D01*
X-91733Y-70947D01*
X-91830Y-70960D01*
X-91837D01*
X-91843Y-70966D01*
X-91869Y-70986D01*
X-91901Y-71005D01*
X-91908Y-71012D01*
X-91914Y-71018D01*
X-91921Y-71005D01*
X-91947Y-70979D01*
X-91960Y-70947D01*
X-91966Y-70934D01*
X-91960Y-70921D01*
Y-70914D01*
X-91953Y-70908D01*
X-91947Y-70869D01*
X-91940Y-70824D01*
X-91934Y-70765D01*
Y-70759D01*
Y-70752D01*
Y-70713D01*
Y-70661D01*
Y-70584D01*
Y-70577D01*
Y-70571D01*
Y-70532D01*
Y-70480D01*
Y-70422D01*
X-91940Y-70409D01*
X-91934Y-70383D01*
X-91927Y-70370D01*
X-91914Y-70344D01*
Y-70337D01*
Y-70331D01*
Y-70299D01*
Y-70266D01*
Y-70240D01*
Y-70234D01*
Y-70221D01*
Y-70188D01*
Y-70163D01*
Y-70130D01*
Y-70124D01*
X-91908Y-70117D01*
X-91901Y-70072D01*
X-91895Y-70020D01*
X-91889Y-69955D01*
Y-69949D01*
X-91895Y-69929D01*
X-91889Y-69903D01*
X-91882Y-69890D01*
X-91869Y-69871D01*
Y-69864D01*
Y-69845D01*
X-91863Y-69826D01*
X-91856Y-69813D01*
X-91850D01*
X-91843Y-69806D01*
X-91811Y-69793D01*
X-91765Y-69774D01*
X-91714Y-69741D01*
X-91707D01*
X-91701Y-69735D01*
X-91662Y-69715D01*
X-91610Y-69690D01*
X-91565Y-69657D01*
X-91558D01*
X-91545Y-69651D01*
X-91526Y-69644D01*
X-91500Y-69631D01*
X-91441Y-69605D01*
X-91383Y-69554D01*
X-91377Y-69547D01*
X-91357Y-69528D01*
X-91331Y-69508D01*
X-91318Y-69502D01*
X-91098D01*
X-91079Y-69495D01*
X-91053D01*
X-91020Y-69489D01*
X-90955Y-69482D01*
X-90930Y-69476D01*
X-90917D01*
X-90845Y-69502D01*
D02*
G37*
G36*
X-91072Y-67564D02*
X-91111D01*
X-91156Y-67577D01*
X-91215Y-67590D01*
X-91279Y-67603D01*
X-91357Y-67629D01*
X-91370D01*
X-91396Y-67635D01*
X-91435Y-67648D01*
X-91487Y-67655D01*
X-91590Y-67681D01*
X-91636Y-67694D01*
X-91675Y-67700D01*
X-91688D01*
X-91733Y-67713D01*
X-91791Y-67726D01*
X-91856Y-67746D01*
X-91869D01*
X-91908Y-67752D01*
X-91966Y-67759D01*
X-92044Y-67765D01*
X-92135Y-67784D01*
X-92225Y-67804D01*
X-92323Y-67830D01*
X-92420Y-67862D01*
X-92426Y-67869D01*
X-92439Y-67875D01*
X-92472Y-67901D01*
X-92517Y-67933D01*
X-92537Y-67940D01*
X-92550Y-67946D01*
X-92556Y-67953D01*
X-92569Y-67972D01*
X-92588Y-68005D01*
X-92608Y-68037D01*
X-92621Y-68069D01*
X-92634Y-68102D01*
Y-68076D01*
Y-71439D01*
Y-68134D01*
X-92627Y-68154D01*
Y-68167D01*
X-92614Y-68199D01*
X-92601Y-68219D01*
X-92575Y-68238D01*
X-92550Y-68251D01*
X-92511Y-68270D01*
X-92277D01*
Y-68264D01*
X-92271Y-68257D01*
X-92258D01*
X-92251Y-68270D01*
X-92258D01*
X-92264Y-68264D01*
Y-68277D01*
X-92271Y-68290D01*
X-92277Y-68316D01*
X-92284Y-68355D01*
X-92290Y-68406D01*
X-92303Y-68478D01*
X-92310Y-68562D01*
Y-68568D01*
X-92316Y-68594D01*
X-92323Y-68633D01*
X-92329Y-68679D01*
X-92336Y-68737D01*
X-92342Y-68795D01*
X-92336Y-68925D01*
Y-68931D01*
Y-68951D01*
Y-68977D01*
Y-69016D01*
X-92342Y-69061D01*
Y-69113D01*
X-92349Y-69230D01*
X-92355Y-69359D01*
X-92362Y-69489D01*
X-92368Y-69605D01*
Y-69657D01*
X-92375Y-69703D01*
X-92381Y-69715D01*
Y-69735D01*
X-92387Y-69761D01*
X-92400Y-69793D01*
X-92407Y-69832D01*
X-92413Y-69877D01*
X-92426Y-69936D01*
Y-69942D01*
Y-69962D01*
X-92433Y-69994D01*
Y-70033D01*
X-92439Y-70130D01*
X-92446Y-70234D01*
Y-70240D01*
Y-70253D01*
X-92452Y-70273D01*
Y-70299D01*
X-92459Y-70363D01*
X-92472Y-70441D01*
X-92478Y-70525D01*
X-92491Y-70603D01*
X-92504Y-70675D01*
Y-70700D01*
X-92511Y-70726D01*
Y-70733D01*
X-92517Y-70752D01*
X-92524Y-70785D01*
X-92530Y-70824D01*
X-92537Y-70869D01*
Y-70914D01*
X-92530Y-70973D01*
X-92517Y-71024D01*
Y-71031D01*
Y-71037D01*
X-92504Y-71076D01*
X-92478Y-71128D01*
X-92459Y-71148D01*
X-92426Y-71167D01*
X-92375D01*
X-92362Y-71174D01*
X-92329Y-71193D01*
Y-71199D01*
X-92323Y-71212D01*
X-92303Y-71258D01*
X-92284Y-71284D01*
X-92258Y-71310D01*
X-92219Y-71329D01*
X-92180Y-71342D01*
X-92174Y-71348D01*
X-92161Y-71368D01*
X-92128Y-71387D01*
X-92089Y-71394D01*
X-92083D01*
X-92070Y-71400D01*
X-92044Y-71413D01*
X-92005Y-71420D01*
X-91960Y-71433D01*
X-91895Y-71439D01*
X-91811D01*
X-91714Y-71433D01*
X-91707D01*
X-91675Y-71426D01*
X-91629Y-71420D01*
X-91565Y-71407D01*
X-91474Y-71387D01*
X-91364Y-71361D01*
X-91228Y-71323D01*
X-91072Y-71277D01*
X-91066D01*
X-91053Y-71271D01*
X-91033Y-71264D01*
X-91007Y-71258D01*
X-90955Y-71232D01*
X-90904Y-71193D01*
X-90891Y-71174D01*
X-90852Y-71161D01*
X-90845D01*
X-90832Y-71154D01*
X-90813Y-71141D01*
X-90781Y-71128D01*
X-90729Y-71096D01*
X-90696Y-71076D01*
X-90677Y-71057D01*
X-90664Y-71050D01*
X-90638Y-71031D01*
X-90593Y-71005D01*
X-90534Y-70966D01*
X-90528Y-70960D01*
X-90515Y-70940D01*
X-90482Y-70914D01*
X-90431Y-70882D01*
X-90424Y-70875D01*
X-90411Y-70862D01*
X-90392Y-70843D01*
X-90359Y-70804D01*
X-90314Y-70759D01*
X-90262Y-70700D01*
X-90197Y-70629D01*
X-90126Y-70545D01*
X-90119Y-70538D01*
X-90113Y-70525D01*
X-90100Y-70499D01*
X-90081Y-70467D01*
X-90042Y-70389D01*
X-90003Y-70305D01*
Y-70299D01*
X-89996Y-70286D01*
Y-70266D01*
X-89990Y-70240D01*
X-89970Y-70188D01*
X-89964Y-70163D01*
X-89957Y-70143D01*
Y-70137D01*
X-89951Y-70124D01*
Y-67558D01*
X-84336D01*
Y-71439D01*
X-104664D01*
Y-67558D01*
X-92634D01*
D01*
X-91040D01*
X-91072Y-67564D01*
D02*
G37*
G36*
X34106Y76966D02*
X34119Y76953D01*
X34126Y76947D01*
X34132Y76934D01*
X34145Y76914D01*
X34158Y76882D01*
X34164Y76837D01*
X34171Y76791D01*
X34164Y76733D01*
X34145Y76661D01*
X34139Y76649D01*
X34126Y76623D01*
X34093Y76577D01*
X34054Y76512D01*
X34002Y76441D01*
X33938Y76363D01*
X33860Y76286D01*
X33769Y76201D01*
X33763Y76195D01*
X33737Y76169D01*
X33698Y76137D01*
X33659Y76098D01*
X33562Y76013D01*
X33516Y75981D01*
X33478Y75955D01*
X33471Y75949D01*
X33452Y75929D01*
X33419Y75910D01*
X33387Y75890D01*
X33380Y75884D01*
X33374Y75858D01*
X33354Y75832D01*
X33335Y75793D01*
X33316Y75761D01*
X33303Y75735D01*
X33290Y75716D01*
X33270D01*
X33251Y75735D01*
X33238Y75748D01*
X33231Y75767D01*
Y75800D01*
X33238Y75845D01*
Y75852D01*
Y75871D01*
Y75903D01*
Y75936D01*
X33225Y76013D01*
X33218Y76046D01*
X33212Y76078D01*
Y76085D01*
Y76091D01*
Y76117D01*
X33218Y76156D01*
X33231Y76188D01*
Y76195D01*
X33238Y76208D01*
Y76227D01*
X33244Y76253D01*
X33251Y76312D01*
X33257Y76370D01*
Y76376D01*
Y76396D01*
X33251Y76422D01*
Y76461D01*
X33257Y76512D01*
Y76564D01*
X33270Y76636D01*
X33283Y76707D01*
Y76713D01*
Y76739D01*
Y76772D01*
Y76811D01*
X33264D01*
Y76817D01*
X33283D01*
X33277Y76824D01*
X33264Y76827D01*
X33283Y76830D01*
X33329Y76856D01*
X33342D01*
X33361Y76850D01*
X33419D01*
X33465Y76856D01*
X33516Y76869D01*
X33581Y76882D01*
X33594Y76888D01*
X33620Y76895D01*
X33665Y76908D01*
X33717Y76927D01*
X33840Y76953D01*
X33905Y76960D01*
X33957Y76966D01*
X33964D01*
X33983Y76973D01*
X34087D01*
X34106Y76966D01*
D02*
G37*
G36*
X35130Y77452D02*
X40664D01*
Y73551D01*
X20336D01*
Y77452D01*
X32447D01*
D01*
X34041D01*
X34009Y77446D01*
X33970D01*
X33925Y77433D01*
X33866Y77420D01*
X33802Y77407D01*
X33724Y77381D01*
X33711D01*
X33685Y77374D01*
X33646Y77361D01*
X33594Y77355D01*
X33490Y77329D01*
X33445Y77316D01*
X33406Y77310D01*
X33393D01*
X33348Y77297D01*
X33290Y77284D01*
X33225Y77264D01*
X33212D01*
X33173Y77258D01*
X33115Y77251D01*
X33037Y77245D01*
X32946Y77225D01*
X32855Y77206D01*
X32758Y77180D01*
X32661Y77148D01*
X32655Y77141D01*
X32642Y77135D01*
X32609Y77109D01*
X32564Y77076D01*
X32544Y77070D01*
X32531Y77063D01*
X32525Y77057D01*
X32512Y77037D01*
X32493Y77005D01*
X32473Y76973D01*
X32460Y76940D01*
X32447Y76908D01*
Y76875D01*
X32454Y76856D01*
Y76843D01*
X32467Y76811D01*
X32480Y76791D01*
X32506Y76772D01*
X32531Y76759D01*
X32570Y76739D01*
X32804D01*
Y76746D01*
X32810Y76752D01*
X32823D01*
X32830Y76739D01*
X32823D01*
X32817Y76746D01*
Y76733D01*
X32810Y76720D01*
X32804Y76694D01*
X32797Y76655D01*
X32791Y76603D01*
X32778Y76532D01*
X32771Y76448D01*
Y76441D01*
X32765Y76415D01*
X32758Y76376D01*
X32752Y76331D01*
X32745Y76273D01*
X32739Y76214D01*
X32745Y76085D01*
Y76078D01*
Y76059D01*
Y76033D01*
Y75994D01*
X32739Y75949D01*
Y75897D01*
X32732Y75780D01*
X32726Y75651D01*
X32719Y75521D01*
X32713Y75404D01*
Y75353D01*
X32706Y75307D01*
X32700Y75294D01*
Y75275D01*
X32693Y75249D01*
X32680Y75217D01*
X32674Y75178D01*
X32668Y75132D01*
X32655Y75074D01*
Y75068D01*
Y75048D01*
X32648Y75016D01*
Y74977D01*
X32642Y74879D01*
X32635Y74776D01*
Y74769D01*
Y74756D01*
X32629Y74737D01*
Y74711D01*
X32622Y74646D01*
X32609Y74568D01*
X32603Y74484D01*
X32590Y74406D01*
X32577Y74335D01*
Y74309D01*
X32570Y74283D01*
Y74277D01*
X32564Y74257D01*
X32557Y74225D01*
X32551Y74186D01*
X32544Y74141D01*
Y74095D01*
X32551Y74037D01*
X32564Y73985D01*
Y73979D01*
Y73972D01*
X32577Y73934D01*
X32603Y73882D01*
X32622Y73862D01*
X32655Y73843D01*
X32706D01*
X32719Y73836D01*
X32752Y73817D01*
Y73810D01*
X32758Y73797D01*
X32778Y73752D01*
X32797Y73726D01*
X32823Y73700D01*
X32862Y73681D01*
X32901Y73668D01*
X32907Y73661D01*
X32920Y73642D01*
X32953Y73622D01*
X32992Y73616D01*
X32998D01*
X33011Y73610D01*
X33037Y73597D01*
X33076Y73590D01*
X33121Y73577D01*
X33186Y73571D01*
X32447D01*
X35130D01*
X33270D01*
X33367Y73577D01*
X33374D01*
X33406Y73584D01*
X33452Y73590D01*
X33516Y73603D01*
X33607Y73622D01*
X33717Y73648D01*
X33853Y73687D01*
X34009Y73733D01*
X34015D01*
X34028Y73739D01*
X34048Y73746D01*
X34074Y73752D01*
X34126Y73778D01*
X34177Y73817D01*
X34190Y73836D01*
X34229Y73849D01*
X34236D01*
X34249Y73856D01*
X34268Y73869D01*
X34301Y73882D01*
X34352Y73914D01*
X34385Y73934D01*
X34404Y73953D01*
X34417Y73959D01*
X34443Y73979D01*
X34488Y74005D01*
X34547Y74044D01*
X34553Y74050D01*
X34566Y74069D01*
X34599Y74095D01*
X34650Y74128D01*
X34657Y74134D01*
X34670Y74147D01*
X34689Y74167D01*
X34722Y74206D01*
X34767Y74251D01*
X34819Y74309D01*
X34884Y74381D01*
X34955Y74465D01*
X34962Y74471D01*
X34968Y74484D01*
X34981Y74510D01*
X35000Y74543D01*
X35039Y74620D01*
X35078Y74705D01*
Y74711D01*
X35085Y74724D01*
Y74743D01*
X35091Y74769D01*
X35111Y74821D01*
X35117Y74847D01*
X35124Y74867D01*
Y74873D01*
X35130Y74886D01*
Y74990D01*
X35124Y75048D01*
X35117Y75113D01*
X35104Y75191D01*
Y75197D01*
X35098Y75223D01*
X35091Y75262D01*
X35085Y75307D01*
X35059Y75404D01*
X35046Y75450D01*
X35026Y75482D01*
X35020Y75495D01*
X34994Y75534D01*
X34949Y75592D01*
X34884Y75677D01*
X34877Y75683D01*
X34864Y75696D01*
X34838Y75709D01*
X34812Y75735D01*
X34748Y75780D01*
X34689Y75819D01*
X34683Y75826D01*
X34657Y75832D01*
X34618Y75845D01*
X34566Y75864D01*
X34508Y75877D01*
X34443Y75897D01*
X34307Y75923D01*
X34301D01*
X34281Y75929D01*
X34262D01*
X34236Y75936D01*
X34213D01*
X34223Y75942D01*
X34249Y75955D01*
X34281Y75968D01*
X34288Y75975D01*
X34307Y75988D01*
X34339Y76013D01*
X34378Y76046D01*
X34424Y76091D01*
X34475Y76143D01*
X34527Y76201D01*
X34573Y76273D01*
Y76279D01*
X34579Y76286D01*
X34599Y76318D01*
X34624Y76357D01*
X34657Y76389D01*
X34663Y76402D01*
X34676Y76415D01*
X34689Y76441D01*
X34702Y76467D01*
X34722Y76506D01*
X34741Y76551D01*
X34761Y76603D01*
Y76610D01*
X34767Y76636D01*
Y76668D01*
X34774Y76713D01*
Y76765D01*
Y76824D01*
X34761Y76947D01*
X34754Y76960D01*
X34741Y76992D01*
X34722Y77037D01*
X34689Y77096D01*
X34650Y77161D01*
X34605Y77225D01*
X34553Y77290D01*
X34488Y77342D01*
X34482Y77348D01*
X34456Y77361D01*
X34417Y77374D01*
X34365Y77400D01*
X34307Y77420D01*
X34229Y77433D01*
X34152Y77446D01*
X34061Y77452D01*
X35130D01*
D01*
D02*
G37*
G36*
X34236Y75508D02*
X34255D01*
X34268Y75495D01*
X34294Y75489D01*
X34320Y75476D01*
X34372Y75450D01*
X34398Y75437D01*
X34411Y75430D01*
X34417Y75417D01*
X34437Y75392D01*
X34469Y75359D01*
X34508Y75314D01*
Y75307D01*
Y75301D01*
Y75262D01*
Y75210D01*
Y75145D01*
X34495Y75003D01*
X34482Y74938D01*
X34462Y74886D01*
X34456Y74879D01*
X34443Y74854D01*
X34424Y74821D01*
X34391Y74769D01*
X34352Y74711D01*
X34301Y74646D01*
X34236Y74568D01*
X34158Y74491D01*
X34145Y74484D01*
X34119Y74458D01*
X34074Y74426D01*
X34022Y74381D01*
X33912Y74296D01*
X33860Y74257D01*
X33814Y74231D01*
X33808D01*
X33802Y74225D01*
X33763Y74206D01*
X33704Y74180D01*
X33627Y74154D01*
X33536Y74121D01*
X33445Y74089D01*
X33348Y74063D01*
X33251Y74050D01*
X33244D01*
X33238Y74044D01*
X33212Y74024D01*
X33180Y74005D01*
X33173Y73998D01*
X33167Y73992D01*
X33160Y74005D01*
X33134Y74031D01*
X33121Y74063D01*
X33115Y74076D01*
X33121Y74089D01*
Y74095D01*
X33128Y74102D01*
X33134Y74141D01*
X33141Y74186D01*
X33147Y74244D01*
Y74251D01*
Y74257D01*
Y74296D01*
Y74348D01*
Y74426D01*
Y74432D01*
Y74439D01*
Y74478D01*
Y74530D01*
Y74588D01*
X33141Y74601D01*
X33147Y74627D01*
X33154Y74640D01*
X33167Y74666D01*
Y74672D01*
Y74679D01*
Y74711D01*
Y74743D01*
Y74769D01*
Y74776D01*
Y74789D01*
Y74821D01*
Y74847D01*
Y74879D01*
Y74886D01*
X33173Y74892D01*
X33180Y74938D01*
X33186Y74990D01*
X33192Y75055D01*
Y75061D01*
X33186Y75080D01*
X33192Y75106D01*
X33199Y75119D01*
X33212Y75139D01*
Y75145D01*
Y75165D01*
X33218Y75184D01*
X33225Y75197D01*
X33231D01*
X33238Y75204D01*
X33270Y75217D01*
X33316Y75236D01*
X33367Y75268D01*
X33374D01*
X33380Y75275D01*
X33419Y75294D01*
X33471Y75320D01*
X33516Y75353D01*
X33523D01*
X33536Y75359D01*
X33555Y75366D01*
X33581Y75379D01*
X33640Y75404D01*
X33698Y75456D01*
X33704Y75463D01*
X33724Y75482D01*
X33750Y75502D01*
X33763Y75508D01*
X33983D01*
X34002Y75515D01*
X34028D01*
X34061Y75521D01*
X34126Y75528D01*
X34152Y75534D01*
X34164D01*
X34236Y75508D01*
D02*
G37*
G36*
X-90803Y22891D02*
X-90764Y22884D01*
X-90739Y22878D01*
X-90732D01*
X-90564Y22852D01*
X-90486Y22748D01*
X-90428Y22683D01*
X-90389Y22619D01*
X-90363Y22567D01*
X-90343Y22521D01*
X-90337Y22483D01*
Y22431D01*
X-90343Y22385D01*
X-90356Y22346D01*
X-90376Y22314D01*
X-90402Y22295D01*
X-90447Y22262D01*
X-90460Y22256D01*
X-90466D01*
X-90505Y22249D01*
X-90538Y22243D01*
X-90557D01*
X-90577Y22236D01*
X-90589D01*
X-90596Y22262D01*
X-90609Y22275D01*
X-90628Y22288D01*
X-90635D01*
X-90667Y22321D01*
X-90693Y22340D01*
X-90719Y22346D01*
X-90726D01*
X-90739Y22353D01*
X-90751D01*
X-90771Y22346D01*
X-90797Y22333D01*
X-90803Y22327D01*
X-90829Y22314D01*
X-90842Y22295D01*
X-90862Y22243D01*
Y22172D01*
X-90868Y22139D01*
X-90855Y22107D01*
X-90842Y22081D01*
X-90836Y22068D01*
X-90816Y21899D01*
X-90758Y21789D01*
X-90726Y21737D01*
X-90700Y21692D01*
X-90674Y21647D01*
X-90648Y21614D01*
X-90635Y21595D01*
X-90628Y21588D01*
X-90570Y21517D01*
X-90512Y21446D01*
X-90453Y21387D01*
X-90408Y21342D01*
X-90369Y21303D01*
X-90337Y21277D01*
X-90317Y21258D01*
X-90311Y21251D01*
X-90175Y21167D01*
X-90110Y21135D01*
X-90045Y21102D01*
X-89993Y21070D01*
X-89955Y21050D01*
X-89922Y21037D01*
X-89916Y21031D01*
X-89883Y21025D01*
X-89857Y21012D01*
X-89818Y20999D01*
X-89806Y20986D01*
X-89799D01*
X-89793D01*
X-89780D01*
X-89728D01*
X-89682D01*
X-89669D01*
X-89663D01*
X-89618D01*
X-89585D01*
X-89559Y20992D01*
X-89533D01*
X-89507Y20999D01*
X-89501Y21005D01*
X-89462Y21037D01*
X-89430Y21089D01*
X-89410Y21141D01*
X-89391Y21200D01*
X-89384Y21251D01*
X-89378Y21297D01*
Y21394D01*
X-89384Y21439D01*
Y21478D01*
X-89391Y21517D01*
X-89397Y21543D01*
Y21562D01*
X-89404Y21569D01*
Y21575D01*
X-89423Y21640D01*
X-89449Y21692D01*
X-89468Y21731D01*
X-89482Y21763D01*
X-89501Y21789D01*
X-89507Y21809D01*
X-89520Y21815D01*
Y21822D01*
X-89540Y21847D01*
X-89553Y21873D01*
X-89566Y21925D01*
X-89559Y21958D01*
X-89566D01*
X-89579Y21971D01*
X-89585Y21977D01*
X-89592Y21984D01*
X-89618Y21990D01*
X-89637Y22009D01*
X-89650Y22035D01*
X-89656Y22042D01*
X-89676Y22061D01*
X-89689Y22081D01*
X-89702Y22120D01*
X-89695Y22152D01*
Y22165D01*
X-89689Y22191D01*
X-89669Y22223D01*
X-89644Y22249D01*
X-89618Y22269D01*
X-89592Y22295D01*
X-89566Y22308D01*
X-89546Y22314D01*
X-89540Y22321D01*
X-89494Y22359D01*
X-89456Y22385D01*
X-89410Y22405D01*
X-89371Y22411D01*
X-89339D01*
X-89313D01*
X-89294Y22405D01*
X-89287D01*
X-89183Y22398D01*
X-89093Y22379D01*
X-89054Y22372D01*
X-89021Y22366D01*
X-89002Y22359D01*
X-88995D01*
X-88957D01*
X-88911Y22353D01*
X-88820Y22346D01*
X-88782Y22340D01*
X-88749D01*
X-88723Y22333D01*
X-88717D01*
X-88626Y22327D01*
X-88542Y22314D01*
X-88464Y22301D01*
X-88399Y22295D01*
X-88341Y22282D01*
X-88283Y22269D01*
X-88192Y22249D01*
X-88127Y22230D01*
X-88082Y22210D01*
X-88056Y22204D01*
X-88049Y22197D01*
X-88036Y22191D01*
X-88017Y22185D01*
X-87978Y22152D01*
X-87939Y22120D01*
X-87933Y22113D01*
X-87926Y22107D01*
X-87907Y22055D01*
X-87900Y22016D01*
X-87894Y21990D01*
Y21867D01*
X-87907Y21854D01*
X-87920Y21835D01*
X-87926Y21789D01*
X-87920Y21750D01*
Y21200D01*
X-87913Y21115D01*
X-87907Y21044D01*
Y20927D01*
X-87913Y20888D01*
Y20856D01*
X-87920Y20837D01*
Y20830D01*
X-87985Y20752D01*
X-88043Y20688D01*
X-88069Y20662D01*
X-88082Y20642D01*
X-88095Y20629D01*
X-88101Y20623D01*
X-88166Y20603D01*
X-88218Y20590D01*
X-88263D01*
X-88302Y20597D01*
X-88328Y20610D01*
X-88348Y20623D01*
X-88354Y20629D01*
X-88360Y20636D01*
X-88399Y20675D01*
Y21433D01*
X-88406Y21465D01*
X-88412Y21491D01*
X-88419Y21504D01*
X-88432Y21562D01*
X-88438Y21608D01*
X-88445Y21640D01*
Y21653D01*
X-88451Y21705D01*
X-88458Y21744D01*
X-88471Y21776D01*
X-88477Y21802D01*
X-88484Y21815D01*
Y21828D01*
X-88490Y21835D01*
X-88503Y21841D01*
X-88529Y21847D01*
X-88594Y21854D01*
X-88633Y21860D01*
X-88658D01*
X-88678Y21867D01*
X-88684D01*
X-88749D01*
X-88795D01*
X-88840D01*
X-88866D01*
X-88892D01*
X-88905D01*
X-88918D01*
X-88950Y21873D01*
X-88970D01*
X-88982Y21867D01*
Y21860D01*
X-89008Y21847D01*
X-88989Y21757D01*
X-88970Y21647D01*
X-88957Y21543D01*
Y21452D01*
X-88963Y21368D01*
X-88970Y21303D01*
X-88976Y21251D01*
X-88989Y21225D01*
Y21213D01*
X-89008Y21135D01*
X-89041Y21057D01*
X-89067Y20992D01*
X-89099Y20934D01*
X-89125Y20882D01*
X-89151Y20850D01*
X-89164Y20824D01*
X-89170Y20817D01*
X-89216Y20765D01*
X-89255Y20727D01*
X-89287Y20688D01*
X-89319Y20662D01*
X-89345Y20642D01*
X-89365Y20629D01*
X-89378Y20623D01*
X-89384D01*
X-89488Y20571D01*
X-89708Y20526D01*
X-89773D01*
X-89831D01*
X-89883Y20532D01*
X-89922D01*
X-89955Y20539D01*
X-89980D01*
X-89993Y20545D01*
X-90000D01*
X-90058Y20558D01*
X-90110Y20564D01*
X-90155Y20571D01*
X-90162D01*
X-90168D01*
X-90240Y20584D01*
X-90304Y20603D01*
X-90330Y20610D01*
X-90350D01*
X-90356Y20616D01*
X-90363D01*
X-90415Y20642D01*
X-90466Y20668D01*
X-90564Y20727D01*
X-90602Y20759D01*
X-90635Y20785D01*
X-90661Y20798D01*
X-90667Y20804D01*
X-90726Y20843D01*
X-90771Y20882D01*
X-90810Y20908D01*
X-90842Y20934D01*
X-90862Y20947D01*
X-90875Y20960D01*
X-90888Y20973D01*
X-90926Y21005D01*
X-90952Y21037D01*
X-90972Y21057D01*
X-90978Y21063D01*
X-91037Y21141D01*
X-91082Y21200D01*
X-91114Y21251D01*
X-91140Y21290D01*
X-91160Y21316D01*
X-91166Y21336D01*
X-91173Y21342D01*
Y21349D01*
X-91205Y21381D01*
X-91231Y21407D01*
X-91257Y21433D01*
X-91264Y21439D01*
X-91283Y21498D01*
X-91309Y21549D01*
X-91328Y21595D01*
X-91335Y21601D01*
Y21608D01*
X-91367Y21692D01*
X-91380Y21757D01*
X-91387Y21796D01*
Y21809D01*
X-91400Y21847D01*
X-91413Y21880D01*
X-91419Y21893D01*
X-91426Y21899D01*
X-91445Y21990D01*
X-91458Y22074D01*
X-91464Y22113D01*
Y22146D01*
X-91471Y22165D01*
Y22230D01*
X-91464Y22282D01*
X-91458Y22327D01*
X-91451Y22359D01*
X-91445Y22392D01*
X-91438Y22411D01*
X-91432Y22424D01*
Y22431D01*
X-91419Y22470D01*
X-91400Y22509D01*
X-91354Y22567D01*
X-91335Y22593D01*
X-91322Y22612D01*
X-91309Y22625D01*
X-91302Y22632D01*
X-91257Y22696D01*
X-91212Y22755D01*
X-91173Y22794D01*
X-91134Y22826D01*
X-91101Y22852D01*
X-91075Y22865D01*
X-91063Y22878D01*
X-91056D01*
X-91011Y22891D01*
X-90959Y22897D01*
X-90855D01*
X-90803Y22891D01*
D02*
G37*
G36*
X-87836Y20046D02*
X-87810Y20040D01*
X-87784Y20033D01*
X-87758Y20014D01*
X-87751Y20007D01*
X-87732Y19988D01*
X-87719Y19962D01*
X-87706Y19904D01*
Y19852D01*
X-87712Y19832D01*
Y19826D01*
X-87732Y19793D01*
X-87745Y19761D01*
X-87751Y19748D01*
X-87758Y19741D01*
X-87764Y19729D01*
X-87771Y19709D01*
X-87797Y19657D01*
X-87829Y19618D01*
X-87836Y19605D01*
X-87842Y19599D01*
X-87900Y19554D01*
X-87946Y19521D01*
X-87965Y19502D01*
X-87972Y19495D01*
X-88004Y19482D01*
X-88043Y19469D01*
X-88114Y19443D01*
X-88153Y19437D01*
X-88179Y19424D01*
X-88198Y19418D01*
X-88205D01*
X-88658Y19268D01*
X-88879Y19197D01*
X-89093Y19126D01*
X-89294Y19055D01*
X-89488Y18983D01*
X-89669Y18919D01*
X-89838Y18854D01*
X-89993Y18795D01*
X-90136Y18744D01*
X-90253Y18698D01*
X-90356Y18659D01*
X-90440Y18627D01*
X-90499Y18601D01*
X-90538Y18588D01*
X-90544Y18582D01*
X-90551D01*
X-90589Y18569D01*
X-90622Y18562D01*
X-90641Y18556D01*
X-90657D01*
X-90648Y18549D01*
X-90615Y18530D01*
X-90570Y18504D01*
X-90518Y18478D01*
X-90473Y18459D01*
X-90434Y18439D01*
X-90408Y18426D01*
X-90395Y18420D01*
X-89929Y18232D01*
X-89695Y18141D01*
X-89475Y18050D01*
X-89261Y17973D01*
X-89054Y17895D01*
X-88866Y17823D01*
X-88684Y17759D01*
X-88516Y17700D01*
X-88367Y17649D01*
X-88237Y17603D01*
X-88127Y17564D01*
X-88043Y17532D01*
X-87972Y17512D01*
X-87952Y17506D01*
X-87933Y17499D01*
X-87926Y17493D01*
X-87920D01*
X-87894Y17487D01*
X-87868Y17480D01*
X-87855Y17467D01*
X-87849D01*
X-87784Y17461D01*
X-87732Y17441D01*
X-87706Y17428D01*
X-87700Y17422D01*
X-87680Y17415D01*
X-87654Y17389D01*
X-87628Y17370D01*
X-87622Y17363D01*
Y17318D01*
X-87628Y17286D01*
X-87635Y17273D01*
X-87641Y17266D01*
Y17175D01*
X-87661Y17143D01*
X-87680Y17104D01*
X-87687Y17072D01*
X-87693Y17065D01*
Y17059D01*
X-87719Y17026D01*
X-87745Y17000D01*
X-87771Y16981D01*
X-87790Y16968D01*
X-87823Y16955D01*
X-87829D01*
X-87836D01*
X-87862D01*
X-87894Y16962D01*
X-87959Y16981D01*
X-87991Y16987D01*
X-88017Y17000D01*
X-88036Y17007D01*
X-88043D01*
X-88114Y17026D01*
X-88173Y17039D01*
X-88218Y17046D01*
X-88224D01*
X-88231D01*
X-88289Y17065D01*
X-88335Y17078D01*
X-88367Y17091D01*
X-88380Y17098D01*
X-88587Y17169D01*
X-88678Y17201D01*
X-88769Y17227D01*
X-88808Y17240D01*
X-88840Y17253D01*
X-88859Y17260D01*
X-88866D01*
X-88950Y17299D01*
X-89021Y17318D01*
X-89047D01*
X-89060Y17324D01*
X-89073D01*
X-89080D01*
X-89164Y17363D01*
X-89242Y17396D01*
X-89313Y17428D01*
X-89365Y17448D01*
X-89410Y17467D01*
X-89449Y17480D01*
X-89468Y17487D01*
X-89475D01*
X-89527Y17499D01*
X-89572Y17519D01*
X-89605Y17525D01*
X-89611Y17532D01*
X-89618D01*
X-89682Y17558D01*
X-89734Y17584D01*
X-89780Y17590D01*
X-89786Y17597D01*
X-89793D01*
X-89864Y17629D01*
X-89935Y17655D01*
X-89993Y17681D01*
X-90039Y17700D01*
X-90084Y17713D01*
X-90110Y17726D01*
X-90130Y17733D01*
X-90136D01*
X-90188Y17752D01*
X-90220Y17772D01*
X-90233Y17778D01*
X-90240Y17785D01*
X-90285Y17804D01*
X-90330Y17823D01*
X-90434Y17856D01*
X-90479Y17869D01*
X-90518Y17882D01*
X-90544Y17895D01*
X-90551D01*
X-90596Y17914D01*
X-90635Y17927D01*
X-90661Y17940D01*
X-90667Y17947D01*
X-90803Y18018D01*
X-90868Y18044D01*
X-90926Y18063D01*
X-90978Y18083D01*
X-91017Y18096D01*
X-91043Y18102D01*
X-91050D01*
X-91069Y18109D01*
X-91095Y18128D01*
X-91153Y18160D01*
X-91179Y18173D01*
X-91199Y18186D01*
X-91212Y18193D01*
X-91218Y18199D01*
X-91264Y18238D01*
X-91302Y18264D01*
X-91328Y18296D01*
X-91348Y18316D01*
X-91367Y18342D01*
X-91374Y18355D01*
X-91451Y18459D01*
X-91445Y18536D01*
X-91432Y18608D01*
X-91413Y18666D01*
X-91400Y18711D01*
X-91387Y18750D01*
X-91374Y18776D01*
X-91361Y18789D01*
Y18795D01*
X-91354Y18821D01*
X-91341Y18841D01*
X-91315Y18860D01*
X-91289Y18880D01*
X-91264Y18899D01*
X-91237Y18906D01*
X-91225Y18919D01*
X-91218D01*
X-91166Y18951D01*
X-91121Y18970D01*
X-91088Y18983D01*
X-91075Y18990D01*
X-91043Y19003D01*
X-91004Y19016D01*
X-90913Y19042D01*
X-90875Y19061D01*
X-90842Y19068D01*
X-90816Y19081D01*
X-90810D01*
X-90719Y19119D01*
X-90635Y19152D01*
X-90557Y19178D01*
X-90492Y19210D01*
X-90428Y19230D01*
X-90376Y19249D01*
X-90285Y19281D01*
X-90214Y19307D01*
X-90168Y19320D01*
X-90142Y19333D01*
X-90136D01*
X-90039Y19366D01*
X-89961Y19385D01*
X-89929Y19392D01*
X-89909Y19398D01*
X-89896Y19405D01*
X-89890D01*
X-89851Y19424D01*
X-89806Y19437D01*
X-89708Y19469D01*
X-89669Y19476D01*
X-89631Y19489D01*
X-89605Y19495D01*
X-89598D01*
X-89488Y19528D01*
X-89436Y19541D01*
X-89391Y19560D01*
X-89352Y19567D01*
X-89319Y19579D01*
X-89300Y19586D01*
X-89294D01*
X-89222Y19612D01*
X-89144Y19644D01*
X-89060Y19670D01*
X-88976Y19703D01*
X-88898Y19722D01*
X-88840Y19741D01*
X-88814Y19748D01*
X-88795Y19755D01*
X-88788Y19761D01*
X-88782D01*
X-88704Y19780D01*
X-88620Y19806D01*
X-88542Y19832D01*
X-88464Y19858D01*
X-88399Y19884D01*
X-88348Y19904D01*
X-88315Y19917D01*
X-88302Y19923D01*
X-88211Y19962D01*
X-88127Y19994D01*
X-88062Y20014D01*
X-88011Y20033D01*
X-87972Y20040D01*
X-87939Y20046D01*
X-87926D01*
X-87920D01*
X-87874Y20053D01*
X-87836Y20046D01*
D02*
G37*
G36*
X-89274Y13527D02*
X-89255D01*
X-89248D01*
X-89242Y13521D01*
X-89248D01*
X-89242Y13514D01*
X-89216Y13508D01*
X-89183Y13501D01*
X-89177D01*
X-89170D01*
X-89067Y13488D01*
X-88976Y13469D01*
X-88885Y13449D01*
X-88808Y13430D01*
X-88730Y13404D01*
X-88658Y13385D01*
X-88600Y13359D01*
X-88542Y13333D01*
X-88497Y13313D01*
X-88451Y13294D01*
X-88419Y13274D01*
X-88386Y13255D01*
X-88367Y13242D01*
X-88348Y13229D01*
X-88335Y13223D01*
X-88257Y13158D01*
X-88186Y13100D01*
X-88121Y13041D01*
X-88062Y12989D01*
X-88017Y12950D01*
X-87985Y12912D01*
X-87959Y12892D01*
X-87952Y12886D01*
X-87881Y12776D01*
X-87816Y12672D01*
X-87784Y12627D01*
X-87764Y12588D01*
X-87751Y12562D01*
X-87745Y12555D01*
X-87719Y12490D01*
X-87693Y12419D01*
X-87680Y12354D01*
X-87661Y12290D01*
X-87654Y12231D01*
X-87648Y12186D01*
X-87641Y12160D01*
Y12147D01*
X-87635Y12056D01*
Y11953D01*
X-87641Y11849D01*
X-87648Y11752D01*
X-87654Y11667D01*
X-87661Y11596D01*
Y11570D01*
X-87667Y11551D01*
Y11531D01*
X-87680Y11492D01*
X-87693Y11441D01*
X-87732Y11324D01*
X-87751Y11272D01*
X-87771Y11227D01*
X-87777Y11201D01*
X-87784Y11188D01*
X-87823Y11104D01*
X-87855Y11026D01*
X-87887Y10961D01*
X-87920Y10909D01*
X-87946Y10870D01*
X-87965Y10838D01*
X-87978Y10819D01*
X-87985Y10812D01*
X-88036Y10767D01*
X-88075Y10734D01*
X-88101Y10721D01*
X-88108Y10715D01*
X-88134Y10702D01*
X-88160Y10695D01*
X-88224Y10689D01*
X-88250Y10683D01*
X-88276D01*
X-88289D01*
X-88296D01*
X-88373Y10689D01*
X-88432Y10695D01*
X-88464Y10708D01*
X-88477Y10715D01*
X-88535Y10741D01*
X-88581Y10773D01*
X-88620Y10806D01*
X-88626Y10812D01*
X-88633Y10819D01*
X-88691Y10877D01*
X-88730Y10916D01*
X-88756Y10942D01*
X-88762Y10948D01*
Y11065D01*
X-88749Y11091D01*
X-88736Y11110D01*
X-88723Y11136D01*
X-88717Y11149D01*
X-88710Y11156D01*
X-88684Y11162D01*
X-88658Y11169D01*
X-88633Y11181D01*
X-88613Y11188D01*
X-88594Y11194D01*
X-88587D01*
X-88432Y11279D01*
X-88373Y11311D01*
X-88322Y11343D01*
X-88276Y11389D01*
X-88237Y11434D01*
X-88205Y11473D01*
X-88179Y11505D01*
X-88166Y11531D01*
X-88160Y11538D01*
X-88127Y11603D01*
X-88095Y11674D01*
X-88075Y11739D01*
X-88056Y11804D01*
X-88049Y11862D01*
X-88043Y11907D01*
X-88036Y11933D01*
Y11946D01*
X-88030Y12024D01*
Y12095D01*
X-88036Y12128D01*
X-88043Y12153D01*
X-88049Y12166D01*
Y12173D01*
X-88101Y12303D01*
X-88173Y12413D01*
X-88250Y12510D01*
X-88335Y12594D01*
X-88412Y12659D01*
X-88477Y12704D01*
X-88503Y12724D01*
X-88522Y12730D01*
X-88535Y12743D01*
X-88542D01*
X-88736Y12814D01*
X-88918Y12866D01*
X-89073Y12892D01*
X-89216Y12912D01*
X-89274Y12918D01*
X-89326D01*
X-89371Y12925D01*
X-89410D01*
X-89443Y12918D01*
X-89462D01*
X-89475D01*
X-89482D01*
X-89585Y12925D01*
X-89682D01*
X-89870Y12905D01*
X-90039Y12866D01*
X-90110Y12847D01*
X-90181Y12827D01*
X-90240Y12801D01*
X-90298Y12782D01*
X-90343Y12756D01*
X-90382Y12737D01*
X-90415Y12724D01*
X-90440Y12711D01*
X-90453Y12698D01*
X-90460D01*
X-90486Y12685D01*
X-90505Y12672D01*
X-90557Y12627D01*
X-90596Y12588D01*
X-90602Y12575D01*
X-90609Y12568D01*
X-90641Y12549D01*
X-90674Y12523D01*
X-90706Y12484D01*
X-90726Y12458D01*
X-90732Y12445D01*
X-90758Y12406D01*
X-90777Y12361D01*
X-90790Y12322D01*
X-90797Y12309D01*
Y12303D01*
X-90816Y12218D01*
X-90823Y12128D01*
Y12095D01*
X-90816Y12063D01*
Y12037D01*
X-90803Y11972D01*
X-90797Y11920D01*
X-90784Y11868D01*
X-90771Y11829D01*
X-90764Y11797D01*
X-90758Y11771D01*
X-90751Y11758D01*
Y11752D01*
X-90739Y11732D01*
X-90726Y11706D01*
X-90680Y11661D01*
X-90641Y11622D01*
X-90628Y11616D01*
X-90622Y11609D01*
X-90570Y11544D01*
X-90531Y11499D01*
X-90499Y11467D01*
X-90486Y11454D01*
X-90421Y11402D01*
X-90343Y11363D01*
X-90317Y11350D01*
X-90292Y11337D01*
X-90272Y11331D01*
X-90266D01*
X-90240Y11324D01*
X-90201Y11317D01*
X-90130Y11298D01*
X-90097Y11292D01*
X-90071D01*
X-90052Y11285D01*
X-90045D01*
X-90000D01*
X-89968D01*
X-89948D01*
X-89929D01*
X-89916D01*
Y11317D01*
X-89929Y11376D01*
X-89935Y11408D01*
X-89942Y11428D01*
X-89948Y11447D01*
Y11454D01*
X-89955Y11512D01*
Y11557D01*
X-89948Y11596D01*
X-89935Y11622D01*
X-89929Y11642D01*
X-89916Y11654D01*
X-89909Y11661D01*
X-89896Y11680D01*
X-89877Y11693D01*
X-89825Y11719D01*
X-89786Y11739D01*
X-89773Y11745D01*
X-89767D01*
X-89721Y11758D01*
X-89682Y11765D01*
X-89656D01*
X-89650D01*
X-89598D01*
X-89559Y11752D01*
X-89527Y11726D01*
X-89507Y11700D01*
X-89494Y11667D01*
X-89488Y11642D01*
Y11603D01*
X-89482Y11590D01*
X-89475Y11551D01*
X-89468Y11512D01*
Y11499D01*
X-89462Y11460D01*
X-89456Y11408D01*
X-89443Y11356D01*
X-89436Y11292D01*
X-89430Y11240D01*
Y11194D01*
X-89423Y11162D01*
Y11149D01*
X-89397Y10715D01*
Y10501D01*
X-89430Y10495D01*
X-89449Y10488D01*
X-89462Y10482D01*
Y10475D01*
X-89520Y10449D01*
X-89572Y10443D01*
X-89618Y10436D01*
X-89624D01*
X-89627D01*
X-89624Y10430D01*
Y10410D01*
X-89676Y10417D01*
X-89715Y10423D01*
X-89734Y10436D01*
X-89741Y10443D01*
X-89780Y10469D01*
X-89812Y10501D01*
X-89851Y10579D01*
X-89864Y10611D01*
X-89877Y10644D01*
X-89883Y10663D01*
Y10669D01*
X-89890Y10715D01*
X-89896Y10754D01*
X-89909Y10780D01*
X-89916Y10806D01*
X-89922Y10831D01*
X-89929Y10838D01*
X-89935Y10831D01*
X-89942Y10825D01*
X-89974Y10806D01*
X-90006Y10786D01*
X-90013Y10780D01*
X-90019D01*
X-90168Y10767D01*
X-90240D01*
X-90304D01*
X-90363Y10773D01*
X-90415D01*
X-90440Y10780D01*
X-90453D01*
X-90518Y10786D01*
X-90583Y10799D01*
X-90602Y10812D01*
X-90622Y10819D01*
X-90635Y10825D01*
X-90641D01*
X-90687Y10838D01*
X-90726Y10857D01*
X-90797Y10896D01*
X-90823Y10916D01*
X-90842Y10935D01*
X-90855Y10942D01*
X-90862Y10948D01*
X-90907Y10968D01*
X-90939Y10974D01*
X-90965Y10981D01*
X-90972D01*
X-91017Y11039D01*
X-91063Y11084D01*
X-91101Y11117D01*
X-91108Y11130D01*
X-91114D01*
X-91153Y11175D01*
X-91192Y11214D01*
X-91218Y11246D01*
X-91237Y11272D01*
X-91264Y11311D01*
X-91270Y11324D01*
Y11337D01*
X-91283Y11363D01*
X-91302Y11415D01*
X-91315Y11447D01*
X-91322Y11467D01*
X-91335Y11486D01*
Y11492D01*
X-91367Y11564D01*
X-91380Y11622D01*
X-91387Y11661D01*
Y11674D01*
X-91413Y11823D01*
X-91419Y11888D01*
X-91426Y11940D01*
X-91432Y11991D01*
Y12056D01*
X-91406Y12315D01*
X-91393Y12341D01*
X-91380Y12367D01*
X-91374Y12380D01*
X-91367Y12387D01*
X-91361D01*
Y12406D01*
X-91354Y12439D01*
X-91341Y12477D01*
X-91315Y12516D01*
X-91296Y12555D01*
X-91276Y12581D01*
X-91264Y12607D01*
X-91257Y12614D01*
X-91212Y12691D01*
X-91173Y12750D01*
X-91147Y12788D01*
X-91140Y12795D01*
Y12801D01*
X-91088Y12873D01*
X-91043Y12925D01*
X-91011Y12950D01*
X-91004Y12963D01*
X-90998D01*
X-90926Y13022D01*
X-90849Y13074D01*
X-90816Y13093D01*
X-90790Y13113D01*
X-90777Y13119D01*
X-90771Y13125D01*
X-90719Y13164D01*
X-90680Y13197D01*
X-90641Y13223D01*
X-90609Y13242D01*
X-90589Y13255D01*
X-90570Y13262D01*
X-90557Y13268D01*
X-90440Y13320D01*
X-90337Y13365D01*
X-90253Y13398D01*
X-90175Y13423D01*
X-90123Y13437D01*
X-90078Y13449D01*
X-90052Y13456D01*
X-90045D01*
X-89942Y13475D01*
X-89844Y13495D01*
X-89754Y13508D01*
X-89669Y13514D01*
X-89605D01*
X-89553Y13521D01*
X-89520D01*
X-89507D01*
X-89417Y13527D01*
X-89352Y13534D01*
X-89306D01*
X-89274Y13527D01*
D02*
G37*
G36*
X-87855Y6995D02*
X-87829Y6982D01*
X-87816Y6976D01*
X-87797Y6969D01*
X-87784Y6963D01*
X-87764Y6924D01*
X-87758Y6892D01*
Y6872D01*
X-87751Y6859D01*
X-87745Y6820D01*
X-87738Y6781D01*
X-87732Y6769D01*
Y6762D01*
X-87725Y6730D01*
Y6691D01*
X-87719Y6645D01*
X-87712Y6594D01*
X-87700Y6477D01*
X-87693Y6360D01*
X-87680Y6250D01*
Y6198D01*
X-87674Y6153D01*
Y6121D01*
X-87667Y6095D01*
Y5874D01*
X-87674Y5790D01*
Y5712D01*
X-87680Y5647D01*
Y5602D01*
X-87687Y5570D01*
Y5557D01*
X-87693Y5447D01*
X-87700Y5349D01*
X-87712Y5272D01*
X-87725Y5207D01*
X-87745Y5161D01*
X-87758Y5123D01*
X-87764Y5103D01*
X-87771Y5097D01*
X-87836Y5000D01*
X-87913Y4915D01*
X-87991Y4837D01*
X-88062Y4773D01*
X-88127Y4721D01*
X-88186Y4676D01*
X-88218Y4650D01*
X-88224Y4643D01*
X-88231D01*
X-88276Y4650D01*
X-88309Y4663D01*
X-88335Y4676D01*
X-88341Y4682D01*
X-88348Y4676D01*
X-88367Y4669D01*
X-88412Y4650D01*
X-88471Y4637D01*
X-88535Y4624D01*
X-88600Y4611D01*
X-88658Y4604D01*
X-88697Y4598D01*
X-88704D01*
X-88710D01*
X-88801D01*
X-88872Y4604D01*
X-88937D01*
X-88982Y4611D01*
X-89021Y4617D01*
X-89047D01*
X-89060Y4624D01*
X-89067D01*
X-89177Y4682D01*
X-89229Y4714D01*
X-89274Y4747D01*
X-89306Y4773D01*
X-89339Y4799D01*
X-89358Y4812D01*
X-89365Y4818D01*
X-89430Y4902D01*
X-89494Y4987D01*
X-89527Y5025D01*
X-89553Y5051D01*
X-89566Y5071D01*
X-89572Y5077D01*
X-89624Y5155D01*
X-89656Y5220D01*
X-89682Y5272D01*
X-89702Y5317D01*
X-89715Y5343D01*
X-89721Y5369D01*
Y5382D01*
X-89741Y5447D01*
X-89760Y5505D01*
X-89773Y5544D01*
X-89786Y5576D01*
X-89799Y5596D01*
X-89806Y5609D01*
X-89812Y5615D01*
Y5647D01*
X-89922Y5466D01*
X-90039Y5298D01*
X-90162Y5142D01*
X-90279Y5000D01*
X-90330Y4941D01*
X-90382Y4883D01*
X-90428Y4837D01*
X-90466Y4799D01*
X-90499Y4766D01*
X-90525Y4740D01*
X-90538Y4727D01*
X-90544Y4721D01*
X-90589Y4688D01*
X-90615Y4650D01*
X-90628Y4617D01*
X-90635Y4604D01*
X-90700Y4539D01*
X-90758Y4475D01*
X-90784Y4442D01*
X-90803Y4423D01*
X-90810Y4410D01*
X-90816Y4403D01*
X-90881Y4332D01*
X-90933Y4287D01*
X-90959Y4254D01*
X-90972Y4248D01*
X-91004Y4228D01*
X-91043Y4215D01*
X-91101Y4202D01*
X-91140D01*
X-91147Y4209D01*
X-91153D01*
X-91179Y4215D01*
X-91205Y4222D01*
X-91237Y4254D01*
X-91257Y4293D01*
X-91264Y4300D01*
Y4306D01*
X-91296Y4345D01*
X-91315Y4384D01*
X-91328Y4410D01*
X-91335Y4416D01*
Y4423D01*
X-91348Y4462D01*
X-91361Y4488D01*
X-91367Y4513D01*
Y4533D01*
X-91361Y4552D01*
Y4578D01*
X-91354Y4604D01*
X-91341Y4637D01*
X-91315Y4669D01*
X-91296Y4701D01*
X-91276Y4721D01*
X-91264Y4740D01*
X-91257Y4747D01*
X-91218Y4792D01*
X-91160Y4844D01*
X-91101Y4909D01*
X-91043Y4974D01*
X-90985Y5038D01*
X-90939Y5090D01*
X-90907Y5123D01*
X-90894Y5129D01*
Y5136D01*
X-90829Y5200D01*
X-90764Y5259D01*
X-90661Y5356D01*
X-90583Y5434D01*
X-90518Y5492D01*
X-90466Y5531D01*
X-90440Y5557D01*
X-90421Y5563D01*
X-90415Y5570D01*
X-90402Y5589D01*
X-90389Y5609D01*
X-90343Y5661D01*
X-90311Y5699D01*
X-90298Y5712D01*
X-90292Y5719D01*
X-90246Y5764D01*
X-90194Y5829D01*
X-90136Y5894D01*
X-90078Y5959D01*
X-90026Y6023D01*
X-89980Y6075D01*
X-89955Y6114D01*
X-89942Y6121D01*
Y6127D01*
X-89922Y6179D01*
X-89916Y6224D01*
X-89922Y6263D01*
X-89929Y6295D01*
X-89935Y6321D01*
X-89942Y6334D01*
X-89955Y6341D01*
Y6347D01*
X-89961Y6354D01*
X-89974D01*
X-90019Y6360D01*
X-90078Y6367D01*
X-90136D01*
X-90201Y6373D01*
X-90253D01*
X-90292D01*
X-90298D01*
X-90304D01*
X-90402Y6380D01*
X-90492D01*
X-90570Y6386D01*
X-90648Y6393D01*
X-90719D01*
X-90777Y6399D01*
X-90888Y6406D01*
X-90965Y6412D01*
X-91024D01*
X-91056Y6419D01*
X-91069D01*
X-91134D01*
X-91205D01*
X-91237D01*
X-91257D01*
X-91276D01*
X-91283D01*
X-91361Y6432D01*
X-91413Y6438D01*
X-91438Y6445D01*
X-91451D01*
X-91477Y6509D01*
X-91490Y6574D01*
X-91497Y6594D01*
Y6633D01*
X-91484Y6691D01*
X-91471Y6723D01*
Y6749D01*
X-91438Y6801D01*
X-91400Y6833D01*
X-91367Y6853D01*
X-91361Y6859D01*
X-91354D01*
X-91296Y6892D01*
X-91231Y6911D01*
X-91205Y6918D01*
X-91179Y6924D01*
X-91166Y6931D01*
X-91160D01*
X-91101Y6937D01*
X-91030D01*
X-90881Y6931D01*
X-90810Y6924D01*
X-90751Y6918D01*
X-90713Y6911D01*
X-90706D01*
X-90700D01*
X-90596Y6898D01*
X-90512Y6892D01*
X-90440Y6885D01*
X-90389Y6872D01*
X-90343Y6866D01*
X-90317D01*
X-90304Y6859D01*
X-90298D01*
X-90285Y6853D01*
X-90266Y6846D01*
X-90214Y6840D01*
X-90188D01*
X-90168D01*
X-90155D01*
X-90149D01*
X-90084Y6846D01*
X-90013D01*
X-89948D01*
X-89883Y6840D01*
X-89831Y6833D01*
X-89786Y6827D01*
X-89760Y6820D01*
X-89747D01*
X-89669D01*
X-89585Y6814D01*
X-89488D01*
X-89397Y6807D01*
X-89313Y6801D01*
X-89248D01*
X-89222Y6795D01*
X-89203D01*
X-89190D01*
X-89183D01*
X-89060D01*
X-88937D01*
X-88820D01*
X-88710D01*
X-88613D01*
X-88574D01*
X-88535D01*
X-88510D01*
X-88490D01*
X-88477D01*
X-88471D01*
X-88147Y6775D01*
X-88140Y6795D01*
X-88127Y6807D01*
X-88121Y6859D01*
X-88095Y6898D01*
X-88075Y6924D01*
X-88069Y6931D01*
X-88056Y6956D01*
X-88036Y6969D01*
X-87991Y6995D01*
X-87952Y7002D01*
X-87939D01*
X-87933D01*
X-87894Y7008D01*
X-87855Y6995D01*
D02*
G37*
G36*
X-91069Y3989D02*
X-90998Y3963D01*
X-90972Y3956D01*
X-90952Y3943D01*
X-90939Y3937D01*
X-90933D01*
X-90777Y3807D01*
X-90745Y3794D01*
X-90706Y3775D01*
X-90654Y3736D01*
X-90615Y3697D01*
X-90609Y3691D01*
X-90602Y3684D01*
X-90577Y3665D01*
X-90538Y3632D01*
X-90492Y3587D01*
X-90440Y3535D01*
X-90389Y3490D01*
X-90343Y3444D01*
X-90317Y3418D01*
X-90304Y3405D01*
X-90214Y3328D01*
X-90130Y3243D01*
X-90052Y3159D01*
X-89980Y3088D01*
X-89929Y3023D01*
X-89883Y2971D01*
X-89857Y2939D01*
X-89851Y2926D01*
X-89663Y2770D01*
X-89579Y2693D01*
X-89494Y2621D01*
X-89430Y2563D01*
X-89378Y2518D01*
X-89345Y2492D01*
X-89332Y2479D01*
X-89294Y2459D01*
X-89248Y2433D01*
X-89164Y2369D01*
X-89125Y2343D01*
X-89093Y2317D01*
X-89067Y2304D01*
X-89060Y2297D01*
X-88995Y2265D01*
X-88950Y2239D01*
X-88911Y2213D01*
X-88879Y2200D01*
X-88859Y2187D01*
X-88846Y2174D01*
X-88840Y2168D01*
X-88762Y2161D01*
X-88704D01*
X-88665Y2168D01*
X-88658D01*
X-88652D01*
X-88626Y2181D01*
X-88600Y2200D01*
X-88555Y2252D01*
X-88535Y2271D01*
X-88522Y2297D01*
X-88510Y2310D01*
Y2317D01*
X-88490Y2382D01*
X-88477Y2446D01*
X-88464Y2505D01*
Y2673D01*
X-88477Y2757D01*
X-88490Y2822D01*
Y2874D01*
X-88497Y2913D01*
Y2939D01*
X-88490Y2958D01*
Y2978D01*
X-88497Y2997D01*
X-88516Y3043D01*
X-88542Y3088D01*
X-88548Y3101D01*
Y3107D01*
X-88574Y3166D01*
X-88600Y3218D01*
X-88620Y3256D01*
X-88639Y3289D01*
X-88652Y3308D01*
X-88665Y3321D01*
X-88671Y3334D01*
X-88710Y3360D01*
X-88736Y3386D01*
X-88762Y3412D01*
X-88775Y3438D01*
X-88782Y3464D01*
X-88788Y3483D01*
Y3542D01*
X-88775Y3574D01*
X-88762Y3600D01*
X-88749Y3626D01*
X-88704Y3645D01*
X-88652Y3652D01*
X-88607D01*
X-88561Y3639D01*
X-88535Y3632D01*
X-88522Y3626D01*
X-88477Y3600D01*
X-88425Y3554D01*
X-88367Y3503D01*
X-88309Y3444D01*
X-88263Y3393D01*
X-88218Y3347D01*
X-88192Y3321D01*
X-88179Y3308D01*
X-88134Y3230D01*
X-88101Y3153D01*
X-88069Y3088D01*
X-88049Y3030D01*
X-88030Y2978D01*
X-88017Y2945D01*
X-88011Y2919D01*
Y2913D01*
X-88004Y2848D01*
X-87998Y2790D01*
X-87991Y2751D01*
X-87985Y2744D01*
Y2738D01*
X-87978Y2582D01*
Y2382D01*
X-87985Y2343D01*
Y2304D01*
X-88030Y2174D01*
X-88056Y2109D01*
X-88075Y2045D01*
X-88101Y1993D01*
X-88114Y1954D01*
X-88127Y1922D01*
X-88134Y1915D01*
X-88186Y1850D01*
X-88237Y1792D01*
X-88283Y1740D01*
X-88328Y1701D01*
X-88360Y1675D01*
X-88386Y1649D01*
X-88406Y1643D01*
X-88412Y1636D01*
X-88561Y1610D01*
X-88639D01*
X-88710Y1604D01*
X-88769D01*
X-88814Y1610D01*
X-88846D01*
X-88859D01*
X-88885D01*
X-88924Y1623D01*
X-89002Y1643D01*
X-89041Y1656D01*
X-89073Y1669D01*
X-89099Y1675D01*
X-89106Y1682D01*
X-89170Y1701D01*
X-89216Y1721D01*
X-89255Y1740D01*
X-89281Y1760D01*
X-89300Y1773D01*
X-89313Y1785D01*
X-89319Y1798D01*
X-89352Y1818D01*
X-89391Y1831D01*
X-89423Y1837D01*
X-89430Y1844D01*
X-89436D01*
X-89546Y1922D01*
X-89598Y1967D01*
X-89644Y2006D01*
X-89689Y2038D01*
X-89721Y2064D01*
X-89741Y2083D01*
X-89747Y2090D01*
X-89806Y2129D01*
X-89851Y2168D01*
X-89890Y2200D01*
X-89922Y2233D01*
X-89942Y2259D01*
X-89961Y2278D01*
X-89968Y2284D01*
X-89974Y2291D01*
X-90013Y2317D01*
X-90045Y2336D01*
X-90097Y2382D01*
X-90130Y2414D01*
X-90136Y2420D01*
Y2427D01*
X-90162Y2466D01*
X-90188Y2498D01*
X-90233Y2550D01*
X-90259Y2576D01*
X-90272Y2582D01*
X-90311Y2621D01*
X-90356Y2660D01*
X-90395Y2686D01*
X-90402Y2693D01*
X-90408Y2699D01*
X-90453Y2738D01*
X-90486Y2764D01*
X-90512Y2777D01*
X-90518Y2783D01*
X-90557Y2829D01*
X-90596Y2881D01*
X-90628Y2919D01*
X-90635Y2926D01*
X-90641Y2932D01*
X-90680Y2971D01*
X-90706Y3004D01*
X-90732Y3030D01*
X-90751Y3043D01*
X-90771Y3062D01*
X-90777Y3069D01*
X-90816Y3107D01*
X-90849Y3140D01*
X-90875Y3166D01*
X-90888Y3179D01*
X-90926Y3211D01*
X-90933Y3214D01*
Y3075D01*
X-90926Y2984D01*
X-90920Y2900D01*
X-90913Y2822D01*
Y2790D01*
X-90907Y2764D01*
Y2621D01*
X-90901Y2524D01*
X-90894Y2446D01*
X-90881Y2382D01*
X-90875Y2336D01*
X-90868Y2304D01*
X-90862Y2291D01*
Y2284D01*
X-90849Y2200D01*
X-90836Y2116D01*
Y2025D01*
X-90829Y1973D01*
X-90823Y1928D01*
X-90816Y1889D01*
X-90810Y1863D01*
X-90803Y1844D01*
X-90797Y1831D01*
Y1818D01*
X-90777Y1792D01*
X-90758Y1773D01*
X-90732Y1753D01*
X-90726Y1747D01*
X-90693Y1714D01*
X-90680Y1682D01*
X-90674Y1649D01*
Y1610D01*
X-90680Y1585D01*
X-90687Y1559D01*
X-90693Y1546D01*
Y1539D01*
X-90700Y1526D01*
Y1487D01*
X-90726Y1461D01*
X-90751Y1436D01*
X-90764Y1423D01*
X-90771Y1416D01*
X-90829Y1403D01*
X-90888D01*
X-90913D01*
X-90933D01*
X-90946Y1410D01*
X-90952D01*
X-90985Y1423D01*
X-91017Y1429D01*
X-91056Y1436D01*
X-91082Y1429D01*
X-91088D01*
X-91147Y1436D01*
X-91199Y1442D01*
X-91244Y1455D01*
X-91283Y1474D01*
X-91315Y1494D01*
X-91335Y1507D01*
X-91348Y1513D01*
X-91354Y1520D01*
X-91367Y1552D01*
X-91374Y1585D01*
X-91393Y1656D01*
X-91400Y1682D01*
Y1708D01*
X-91406Y1727D01*
Y1805D01*
X-91413Y1883D01*
Y1915D01*
X-91419Y1947D01*
Y2006D01*
X-91426Y2045D01*
X-91432Y2135D01*
Y2239D01*
X-91438Y2343D01*
X-91445Y2446D01*
Y2524D01*
X-91451Y2557D01*
Y2602D01*
X-91432Y2654D01*
Y2991D01*
X-91438Y3049D01*
Y3133D01*
X-91432Y3153D01*
Y3470D01*
X-91438Y3548D01*
X-91445Y3606D01*
Y3652D01*
X-91451Y3684D01*
Y3729D01*
X-91445Y3775D01*
X-91432Y3814D01*
X-91400Y3885D01*
X-91380Y3917D01*
X-91361Y3937D01*
X-91354Y3950D01*
X-91348Y3956D01*
X-91328Y3969D01*
X-91302Y3976D01*
X-91231Y3989D01*
X-91199Y3995D01*
X-91173D01*
X-91153D01*
X-91147D01*
X-91069Y3989D01*
D02*
G37*
G36*
X-87998Y-1999D02*
X-87959Y-2005D01*
X-87900Y-2044D01*
X-87868Y-2077D01*
X-87855Y-2083D01*
Y-2090D01*
X-87842Y-2122D01*
X-87836Y-2167D01*
X-87810Y-2258D01*
X-87797Y-2303D01*
X-87790Y-2336D01*
X-87784Y-2362D01*
Y-2368D01*
X-87777Y-2401D01*
X-87771Y-2440D01*
X-87764Y-2491D01*
Y-2550D01*
X-87751Y-2679D01*
X-87738Y-2822D01*
X-87725Y-2951D01*
Y-3010D01*
X-87719Y-3062D01*
Y-3107D01*
X-87712Y-3146D01*
Y-3476D01*
X-87706Y-3509D01*
X-87700Y-3554D01*
X-87687Y-3645D01*
Y-4273D01*
X-87693Y-4397D01*
X-87700Y-4500D01*
X-87706Y-4584D01*
Y-4649D01*
X-87712Y-4695D01*
Y-4753D01*
X-87732Y-4798D01*
X-87751Y-4831D01*
X-87764Y-4857D01*
X-87771Y-4870D01*
X-87803Y-4902D01*
X-87842Y-4928D01*
X-87874Y-4954D01*
X-87881Y-4960D01*
X-87887D01*
X-88030Y-4986D01*
X-88069Y-4967D01*
X-88095Y-4954D01*
X-88114Y-4947D01*
X-88127Y-4941D01*
X-88140Y-4934D01*
X-88179Y-4889D01*
X-88205Y-4831D01*
X-88218Y-4772D01*
X-88224Y-4707D01*
Y-4597D01*
X-88218Y-4565D01*
Y-4487D01*
X-88224Y-4435D01*
X-88231Y-4403D01*
X-88237Y-4390D01*
Y-4157D01*
X-88231Y-4073D01*
Y-3982D01*
X-88237Y-3962D01*
Y-3949D01*
X-88257Y-3904D01*
X-88283Y-3865D01*
X-88348Y-3807D01*
X-88373Y-3787D01*
X-88399Y-3768D01*
X-88419Y-3761D01*
X-88425Y-3755D01*
X-88730Y-3710D01*
X-88782D01*
X-88827D01*
X-88898D01*
X-88950D01*
X-88982D01*
X-89008D01*
X-89015D01*
X-89021D01*
X-89034Y-3703D01*
X-89067D01*
X-89099Y-3710D01*
X-89144Y-3716D01*
X-89183Y-3723D01*
X-89216Y-3729D01*
X-89242Y-3735D01*
X-89248D01*
X-89332Y-3729D01*
X-89410Y-3723D01*
X-89468D01*
X-89514Y-3729D01*
X-89546D01*
X-89572D01*
X-89585Y-3735D01*
X-89592D01*
X-89637Y-3729D01*
X-89682D01*
X-89747Y-3735D01*
X-89773Y-3742D01*
X-89793Y-3748D01*
X-89806Y-3755D01*
X-89812D01*
X-89896D01*
X-89955D01*
X-89993D01*
X-90000D01*
X-90006D01*
X-90130D01*
X-90188D01*
X-90240D01*
X-90292D01*
X-90330D01*
X-90356D01*
X-90363D01*
X-90499Y-3761D01*
X-90635D01*
X-90764Y-3755D01*
X-90881Y-3742D01*
X-90985Y-3729D01*
X-91024Y-3723D01*
X-91063D01*
X-91095Y-3716D01*
X-91114Y-3710D01*
X-91127D01*
X-91134D01*
X-91218Y-3671D01*
X-91283Y-3645D01*
X-91322Y-3619D01*
X-91328Y-3612D01*
X-91335D01*
X-91393Y-3580D01*
X-91438Y-3554D01*
X-91464Y-3541D01*
X-91477Y-3535D01*
X-91497Y-3470D01*
Y-3418D01*
X-91490Y-3379D01*
Y-3366D01*
X-91471Y-3327D01*
X-91438Y-3295D01*
X-91413Y-3269D01*
X-91380Y-3249D01*
X-91354Y-3237D01*
X-91335Y-3230D01*
X-91322Y-3224D01*
X-91315D01*
X-91283Y-3217D01*
X-91231Y-3211D01*
X-91179Y-3204D01*
X-91121D01*
X-91063Y-3198D01*
X-91017D01*
X-90985D01*
X-90972D01*
X-90868Y-3185D01*
X-90777Y-3178D01*
X-90700D01*
X-90628D01*
X-90570Y-3185D01*
X-90531Y-3191D01*
X-90505Y-3198D01*
X-90499D01*
X-90382D01*
X-90266Y-3204D01*
X-90149D01*
X-90039Y-3211D01*
X-89942Y-3217D01*
X-89903D01*
X-89870D01*
X-89838Y-3224D01*
X-89818D01*
X-89806D01*
X-89799D01*
X-89786Y-3230D01*
X-89760D01*
X-89721D01*
X-89676Y-3237D01*
X-89624D01*
X-89566D01*
X-89436Y-3243D01*
X-89306D01*
X-89248D01*
X-89196D01*
X-89157D01*
X-89119D01*
X-89099D01*
X-89093D01*
X-88970Y-3249D01*
X-88866D01*
X-88769Y-3256D01*
X-88691D01*
X-88626Y-3263D01*
X-88568D01*
X-88522D01*
X-88484Y-3269D01*
X-88458D01*
X-88438D01*
X-88412D01*
X-88399D01*
X-88393Y-3263D01*
X-88380Y-3243D01*
X-88348Y-3204D01*
X-88309Y-3172D01*
X-88302Y-3159D01*
X-88296Y-3152D01*
X-88276Y-3113D01*
X-88263Y-3081D01*
X-88237Y-3036D01*
X-88224Y-3010D01*
X-88218Y-3003D01*
Y-2951D01*
X-88224Y-2939D01*
X-88244Y-2900D01*
X-88257Y-2867D01*
X-88263Y-2802D01*
Y-2705D01*
X-88270Y-2647D01*
X-88276Y-2621D01*
Y-2595D01*
X-88283Y-2576D01*
Y-2569D01*
X-88296Y-2491D01*
X-88289Y-2440D01*
Y-2407D01*
X-88283Y-2394D01*
X-88289Y-2362D01*
Y-2336D01*
X-88283Y-2277D01*
X-88276Y-2252D01*
X-88270Y-2232D01*
X-88263Y-2219D01*
Y-2090D01*
X-88250Y-2064D01*
X-88244Y-2051D01*
X-88218Y-2038D01*
X-88205D01*
X-88186Y-2025D01*
X-88160Y-2012D01*
X-88140Y-1999D01*
X-88127Y-1992D01*
X-88121D01*
X-88114D01*
X-88082D01*
X-88056D01*
X-88049D01*
X-88043D01*
X-87998Y-1999D01*
D02*
G37*
G36*
X-91069Y-5330D02*
X-90998Y-5356D01*
X-90972Y-5362D01*
X-90952Y-5375D01*
X-90939Y-5381D01*
X-90933D01*
X-90777Y-5511D01*
X-90745Y-5524D01*
X-90706Y-5543D01*
X-90654Y-5582D01*
X-90615Y-5621D01*
X-90609Y-5628D01*
X-90602Y-5634D01*
X-90577Y-5654D01*
X-90538Y-5686D01*
X-90492Y-5731D01*
X-90440Y-5783D01*
X-90389Y-5829D01*
X-90343Y-5874D01*
X-90317Y-5900D01*
X-90304Y-5913D01*
X-90214Y-5991D01*
X-90130Y-6075D01*
X-90052Y-6159D01*
X-89980Y-6230D01*
X-89929Y-6295D01*
X-89883Y-6347D01*
X-89857Y-6379D01*
X-89851Y-6392D01*
X-89663Y-6548D01*
X-89579Y-6626D01*
X-89494Y-6697D01*
X-89430Y-6755D01*
X-89378Y-6801D01*
X-89345Y-6826D01*
X-89332Y-6839D01*
X-89294Y-6859D01*
X-89248Y-6885D01*
X-89164Y-6950D01*
X-89125Y-6976D01*
X-89093Y-7001D01*
X-89067Y-7014D01*
X-89060Y-7021D01*
X-88995Y-7053D01*
X-88950Y-7079D01*
X-88911Y-7105D01*
X-88879Y-7118D01*
X-88859Y-7131D01*
X-88846Y-7144D01*
X-88840Y-7151D01*
X-88762Y-7157D01*
X-88704D01*
X-88665Y-7151D01*
X-88658D01*
X-88652D01*
X-88626Y-7137D01*
X-88600Y-7118D01*
X-88555Y-7066D01*
X-88535Y-7047D01*
X-88522Y-7021D01*
X-88510Y-7008D01*
Y-7001D01*
X-88490Y-6937D01*
X-88477Y-6872D01*
X-88464Y-6814D01*
Y-6645D01*
X-88477Y-6561D01*
X-88490Y-6496D01*
Y-6444D01*
X-88497Y-6405D01*
Y-6379D01*
X-88490Y-6360D01*
Y-6340D01*
X-88497Y-6321D01*
X-88516Y-6276D01*
X-88542Y-6230D01*
X-88548Y-6217D01*
Y-6211D01*
X-88574Y-6153D01*
X-88600Y-6101D01*
X-88620Y-6062D01*
X-88639Y-6029D01*
X-88652Y-6010D01*
X-88665Y-5997D01*
X-88671Y-5984D01*
X-88710Y-5958D01*
X-88736Y-5932D01*
X-88762Y-5906D01*
X-88775Y-5880D01*
X-88782Y-5855D01*
X-88788Y-5835D01*
Y-5777D01*
X-88775Y-5744D01*
X-88762Y-5718D01*
X-88749Y-5692D01*
X-88704Y-5673D01*
X-88652Y-5667D01*
X-88607D01*
X-88561Y-5680D01*
X-88535Y-5686D01*
X-88522Y-5692D01*
X-88477Y-5718D01*
X-88425Y-5764D01*
X-88367Y-5816D01*
X-88309Y-5874D01*
X-88263Y-5926D01*
X-88218Y-5971D01*
X-88192Y-5997D01*
X-88179Y-6010D01*
X-88134Y-6088D01*
X-88101Y-6165D01*
X-88069Y-6230D01*
X-88049Y-6289D01*
X-88030Y-6340D01*
X-88017Y-6373D01*
X-88011Y-6399D01*
Y-6405D01*
X-88004Y-6470D01*
X-87998Y-6528D01*
X-87991Y-6567D01*
X-87985Y-6574D01*
Y-6580D01*
X-87978Y-6736D01*
Y-6937D01*
X-87985Y-6976D01*
Y-7014D01*
X-88030Y-7144D01*
X-88056Y-7209D01*
X-88075Y-7274D01*
X-88101Y-7325D01*
X-88114Y-7364D01*
X-88127Y-7397D01*
X-88134Y-7403D01*
X-88186Y-7468D01*
X-88237Y-7526D01*
X-88283Y-7578D01*
X-88328Y-7617D01*
X-88360Y-7643D01*
X-88386Y-7669D01*
X-88406Y-7675D01*
X-88412Y-7682D01*
X-88561Y-7708D01*
X-88639D01*
X-88710Y-7714D01*
X-88769D01*
X-88814Y-7708D01*
X-88846D01*
X-88859D01*
X-88885D01*
X-88924Y-7695D01*
X-89002Y-7675D01*
X-89041Y-7662D01*
X-89073Y-7649D01*
X-89099Y-7643D01*
X-89106Y-7637D01*
X-89170Y-7617D01*
X-89216Y-7598D01*
X-89255Y-7578D01*
X-89281Y-7559D01*
X-89300Y-7546D01*
X-89313Y-7533D01*
X-89319Y-7520D01*
X-89352Y-7500D01*
X-89391Y-7487D01*
X-89423Y-7481D01*
X-89430Y-7474D01*
X-89436D01*
X-89546Y-7397D01*
X-89598Y-7351D01*
X-89644Y-7312D01*
X-89689Y-7280D01*
X-89721Y-7254D01*
X-89741Y-7235D01*
X-89747Y-7228D01*
X-89806Y-7189D01*
X-89851Y-7151D01*
X-89890Y-7118D01*
X-89922Y-7086D01*
X-89942Y-7060D01*
X-89961Y-7040D01*
X-89968Y-7034D01*
X-89974Y-7027D01*
X-90013Y-7001D01*
X-90045Y-6982D01*
X-90097Y-6937D01*
X-90130Y-6904D01*
X-90136Y-6898D01*
Y-6891D01*
X-90162Y-6852D01*
X-90188Y-6820D01*
X-90233Y-6768D01*
X-90259Y-6742D01*
X-90272Y-6736D01*
X-90311Y-6697D01*
X-90356Y-6658D01*
X-90395Y-6632D01*
X-90402Y-6626D01*
X-90408Y-6619D01*
X-90453Y-6580D01*
X-90486Y-6554D01*
X-90512Y-6541D01*
X-90518Y-6535D01*
X-90557Y-6489D01*
X-90596Y-6438D01*
X-90628Y-6399D01*
X-90635Y-6392D01*
X-90641Y-6386D01*
X-90680Y-6347D01*
X-90706Y-6315D01*
X-90732Y-6289D01*
X-90751Y-6276D01*
X-90771Y-6256D01*
X-90777Y-6250D01*
X-90816Y-6211D01*
X-90849Y-6179D01*
X-90875Y-6153D01*
X-90888Y-6140D01*
X-90926Y-6107D01*
X-90933Y-6104D01*
Y-6243D01*
X-90926Y-6334D01*
X-90920Y-6418D01*
X-90913Y-6496D01*
Y-6528D01*
X-90907Y-6554D01*
Y-6697D01*
X-90901Y-6794D01*
X-90894Y-6872D01*
X-90881Y-6937D01*
X-90875Y-6982D01*
X-90868Y-7014D01*
X-90862Y-7027D01*
Y-7034D01*
X-90849Y-7118D01*
X-90836Y-7202D01*
Y-7293D01*
X-90829Y-7345D01*
X-90823Y-7390D01*
X-90816Y-7429D01*
X-90810Y-7455D01*
X-90803Y-7474D01*
X-90797Y-7487D01*
Y-7500D01*
X-90777Y-7526D01*
X-90758Y-7546D01*
X-90732Y-7565D01*
X-90726Y-7572D01*
X-90693Y-7604D01*
X-90680Y-7637D01*
X-90674Y-7669D01*
Y-7708D01*
X-90680Y-7734D01*
X-90687Y-7760D01*
X-90693Y-7773D01*
Y-7779D01*
X-90700Y-7792D01*
Y-7831D01*
X-90726Y-7857D01*
X-90751Y-7883D01*
X-90764Y-7896D01*
X-90771Y-7902D01*
X-90829Y-7915D01*
X-90888D01*
X-90913D01*
X-90933D01*
X-90946Y-7909D01*
X-90952D01*
X-90985Y-7896D01*
X-91017Y-7889D01*
X-91056Y-7883D01*
X-91082Y-7889D01*
X-91088D01*
X-91147Y-7883D01*
X-91199Y-7876D01*
X-91244Y-7863D01*
X-91283Y-7844D01*
X-91315Y-7824D01*
X-91335Y-7811D01*
X-91348Y-7805D01*
X-91354Y-7799D01*
X-91367Y-7766D01*
X-91374Y-7734D01*
X-91393Y-7662D01*
X-91400Y-7637D01*
Y-7611D01*
X-91406Y-7591D01*
Y-7513D01*
X-91413Y-7436D01*
Y-7403D01*
X-91419Y-7371D01*
Y-7312D01*
X-91426Y-7274D01*
X-91432Y-7183D01*
Y-7079D01*
X-91438Y-6976D01*
X-91445Y-6872D01*
Y-6794D01*
X-91451Y-6762D01*
Y-6716D01*
X-91432Y-6664D01*
Y-6328D01*
X-91438Y-6269D01*
Y-6185D01*
X-91432Y-6165D01*
Y-5848D01*
X-91438Y-5770D01*
X-91445Y-5712D01*
Y-5667D01*
X-91451Y-5634D01*
Y-5589D01*
X-91445Y-5543D01*
X-91432Y-5505D01*
X-91400Y-5433D01*
X-91380Y-5401D01*
X-91361Y-5381D01*
X-91354Y-5368D01*
X-91348Y-5362D01*
X-91328Y-5349D01*
X-91302Y-5343D01*
X-91231Y-5330D01*
X-91199Y-5323D01*
X-91173D01*
X-91153D01*
X-91147D01*
X-91069Y-5330D01*
D02*
G37*
G36*
X-90803Y58329D02*
X-90764Y58322D01*
X-90739Y58316D01*
X-90732D01*
X-90564Y58290D01*
X-90486Y58186D01*
X-90428Y58122D01*
X-90389Y58057D01*
X-90363Y58005D01*
X-90343Y57960D01*
X-90337Y57921D01*
Y57869D01*
X-90343Y57823D01*
X-90356Y57785D01*
X-90376Y57752D01*
X-90402Y57733D01*
X-90447Y57700D01*
X-90460Y57694D01*
X-90466D01*
X-90505Y57687D01*
X-90538Y57681D01*
X-90557D01*
X-90577Y57674D01*
X-90590D01*
X-90596Y57700D01*
X-90609Y57713D01*
X-90628Y57726D01*
X-90635D01*
X-90667Y57759D01*
X-90693Y57778D01*
X-90719Y57785D01*
X-90726D01*
X-90739Y57791D01*
X-90752D01*
X-90771Y57785D01*
X-90797Y57772D01*
X-90803Y57765D01*
X-90829Y57752D01*
X-90842Y57733D01*
X-90862Y57681D01*
Y57610D01*
X-90868Y57577D01*
X-90855Y57545D01*
X-90842Y57519D01*
X-90836Y57506D01*
X-90816Y57337D01*
X-90758Y57227D01*
X-90726Y57175D01*
X-90700Y57130D01*
X-90674Y57085D01*
X-90648Y57052D01*
X-90635Y57033D01*
X-90628Y57026D01*
X-90570Y56955D01*
X-90512Y56884D01*
X-90453Y56826D01*
X-90408Y56780D01*
X-90369Y56741D01*
X-90337Y56715D01*
X-90317Y56696D01*
X-90311Y56690D01*
X-90175Y56605D01*
X-90110Y56573D01*
X-90045Y56540D01*
X-89993Y56508D01*
X-89955Y56489D01*
X-89922Y56476D01*
X-89916Y56469D01*
X-89883Y56463D01*
X-89857Y56450D01*
X-89818Y56437D01*
X-89806Y56424D01*
X-89799D01*
X-89793D01*
X-89780D01*
X-89728D01*
X-89682D01*
X-89669D01*
X-89663D01*
X-89618D01*
X-89585D01*
X-89559Y56430D01*
X-89533D01*
X-89507Y56437D01*
X-89501Y56443D01*
X-89462Y56476D01*
X-89430Y56528D01*
X-89410Y56579D01*
X-89391Y56638D01*
X-89384Y56690D01*
X-89378Y56735D01*
Y56832D01*
X-89384Y56877D01*
Y56916D01*
X-89391Y56955D01*
X-89397Y56981D01*
Y57000D01*
X-89404Y57007D01*
Y57013D01*
X-89423Y57078D01*
X-89449Y57130D01*
X-89468Y57169D01*
X-89482Y57201D01*
X-89501Y57227D01*
X-89507Y57247D01*
X-89520Y57253D01*
Y57260D01*
X-89540Y57286D01*
X-89553Y57311D01*
X-89566Y57363D01*
X-89559Y57396D01*
X-89566D01*
X-89579Y57409D01*
X-89585Y57415D01*
X-89592Y57422D01*
X-89618Y57428D01*
X-89637Y57448D01*
X-89650Y57473D01*
X-89656Y57480D01*
X-89676Y57499D01*
X-89689Y57519D01*
X-89702Y57558D01*
X-89695Y57590D01*
Y57603D01*
X-89689Y57629D01*
X-89669Y57661D01*
X-89644Y57687D01*
X-89618Y57707D01*
X-89592Y57733D01*
X-89566Y57746D01*
X-89546Y57752D01*
X-89540Y57759D01*
X-89494Y57797D01*
X-89456Y57823D01*
X-89410Y57843D01*
X-89371Y57849D01*
X-89339D01*
X-89313D01*
X-89294Y57843D01*
X-89287D01*
X-89183Y57836D01*
X-89093Y57817D01*
X-89054Y57810D01*
X-89021Y57804D01*
X-89002Y57797D01*
X-88995D01*
X-88957D01*
X-88911Y57791D01*
X-88820Y57785D01*
X-88782Y57778D01*
X-88749D01*
X-88723Y57772D01*
X-88717D01*
X-88626Y57765D01*
X-88542Y57752D01*
X-88464Y57739D01*
X-88399Y57733D01*
X-88341Y57720D01*
X-88283Y57707D01*
X-88192Y57687D01*
X-88127Y57668D01*
X-88082Y57648D01*
X-88056Y57642D01*
X-88049Y57635D01*
X-88036Y57629D01*
X-88017Y57623D01*
X-87978Y57590D01*
X-87939Y57558D01*
X-87933Y57551D01*
X-87926Y57545D01*
X-87907Y57493D01*
X-87900Y57454D01*
X-87894Y57428D01*
Y57305D01*
X-87907Y57292D01*
X-87920Y57273D01*
X-87926Y57227D01*
X-87920Y57188D01*
Y56638D01*
X-87913Y56553D01*
X-87907Y56482D01*
Y56366D01*
X-87913Y56327D01*
Y56294D01*
X-87920Y56275D01*
Y56268D01*
X-87985Y56191D01*
X-88043Y56126D01*
X-88069Y56100D01*
X-88082Y56080D01*
X-88095Y56067D01*
X-88101Y56061D01*
X-88166Y56042D01*
X-88218Y56028D01*
X-88263D01*
X-88302Y56035D01*
X-88328Y56048D01*
X-88348Y56061D01*
X-88354Y56067D01*
X-88360Y56074D01*
X-88399Y56113D01*
Y56871D01*
X-88406Y56903D01*
X-88412Y56929D01*
X-88419Y56942D01*
X-88432Y57000D01*
X-88438Y57046D01*
X-88445Y57078D01*
Y57091D01*
X-88451Y57143D01*
X-88458Y57182D01*
X-88471Y57214D01*
X-88477Y57240D01*
X-88484Y57253D01*
Y57266D01*
X-88490Y57273D01*
X-88503Y57279D01*
X-88529Y57286D01*
X-88594Y57292D01*
X-88633Y57299D01*
X-88658D01*
X-88678Y57305D01*
X-88684D01*
X-88749D01*
X-88795D01*
X-88840D01*
X-88866D01*
X-88892D01*
X-88905D01*
X-88918D01*
X-88950Y57311D01*
X-88970D01*
X-88982Y57305D01*
Y57299D01*
X-89008Y57286D01*
X-88989Y57195D01*
X-88970Y57085D01*
X-88957Y56981D01*
Y56890D01*
X-88963Y56806D01*
X-88970Y56741D01*
X-88976Y56690D01*
X-88989Y56664D01*
Y56651D01*
X-89008Y56573D01*
X-89041Y56495D01*
X-89067Y56430D01*
X-89099Y56372D01*
X-89125Y56320D01*
X-89151Y56288D01*
X-89164Y56262D01*
X-89170Y56255D01*
X-89216Y56204D01*
X-89255Y56165D01*
X-89287Y56126D01*
X-89319Y56100D01*
X-89345Y56080D01*
X-89365Y56067D01*
X-89378Y56061D01*
X-89384D01*
X-89488Y56009D01*
X-89708Y55964D01*
X-89773D01*
X-89831D01*
X-89883Y55970D01*
X-89922D01*
X-89955Y55977D01*
X-89980D01*
X-89993Y55983D01*
X-90000D01*
X-90058Y55996D01*
X-90110Y56003D01*
X-90155Y56009D01*
X-90162D01*
X-90168D01*
X-90240Y56022D01*
X-90304Y56042D01*
X-90330Y56048D01*
X-90350D01*
X-90356Y56054D01*
X-90363D01*
X-90415Y56080D01*
X-90466Y56106D01*
X-90564Y56165D01*
X-90602Y56197D01*
X-90635Y56223D01*
X-90661Y56236D01*
X-90667Y56242D01*
X-90726Y56281D01*
X-90771Y56320D01*
X-90810Y56346D01*
X-90842Y56372D01*
X-90862Y56385D01*
X-90875Y56398D01*
X-90888Y56411D01*
X-90926Y56443D01*
X-90952Y56476D01*
X-90972Y56495D01*
X-90978Y56502D01*
X-91037Y56579D01*
X-91082Y56638D01*
X-91114Y56690D01*
X-91140Y56728D01*
X-91160Y56754D01*
X-91166Y56774D01*
X-91173Y56780D01*
Y56787D01*
X-91205Y56819D01*
X-91231Y56845D01*
X-91257Y56871D01*
X-91264Y56877D01*
X-91283Y56936D01*
X-91309Y56988D01*
X-91328Y57033D01*
X-91335Y57039D01*
Y57046D01*
X-91367Y57130D01*
X-91380Y57195D01*
X-91387Y57234D01*
Y57247D01*
X-91400Y57286D01*
X-91413Y57318D01*
X-91419Y57331D01*
X-91426Y57337D01*
X-91445Y57428D01*
X-91458Y57512D01*
X-91464Y57551D01*
Y57584D01*
X-91471Y57603D01*
Y57668D01*
X-91464Y57720D01*
X-91458Y57765D01*
X-91451Y57797D01*
X-91445Y57830D01*
X-91438Y57849D01*
X-91432Y57862D01*
Y57869D01*
X-91419Y57908D01*
X-91400Y57947D01*
X-91354Y58005D01*
X-91335Y58031D01*
X-91322Y58050D01*
X-91309Y58063D01*
X-91302Y58070D01*
X-91257Y58135D01*
X-91212Y58193D01*
X-91173Y58232D01*
X-91134Y58264D01*
X-91101Y58290D01*
X-91076Y58303D01*
X-91063Y58316D01*
X-91056D01*
X-91011Y58329D01*
X-90959Y58335D01*
X-90855D01*
X-90803Y58329D01*
D02*
G37*
G36*
X-87836Y55484D02*
X-87810Y55478D01*
X-87784Y55471D01*
X-87758Y55452D01*
X-87751Y55445D01*
X-87732Y55426D01*
X-87719Y55400D01*
X-87706Y55342D01*
Y55290D01*
X-87712Y55270D01*
Y55264D01*
X-87732Y55231D01*
X-87745Y55199D01*
X-87751Y55186D01*
X-87758Y55180D01*
X-87764Y55167D01*
X-87771Y55147D01*
X-87797Y55095D01*
X-87829Y55057D01*
X-87836Y55044D01*
X-87842Y55037D01*
X-87900Y54992D01*
X-87946Y54959D01*
X-87965Y54940D01*
X-87972Y54933D01*
X-88004Y54920D01*
X-88043Y54908D01*
X-88114Y54882D01*
X-88153Y54875D01*
X-88179Y54862D01*
X-88198Y54856D01*
X-88205D01*
X-88658Y54707D01*
X-88879Y54635D01*
X-89093Y54564D01*
X-89294Y54493D01*
X-89488Y54422D01*
X-89669Y54357D01*
X-89838Y54292D01*
X-89993Y54233D01*
X-90136Y54182D01*
X-90253Y54136D01*
X-90356Y54097D01*
X-90440Y54065D01*
X-90499Y54039D01*
X-90538Y54026D01*
X-90544Y54020D01*
X-90551D01*
X-90590Y54007D01*
X-90622Y54000D01*
X-90641Y53994D01*
X-90657D01*
X-90648Y53987D01*
X-90615Y53968D01*
X-90570Y53942D01*
X-90518Y53916D01*
X-90473Y53897D01*
X-90434Y53877D01*
X-90408Y53864D01*
X-90395Y53858D01*
X-89929Y53670D01*
X-89695Y53579D01*
X-89475Y53488D01*
X-89261Y53411D01*
X-89054Y53333D01*
X-88866Y53262D01*
X-88684Y53197D01*
X-88516Y53138D01*
X-88367Y53087D01*
X-88237Y53041D01*
X-88127Y53002D01*
X-88043Y52970D01*
X-87972Y52951D01*
X-87952Y52944D01*
X-87933Y52938D01*
X-87926Y52931D01*
X-87920D01*
X-87894Y52925D01*
X-87868Y52918D01*
X-87855Y52905D01*
X-87849D01*
X-87784Y52899D01*
X-87732Y52879D01*
X-87706Y52866D01*
X-87700Y52860D01*
X-87680Y52853D01*
X-87654Y52827D01*
X-87628Y52808D01*
X-87622Y52802D01*
Y52756D01*
X-87628Y52724D01*
X-87635Y52711D01*
X-87641Y52704D01*
Y52614D01*
X-87661Y52581D01*
X-87680Y52542D01*
X-87687Y52510D01*
X-87693Y52503D01*
Y52497D01*
X-87719Y52464D01*
X-87745Y52439D01*
X-87771Y52419D01*
X-87790Y52406D01*
X-87823Y52393D01*
X-87829D01*
X-87836D01*
X-87862D01*
X-87894Y52400D01*
X-87959Y52419D01*
X-87991Y52426D01*
X-88017Y52439D01*
X-88036Y52445D01*
X-88043D01*
X-88114Y52464D01*
X-88173Y52478D01*
X-88218Y52484D01*
X-88224D01*
X-88231D01*
X-88289Y52503D01*
X-88335Y52516D01*
X-88367Y52529D01*
X-88380Y52536D01*
X-88587Y52607D01*
X-88678Y52640D01*
X-88769Y52665D01*
X-88808Y52678D01*
X-88840Y52691D01*
X-88859Y52698D01*
X-88866D01*
X-88950Y52737D01*
X-89021Y52756D01*
X-89047D01*
X-89060Y52763D01*
X-89073D01*
X-89080D01*
X-89164Y52802D01*
X-89242Y52834D01*
X-89313Y52866D01*
X-89365Y52886D01*
X-89410Y52905D01*
X-89449Y52918D01*
X-89468Y52925D01*
X-89475D01*
X-89527Y52938D01*
X-89572Y52957D01*
X-89605Y52964D01*
X-89611Y52970D01*
X-89618D01*
X-89682Y52996D01*
X-89734Y53022D01*
X-89780Y53028D01*
X-89786Y53035D01*
X-89793D01*
X-89864Y53067D01*
X-89935Y53093D01*
X-89993Y53119D01*
X-90039Y53138D01*
X-90084Y53151D01*
X-90110Y53164D01*
X-90130Y53171D01*
X-90136D01*
X-90188Y53190D01*
X-90220Y53210D01*
X-90233Y53216D01*
X-90240Y53223D01*
X-90285Y53242D01*
X-90330Y53262D01*
X-90434Y53294D01*
X-90479Y53307D01*
X-90518Y53320D01*
X-90544Y53333D01*
X-90551D01*
X-90596Y53352D01*
X-90635Y53365D01*
X-90661Y53378D01*
X-90667Y53385D01*
X-90803Y53456D01*
X-90868Y53482D01*
X-90926Y53501D01*
X-90978Y53521D01*
X-91017Y53534D01*
X-91043Y53540D01*
X-91050D01*
X-91069Y53547D01*
X-91095Y53566D01*
X-91153Y53598D01*
X-91179Y53611D01*
X-91199Y53624D01*
X-91212Y53631D01*
X-91218Y53637D01*
X-91264Y53676D01*
X-91302Y53702D01*
X-91328Y53735D01*
X-91348Y53754D01*
X-91367Y53780D01*
X-91374Y53793D01*
X-91451Y53897D01*
X-91445Y53974D01*
X-91432Y54046D01*
X-91413Y54104D01*
X-91400Y54149D01*
X-91387Y54188D01*
X-91374Y54214D01*
X-91361Y54227D01*
Y54233D01*
X-91354Y54260D01*
X-91341Y54279D01*
X-91315Y54298D01*
X-91289Y54318D01*
X-91264Y54337D01*
X-91238Y54344D01*
X-91225Y54357D01*
X-91218D01*
X-91166Y54389D01*
X-91121Y54409D01*
X-91088Y54422D01*
X-91076Y54428D01*
X-91043Y54441D01*
X-91004Y54454D01*
X-90914Y54480D01*
X-90875Y54499D01*
X-90842Y54506D01*
X-90816Y54519D01*
X-90810D01*
X-90719Y54558D01*
X-90635Y54590D01*
X-90557Y54616D01*
X-90492Y54648D01*
X-90428Y54668D01*
X-90376Y54687D01*
X-90285Y54720D01*
X-90214Y54746D01*
X-90168Y54758D01*
X-90142Y54771D01*
X-90136D01*
X-90039Y54804D01*
X-89961Y54823D01*
X-89929Y54830D01*
X-89909Y54836D01*
X-89896Y54843D01*
X-89890D01*
X-89851Y54862D01*
X-89806Y54875D01*
X-89708Y54908D01*
X-89669Y54914D01*
X-89631Y54927D01*
X-89605Y54933D01*
X-89598D01*
X-89488Y54966D01*
X-89436Y54979D01*
X-89391Y54998D01*
X-89352Y55005D01*
X-89319Y55018D01*
X-89300Y55024D01*
X-89294D01*
X-89222Y55050D01*
X-89144Y55082D01*
X-89060Y55108D01*
X-88976Y55141D01*
X-88898Y55160D01*
X-88840Y55180D01*
X-88814Y55186D01*
X-88795Y55193D01*
X-88788Y55199D01*
X-88782D01*
X-88704Y55218D01*
X-88620Y55244D01*
X-88542Y55270D01*
X-88464Y55296D01*
X-88399Y55322D01*
X-88348Y55342D01*
X-88315Y55355D01*
X-88302Y55361D01*
X-88211Y55400D01*
X-88127Y55432D01*
X-88062Y55452D01*
X-88011Y55471D01*
X-87972Y55478D01*
X-87939Y55484D01*
X-87926D01*
X-87920D01*
X-87874Y55491D01*
X-87836Y55484D01*
D02*
G37*
G36*
X-89274Y48965D02*
X-89255D01*
X-89248D01*
X-89242Y48959D01*
X-89248D01*
X-89242Y48952D01*
X-89216Y48946D01*
X-89183Y48939D01*
X-89177D01*
X-89170D01*
X-89067Y48926D01*
X-88976Y48907D01*
X-88885Y48888D01*
X-88808Y48868D01*
X-88730Y48842D01*
X-88658Y48823D01*
X-88600Y48797D01*
X-88542Y48771D01*
X-88497Y48752D01*
X-88451Y48732D01*
X-88419Y48713D01*
X-88386Y48693D01*
X-88367Y48680D01*
X-88348Y48667D01*
X-88335Y48661D01*
X-88257Y48596D01*
X-88186Y48538D01*
X-88121Y48479D01*
X-88062Y48428D01*
X-88017Y48389D01*
X-87985Y48350D01*
X-87959Y48330D01*
X-87952Y48324D01*
X-87881Y48214D01*
X-87816Y48110D01*
X-87784Y48065D01*
X-87764Y48026D01*
X-87751Y48000D01*
X-87745Y47993D01*
X-87719Y47929D01*
X-87693Y47857D01*
X-87680Y47792D01*
X-87661Y47728D01*
X-87654Y47669D01*
X-87648Y47624D01*
X-87641Y47598D01*
Y47585D01*
X-87635Y47494D01*
Y47391D01*
X-87641Y47287D01*
X-87648Y47190D01*
X-87654Y47106D01*
X-87661Y47034D01*
Y47008D01*
X-87667Y46989D01*
Y46970D01*
X-87680Y46931D01*
X-87693Y46879D01*
X-87732Y46762D01*
X-87751Y46710D01*
X-87771Y46665D01*
X-87777Y46639D01*
X-87784Y46626D01*
X-87823Y46542D01*
X-87855Y46464D01*
X-87887Y46399D01*
X-87920Y46347D01*
X-87946Y46308D01*
X-87965Y46276D01*
X-87978Y46257D01*
X-87985Y46250D01*
X-88036Y46205D01*
X-88075Y46172D01*
X-88101Y46159D01*
X-88108Y46153D01*
X-88134Y46140D01*
X-88160Y46134D01*
X-88224Y46127D01*
X-88250Y46121D01*
X-88276D01*
X-88289D01*
X-88296D01*
X-88373Y46127D01*
X-88432Y46134D01*
X-88464Y46147D01*
X-88477Y46153D01*
X-88535Y46179D01*
X-88581Y46211D01*
X-88620Y46244D01*
X-88626Y46250D01*
X-88633Y46257D01*
X-88691Y46315D01*
X-88730Y46354D01*
X-88756Y46380D01*
X-88762Y46386D01*
Y46503D01*
X-88749Y46529D01*
X-88736Y46548D01*
X-88723Y46574D01*
X-88717Y46587D01*
X-88710Y46594D01*
X-88684Y46600D01*
X-88658Y46607D01*
X-88633Y46619D01*
X-88613Y46626D01*
X-88594Y46633D01*
X-88587D01*
X-88432Y46717D01*
X-88373Y46749D01*
X-88322Y46782D01*
X-88276Y46827D01*
X-88237Y46872D01*
X-88205Y46911D01*
X-88179Y46944D01*
X-88166Y46970D01*
X-88160Y46976D01*
X-88127Y47041D01*
X-88095Y47112D01*
X-88075Y47177D01*
X-88056Y47242D01*
X-88049Y47300D01*
X-88043Y47345D01*
X-88036Y47371D01*
Y47384D01*
X-88030Y47462D01*
Y47533D01*
X-88036Y47566D01*
X-88043Y47592D01*
X-88049Y47605D01*
Y47611D01*
X-88101Y47741D01*
X-88173Y47851D01*
X-88250Y47948D01*
X-88335Y48032D01*
X-88412Y48097D01*
X-88477Y48142D01*
X-88503Y48162D01*
X-88522Y48168D01*
X-88535Y48181D01*
X-88542D01*
X-88736Y48252D01*
X-88918Y48304D01*
X-89073Y48330D01*
X-89216Y48350D01*
X-89274Y48356D01*
X-89326D01*
X-89371Y48363D01*
X-89410D01*
X-89443Y48356D01*
X-89462D01*
X-89475D01*
X-89482D01*
X-89585Y48363D01*
X-89682D01*
X-89870Y48343D01*
X-90039Y48304D01*
X-90110Y48285D01*
X-90181Y48265D01*
X-90240Y48239D01*
X-90298Y48220D01*
X-90343Y48194D01*
X-90382Y48175D01*
X-90415Y48162D01*
X-90440Y48149D01*
X-90453Y48136D01*
X-90460D01*
X-90486Y48123D01*
X-90505Y48110D01*
X-90557Y48065D01*
X-90596Y48026D01*
X-90602Y48013D01*
X-90609Y48006D01*
X-90641Y47987D01*
X-90674Y47961D01*
X-90706Y47922D01*
X-90726Y47896D01*
X-90732Y47883D01*
X-90758Y47844D01*
X-90777Y47799D01*
X-90790Y47760D01*
X-90797Y47747D01*
Y47741D01*
X-90816Y47656D01*
X-90823Y47566D01*
Y47533D01*
X-90816Y47501D01*
Y47475D01*
X-90803Y47410D01*
X-90797Y47358D01*
X-90784Y47306D01*
X-90771Y47267D01*
X-90764Y47235D01*
X-90758Y47209D01*
X-90752Y47196D01*
Y47190D01*
X-90739Y47170D01*
X-90726Y47144D01*
X-90680Y47099D01*
X-90641Y47060D01*
X-90628Y47054D01*
X-90622Y47047D01*
X-90570Y46982D01*
X-90531Y46937D01*
X-90499Y46905D01*
X-90486Y46892D01*
X-90421Y46840D01*
X-90343Y46801D01*
X-90317Y46788D01*
X-90292Y46775D01*
X-90272Y46769D01*
X-90266D01*
X-90240Y46762D01*
X-90201Y46756D01*
X-90130Y46736D01*
X-90097Y46730D01*
X-90071D01*
X-90052Y46723D01*
X-90045D01*
X-90000D01*
X-89968D01*
X-89948D01*
X-89929D01*
X-89916D01*
Y46756D01*
X-89929Y46814D01*
X-89935Y46846D01*
X-89942Y46866D01*
X-89948Y46885D01*
Y46892D01*
X-89955Y46950D01*
Y46995D01*
X-89948Y47034D01*
X-89935Y47060D01*
X-89929Y47080D01*
X-89916Y47093D01*
X-89909Y47099D01*
X-89896Y47118D01*
X-89877Y47131D01*
X-89825Y47157D01*
X-89786Y47177D01*
X-89773Y47183D01*
X-89767D01*
X-89721Y47196D01*
X-89682Y47203D01*
X-89656D01*
X-89650D01*
X-89598D01*
X-89559Y47190D01*
X-89527Y47164D01*
X-89507Y47138D01*
X-89494Y47106D01*
X-89488Y47080D01*
Y47041D01*
X-89482Y47028D01*
X-89475Y46989D01*
X-89468Y46950D01*
Y46937D01*
X-89462Y46898D01*
X-89456Y46846D01*
X-89443Y46795D01*
X-89436Y46730D01*
X-89430Y46678D01*
Y46633D01*
X-89423Y46600D01*
Y46587D01*
X-89397Y46153D01*
Y45939D01*
X-89430Y45933D01*
X-89449Y45926D01*
X-89462Y45920D01*
Y45913D01*
X-89520Y45887D01*
X-89572Y45881D01*
X-89618Y45874D01*
X-89624D01*
X-89627D01*
X-89624Y45868D01*
Y45848D01*
X-89676Y45855D01*
X-89715Y45861D01*
X-89734Y45874D01*
X-89741Y45881D01*
X-89780Y45907D01*
X-89812Y45939D01*
X-89851Y46017D01*
X-89864Y46049D01*
X-89877Y46082D01*
X-89883Y46101D01*
Y46108D01*
X-89890Y46153D01*
X-89896Y46192D01*
X-89909Y46218D01*
X-89916Y46244D01*
X-89922Y46270D01*
X-89929Y46276D01*
X-89935Y46270D01*
X-89942Y46263D01*
X-89974Y46244D01*
X-90006Y46224D01*
X-90013Y46218D01*
X-90019D01*
X-90168Y46205D01*
X-90240D01*
X-90304D01*
X-90363Y46211D01*
X-90415D01*
X-90440Y46218D01*
X-90453D01*
X-90518Y46224D01*
X-90583Y46237D01*
X-90602Y46250D01*
X-90622Y46257D01*
X-90635Y46263D01*
X-90641D01*
X-90687Y46276D01*
X-90726Y46295D01*
X-90797Y46334D01*
X-90823Y46354D01*
X-90842Y46373D01*
X-90855Y46380D01*
X-90862Y46386D01*
X-90907Y46406D01*
X-90939Y46412D01*
X-90965Y46419D01*
X-90972D01*
X-91017Y46477D01*
X-91063Y46522D01*
X-91101Y46555D01*
X-91108Y46568D01*
X-91114D01*
X-91153Y46613D01*
X-91192Y46652D01*
X-91218Y46684D01*
X-91238Y46710D01*
X-91264Y46749D01*
X-91270Y46762D01*
Y46775D01*
X-91283Y46801D01*
X-91302Y46853D01*
X-91315Y46885D01*
X-91322Y46905D01*
X-91335Y46924D01*
Y46931D01*
X-91367Y47002D01*
X-91380Y47060D01*
X-91387Y47099D01*
Y47112D01*
X-91413Y47261D01*
X-91419Y47326D01*
X-91426Y47378D01*
X-91432Y47429D01*
Y47494D01*
X-91406Y47754D01*
X-91393Y47780D01*
X-91380Y47805D01*
X-91374Y47818D01*
X-91367Y47825D01*
X-91361D01*
Y47844D01*
X-91354Y47877D01*
X-91341Y47916D01*
X-91315Y47954D01*
X-91296Y47993D01*
X-91276Y48019D01*
X-91264Y48045D01*
X-91257Y48052D01*
X-91212Y48129D01*
X-91173Y48188D01*
X-91147Y48227D01*
X-91140Y48233D01*
Y48239D01*
X-91088Y48311D01*
X-91043Y48363D01*
X-91011Y48389D01*
X-91004Y48401D01*
X-90998D01*
X-90926Y48460D01*
X-90849Y48512D01*
X-90816Y48531D01*
X-90790Y48551D01*
X-90777Y48557D01*
X-90771Y48564D01*
X-90719Y48602D01*
X-90680Y48635D01*
X-90641Y48661D01*
X-90609Y48680D01*
X-90590Y48693D01*
X-90570Y48700D01*
X-90557Y48706D01*
X-90440Y48758D01*
X-90337Y48803D01*
X-90253Y48836D01*
X-90175Y48862D01*
X-90123Y48875D01*
X-90078Y48888D01*
X-90052Y48894D01*
X-90045D01*
X-89942Y48913D01*
X-89844Y48933D01*
X-89754Y48946D01*
X-89669Y48952D01*
X-89605D01*
X-89553Y48959D01*
X-89520D01*
X-89507D01*
X-89417Y48965D01*
X-89352Y48972D01*
X-89306D01*
X-89274Y48965D01*
D02*
G37*
G36*
X-87855Y42434D02*
X-87829Y42421D01*
X-87816Y42414D01*
X-87797Y42408D01*
X-87784Y42401D01*
X-87764Y42362D01*
X-87758Y42330D01*
Y42310D01*
X-87751Y42297D01*
X-87745Y42259D01*
X-87738Y42220D01*
X-87732Y42207D01*
Y42200D01*
X-87725Y42168D01*
Y42129D01*
X-87719Y42083D01*
X-87712Y42032D01*
X-87700Y41915D01*
X-87693Y41798D01*
X-87680Y41688D01*
Y41636D01*
X-87674Y41591D01*
Y41559D01*
X-87667Y41533D01*
Y41312D01*
X-87674Y41228D01*
Y41150D01*
X-87680Y41086D01*
Y41040D01*
X-87687Y41008D01*
Y40995D01*
X-87693Y40885D01*
X-87700Y40788D01*
X-87712Y40710D01*
X-87725Y40645D01*
X-87745Y40600D01*
X-87758Y40561D01*
X-87764Y40541D01*
X-87771Y40535D01*
X-87836Y40438D01*
X-87913Y40353D01*
X-87991Y40276D01*
X-88062Y40211D01*
X-88127Y40159D01*
X-88186Y40114D01*
X-88218Y40088D01*
X-88224Y40081D01*
X-88231D01*
X-88276Y40088D01*
X-88309Y40101D01*
X-88335Y40114D01*
X-88341Y40120D01*
X-88348Y40114D01*
X-88367Y40107D01*
X-88412Y40088D01*
X-88471Y40075D01*
X-88535Y40062D01*
X-88600Y40049D01*
X-88658Y40042D01*
X-88697Y40036D01*
X-88704D01*
X-88710D01*
X-88801D01*
X-88872Y40042D01*
X-88937D01*
X-88982Y40049D01*
X-89021Y40055D01*
X-89047D01*
X-89060Y40062D01*
X-89067D01*
X-89177Y40120D01*
X-89229Y40152D01*
X-89274Y40185D01*
X-89306Y40211D01*
X-89339Y40237D01*
X-89358Y40250D01*
X-89365Y40256D01*
X-89430Y40340D01*
X-89494Y40425D01*
X-89527Y40464D01*
X-89553Y40490D01*
X-89566Y40509D01*
X-89572Y40515D01*
X-89624Y40593D01*
X-89656Y40658D01*
X-89682Y40710D01*
X-89702Y40755D01*
X-89715Y40781D01*
X-89721Y40807D01*
Y40820D01*
X-89741Y40885D01*
X-89760Y40943D01*
X-89773Y40982D01*
X-89786Y41014D01*
X-89799Y41034D01*
X-89806Y41047D01*
X-89812Y41053D01*
Y41086D01*
X-89922Y40904D01*
X-90039Y40736D01*
X-90162Y40580D01*
X-90279Y40438D01*
X-90330Y40379D01*
X-90382Y40321D01*
X-90428Y40276D01*
X-90466Y40237D01*
X-90499Y40204D01*
X-90525Y40178D01*
X-90538Y40165D01*
X-90544Y40159D01*
X-90590Y40127D01*
X-90615Y40088D01*
X-90628Y40055D01*
X-90635Y40042D01*
X-90700Y39977D01*
X-90758Y39913D01*
X-90784Y39880D01*
X-90803Y39861D01*
X-90810Y39848D01*
X-90816Y39841D01*
X-90881Y39770D01*
X-90933Y39725D01*
X-90959Y39692D01*
X-90972Y39686D01*
X-91004Y39667D01*
X-91043Y39654D01*
X-91101Y39641D01*
X-91140D01*
X-91147Y39647D01*
X-91153D01*
X-91179Y39654D01*
X-91205Y39660D01*
X-91238Y39692D01*
X-91257Y39731D01*
X-91264Y39738D01*
Y39744D01*
X-91296Y39783D01*
X-91315Y39822D01*
X-91328Y39848D01*
X-91335Y39854D01*
Y39861D01*
X-91348Y39900D01*
X-91361Y39926D01*
X-91367Y39952D01*
Y39971D01*
X-91361Y39990D01*
Y40016D01*
X-91354Y40042D01*
X-91341Y40075D01*
X-91315Y40107D01*
X-91296Y40139D01*
X-91276Y40159D01*
X-91264Y40178D01*
X-91257Y40185D01*
X-91218Y40230D01*
X-91160Y40282D01*
X-91101Y40347D01*
X-91043Y40412D01*
X-90985Y40477D01*
X-90939Y40528D01*
X-90907Y40561D01*
X-90894Y40567D01*
Y40574D01*
X-90829Y40639D01*
X-90764Y40697D01*
X-90661Y40794D01*
X-90583Y40872D01*
X-90518Y40930D01*
X-90466Y40969D01*
X-90440Y40995D01*
X-90421Y41001D01*
X-90415Y41008D01*
X-90402Y41027D01*
X-90389Y41047D01*
X-90343Y41099D01*
X-90311Y41137D01*
X-90298Y41150D01*
X-90292Y41157D01*
X-90246Y41202D01*
X-90194Y41267D01*
X-90136Y41332D01*
X-90078Y41397D01*
X-90026Y41462D01*
X-89980Y41513D01*
X-89955Y41552D01*
X-89942Y41559D01*
Y41565D01*
X-89922Y41617D01*
X-89916Y41662D01*
X-89922Y41701D01*
X-89929Y41734D01*
X-89935Y41759D01*
X-89942Y41772D01*
X-89955Y41779D01*
Y41785D01*
X-89961Y41792D01*
X-89974D01*
X-90019Y41798D01*
X-90078Y41805D01*
X-90136D01*
X-90201Y41811D01*
X-90253D01*
X-90292D01*
X-90298D01*
X-90304D01*
X-90402Y41818D01*
X-90492D01*
X-90570Y41824D01*
X-90648Y41831D01*
X-90719D01*
X-90777Y41837D01*
X-90888Y41844D01*
X-90965Y41850D01*
X-91024D01*
X-91056Y41857D01*
X-91069D01*
X-91134D01*
X-91205D01*
X-91238D01*
X-91257D01*
X-91276D01*
X-91283D01*
X-91361Y41870D01*
X-91413Y41876D01*
X-91438Y41883D01*
X-91451D01*
X-91477Y41947D01*
X-91490Y42012D01*
X-91497Y42032D01*
Y42071D01*
X-91484Y42129D01*
X-91471Y42161D01*
Y42187D01*
X-91438Y42239D01*
X-91400Y42272D01*
X-91367Y42291D01*
X-91361Y42297D01*
X-91354D01*
X-91296Y42330D01*
X-91231Y42349D01*
X-91205Y42356D01*
X-91179Y42362D01*
X-91166Y42369D01*
X-91160D01*
X-91101Y42375D01*
X-91030D01*
X-90881Y42369D01*
X-90810Y42362D01*
X-90752Y42356D01*
X-90713Y42349D01*
X-90706D01*
X-90700D01*
X-90596Y42336D01*
X-90512Y42330D01*
X-90440Y42323D01*
X-90389Y42310D01*
X-90343Y42304D01*
X-90317D01*
X-90304Y42297D01*
X-90298D01*
X-90285Y42291D01*
X-90266Y42284D01*
X-90214Y42278D01*
X-90188D01*
X-90168D01*
X-90155D01*
X-90149D01*
X-90084Y42284D01*
X-90013D01*
X-89948D01*
X-89883Y42278D01*
X-89831Y42272D01*
X-89786Y42265D01*
X-89760Y42259D01*
X-89747D01*
X-89669D01*
X-89585Y42252D01*
X-89488D01*
X-89397Y42246D01*
X-89313Y42239D01*
X-89248D01*
X-89222Y42233D01*
X-89203D01*
X-89190D01*
X-89183D01*
X-89060D01*
X-88937D01*
X-88820D01*
X-88710D01*
X-88613D01*
X-88574D01*
X-88535D01*
X-88510D01*
X-88490D01*
X-88477D01*
X-88471D01*
X-88147Y42213D01*
X-88140Y42233D01*
X-88127Y42246D01*
X-88121Y42297D01*
X-88095Y42336D01*
X-88075Y42362D01*
X-88069Y42369D01*
X-88056Y42395D01*
X-88036Y42408D01*
X-87991Y42434D01*
X-87952Y42440D01*
X-87939D01*
X-87933D01*
X-87894Y42446D01*
X-87855Y42434D01*
D02*
G37*
G36*
X-91101Y39342D02*
X-91095D01*
X-91088D01*
X-91043Y39323D01*
X-91011Y39297D01*
X-90985Y39258D01*
X-90959Y39226D01*
X-90946Y39187D01*
X-90933Y39155D01*
X-90926Y39135D01*
Y39129D01*
X-90933Y39122D01*
Y39083D01*
X-90926Y39057D01*
X-90920Y39031D01*
X-90914Y39006D01*
X-90907Y38993D01*
Y38986D01*
X-90881Y38947D01*
X-90875Y38934D01*
X-90868Y38928D01*
X-90862D01*
X-90842Y38921D01*
X-90797Y38915D01*
X-90771D01*
X-90745Y38908D01*
X-90732D01*
X-90726D01*
X-90713D01*
X-90687Y38902D01*
X-90648D01*
X-90609Y38895D01*
X-90577D01*
X-90544Y38889D01*
X-90518D01*
X-90512D01*
X-90473Y38882D01*
X-90421Y38876D01*
X-90363Y38870D01*
X-90304Y38863D01*
X-90168Y38844D01*
X-90032Y38831D01*
X-89909Y38818D01*
X-89851Y38811D01*
X-89799Y38805D01*
X-89760Y38798D01*
X-89728Y38792D01*
X-89708D01*
X-89702D01*
X-89663D01*
X-89605Y38785D01*
X-89540Y38779D01*
X-89468Y38766D01*
X-89404Y38759D01*
X-89345Y38753D01*
X-89306Y38746D01*
X-89300D01*
X-89294D01*
X-89242Y38740D01*
X-89203Y38733D01*
X-89132Y38727D01*
X-89080Y38720D01*
X-89047D01*
X-89028D01*
X-89021D01*
X-89015Y38727D01*
X-89002Y38720D01*
X-88989Y38727D01*
Y38740D01*
X-88982Y38753D01*
X-88989Y38792D01*
Y38805D01*
X-89015Y38870D01*
X-89034Y38921D01*
X-89047Y38960D01*
X-89054Y38993D01*
Y39031D01*
X-89047Y39044D01*
X-89028Y39064D01*
X-89002Y39083D01*
X-88944Y39096D01*
X-88911D01*
X-88885Y39090D01*
X-88872D01*
X-88866D01*
X-88827Y39096D01*
X-88795D01*
X-88730Y39083D01*
X-88704Y39077D01*
X-88684Y39070D01*
X-88671Y39064D01*
X-88665D01*
X-88652Y39057D01*
X-88633Y39051D01*
X-88574Y39025D01*
X-88548Y39012D01*
X-88522Y39006D01*
X-88510Y38993D01*
X-88503D01*
X-88399Y38934D01*
X-88360Y38908D01*
X-88322Y38882D01*
X-88289Y38863D01*
X-88263Y38844D01*
X-88250Y38837D01*
X-88244Y38831D01*
X-88166Y38785D01*
X-88108Y38753D01*
X-88069Y38727D01*
X-88036Y38708D01*
X-88024Y38695D01*
X-88017Y38688D01*
X-88011Y38682D01*
Y38675D01*
X-88004Y38669D01*
X-87991Y38643D01*
X-87978Y38623D01*
X-87972Y38610D01*
X-87959Y38591D01*
X-87952Y38565D01*
X-87946Y38500D01*
X-87939Y38468D01*
Y38416D01*
X-87985Y38357D01*
X-88024Y38312D01*
X-88056Y38267D01*
X-88082Y38234D01*
X-88101Y38208D01*
X-88114Y38189D01*
X-88127Y38176D01*
Y38170D01*
X-88192D01*
X-88263D01*
X-88296D01*
X-88315D01*
X-88335D01*
X-88341D01*
X-88419D01*
X-88484D01*
X-88510D01*
X-88529D01*
X-88542D01*
X-88548D01*
X-88607D01*
X-88678Y38176D01*
X-88827Y38189D01*
X-88892Y38202D01*
X-88950Y38208D01*
X-88989Y38215D01*
X-88995D01*
X-89002D01*
X-89067D01*
X-89125D01*
X-89177Y38221D01*
X-89216D01*
X-89255Y38228D01*
X-89281D01*
X-89294Y38234D01*
X-89300D01*
X-89475D01*
X-90564Y38332D01*
X-90602Y38338D01*
X-90648Y38345D01*
X-90745Y38364D01*
X-90790Y38370D01*
X-90829D01*
X-90855Y38377D01*
X-90862D01*
X-90881Y38383D01*
X-90894Y38370D01*
X-90901Y38357D01*
X-90907Y38351D01*
Y38306D01*
X-90901Y38241D01*
X-90907Y38183D01*
X-90920Y38131D01*
X-90939Y38098D01*
X-90959Y38066D01*
X-90972Y38047D01*
X-90985Y38040D01*
X-90991Y38034D01*
X-91024Y38027D01*
X-91050Y38008D01*
X-91069Y37995D01*
X-91076Y37988D01*
X-91134Y37982D01*
X-91166Y37975D01*
X-91186Y37969D01*
X-91192Y37962D01*
X-91250Y37969D01*
X-91289Y37982D01*
X-91315Y38001D01*
X-91322Y38008D01*
X-91354Y38040D01*
X-91380Y38072D01*
X-91393Y38098D01*
X-91400Y38105D01*
X-91413Y38137D01*
X-91426Y38176D01*
X-91432Y38234D01*
Y38286D01*
X-91451Y38643D01*
Y39031D01*
X-91458Y39077D01*
Y39116D01*
X-91464Y39142D01*
Y39161D01*
X-91471Y39167D01*
Y39174D01*
X-91380Y39317D01*
X-91315D01*
X-91264Y39329D01*
X-91218Y39342D01*
X-91179D01*
X-91147Y39349D01*
X-91121D01*
X-91101Y39342D01*
D02*
G37*
G36*
X-87998Y34437D02*
X-87959Y34431D01*
X-87900Y34392D01*
X-87868Y34359D01*
X-87855Y34353D01*
Y34346D01*
X-87842Y34314D01*
X-87836Y34269D01*
X-87810Y34178D01*
X-87797Y34133D01*
X-87790Y34100D01*
X-87784Y34074D01*
Y34068D01*
X-87777Y34035D01*
X-87771Y33996D01*
X-87764Y33945D01*
Y33886D01*
X-87751Y33757D01*
X-87738Y33614D01*
X-87725Y33485D01*
Y33426D01*
X-87719Y33374D01*
Y33329D01*
X-87712Y33290D01*
Y32960D01*
X-87706Y32927D01*
X-87700Y32882D01*
X-87687Y32791D01*
Y32163D01*
X-87693Y32039D01*
X-87700Y31936D01*
X-87706Y31852D01*
Y31787D01*
X-87712Y31741D01*
Y31683D01*
X-87732Y31638D01*
X-87751Y31605D01*
X-87764Y31580D01*
X-87771Y31567D01*
X-87803Y31534D01*
X-87842Y31508D01*
X-87874Y31482D01*
X-87881Y31476D01*
X-87887D01*
X-88030Y31450D01*
X-88069Y31469D01*
X-88095Y31482D01*
X-88114Y31489D01*
X-88127Y31495D01*
X-88140Y31502D01*
X-88179Y31547D01*
X-88205Y31605D01*
X-88218Y31664D01*
X-88224Y31729D01*
Y31839D01*
X-88218Y31871D01*
Y31949D01*
X-88224Y32001D01*
X-88231Y32033D01*
X-88237Y32046D01*
Y32279D01*
X-88231Y32364D01*
Y32454D01*
X-88237Y32474D01*
Y32487D01*
X-88257Y32532D01*
X-88283Y32571D01*
X-88348Y32629D01*
X-88373Y32649D01*
X-88399Y32668D01*
X-88419Y32675D01*
X-88425Y32681D01*
X-88730Y32726D01*
X-88782D01*
X-88827D01*
X-88898D01*
X-88950D01*
X-88982D01*
X-89008D01*
X-89015D01*
X-89021D01*
X-89034Y32733D01*
X-89067D01*
X-89099Y32726D01*
X-89144Y32720D01*
X-89183Y32713D01*
X-89216Y32707D01*
X-89242Y32700D01*
X-89248D01*
X-89332Y32707D01*
X-89410Y32713D01*
X-89468D01*
X-89514Y32707D01*
X-89546D01*
X-89572D01*
X-89585Y32700D01*
X-89592D01*
X-89637Y32707D01*
X-89682D01*
X-89747Y32700D01*
X-89773Y32694D01*
X-89793Y32688D01*
X-89806Y32681D01*
X-89812D01*
X-89896D01*
X-89955D01*
X-89993D01*
X-90000D01*
X-90006D01*
X-90130D01*
X-90188D01*
X-90240D01*
X-90292D01*
X-90330D01*
X-90356D01*
X-90363D01*
X-90499Y32675D01*
X-90635D01*
X-90764Y32681D01*
X-90881Y32694D01*
X-90985Y32707D01*
X-91024Y32713D01*
X-91063D01*
X-91095Y32720D01*
X-91114Y32726D01*
X-91127D01*
X-91134D01*
X-91218Y32765D01*
X-91283Y32791D01*
X-91322Y32817D01*
X-91328Y32824D01*
X-91335D01*
X-91393Y32856D01*
X-91438Y32882D01*
X-91464Y32895D01*
X-91477Y32901D01*
X-91497Y32966D01*
Y33018D01*
X-91490Y33057D01*
Y33070D01*
X-91471Y33109D01*
X-91438Y33141D01*
X-91413Y33167D01*
X-91380Y33187D01*
X-91354Y33200D01*
X-91335Y33206D01*
X-91322Y33212D01*
X-91315D01*
X-91283Y33219D01*
X-91231Y33225D01*
X-91179Y33232D01*
X-91121D01*
X-91063Y33238D01*
X-91017D01*
X-90985D01*
X-90972D01*
X-90868Y33251D01*
X-90777Y33258D01*
X-90700D01*
X-90628D01*
X-90570Y33251D01*
X-90531Y33245D01*
X-90505Y33238D01*
X-90499D01*
X-90382D01*
X-90266Y33232D01*
X-90149D01*
X-90039Y33225D01*
X-89942Y33219D01*
X-89903D01*
X-89870D01*
X-89838Y33212D01*
X-89818D01*
X-89806D01*
X-89799D01*
X-89786Y33206D01*
X-89760D01*
X-89721D01*
X-89676Y33200D01*
X-89624D01*
X-89566D01*
X-89436Y33193D01*
X-89306D01*
X-89248D01*
X-89196D01*
X-89157D01*
X-89119D01*
X-89099D01*
X-89093D01*
X-88970Y33187D01*
X-88866D01*
X-88769Y33180D01*
X-88691D01*
X-88626Y33173D01*
X-88568D01*
X-88522D01*
X-88484Y33167D01*
X-88458D01*
X-88438D01*
X-88412D01*
X-88399D01*
X-88393Y33173D01*
X-88380Y33193D01*
X-88348Y33232D01*
X-88309Y33264D01*
X-88302Y33277D01*
X-88296Y33284D01*
X-88276Y33323D01*
X-88263Y33355D01*
X-88237Y33400D01*
X-88224Y33426D01*
X-88218Y33433D01*
Y33485D01*
X-88224Y33498D01*
X-88244Y33536D01*
X-88257Y33569D01*
X-88263Y33634D01*
Y33731D01*
X-88270Y33789D01*
X-88276Y33815D01*
Y33841D01*
X-88283Y33860D01*
Y33867D01*
X-88296Y33945D01*
X-88289Y33996D01*
Y34029D01*
X-88283Y34042D01*
X-88289Y34074D01*
Y34100D01*
X-88283Y34159D01*
X-88276Y34184D01*
X-88270Y34204D01*
X-88263Y34217D01*
Y34346D01*
X-88250Y34372D01*
X-88244Y34385D01*
X-88218Y34398D01*
X-88205D01*
X-88186Y34411D01*
X-88160Y34424D01*
X-88140Y34437D01*
X-88127Y34444D01*
X-88121D01*
X-88114D01*
X-88082D01*
X-88056D01*
X-88049D01*
X-88043D01*
X-87998Y34437D01*
D02*
G37*
G36*
X-91101Y31022D02*
X-91095D01*
X-91088D01*
X-91043Y31003D01*
X-91011Y30977D01*
X-90985Y30938D01*
X-90959Y30906D01*
X-90946Y30867D01*
X-90933Y30834D01*
X-90926Y30815D01*
Y30808D01*
X-90933Y30802D01*
Y30763D01*
X-90926Y30737D01*
X-90920Y30711D01*
X-90914Y30685D01*
X-90907Y30672D01*
Y30666D01*
X-90881Y30627D01*
X-90875Y30614D01*
X-90868Y30608D01*
X-90862D01*
X-90842Y30601D01*
X-90797Y30595D01*
X-90771D01*
X-90745Y30588D01*
X-90732D01*
X-90726D01*
X-90713D01*
X-90687Y30582D01*
X-90648D01*
X-90609Y30575D01*
X-90577D01*
X-90544Y30569D01*
X-90518D01*
X-90512D01*
X-90473Y30562D01*
X-90421Y30556D01*
X-90363Y30549D01*
X-90304Y30543D01*
X-90168Y30523D01*
X-90032Y30510D01*
X-89909Y30497D01*
X-89851Y30491D01*
X-89799Y30484D01*
X-89760Y30478D01*
X-89728Y30471D01*
X-89708D01*
X-89702D01*
X-89663D01*
X-89605Y30465D01*
X-89540Y30458D01*
X-89468Y30446D01*
X-89404Y30439D01*
X-89345Y30433D01*
X-89306Y30426D01*
X-89300D01*
X-89294D01*
X-89242Y30419D01*
X-89203Y30413D01*
X-89132Y30407D01*
X-89080Y30400D01*
X-89047D01*
X-89028D01*
X-89021D01*
X-89015Y30407D01*
X-89002Y30400D01*
X-88989Y30407D01*
Y30419D01*
X-88982Y30433D01*
X-88989Y30471D01*
Y30484D01*
X-89015Y30549D01*
X-89034Y30601D01*
X-89047Y30640D01*
X-89054Y30672D01*
Y30711D01*
X-89047Y30724D01*
X-89028Y30744D01*
X-89002Y30763D01*
X-88944Y30776D01*
X-88911D01*
X-88885Y30770D01*
X-88872D01*
X-88866D01*
X-88827Y30776D01*
X-88795D01*
X-88730Y30763D01*
X-88704Y30757D01*
X-88684Y30750D01*
X-88671Y30744D01*
X-88665D01*
X-88652Y30737D01*
X-88633Y30731D01*
X-88574Y30705D01*
X-88548Y30692D01*
X-88522Y30685D01*
X-88510Y30672D01*
X-88503D01*
X-88399Y30614D01*
X-88360Y30588D01*
X-88322Y30562D01*
X-88289Y30543D01*
X-88263Y30523D01*
X-88250Y30517D01*
X-88244Y30510D01*
X-88166Y30465D01*
X-88108Y30433D01*
X-88069Y30407D01*
X-88036Y30387D01*
X-88024Y30374D01*
X-88017Y30368D01*
X-88011Y30361D01*
Y30355D01*
X-88004Y30348D01*
X-87991Y30322D01*
X-87978Y30303D01*
X-87972Y30290D01*
X-87959Y30270D01*
X-87952Y30245D01*
X-87946Y30180D01*
X-87939Y30147D01*
Y30095D01*
X-87985Y30037D01*
X-88024Y29992D01*
X-88056Y29947D01*
X-88082Y29914D01*
X-88101Y29888D01*
X-88114Y29869D01*
X-88127Y29856D01*
Y29849D01*
X-88192D01*
X-88263D01*
X-88296D01*
X-88315D01*
X-88335D01*
X-88341D01*
X-88419D01*
X-88484D01*
X-88510D01*
X-88529D01*
X-88542D01*
X-88548D01*
X-88607D01*
X-88678Y29856D01*
X-88827Y29869D01*
X-88892Y29882D01*
X-88950Y29888D01*
X-88989Y29895D01*
X-88995D01*
X-89002D01*
X-89067D01*
X-89125D01*
X-89177Y29901D01*
X-89216D01*
X-89255Y29908D01*
X-89281D01*
X-89294Y29914D01*
X-89300D01*
X-89475D01*
X-90564Y30011D01*
X-90602Y30018D01*
X-90648Y30024D01*
X-90745Y30044D01*
X-90790Y30050D01*
X-90829D01*
X-90855Y30057D01*
X-90862D01*
X-90881Y30063D01*
X-90894Y30050D01*
X-90901Y30037D01*
X-90907Y30031D01*
Y29985D01*
X-90901Y29921D01*
X-90907Y29862D01*
X-90920Y29810D01*
X-90939Y29778D01*
X-90959Y29746D01*
X-90972Y29726D01*
X-90985Y29720D01*
X-90991Y29713D01*
X-91024Y29707D01*
X-91050Y29687D01*
X-91069Y29674D01*
X-91076Y29668D01*
X-91134Y29661D01*
X-91166Y29655D01*
X-91186Y29648D01*
X-91192Y29642D01*
X-91250Y29648D01*
X-91289Y29661D01*
X-91315Y29681D01*
X-91322Y29687D01*
X-91354Y29720D01*
X-91380Y29752D01*
X-91393Y29778D01*
X-91400Y29785D01*
X-91413Y29817D01*
X-91426Y29856D01*
X-91432Y29914D01*
Y29966D01*
X-91451Y30322D01*
Y30711D01*
X-91458Y30757D01*
Y30795D01*
X-91464Y30821D01*
Y30841D01*
X-91471Y30847D01*
Y30854D01*
X-91380Y30996D01*
X-91315D01*
X-91264Y31009D01*
X-91218Y31022D01*
X-91179D01*
X-91147Y31029D01*
X-91121D01*
X-91101Y31022D01*
D02*
G37*
%LPC*%
G36*
X-98368Y76618D02*
D01*
Y74724D01*
X-98373Y74738D01*
X-98387Y74784D01*
X-98410Y74844D01*
X-98405D01*
X-98401Y74853D01*
X-98396Y74862D01*
Y74881D01*
X-98391Y74909D01*
X-98387Y74946D01*
Y75750D01*
X-98391Y75810D01*
Y75870D01*
X-98396Y75920D01*
Y75939D01*
X-98401Y75958D01*
Y76364D01*
X-98405Y76406D01*
X-98410Y76443D01*
X-98414Y76480D01*
X-98419Y76503D01*
Y76507D01*
X-98424Y76516D01*
X-98433Y76544D01*
X-98452Y76586D01*
X-98475Y76618D01*
X-98553D01*
X-98558Y76613D01*
X-98581Y76609D01*
X-98609Y76604D01*
X-98618Y76600D01*
X-98622D01*
X-98632D01*
X-98650Y76595D01*
X-98678Y76590D01*
X-98706Y76581D01*
X-98715Y76577D01*
X-98733Y76563D01*
X-98752Y76540D01*
X-98756Y76526D01*
X-98761Y76512D01*
X-98766Y76507D01*
Y76489D01*
X-98770Y76475D01*
Y76452D01*
X-98766Y76424D01*
X-98761Y76392D01*
X-98747Y76101D01*
Y75773D01*
X-98743Y75750D01*
X-98738Y75690D01*
X-98729Y75630D01*
Y75597D01*
X-98733Y75560D01*
Y75477D01*
X-98729Y75435D01*
X-98724Y75403D01*
X-98715Y75385D01*
Y75362D01*
X-98720Y75334D01*
Y75297D01*
X-98724Y75255D01*
Y75209D01*
X-98729Y75112D01*
Y75029D01*
X-98724Y74960D01*
X-98720Y74932D01*
X-98715Y74909D01*
Y74437D01*
X-98710Y74410D01*
X-98706Y74345D01*
X-98701Y74317D01*
X-98692Y74290D01*
X-98687Y74285D01*
X-98678Y74280D01*
X-98664Y74267D01*
X-98646Y74257D01*
X-98622Y74248D01*
X-98595Y74239D01*
X-98770D01*
X-98368D01*
Y76618D01*
D02*
G37*
G36*
X-97297Y73860D02*
X-97361D01*
X-97380Y73851D01*
X-97407Y73832D01*
X-97421Y73818D01*
X-97435Y73795D01*
X-97444Y73786D01*
X-97458Y73772D01*
X-97472Y73758D01*
X-97481Y73749D01*
X-97486D01*
X-97491D01*
X-97500Y73744D01*
X-97518D01*
X-97546D01*
X-97583D01*
X-97634D01*
X-97638D01*
X-97648D01*
X-97662D01*
X-97685D01*
X-97735Y73740D01*
X-97800D01*
X-97865D01*
X-97925D01*
X-97976D01*
X-97994D01*
X-98008Y73744D01*
X-98013D01*
X-98022Y73749D01*
X-98045Y73754D01*
X-98073Y73758D01*
X-98119Y73763D01*
X-98174Y73768D01*
X-98244D01*
X-98331Y73763D01*
X-98336D01*
X-98350D01*
X-98368D01*
X-98401D01*
X-98433D01*
X-98479D01*
X-98525D01*
X-98576D01*
X-98692Y73768D01*
X-98817D01*
X-98950Y73772D01*
X-99084Y73777D01*
X-99089D01*
X-99094D01*
X-99121Y73782D01*
X-99158Y73786D01*
X-99205Y73791D01*
X-99306Y73805D01*
X-99357Y73809D01*
X-99399D01*
X-99403D01*
X-99413D01*
X-99431D01*
X-99449D01*
X-99496Y73805D01*
X-99537Y73795D01*
X-99546D01*
X-99565D01*
X-99597D01*
X-99630D01*
X-99713Y73782D01*
X-99750Y73772D01*
X-99782Y73754D01*
X-99787Y73749D01*
X-99805Y73740D01*
X-99824Y73721D01*
X-99837Y73698D01*
X-99842Y73694D01*
X-99851Y73671D01*
X-99856Y73657D01*
X-99861Y73634D01*
X-99865Y73611D01*
Y73666D01*
Y73611D01*
Y73574D01*
X-99861Y73564D01*
X-99851Y73546D01*
X-99842Y73523D01*
X-99814Y73476D01*
X-99777Y73430D01*
X-99773D01*
X-99764D01*
X-99745D01*
X-99713D01*
X-99671D01*
X-99620D01*
X-99551D01*
X-99468D01*
X-99459D01*
X-99440D01*
X-99408D01*
X-99371D01*
X-99292D01*
X-99260D01*
X-99232D01*
X-99228D01*
X-99223D01*
X-99200D01*
X-99168D01*
X-99140D01*
X-99135D01*
X-99117Y73435D01*
X-99103Y73440D01*
X-99098Y73435D01*
X-99094Y73426D01*
X-99089Y73412D01*
X-99080Y73389D01*
X-99071Y73361D01*
X-99061Y73320D01*
X-99052Y73273D01*
X-99038Y73209D01*
Y73199D01*
X-99034Y73176D01*
X-99029Y73144D01*
X-99020Y73116D01*
X-99015Y73112D01*
X-99010Y73093D01*
X-98997Y73061D01*
X-98987Y73019D01*
Y73014D01*
X-98983Y72996D01*
Y72973D01*
X-98974Y72945D01*
X-98960Y72881D01*
X-98950Y72848D01*
X-98937Y72821D01*
X-98932Y72811D01*
X-98927Y72793D01*
X-98918Y72760D01*
X-98904Y72724D01*
X-98900Y72714D01*
X-98890Y72700D01*
X-98877Y72673D01*
X-98853Y72650D01*
X-98849Y72645D01*
X-98840Y72627D01*
X-98812Y72594D01*
X-98793Y72571D01*
X-98770Y72543D01*
X-98766Y72539D01*
X-98756Y72520D01*
X-98743Y72492D01*
X-98724Y72460D01*
X-98696Y72419D01*
X-98664Y72377D01*
X-98627Y72335D01*
X-98585Y72289D01*
X-98581Y72285D01*
X-98567Y72271D01*
X-98544Y72252D01*
X-98521Y72234D01*
X-98488Y72215D01*
X-98461Y72197D01*
X-98428Y72183D01*
X-98396Y72178D01*
X-98387Y72174D01*
X-98378Y72169D01*
X-98355Y72155D01*
X-98350Y72151D01*
X-98341Y72146D01*
X-98327Y72141D01*
X-98308Y72137D01*
X-98281Y72127D01*
X-98244Y72123D01*
X-98202Y72114D01*
X-99865D01*
D01*
X-97135D01*
Y73606D01*
Y73587D01*
X-97139Y73597D01*
X-97144Y73606D01*
X-97153Y73624D01*
X-97172Y73666D01*
X-97186Y73712D01*
Y73717D01*
X-97190Y73731D01*
X-97195Y73749D01*
X-97204Y73768D01*
X-97209Y73786D01*
X-97218Y73805D01*
X-97223Y73818D01*
Y73823D01*
X-97227D01*
X-97232Y73832D01*
X-97259Y73846D01*
X-97297Y73860D01*
D02*
G37*
G36*
X-97135Y71841D02*
D01*
Y68621D01*
X-97139Y68639D01*
X-97144Y68681D01*
X-97153Y68695D01*
X-97162Y68709D01*
X-97167Y68713D01*
X-97172Y68723D01*
X-97199Y68746D01*
X-97218Y68760D01*
X-97236Y68769D01*
X-97259Y68773D01*
X-97278D01*
X-97283D01*
X-97301Y68783D01*
X-97324Y68792D01*
X-97357Y68801D01*
X-97361D01*
X-97370Y68806D01*
X-97384Y68815D01*
X-97407Y68820D01*
X-97458Y68843D01*
X-97518Y68866D01*
X-97523D01*
X-97537Y68870D01*
X-97555Y68880D01*
X-97583Y68884D01*
X-97615Y68898D01*
X-97652Y68907D01*
X-97735Y68935D01*
X-97740D01*
X-97745Y68940D01*
X-97759Y68944D01*
X-97777Y68949D01*
X-97823Y68967D01*
X-97879Y68986D01*
X-97939Y69009D01*
X-97999Y69028D01*
X-98054Y69041D01*
X-98096Y69055D01*
X-98100D01*
X-98110Y69060D01*
X-98128Y69064D01*
X-98147D01*
X-98184Y69074D01*
X-98197Y69078D01*
X-98207D01*
X-98211D01*
X-98216Y69083D01*
X-98230Y69087D01*
X-98248Y69092D01*
X-98290Y69111D01*
X-98345Y69129D01*
X-98410Y69152D01*
X-98475Y69175D01*
X-98544Y69194D01*
X-98604Y69208D01*
X-98609D01*
X-98618Y69212D01*
X-98636Y69217D01*
X-98664Y69226D01*
X-98696Y69235D01*
X-98738Y69249D01*
X-98789Y69268D01*
X-98849Y69286D01*
X-98858Y69291D01*
X-98881Y69295D01*
X-98914Y69309D01*
X-98955Y69323D01*
X-98997Y69337D01*
X-99034Y69351D01*
X-99066Y69360D01*
X-99071Y69362D01*
X-99057Y69369D01*
X-99029Y69379D01*
X-98992Y69397D01*
X-98821Y69453D01*
X-97819Y69776D01*
X-97814D01*
X-97805Y69780D01*
X-97791D01*
X-97772Y69785D01*
X-97717Y69799D01*
X-97652Y69808D01*
X-97583Y69822D01*
X-97509Y69836D01*
X-97440Y69845D01*
X-97380Y69854D01*
X-97375D01*
X-97370Y69859D01*
X-97343Y69868D01*
X-97306Y69887D01*
X-97264Y69915D01*
X-97259Y69919D01*
X-97241Y69938D01*
X-97218Y69961D01*
X-97195Y69984D01*
Y69988D01*
X-97186Y69993D01*
X-97172Y70016D01*
X-97158Y70039D01*
X-97149Y70044D01*
Y70058D01*
X-97153Y70086D01*
X-97158Y70113D01*
X-97176Y70141D01*
X-97181Y70145D01*
X-97190Y70159D01*
X-97199Y70183D01*
X-97218Y70201D01*
X-97232Y70224D01*
X-97250Y70247D01*
X-97264Y70261D01*
X-97278Y70266D01*
X-97287Y70270D01*
X-97306D01*
X-97338D01*
X-97366Y70261D01*
X-97370D01*
X-97375Y70256D01*
X-97389Y70252D01*
X-97407D01*
X-97417Y70256D01*
X-97430Y70261D01*
X-97449Y70270D01*
X-97477Y70280D01*
X-97509Y70289D01*
X-97551Y70303D01*
X-97601Y70316D01*
X-97611Y70321D01*
X-97629Y70326D01*
X-97662Y70340D01*
X-97703Y70349D01*
X-97749Y70367D01*
X-97795Y70376D01*
X-97842Y70390D01*
X-97883Y70400D01*
X-97888D01*
X-97902Y70404D01*
X-97925Y70414D01*
X-97962Y70423D01*
X-98003Y70432D01*
X-98059Y70450D01*
X-98128Y70469D01*
X-98202Y70492D01*
X-98207D01*
X-98211Y70497D01*
X-98225Y70501D01*
X-98239Y70506D01*
X-98285Y70520D01*
X-98341Y70538D01*
X-98405Y70557D01*
X-98479Y70575D01*
X-98553Y70594D01*
X-98627Y70608D01*
X-98632D01*
X-98636Y70612D01*
X-98664Y70621D01*
X-98701Y70635D01*
X-98752Y70649D01*
X-98803Y70668D01*
X-98853Y70681D01*
X-98900Y70695D01*
X-98937Y70705D01*
X-98941D01*
X-98950Y70709D01*
X-98969Y70714D01*
X-98987Y70718D01*
X-99006Y70725D01*
X-98992Y70732D01*
X-98960Y70737D01*
X-98923Y70746D01*
X-98877Y70760D01*
X-98821Y70769D01*
X-98756Y70783D01*
X-98752D01*
X-98738Y70788D01*
X-98720Y70797D01*
X-98692Y70806D01*
X-98659Y70815D01*
X-98618Y70834D01*
X-98576Y70848D01*
X-98525Y70866D01*
X-98521Y70871D01*
X-98507Y70876D01*
X-98488Y70885D01*
X-98465Y70894D01*
X-98410Y70917D01*
X-98387Y70922D01*
X-98364Y70926D01*
X-98359D01*
X-98341Y70931D01*
X-98313Y70935D01*
X-98276Y70945D01*
X-98234Y70959D01*
X-98179Y70973D01*
X-98119Y70996D01*
X-98054Y71019D01*
X-98045Y71023D01*
X-98027Y71033D01*
X-97994Y71042D01*
X-97957Y71056D01*
X-97869Y71088D01*
X-97823Y71097D01*
X-97786Y71106D01*
X-97777Y71111D01*
X-97754Y71116D01*
X-97712Y71120D01*
X-97657Y71125D01*
X-97652D01*
X-97648Y71130D01*
X-97615Y71139D01*
X-97574Y71153D01*
X-97527Y71157D01*
X-97523D01*
X-97518D01*
X-97486Y71166D01*
X-97449Y71176D01*
X-97407Y71190D01*
X-97398D01*
X-97380Y71194D01*
X-97357Y71199D01*
X-97324Y71204D01*
X-97320D01*
X-97310D01*
X-97283Y71213D01*
X-97264Y71222D01*
X-97241Y71241D01*
X-97223Y71259D01*
X-97199Y71287D01*
Y71310D01*
X-97195Y71324D01*
X-97190Y71351D01*
X-97186Y71384D01*
X-97176Y71425D01*
X-97167Y71476D01*
Y71527D01*
X-97176Y71573D01*
X-97181Y71592D01*
X-97186Y71610D01*
Y71615D01*
X-97190Y71624D01*
X-97204Y71656D01*
X-97223Y71693D01*
X-97227Y71707D01*
X-97236Y71721D01*
X-97283Y71804D01*
X-97292Y71813D01*
X-97310Y71827D01*
X-97343Y71841D01*
X-97361D01*
X-97380Y71836D01*
X-97384Y71832D01*
X-97403Y71818D01*
X-97426Y71799D01*
X-97454Y71763D01*
Y71758D01*
X-97463Y71753D01*
X-97477Y71730D01*
X-97500Y71707D01*
X-97514Y71689D01*
X-97523Y71684D01*
X-97541Y71670D01*
X-97569Y71652D01*
X-97601Y71628D01*
X-97606D01*
X-97615Y71624D01*
X-97629Y71615D01*
X-97648Y71605D01*
X-97689Y71578D01*
X-97708Y71564D01*
X-97721Y71550D01*
X-97726D01*
X-97735Y71545D01*
X-97754Y71541D01*
X-97782Y71531D01*
X-97819Y71518D01*
X-97865Y71495D01*
X-97920Y71467D01*
X-97989Y71434D01*
X-97994D01*
X-98003Y71430D01*
X-98017D01*
X-98031Y71425D01*
X-98073Y71416D01*
X-98114Y71407D01*
X-98119D01*
X-98142Y71398D01*
X-98170Y71388D01*
X-98211Y71379D01*
X-98262Y71361D01*
X-98317Y71342D01*
X-98378Y71314D01*
X-98447Y71287D01*
X-98456Y71282D01*
X-98484Y71268D01*
X-98525Y71250D01*
X-98581Y71227D01*
X-98585D01*
X-98599Y71222D01*
X-98618Y71217D01*
X-98646Y71213D01*
X-98682Y71204D01*
X-98720Y71190D01*
X-98812Y71162D01*
X-98821D01*
X-98840Y71157D01*
X-98867Y71148D01*
X-98904Y71139D01*
X-98978Y71120D01*
X-99015Y71106D01*
X-99043Y71093D01*
X-99047D01*
X-99057Y71088D01*
X-99071D01*
X-99094Y71083D01*
X-99140Y71065D01*
X-99191Y71046D01*
X-99195D01*
X-99205Y71042D01*
X-99218Y71037D01*
X-99242Y71033D01*
X-99292Y71019D01*
X-99352Y70996D01*
X-99357D01*
X-99362Y70991D01*
X-99389Y70986D01*
X-99431Y70973D01*
X-99482Y70954D01*
X-99542Y70935D01*
X-99602Y70912D01*
X-99662Y70889D01*
X-99713Y70866D01*
X-99717Y70862D01*
X-99736Y70852D01*
X-99759Y70834D01*
X-99787Y70815D01*
X-99814Y70792D01*
X-99833Y70765D01*
X-99847Y70732D01*
Y70654D01*
X-99842Y70644D01*
X-99833Y70631D01*
X-99819Y70617D01*
X-99796Y70594D01*
X-99768Y70571D01*
X-99731Y70543D01*
X-99727D01*
X-99717Y70538D01*
X-99699Y70529D01*
X-99680Y70520D01*
X-99625Y70501D01*
X-99560Y70473D01*
X-99556D01*
X-99551Y70469D01*
X-99523Y70464D01*
X-99491Y70460D01*
X-99468Y70455D01*
X-99463Y70450D01*
X-99449Y70446D01*
X-99440D01*
X-99422Y70441D01*
X-99399D01*
X-99371D01*
X-99362D01*
X-99343Y70437D01*
X-99315Y70427D01*
X-99278Y70423D01*
X-99195Y70400D01*
X-99154Y70390D01*
X-99121Y70376D01*
X-98105Y70145D01*
X-98096Y70150D01*
X-98077D01*
X-98054Y70136D01*
X-98050D01*
X-98045Y70132D01*
X-98031Y70127D01*
X-98013Y70122D01*
X-97966Y70109D01*
X-97902Y70099D01*
X-97897D01*
X-97879Y70095D01*
X-97851D01*
X-97823Y70090D01*
X-97783Y70085D01*
X-97800Y70081D01*
X-97856Y70067D01*
X-97916Y70053D01*
X-97989Y70039D01*
X-97999Y70035D01*
X-98027Y70030D01*
X-98068Y70016D01*
X-98128Y69993D01*
X-98207Y69970D01*
X-98304Y69933D01*
X-98414Y69891D01*
X-98544Y69841D01*
X-98549D01*
X-98567Y69831D01*
X-98595Y69822D01*
X-98632Y69813D01*
X-98678Y69794D01*
X-98733Y69780D01*
X-98793Y69762D01*
X-98858Y69744D01*
X-98867Y69739D01*
X-98886Y69734D01*
X-98923Y69725D01*
X-98969Y69711D01*
X-99020Y69697D01*
X-99084Y69679D01*
X-99149Y69660D01*
X-99218Y69637D01*
X-99357Y69596D01*
X-99426Y69573D01*
X-99486Y69554D01*
X-99542Y69531D01*
X-99593Y69513D01*
X-99630Y69499D01*
X-99657Y69485D01*
X-99662Y69480D01*
X-99671Y69476D01*
X-99690Y69462D01*
X-99708Y69453D01*
X-99750Y69420D01*
X-99768Y69406D01*
X-99777Y69393D01*
Y69388D01*
X-99787Y69383D01*
X-99796Y69355D01*
X-99800Y69337D01*
Y69314D01*
X-99791Y69291D01*
X-99777Y69268D01*
Y69263D01*
X-99773Y69254D01*
X-99764Y69240D01*
X-99754Y69222D01*
X-99722Y69180D01*
X-99680Y69143D01*
X-99676D01*
X-99671Y69138D01*
X-99657Y69134D01*
X-99634Y69125D01*
X-99611Y69115D01*
X-99574Y69101D01*
X-99533Y69083D01*
X-99482Y69060D01*
X-99477Y69055D01*
X-99459Y69051D01*
X-99431Y69041D01*
X-99399Y69032D01*
X-99334Y69018D01*
X-99306Y69009D01*
X-99288D01*
X-99283Y69004D01*
X-99274Y69000D01*
X-99260Y68995D01*
X-99246Y68990D01*
X-99223Y68981D01*
X-99195Y68977D01*
X-99191D01*
X-99172Y68972D01*
X-99149Y68963D01*
X-99112Y68949D01*
X-99107D01*
X-99103Y68944D01*
X-99080Y68935D01*
X-99052Y68931D01*
X-99029Y68926D01*
X-99024D01*
X-99020D01*
X-99001Y68921D01*
X-98974Y68912D01*
X-98932Y68893D01*
X-98872Y68875D01*
X-98840Y68857D01*
X-98798Y68843D01*
X-98752Y68824D01*
X-98701Y68801D01*
X-98696D01*
X-98687Y68796D01*
X-98669Y68792D01*
X-98650Y68787D01*
X-98595Y68773D01*
X-98535Y68750D01*
X-98525D01*
X-98507Y68746D01*
X-98479Y68741D01*
X-98438Y68732D01*
X-98396Y68723D01*
X-98350Y68709D01*
X-98304Y68690D01*
X-98262Y68667D01*
X-98257D01*
X-98248Y68663D01*
X-98230D01*
X-98211Y68658D01*
X-98170Y68649D01*
X-98151Y68644D01*
X-98137Y68639D01*
X-98133D01*
X-98128Y68635D01*
X-98105Y68630D01*
X-98073Y68616D01*
X-98036Y68607D01*
X-98031D01*
X-98027Y68602D01*
X-98013Y68598D01*
X-97994Y68593D01*
X-97948Y68584D01*
X-97883Y68570D01*
X-97879D01*
X-97865Y68565D01*
X-97837Y68561D01*
X-97800Y68552D01*
X-97759Y68538D01*
X-97703Y68519D01*
X-97643Y68492D01*
X-97569Y68459D01*
X-97565Y68455D01*
X-97560Y68450D01*
X-97532Y68432D01*
X-97509Y68418D01*
X-97500Y68413D01*
X-97495Y68418D01*
Y68399D01*
X-97486Y68381D01*
X-97477Y68367D01*
X-97463Y68353D01*
Y68348D01*
X-97454Y68344D01*
X-97440Y68321D01*
X-97417Y68284D01*
X-97394Y68247D01*
X-99847D01*
D01*
X-97135D01*
Y71841D01*
D02*
G37*
G36*
X-97297Y67951D02*
D01*
X-97324Y67946D01*
X-97329D01*
X-97338D01*
X-97366Y67942D01*
X-97398Y67923D01*
X-97412Y67914D01*
X-97421Y67896D01*
X-97426Y67891D01*
X-97440Y67873D01*
X-97458Y67845D01*
X-97463Y67808D01*
X-97472Y67799D01*
X-97477Y67785D01*
X-97708Y67799D01*
X-97712D01*
X-97721D01*
X-97735D01*
X-97754D01*
X-97782D01*
X-97809D01*
X-97879D01*
X-97957D01*
X-98040D01*
X-98128D01*
X-98216D01*
X-98220D01*
X-98230D01*
X-98244D01*
X-98262Y67803D01*
X-98308D01*
X-98368Y67808D01*
X-98433Y67812D01*
X-98502D01*
X-98562Y67817D01*
X-98618D01*
X-98627D01*
X-98646Y67822D01*
X-98678Y67826D01*
X-98715Y67831D01*
X-98761Y67835D01*
X-98807D01*
X-98858D01*
X-98904Y67831D01*
X-98909D01*
X-98918D01*
X-98932D01*
X-98950D01*
X-98987Y67835D01*
X-99001Y67840D01*
X-99010Y67845D01*
X-99015D01*
X-99024Y67849D01*
X-99043D01*
X-99075Y67854D01*
X-99112Y67863D01*
X-99163Y67868D01*
X-99223Y67873D01*
X-99297Y67882D01*
X-99302D01*
X-99306D01*
X-99334Y67886D01*
X-99375Y67891D01*
X-99426Y67896D01*
X-99533Y67900D01*
X-99583D01*
X-99625Y67896D01*
X-99630D01*
X-99639Y67891D01*
X-99657Y67886D01*
X-99676Y67882D01*
X-99722Y67868D01*
X-99764Y67845D01*
X-99768D01*
X-99773Y67840D01*
X-99796Y67826D01*
X-99824Y67803D01*
X-99847Y67766D01*
Y67748D01*
X-99856Y67725D01*
X-99865Y67683D01*
Y67951D01*
D01*
Y65951D01*
X-97135D01*
D01*
X-99583D01*
X-99542Y65960D01*
X-99514Y65969D01*
X-99491Y65983D01*
X-99482Y65987D01*
X-99463Y66011D01*
X-99426Y66043D01*
X-99380Y66094D01*
X-99375Y66098D01*
X-99371Y66108D01*
X-99357Y66122D01*
X-99339Y66145D01*
X-99297Y66191D01*
X-99251Y66237D01*
X-99246Y66246D01*
X-99237Y66269D01*
X-99218Y66297D01*
X-99186Y66320D01*
X-99181Y66325D01*
X-99172Y66334D01*
X-99154Y66352D01*
X-99131Y66376D01*
X-99103Y66403D01*
X-99071Y66436D01*
X-99034Y66477D01*
X-98997Y66519D01*
X-98914Y66620D01*
X-98826Y66731D01*
X-98743Y66852D01*
X-98664Y66981D01*
Y66958D01*
X-98659Y66953D01*
X-98655Y66944D01*
X-98646Y66930D01*
X-98636Y66907D01*
X-98627Y66879D01*
X-98613Y66838D01*
X-98599Y66791D01*
Y66782D01*
X-98595Y66764D01*
X-98585Y66745D01*
X-98572Y66713D01*
X-98553Y66676D01*
X-98530Y66630D01*
X-98493Y66574D01*
X-98488Y66570D01*
X-98479Y66556D01*
X-98461Y66537D01*
X-98438Y66510D01*
X-98391Y66449D01*
X-98345Y66390D01*
X-98341Y66385D01*
X-98327Y66376D01*
X-98304Y66357D01*
X-98281Y66339D01*
X-98248Y66316D01*
X-98211Y66292D01*
X-98133Y66251D01*
X-98128D01*
X-98119Y66246D01*
X-98100D01*
X-98073Y66242D01*
X-98040Y66237D01*
X-97994D01*
X-97943Y66232D01*
X-97879D01*
X-97874D01*
X-97869D01*
X-97842Y66237D01*
X-97800Y66242D01*
X-97754Y66251D01*
X-97708Y66260D01*
X-97666Y66269D01*
X-97634Y66283D01*
X-97620Y66288D01*
X-97615Y66292D01*
X-97611Y66288D01*
X-97592Y66279D01*
X-97569Y66269D01*
X-97537Y66265D01*
X-97532D01*
X-97527Y66269D01*
X-97504Y66288D01*
X-97463Y66320D01*
X-97417Y66357D01*
X-97366Y66403D01*
X-97310Y66459D01*
X-97255Y66519D01*
X-97209Y66588D01*
X-97204Y66593D01*
X-97199Y66607D01*
X-97190Y66634D01*
X-97176Y66667D01*
X-97167Y66713D01*
X-97158Y66768D01*
X-97153Y66838D01*
X-97149Y66916D01*
Y66925D01*
X-97144Y66948D01*
Y66981D01*
X-97139Y67027D01*
Y67083D01*
X-97135Y67142D01*
Y67300D01*
X-97139Y67318D01*
Y67341D01*
X-97144Y67374D01*
Y67410D01*
X-97153Y67489D01*
X-97158Y67572D01*
X-97167Y67655D01*
X-97172Y67692D01*
X-97176Y67725D01*
Y67752D01*
X-97181Y67775D01*
Y67780D01*
X-97186Y67789D01*
X-97190Y67817D01*
X-97195Y67845D01*
X-97199Y67854D01*
Y67868D01*
X-97204Y67891D01*
X-97218Y67919D01*
X-97227Y67923D01*
X-97241Y67928D01*
X-97250Y67932D01*
X-97269Y67942D01*
X-97297Y67951D01*
D02*
G37*
G36*
X-98368Y65770D02*
D01*
Y63876D01*
X-98373Y63890D01*
X-98387Y63936D01*
X-98410Y63996D01*
X-98405D01*
X-98401Y64006D01*
X-98396Y64015D01*
Y64033D01*
X-98391Y64061D01*
X-98387Y64098D01*
Y64902D01*
X-98391Y64962D01*
Y65022D01*
X-98396Y65073D01*
Y65091D01*
X-98401Y65110D01*
Y65516D01*
X-98405Y65558D01*
X-98410Y65595D01*
X-98414Y65632D01*
X-98419Y65655D01*
Y65659D01*
X-98424Y65669D01*
X-98433Y65697D01*
X-98452Y65738D01*
X-98475Y65770D01*
X-98553D01*
X-98558Y65766D01*
X-98581Y65761D01*
X-98609Y65756D01*
X-98618Y65752D01*
X-98622D01*
X-98632D01*
X-98650Y65747D01*
X-98678Y65743D01*
X-98706Y65733D01*
X-98715Y65729D01*
X-98733Y65715D01*
X-98752Y65692D01*
X-98756Y65678D01*
X-98761Y65664D01*
X-98766Y65659D01*
Y65641D01*
X-98770Y65627D01*
Y65604D01*
X-98766Y65576D01*
X-98761Y65544D01*
X-98747Y65253D01*
Y64925D01*
X-98743Y64902D01*
X-98738Y64842D01*
X-98729Y64782D01*
Y64749D01*
X-98733Y64712D01*
Y64629D01*
X-98729Y64588D01*
X-98724Y64555D01*
X-98715Y64537D01*
Y64514D01*
X-98720Y64486D01*
Y64449D01*
X-98724Y64407D01*
Y64361D01*
X-98729Y64264D01*
Y64181D01*
X-98724Y64112D01*
X-98720Y64084D01*
X-98715Y64061D01*
Y63590D01*
X-98710Y63562D01*
X-98706Y63497D01*
X-98701Y63470D01*
X-98692Y63442D01*
X-98687Y63437D01*
X-98678Y63433D01*
X-98664Y63419D01*
X-98646Y63410D01*
X-98622Y63400D01*
X-98595Y63391D01*
X-98770D01*
X-98368D01*
Y65770D01*
D02*
G37*
%LPD*%
G36*
Y74239D02*
X-98567D01*
X-98535Y74243D01*
X-98525Y74248D01*
X-98507Y74253D01*
X-98484D01*
X-98475Y74257D01*
X-98456Y74267D01*
X-98428Y74280D01*
X-98396Y74299D01*
X-98368Y74373D01*
Y74239D01*
D02*
G37*
G36*
X-98253Y73398D02*
X-98234Y73393D01*
X-98220Y73384D01*
X-98216D01*
X-98202Y73379D01*
X-98184D01*
X-98156Y73375D01*
X-98124Y73370D01*
X-98091D01*
X-98013Y73366D01*
X-98008D01*
X-97985Y73370D01*
X-97953Y73375D01*
X-97906Y73379D01*
X-97902D01*
X-97892D01*
X-97883D01*
X-97865D01*
X-97819D01*
X-97759D01*
X-97754D01*
X-97749D01*
X-97721Y73384D01*
X-97689Y73379D01*
X-97675Y73375D01*
X-97662Y73366D01*
X-97657D01*
X-97652D01*
X-97638D01*
X-97620D01*
X-97578D01*
X-97527D01*
X-97523D01*
X-97509Y73370D01*
X-97495Y73375D01*
Y73379D01*
X-97491Y73375D01*
Y73366D01*
X-97486Y73356D01*
X-97481Y73343D01*
X-97477Y73320D01*
Y73185D01*
X-97481Y73176D01*
X-97486Y73167D01*
X-97491Y73149D01*
X-97495Y73121D01*
X-97500Y73084D01*
Y73042D01*
X-97495Y72987D01*
Y72954D01*
X-97500Y72917D01*
X-97504Y72876D01*
X-97514Y72783D01*
X-97518Y72737D01*
X-97523Y72700D01*
X-97532Y72691D01*
X-97555Y72673D01*
X-97569Y72663D01*
X-97592Y72645D01*
X-97597D01*
X-97601Y72636D01*
X-97629Y72622D01*
X-97666Y72603D01*
X-97698Y72585D01*
X-97703D01*
X-97717Y72580D01*
X-97735Y72571D01*
X-97763Y72562D01*
X-97800Y72557D01*
X-97846Y72548D01*
X-97902Y72543D01*
X-97966D01*
X-97971D01*
X-97989D01*
X-98013Y72548D01*
X-98045Y72553D01*
X-98105Y72562D01*
X-98133Y72566D01*
X-98151Y72571D01*
X-98156D01*
X-98165Y72580D01*
X-98184Y72589D01*
X-98207Y72603D01*
X-98267Y72640D01*
X-98331Y72691D01*
X-98336Y72696D01*
X-98350Y72710D01*
X-98373Y72733D01*
X-98396Y72765D01*
X-98452Y72830D01*
X-98470Y72862D01*
X-98488Y72894D01*
X-98493Y72899D01*
X-98502Y72913D01*
X-98516Y72936D01*
X-98530Y72964D01*
X-98549Y73001D01*
X-98567Y73038D01*
X-98599Y73125D01*
Y73130D01*
X-98609Y73149D01*
X-98613Y73176D01*
X-98622Y73204D01*
X-98636Y73273D01*
X-98646Y73306D01*
Y73333D01*
X-98650Y73338D01*
Y73352D01*
X-98641Y73361D01*
Y73366D01*
X-98636Y73370D01*
X-98627D01*
X-98609Y73366D01*
X-98604D01*
X-98599D01*
X-98572Y73370D01*
X-98535Y73375D01*
X-98484Y73379D01*
X-98479Y73384D01*
X-98475Y73389D01*
X-98461Y73393D01*
X-98442Y73398D01*
X-98419Y73403D01*
X-98387D01*
X-98345Y73398D01*
X-98341D01*
X-98331D01*
X-98313Y73403D01*
X-98294D01*
X-98253Y73398D01*
D02*
G37*
G36*
X-97135Y72114D02*
X-98133D01*
X-98082Y72118D01*
X-98022Y72123D01*
X-97948Y72127D01*
X-97869Y72137D01*
X-97782Y72146D01*
X-97777D01*
X-97768Y72151D01*
X-97754Y72155D01*
X-97731Y72164D01*
X-97675Y72188D01*
X-97611Y72211D01*
X-97541Y72243D01*
X-97467Y72275D01*
X-97407Y72308D01*
X-97380Y72321D01*
X-97357Y72335D01*
Y72340D01*
X-97347Y72349D01*
X-97338Y72363D01*
X-97329Y72386D01*
X-97310Y72414D01*
X-97292Y72446D01*
X-97264Y72483D01*
X-97236Y72525D01*
Y72529D01*
X-97232Y72548D01*
X-97223Y72571D01*
X-97213Y72603D01*
X-97204Y72640D01*
X-97190Y72677D01*
X-97167Y72765D01*
X-97135Y72885D01*
Y72114D01*
D02*
G37*
G36*
Y68247D02*
X-97384D01*
X-97366Y68251D01*
X-97334Y68261D01*
X-97297Y68279D01*
X-97255Y68302D01*
X-97218Y68335D01*
X-97190Y68381D01*
X-97167Y68441D01*
Y68445D01*
X-97162Y68455D01*
Y68468D01*
X-97158Y68487D01*
X-97149Y68538D01*
X-97135Y68593D01*
Y68247D01*
D02*
G37*
G36*
X-97467Y67452D02*
X-97458D01*
Y67438D01*
X-97454Y67420D01*
Y67401D01*
X-97449Y67369D01*
X-97444Y67327D01*
Y67092D01*
X-97449Y67078D01*
Y67055D01*
X-97454Y67027D01*
X-97467Y66967D01*
X-97477Y66907D01*
Y66902D01*
X-97481Y66893D01*
X-97486Y66879D01*
X-97495Y66861D01*
X-97523Y66815D01*
X-97560Y66764D01*
X-97565Y66759D01*
X-97569Y66754D01*
X-97583Y66741D01*
X-97601Y66727D01*
X-97648Y66694D01*
X-97703Y66662D01*
X-97712D01*
X-97721D01*
X-97740D01*
X-97768D01*
X-97805D01*
X-97856D01*
X-97860D01*
X-97879Y66667D01*
X-97911Y66671D01*
X-97943Y66676D01*
X-97985Y66685D01*
X-98027Y66699D01*
X-98068Y66717D01*
X-98110Y66736D01*
X-98114Y66741D01*
X-98128Y66750D01*
X-98151Y66768D01*
X-98174Y66791D01*
X-98197Y66824D01*
X-98225Y66856D01*
X-98248Y66893D01*
X-98262Y66930D01*
X-98267Y66939D01*
X-98271Y66948D01*
X-98276Y66967D01*
X-98285Y66990D01*
X-98294Y67018D01*
X-98299Y67050D01*
X-98308Y67087D01*
Y67092D01*
X-98313Y67106D01*
X-98322Y67124D01*
X-98327Y67152D01*
X-98336Y67184D01*
X-98341Y67221D01*
Y67258D01*
X-98336Y67300D01*
Y67443D01*
X-98331Y67447D01*
X-98327Y67452D01*
X-98313D01*
X-98304D01*
X-98290D01*
X-98257D01*
X-98234D01*
X-98207D01*
X-98174D01*
X-98137D01*
X-98091D01*
X-98036D01*
X-97976D01*
X-97906D01*
X-97902D01*
X-97888D01*
X-97869D01*
X-97842D01*
X-97809Y67457D01*
X-97772D01*
X-97694D01*
X-97615D01*
X-97541D01*
X-97514D01*
X-97486D01*
X-97467Y67452D01*
D02*
G37*
G36*
X-99861Y67642D02*
X-99851Y67595D01*
X-99833Y67549D01*
X-99824D01*
X-99805Y67545D01*
X-99768Y67540D01*
X-99713Y67531D01*
X-99708D01*
X-99694D01*
X-99680D01*
X-99657D01*
X-99607D01*
X-99560D01*
X-99551D01*
X-99528Y67526D01*
X-99486D01*
X-99431Y67521D01*
X-99352Y67517D01*
X-99311Y67512D01*
X-99260D01*
X-99205Y67507D01*
X-99149Y67503D01*
X-99084D01*
X-99015Y67498D01*
X-99010D01*
X-99006D01*
X-98978D01*
X-98941D01*
X-98895Y67494D01*
X-98853D01*
X-98812Y67489D01*
X-98779Y67484D01*
X-98770D01*
X-98766Y67480D01*
Y67475D01*
X-98756Y67471D01*
X-98752Y67461D01*
X-98747Y67443D01*
X-98743Y67420D01*
X-98738Y67392D01*
X-98743Y67360D01*
X-98756Y67323D01*
Y67318D01*
X-98766Y67313D01*
X-98784Y67286D01*
X-98817Y67249D01*
X-98853Y67203D01*
X-98895Y67156D01*
X-98937Y67110D01*
X-98974Y67064D01*
X-99006Y67032D01*
X-99010Y67027D01*
X-99020Y67018D01*
X-99043Y66990D01*
X-99075Y66953D01*
X-99084Y66939D01*
X-99094Y66925D01*
X-99098Y66921D01*
X-99112Y66916D01*
X-99131Y66898D01*
X-99168Y66870D01*
X-99214Y66828D01*
X-99269Y66773D01*
X-99343Y66704D01*
X-99389Y66662D01*
X-99436Y66616D01*
Y66611D01*
X-99445Y66607D01*
X-99468Y66584D01*
X-99500Y66546D01*
X-99542Y66500D01*
X-99583Y66454D01*
X-99625Y66408D01*
X-99667Y66371D01*
X-99694Y66339D01*
X-99699Y66334D01*
X-99708Y66320D01*
X-99722Y66306D01*
X-99736Y66283D01*
X-99754Y66260D01*
X-99764Y66237D01*
X-99768Y66219D01*
Y66200D01*
X-99773Y66186D01*
Y66172D01*
X-99768Y66154D01*
X-99759Y66135D01*
X-99750Y66108D01*
Y66103D01*
X-99745Y66098D01*
X-99736Y66080D01*
X-99722Y66052D01*
X-99699Y66025D01*
Y66020D01*
X-99694Y66015D01*
X-99680Y65987D01*
X-99657Y65964D01*
X-99639Y65960D01*
X-99620Y65955D01*
X-99616D01*
X-99611Y65951D01*
X-99865D01*
Y67655D01*
X-99861Y67642D01*
D02*
G37*
G36*
X-98368Y63391D02*
X-98567D01*
X-98535Y63396D01*
X-98525Y63400D01*
X-98507Y63405D01*
X-98484D01*
X-98475Y63410D01*
X-98456Y63419D01*
X-98428Y63433D01*
X-98396Y63451D01*
X-98368Y63525D01*
Y63391D01*
D02*
G37*
%LPC*%
G36*
X-93094Y-67629D02*
X-95453D01*
Y-71433D01*
Y-70590D01*
X-95446Y-70629D01*
Y-70675D01*
X-95420Y-70778D01*
X-95407Y-70830D01*
X-95381Y-70875D01*
Y-70882D01*
X-95375Y-70901D01*
X-95362Y-70934D01*
X-95342Y-70973D01*
X-95323Y-71018D01*
X-95291Y-71063D01*
X-95258Y-71109D01*
X-95213Y-71148D01*
X-95206D01*
X-95200Y-71161D01*
X-95161Y-71193D01*
X-95096Y-71232D01*
X-95018Y-71271D01*
X-95012Y-71277D01*
X-94999Y-71290D01*
X-94973Y-71310D01*
X-94941Y-71329D01*
X-94908Y-71348D01*
X-94876Y-71361D01*
X-94837Y-71368D01*
X-94798D01*
X-94779Y-71374D01*
X-94753Y-71381D01*
X-94720Y-71387D01*
X-94681Y-71400D01*
X-94630Y-71407D01*
X-94526Y-71413D01*
X-94474D01*
X-94448Y-71420D01*
X-94409D01*
X-94364Y-71426D01*
X-94312Y-71433D01*
X-94228D01*
X-94150Y-71426D01*
X-94053Y-71413D01*
X-94046D01*
X-94014Y-71407D01*
X-93975Y-71394D01*
X-93923Y-71374D01*
X-93858Y-71355D01*
X-93787Y-71323D01*
X-93709Y-71290D01*
X-93632Y-71251D01*
X-93619Y-71245D01*
X-93593Y-71232D01*
X-93547Y-71212D01*
X-93502Y-71186D01*
X-93450Y-71154D01*
X-93405Y-71122D01*
X-93366Y-71083D01*
X-93347Y-71044D01*
X-93334Y-71031D01*
X-93314Y-71018D01*
X-93295Y-70999D01*
X-93262Y-70973D01*
X-93223Y-70934D01*
Y-70927D01*
X-93217Y-70914D01*
X-93204Y-70901D01*
X-93191Y-70875D01*
X-93159Y-70817D01*
X-93126Y-70752D01*
X-93120Y-70746D01*
X-93113Y-70733D01*
X-93107Y-70713D01*
Y-70688D01*
X-93100Y-70655D01*
X-93094Y-70610D01*
Y-71161D01*
Y-70610D01*
Y-70512D01*
X-93100Y-70467D01*
Y-70409D01*
X-93113Y-70337D01*
X-93126Y-70260D01*
X-93146Y-70182D01*
X-93172Y-70104D01*
Y-70098D01*
X-93178Y-70091D01*
X-93185Y-70072D01*
X-93198Y-70046D01*
X-93236Y-69981D01*
X-93288Y-69897D01*
X-93353Y-69800D01*
X-93444Y-69696D01*
X-93547Y-69579D01*
X-93671Y-69463D01*
X-93677D01*
X-93683Y-69450D01*
X-93703Y-69443D01*
X-93722Y-69424D01*
X-93787Y-69379D01*
X-93871Y-69320D01*
X-93969Y-69249D01*
X-94072Y-69178D01*
X-94189Y-69093D01*
X-94312Y-69009D01*
X-94325Y-69003D01*
X-94357Y-68983D01*
X-94403Y-68957D01*
X-94461Y-68918D01*
X-94526Y-68873D01*
X-94584Y-68821D01*
X-94636Y-68763D01*
X-94681Y-68705D01*
X-94688Y-68698D01*
X-94694Y-68692D01*
X-94727Y-68646D01*
X-94746Y-68620D01*
X-94759Y-68588D01*
X-94766Y-68555D01*
X-94759Y-68517D01*
X-94766Y-68510D01*
X-94779Y-68491D01*
Y-68465D01*
Y-68458D01*
X-94766Y-68445D01*
Y-68439D01*
X-94759Y-68426D01*
X-94746Y-68400D01*
X-94733Y-68374D01*
X-94688Y-68296D01*
X-94656Y-68251D01*
X-94617Y-68206D01*
X-94571Y-68160D01*
X-94519Y-68115D01*
X-94461Y-68076D01*
X-94396Y-68037D01*
X-94319Y-68005D01*
X-94234Y-67979D01*
X-94137Y-67959D01*
X-94033Y-67953D01*
X-94020D01*
X-93995Y-67959D01*
X-93949Y-67972D01*
X-93897Y-67992D01*
X-93833Y-68031D01*
X-93768Y-68076D01*
X-93696Y-68147D01*
X-93625Y-68231D01*
Y-68238D01*
X-93619Y-68244D01*
X-93612Y-68290D01*
X-93586Y-68342D01*
X-93560Y-68393D01*
Y-68400D01*
X-93554Y-68419D01*
X-93547Y-68439D01*
X-93534Y-68465D01*
X-93521Y-68497D01*
X-93502Y-68517D01*
X-93483Y-68536D01*
X-93457Y-68543D01*
X-93444D01*
X-93431Y-68536D01*
X-93411Y-68523D01*
X-93392Y-68504D01*
X-93360Y-68471D01*
X-93327Y-68432D01*
X-93288Y-68381D01*
Y-68374D01*
X-93282Y-68368D01*
X-93256Y-68329D01*
X-93236Y-68277D01*
X-93230Y-68225D01*
Y-68219D01*
X-93236Y-68212D01*
X-93243Y-68167D01*
X-93262Y-68115D01*
X-93282Y-68050D01*
Y-68044D01*
X-93288Y-68037D01*
X-93314Y-67992D01*
X-93347Y-67940D01*
X-93385Y-67882D01*
X-93392Y-67875D01*
X-93398Y-67869D01*
X-93418Y-67856D01*
X-93444Y-67836D01*
X-93509Y-67797D01*
X-93599Y-67746D01*
X-93716Y-67700D01*
X-93845Y-67655D01*
X-93988Y-67629D01*
X-93094D01*
D01*
D02*
G37*
G36*
X-86173Y-69359D02*
X-89510D01*
D01*
X-86854D01*
X-86873Y-69366D01*
X-86938Y-69385D01*
X-87022Y-69417D01*
Y-69411D01*
X-87035Y-69404D01*
X-87048Y-69398D01*
X-87074D01*
X-87113Y-69392D01*
X-87165Y-69385D01*
X-88292D01*
X-88376Y-69392D01*
X-88461D01*
X-88532Y-69398D01*
X-88558D01*
X-88584Y-69404D01*
X-89154D01*
X-89212Y-69411D01*
X-89264Y-69417D01*
X-89316Y-69424D01*
X-89348Y-69430D01*
X-89355D01*
X-89368Y-69437D01*
X-89407Y-69450D01*
X-89465Y-69476D01*
X-89510Y-69508D01*
Y-69618D01*
X-89504Y-69625D01*
X-89497Y-69657D01*
X-89491Y-69696D01*
X-89485Y-69709D01*
Y-69715D01*
Y-69728D01*
X-89478Y-69754D01*
X-89472Y-69793D01*
X-89459Y-69832D01*
X-89452Y-69845D01*
X-89433Y-69871D01*
X-89400Y-69897D01*
X-89381Y-69903D01*
X-89361Y-69910D01*
X-89355Y-69916D01*
X-89329D01*
X-89310Y-69923D01*
X-89277D01*
X-89238Y-69916D01*
X-89193Y-69910D01*
X-88785Y-69890D01*
X-88325D01*
X-88292Y-69884D01*
X-88208Y-69877D01*
X-88124Y-69864D01*
X-88078D01*
X-88026Y-69871D01*
X-87910D01*
X-87852Y-69864D01*
X-87806Y-69858D01*
X-87780Y-69845D01*
X-87748D01*
X-87709Y-69851D01*
X-87657D01*
X-87599Y-69858D01*
X-87534D01*
X-87398Y-69864D01*
X-87281D01*
X-87184Y-69858D01*
X-87145Y-69851D01*
X-87113Y-69845D01*
X-86452D01*
X-86413Y-69839D01*
X-86322Y-69832D01*
X-86283Y-69826D01*
X-86244Y-69813D01*
X-86238Y-69806D01*
X-86231Y-69793D01*
X-86212Y-69774D01*
X-86199Y-69748D01*
X-86186Y-69715D01*
X-86173Y-69677D01*
Y-69923D01*
D01*
D01*
Y-69638D01*
X-86180Y-69592D01*
X-86186Y-69579D01*
X-86193Y-69554D01*
Y-69521D01*
X-86199Y-69508D01*
X-86212Y-69482D01*
X-86231Y-69443D01*
X-86257Y-69398D01*
X-86361Y-69359D01*
X-86173D01*
D02*
G37*
G36*
X-99503D02*
X-102840D01*
Y-69923D01*
Y-69618D01*
X-102833Y-69625D01*
X-102827Y-69657D01*
X-102820Y-69696D01*
X-102814Y-69709D01*
Y-69715D01*
Y-69728D01*
X-102807Y-69754D01*
X-102801Y-69793D01*
X-102788Y-69832D01*
X-102781Y-69845D01*
X-102762Y-69871D01*
X-102730Y-69897D01*
X-102710Y-69903D01*
X-102691Y-69910D01*
X-102684Y-69916D01*
X-102658D01*
X-102639Y-69923D01*
X-99503D01*
X-102606D01*
X-102568Y-69916D01*
X-102522Y-69910D01*
X-102114Y-69890D01*
X-101654D01*
X-101621Y-69884D01*
X-101537Y-69877D01*
X-101453Y-69864D01*
X-101408D01*
X-101356Y-69871D01*
X-101239D01*
X-101181Y-69864D01*
X-101136Y-69858D01*
X-101110Y-69845D01*
X-101077D01*
X-101038Y-69851D01*
X-100987D01*
X-100928Y-69858D01*
X-100863D01*
X-100727Y-69864D01*
X-100611D01*
X-100513Y-69858D01*
X-100475Y-69851D01*
X-100442Y-69845D01*
X-99781D01*
X-99742Y-69839D01*
X-99652Y-69832D01*
X-99613Y-69826D01*
X-99574Y-69813D01*
X-99567Y-69806D01*
X-99561Y-69793D01*
X-99541Y-69774D01*
X-99528Y-69748D01*
X-99515Y-69715D01*
X-99503Y-69677D01*
Y-69638D01*
X-99509Y-69592D01*
X-99515Y-69579D01*
X-99522Y-69554D01*
Y-69521D01*
X-99528Y-69508D01*
X-99541Y-69482D01*
X-99561Y-69443D01*
X-99587Y-69398D01*
X-99691Y-69359D01*
X-99503D01*
D02*
G37*
G36*
X-96062Y-67629D02*
X-98952D01*
D01*
X-96515D01*
X-96541Y-67635D01*
X-96574Y-67642D01*
X-96600Y-67661D01*
X-96613Y-67668D01*
X-96632Y-67681D01*
X-96651Y-67707D01*
X-96664Y-67739D01*
X-96671Y-67746D01*
X-96677Y-67772D01*
X-96684Y-67804D01*
X-96690Y-67843D01*
Y-67849D01*
Y-67856D01*
X-96684Y-67895D01*
X-96677Y-67940D01*
X-96658Y-67972D01*
Y-67985D01*
X-96651Y-68005D01*
X-96645Y-68031D01*
Y-68076D01*
X-96638Y-68141D01*
X-96625Y-68219D01*
X-96619Y-68322D01*
Y-68329D01*
X-96625Y-68355D01*
X-96632Y-68393D01*
X-96638Y-68439D01*
Y-68549D01*
X-96632Y-68594D01*
X-96619Y-68640D01*
Y-68646D01*
Y-68666D01*
Y-68692D01*
Y-68730D01*
X-96625Y-68782D01*
X-96632Y-68841D01*
X-96638Y-68906D01*
X-96645Y-68977D01*
Y-68983D01*
Y-69003D01*
Y-69029D01*
Y-69068D01*
Y-69152D01*
Y-69236D01*
Y-69242D01*
Y-69262D01*
Y-69294D01*
Y-69340D01*
X-96651Y-69392D01*
Y-69463D01*
X-96658Y-69547D01*
X-96664Y-69638D01*
Y-69644D01*
Y-69651D01*
Y-69670D01*
X-96671Y-69696D01*
Y-69761D01*
X-96677Y-69832D01*
X-96684Y-69910D01*
Y-69988D01*
X-96690Y-70052D01*
Y-70078D01*
Y-70098D01*
Y-70104D01*
X-96697Y-70130D01*
X-96703Y-70163D01*
X-96716Y-70208D01*
X-96755Y-70312D01*
X-96800Y-70422D01*
X-96807Y-70428D01*
X-96813Y-70448D01*
X-96833Y-70474D01*
X-96852Y-70506D01*
X-96904Y-70584D01*
X-96969Y-70655D01*
X-96982Y-70668D01*
X-97014Y-70700D01*
X-97073Y-70739D01*
X-97144Y-70791D01*
X-97241Y-70837D01*
X-97351Y-70869D01*
X-97474Y-70888D01*
X-97546Y-70895D01*
X-97617Y-70888D01*
X-97623D01*
X-97643Y-70882D01*
X-97669D01*
X-97701Y-70875D01*
X-97766Y-70862D01*
X-97792Y-70856D01*
X-97811Y-70850D01*
X-97824Y-70843D01*
X-97850Y-70830D01*
X-97895Y-70798D01*
X-97928Y-70772D01*
X-97960Y-70739D01*
X-97967D01*
X-97980Y-70726D01*
X-98025Y-70700D01*
X-98071Y-70661D01*
X-98090Y-70642D01*
X-98103Y-70616D01*
X-98109Y-70610D01*
X-98116Y-70603D01*
X-98135Y-70584D01*
X-98161Y-70551D01*
X-98187Y-70506D01*
X-98213Y-70448D01*
X-98245Y-70376D01*
X-98278Y-70286D01*
Y-70279D01*
X-98284Y-70273D01*
X-98291Y-70253D01*
X-98297Y-70227D01*
X-98310Y-70156D01*
X-98330Y-70065D01*
X-98349Y-69962D01*
X-98362Y-69845D01*
X-98369Y-69722D01*
Y-69592D01*
Y-69586D01*
Y-69579D01*
X-98375Y-69560D01*
Y-69534D01*
X-98382Y-69469D01*
X-98388Y-69385D01*
Y-69379D01*
X-98395Y-69366D01*
X-98401Y-69346D01*
X-98407Y-69320D01*
X-98420Y-69281D01*
X-98427Y-69236D01*
X-98433Y-69184D01*
Y-69126D01*
Y-69119D01*
Y-69100D01*
Y-69061D01*
Y-69016D01*
X-98440Y-68951D01*
X-98446Y-68879D01*
X-98453Y-68795D01*
X-98459Y-68698D01*
Y-68692D01*
Y-68659D01*
X-98466Y-68620D01*
Y-68562D01*
X-98472Y-68497D01*
Y-68419D01*
X-98479Y-68329D01*
Y-68238D01*
Y-68231D01*
Y-68206D01*
Y-68173D01*
Y-68128D01*
X-98485Y-68076D01*
X-98492Y-68011D01*
X-98511Y-67940D01*
X-98537Y-67869D01*
Y-67862D01*
X-98544Y-67856D01*
X-98563Y-67817D01*
X-98589Y-67765D01*
X-98608Y-67713D01*
X-98615D01*
X-98621Y-67707D01*
X-98654Y-67694D01*
X-98693Y-67681D01*
X-98731Y-67674D01*
X-98738D01*
X-98751Y-67681D01*
X-98770Y-67687D01*
X-98796Y-67707D01*
X-98816Y-67733D01*
X-98842Y-67778D01*
X-98867Y-67843D01*
X-98880Y-67927D01*
Y-67933D01*
X-98887Y-67953D01*
X-98893Y-67992D01*
X-98900Y-68050D01*
X-98913Y-68128D01*
X-98919Y-68231D01*
Y-68290D01*
X-98926Y-68355D01*
Y-68432D01*
Y-68510D01*
Y-68517D01*
Y-68530D01*
Y-68549D01*
Y-68575D01*
Y-68646D01*
Y-68730D01*
Y-68815D01*
Y-68886D01*
Y-68918D01*
Y-68944D01*
Y-68964D01*
Y-68977D01*
Y-68983D01*
X-98932Y-69003D01*
X-98939Y-69042D01*
X-98945Y-69087D01*
X-98952Y-69158D01*
Y-71433D01*
Y-69346D01*
X-98945Y-69469D01*
Y-69476D01*
Y-69482D01*
Y-69502D01*
X-98939Y-69528D01*
Y-69592D01*
X-98932Y-69664D01*
Y-69748D01*
X-98926Y-69826D01*
Y-69897D01*
Y-69955D01*
Y-69968D01*
X-98919Y-70001D01*
X-98906Y-70052D01*
X-98893Y-70124D01*
X-98874Y-70201D01*
X-98848Y-70286D01*
X-98783Y-70467D01*
Y-70480D01*
X-98777Y-70512D01*
X-98764Y-70558D01*
X-98744Y-70616D01*
X-98693Y-70746D01*
X-98660Y-70804D01*
X-98621Y-70862D01*
X-98615Y-70869D01*
X-98608Y-70888D01*
X-98589Y-70914D01*
X-98569Y-70947D01*
X-98505Y-71018D01*
X-98466Y-71050D01*
X-98420Y-71083D01*
X-98414Y-71089D01*
X-98401Y-71096D01*
X-98375Y-71115D01*
X-98343Y-71141D01*
X-98304Y-71167D01*
X-98252Y-71199D01*
X-98194Y-71232D01*
X-98135Y-71264D01*
X-97993Y-71336D01*
X-97824Y-71387D01*
X-97740Y-71407D01*
X-97649Y-71426D01*
X-97559Y-71433D01*
X-97435D01*
X-97409Y-71426D01*
X-97371Y-71420D01*
X-97325Y-71413D01*
X-97273Y-71400D01*
X-97215Y-71387D01*
X-97144Y-71368D01*
X-96995Y-71310D01*
X-96917Y-71271D01*
X-96833Y-71225D01*
X-96749Y-71174D01*
X-96664Y-71115D01*
X-96580Y-71044D01*
X-96496Y-70966D01*
X-96489Y-70960D01*
X-96483Y-70953D01*
X-96444Y-70921D01*
X-96399Y-70875D01*
X-96360Y-70824D01*
Y-70817D01*
X-96353Y-70798D01*
X-96340Y-70772D01*
X-96321Y-70720D01*
Y-70713D01*
X-96314Y-70694D01*
X-96308Y-70668D01*
X-96295Y-70636D01*
X-96282Y-70590D01*
X-96269Y-70545D01*
X-96237Y-70435D01*
X-96204Y-70312D01*
X-96172Y-70195D01*
X-96146Y-70078D01*
X-96139Y-70033D01*
X-96133Y-69988D01*
Y-69981D01*
X-96139Y-69955D01*
X-96133Y-69929D01*
X-96114Y-69903D01*
Y-69897D01*
X-96107Y-69877D01*
X-96101Y-69845D01*
X-96094Y-69793D01*
X-96088Y-69728D01*
X-96081Y-69651D01*
X-96068Y-69554D01*
X-96062Y-69443D01*
Y-69411D01*
X-96068Y-69372D01*
Y-69320D01*
X-96075Y-69262D01*
Y-69197D01*
X-96081Y-69048D01*
X-96088Y-68899D01*
Y-68828D01*
X-96094Y-68763D01*
Y-68705D01*
Y-68659D01*
X-96088Y-68620D01*
Y-68601D01*
Y-68588D01*
X-96094Y-68562D01*
X-96101Y-68517D01*
X-96107Y-68452D01*
X-96120Y-68374D01*
X-96127Y-68283D01*
X-96133Y-68180D01*
Y-68057D01*
X-96107Y-67901D01*
X-96198Y-67778D01*
X-96204D01*
X-96217Y-67772D01*
X-96256Y-67746D01*
X-96314Y-67713D01*
X-96366Y-67681D01*
X-96373D01*
X-96386Y-67674D01*
X-96431Y-67655D01*
X-96483Y-67635D01*
X-96496Y-67629D01*
X-96062D01*
D01*
D02*
G37*
%LPD*%
G36*
X-94455Y-67635D02*
X-94481Y-67642D01*
X-94552Y-67655D01*
X-94643Y-67681D01*
X-94740Y-67713D01*
X-94843Y-67759D01*
X-94947Y-67817D01*
X-95044Y-67888D01*
X-95051Y-67895D01*
X-95070Y-67914D01*
X-95096Y-67940D01*
X-95129Y-67972D01*
X-95161Y-68018D01*
X-95200Y-68076D01*
X-95232Y-68134D01*
X-95265Y-68199D01*
X-95271Y-68212D01*
X-95291Y-68244D01*
X-95310Y-68303D01*
X-95316Y-68342D01*
Y-68387D01*
Y-68393D01*
Y-68419D01*
X-95323Y-68458D01*
Y-68497D01*
X-95316Y-68601D01*
X-95303Y-68646D01*
X-95291Y-68692D01*
X-95284Y-68705D01*
X-95271Y-68737D01*
X-95252Y-68776D01*
X-95226Y-68828D01*
Y-68834D01*
X-95213Y-68860D01*
X-95206Y-68893D01*
X-95187Y-68931D01*
X-95142Y-69029D01*
X-95109Y-69074D01*
X-95077Y-69119D01*
X-95070Y-69126D01*
X-95051Y-69152D01*
X-95025Y-69184D01*
X-94986Y-69223D01*
X-94947Y-69262D01*
X-94895Y-69307D01*
X-94843Y-69346D01*
X-94792Y-69379D01*
X-94785Y-69385D01*
X-94772Y-69392D01*
X-94753Y-69411D01*
X-94720Y-69437D01*
X-94688Y-69463D01*
X-94636Y-69502D01*
X-94584Y-69534D01*
X-94519Y-69579D01*
X-94513Y-69586D01*
X-94494Y-69599D01*
X-94461Y-69625D01*
X-94416Y-69657D01*
X-94364Y-69703D01*
X-94293Y-69754D01*
X-94208Y-69819D01*
X-94118Y-69897D01*
X-94111Y-69903D01*
X-94092Y-69923D01*
X-94066Y-69942D01*
X-94033Y-69968D01*
X-94007Y-70001D01*
X-93975Y-70020D01*
X-93949Y-70039D01*
X-93936Y-70046D01*
X-93930Y-70052D01*
X-93904Y-70085D01*
X-93865Y-70130D01*
X-93820Y-70188D01*
Y-70195D01*
X-93813Y-70201D01*
X-93794Y-70240D01*
X-93774Y-70286D01*
X-93768Y-70331D01*
Y-70337D01*
X-93761Y-70370D01*
X-93755Y-70415D01*
X-93742Y-70487D01*
Y-70493D01*
X-93748Y-70512D01*
X-93761Y-70538D01*
X-93774Y-70564D01*
X-93800Y-70623D01*
X-93813Y-70649D01*
X-93820Y-70661D01*
Y-70668D01*
X-93833Y-70675D01*
X-93865Y-70713D01*
X-93923Y-70759D01*
X-94001Y-70811D01*
X-94007Y-70817D01*
X-94020Y-70830D01*
X-94040Y-70850D01*
X-94059Y-70869D01*
X-94092Y-70888D01*
X-94124Y-70908D01*
X-94163Y-70914D01*
X-94208D01*
X-94215Y-70921D01*
X-94241Y-70927D01*
X-94267Y-70934D01*
X-94312Y-70947D01*
X-94370Y-70953D01*
X-94442Y-70960D01*
X-94584D01*
X-94623Y-70953D01*
X-94669Y-70947D01*
X-94714Y-70934D01*
X-94766Y-70908D01*
X-94811Y-70875D01*
X-94818Y-70869D01*
X-94843Y-70862D01*
X-94876Y-70843D01*
X-94915Y-70817D01*
X-94954Y-70778D01*
X-94999Y-70726D01*
X-95031Y-70661D01*
X-95064Y-70584D01*
Y-70577D01*
X-95070Y-70564D01*
X-95083Y-70545D01*
X-95090Y-70519D01*
Y-70480D01*
Y-70441D01*
X-95083Y-70389D01*
X-95064Y-70337D01*
Y-70331D01*
X-95057Y-70318D01*
X-95038Y-70279D01*
X-95018Y-70234D01*
X-95012Y-70221D01*
Y-70208D01*
X-95005Y-70195D01*
Y-70169D01*
Y-70124D01*
X-95025Y-70065D01*
X-95031D01*
X-95038Y-70059D01*
X-95070Y-70039D01*
X-95109Y-70026D01*
X-95148Y-70020D01*
X-95155D01*
X-95187Y-70033D01*
X-95206Y-70046D01*
X-95232Y-70072D01*
X-95265Y-70098D01*
X-95303Y-70137D01*
Y-70143D01*
X-95316Y-70150D01*
X-95342Y-70195D01*
X-95388Y-70247D01*
X-95427Y-70312D01*
Y-70318D01*
X-95433Y-70331D01*
X-95440Y-70370D01*
X-95446Y-70422D01*
X-95453Y-70467D01*
Y-67629D01*
X-94435D01*
X-94455Y-67635D01*
D02*
G37*
G36*
X-100202Y-69366D02*
X-100267Y-69385D01*
X-100351Y-69417D01*
Y-69411D01*
X-100364Y-69404D01*
X-100377Y-69398D01*
X-100403D01*
X-100442Y-69392D01*
X-100494Y-69385D01*
X-101621D01*
X-101706Y-69392D01*
X-101790D01*
X-101861Y-69398D01*
X-101887D01*
X-101913Y-69404D01*
X-102483D01*
X-102542Y-69411D01*
X-102594Y-69417D01*
X-102645Y-69424D01*
X-102678Y-69430D01*
X-102684D01*
X-102697Y-69437D01*
X-102736Y-69450D01*
X-102794Y-69476D01*
X-102840Y-69508D01*
Y-69359D01*
X-100183D01*
X-100202Y-69366D01*
D02*
G37*
%LPC*%
G36*
X32046Y77413D02*
X28922D01*
D01*
X30400D01*
X30309Y77407D01*
X30296D01*
X30270Y77400D01*
X30225Y77394D01*
X30166Y77387D01*
X30101Y77368D01*
X30037Y77355D01*
X29965Y77329D01*
X29901Y77303D01*
X29894Y77297D01*
X29868Y77284D01*
X29829Y77264D01*
X29784Y77232D01*
X29680Y77167D01*
X29570Y77096D01*
X29564Y77089D01*
X29544Y77063D01*
X29505Y77031D01*
X29466Y76986D01*
X29415Y76927D01*
X29356Y76862D01*
X29298Y76791D01*
X29233Y76713D01*
X29227Y76700D01*
X29214Y76681D01*
X29201Y76661D01*
X29181Y76629D01*
X29162Y76597D01*
X29142Y76551D01*
X29123Y76506D01*
X29097Y76448D01*
X29071Y76389D01*
X29052Y76318D01*
X29026Y76240D01*
X29006Y76163D01*
X28987Y76072D01*
X28967Y75981D01*
X28954Y75877D01*
Y75871D01*
Y75864D01*
X28948Y75832D01*
X28942Y75806D01*
X28935Y75800D01*
Y75806D01*
X28929Y75800D01*
Y75793D01*
Y75774D01*
X28922Y75741D01*
Y76091D01*
Y75696D01*
X28929Y75631D01*
X28935Y75541D01*
Y75528D01*
Y75495D01*
X28942Y75443D01*
Y75379D01*
X28948Y75294D01*
X28961Y75204D01*
X28980Y75106D01*
X29000Y75003D01*
Y74996D01*
X29006Y74970D01*
X29019Y74925D01*
X29032Y74873D01*
X29058Y74795D01*
X29091Y74711D01*
X29136Y74607D01*
X29188Y74491D01*
X29194Y74478D01*
X29201Y74458D01*
X29214Y74439D01*
X29233Y74406D01*
X29259Y74368D01*
X29291Y74329D01*
X29330Y74277D01*
X29337Y74270D01*
X29343Y74257D01*
X29363Y74231D01*
X29382Y74199D01*
X29434Y74121D01*
X29492Y74050D01*
Y74044D01*
X29505Y74037D01*
X29531Y74005D01*
X29583Y73959D01*
X29654Y73908D01*
X29661D01*
X29667Y73901D01*
X29706Y73875D01*
X29765Y73836D01*
X29842Y73791D01*
X29849Y73784D01*
X29875Y73772D01*
X29901Y73752D01*
X29939Y73733D01*
X29978Y73707D01*
X30017Y73694D01*
X30050Y73687D01*
X30069D01*
Y73681D01*
X30076Y73674D01*
X30088Y73668D01*
X30114Y73655D01*
X30140Y73642D01*
X30400Y73616D01*
X30464D01*
X30516Y73622D01*
X30568Y73629D01*
X30633Y73635D01*
X30782Y73661D01*
X30795D01*
X30834Y73668D01*
X30892Y73681D01*
X30963Y73713D01*
X30970D01*
X30989Y73726D01*
X31009Y73733D01*
X31041Y73746D01*
X31093Y73765D01*
X31119Y73778D01*
X31132D01*
X31145Y73784D01*
X31184Y73810D01*
X31210Y73830D01*
X31242Y73856D01*
X31281Y73895D01*
X31326Y73934D01*
Y73940D01*
X31339Y73946D01*
X31372Y73985D01*
X31417Y74031D01*
X31475Y74076D01*
Y74082D01*
X31482Y74108D01*
X31488Y74141D01*
X31508Y74186D01*
X31514Y74193D01*
X31521Y74206D01*
X31540Y74225D01*
X31560Y74251D01*
X31598Y74322D01*
X31618Y74361D01*
X31631Y74406D01*
Y74413D01*
X31637Y74426D01*
X31644Y74445D01*
X31657Y74465D01*
X31670Y74530D01*
X31676Y74594D01*
Y74607D01*
X31683Y74633D01*
Y74685D01*
X31689Y74743D01*
Y74808D01*
Y74879D01*
X31676Y75029D01*
Y75035D01*
X31670Y75042D01*
X31650Y75074D01*
X31631Y75106D01*
X31624Y75113D01*
X31618Y75119D01*
X31624Y75126D01*
X31650Y75132D01*
X31676Y75139D01*
X31702Y75152D01*
X31741Y75158D01*
X31786Y75165D01*
X31793D01*
X31812Y75171D01*
X31845Y75184D01*
X31877Y75197D01*
X31955Y75236D01*
X31987Y75268D01*
X32013Y75307D01*
X32020Y75314D01*
X32032Y75333D01*
X32039Y75372D01*
X32046Y75424D01*
X32026D01*
X32020Y75421D01*
Y75424D01*
Y75430D01*
X32013Y75476D01*
X32007Y75528D01*
X31981Y75586D01*
X31974D01*
X31968Y75599D01*
X31961Y75618D01*
X31955Y75651D01*
X31741D01*
X31307Y75625D01*
X31294D01*
X31261Y75618D01*
X31216D01*
X31164Y75612D01*
X31099Y75605D01*
X31048Y75592D01*
X30996Y75586D01*
X30957Y75579D01*
X30944D01*
X30905Y75573D01*
X30866Y75566D01*
X30853Y75560D01*
X30814D01*
X30788Y75554D01*
X30756Y75541D01*
X30730Y75521D01*
X30704Y75489D01*
X30691Y75450D01*
Y75398D01*
Y75392D01*
Y75366D01*
X30698Y75327D01*
X30711Y75281D01*
Y75275D01*
X30717Y75262D01*
X30737Y75223D01*
X30762Y75171D01*
X30775Y75152D01*
X30795Y75139D01*
X30801Y75132D01*
X30814Y75119D01*
X30834Y75113D01*
X30860Y75100D01*
X30898Y75093D01*
X30944D01*
X31002Y75100D01*
X31009D01*
X31028Y75106D01*
X31048Y75113D01*
X31080Y75119D01*
X31138Y75132D01*
X31171D01*
Y75119D01*
Y75100D01*
Y75080D01*
Y75048D01*
Y75003D01*
Y74996D01*
X31164Y74977D01*
Y74951D01*
X31158Y74918D01*
X31138Y74847D01*
X31132Y74808D01*
X31125Y74782D01*
Y74776D01*
X31119Y74756D01*
X31106Y74730D01*
X31093Y74705D01*
X31054Y74627D01*
X31002Y74562D01*
X30989Y74549D01*
X30957Y74517D01*
X30911Y74478D01*
X30847Y74426D01*
X30840Y74419D01*
X30834Y74406D01*
X30795Y74368D01*
X30749Y74322D01*
X30724Y74309D01*
X30704Y74296D01*
X30698D01*
X30685Y74290D01*
X30659Y74283D01*
X30626Y74277D01*
X30588Y74264D01*
X30536Y74251D01*
X30484Y74244D01*
X30419Y74231D01*
X30393D01*
X30361Y74225D01*
X30328D01*
X30238Y74231D01*
X30153Y74251D01*
X30147D01*
X30134Y74257D01*
X30095Y74270D01*
X30050Y74290D01*
X30011Y74316D01*
X29998Y74322D01*
X29972Y74342D01*
X29933Y74374D01*
X29907Y74406D01*
X29888Y74439D01*
X29881Y74445D01*
X29868Y74452D01*
X29829Y74491D01*
X29784Y74543D01*
X29771Y74562D01*
X29758Y74588D01*
Y74594D01*
X29745Y74607D01*
X29732Y74633D01*
X29719Y74666D01*
X29700Y74705D01*
X29674Y74750D01*
X29654Y74808D01*
X29628Y74867D01*
X29609Y74938D01*
X29590Y75009D01*
X29551Y75178D01*
X29531Y75366D01*
Y75463D01*
X29538Y75566D01*
Y75573D01*
Y75586D01*
Y75605D01*
X29531Y75638D01*
Y75677D01*
X29538Y75722D01*
Y75774D01*
X29544Y75832D01*
X29564Y75975D01*
X29590Y76130D01*
X29641Y76312D01*
X29713Y76506D01*
Y76512D01*
X29726Y76525D01*
X29732Y76545D01*
X29752Y76571D01*
X29797Y76636D01*
X29862Y76713D01*
X29946Y76798D01*
X30043Y76875D01*
X30153Y76947D01*
X30283Y76999D01*
X30289D01*
X30302Y77005D01*
X30328Y77012D01*
X30361Y77018D01*
X30432D01*
X30510Y77012D01*
X30523D01*
X30549Y77005D01*
X30594Y76999D01*
X30652Y76992D01*
X30717Y76973D01*
X30782Y76953D01*
X30853Y76921D01*
X30918Y76888D01*
X30924Y76882D01*
X30950Y76869D01*
X30983Y76843D01*
X31022Y76811D01*
X31067Y76772D01*
X31112Y76726D01*
X31145Y76674D01*
X31177Y76616D01*
X31261Y76461D01*
Y76454D01*
X31268Y76435D01*
X31274Y76415D01*
X31287Y76389D01*
X31294Y76363D01*
X31300Y76337D01*
X31307Y76331D01*
X31320Y76325D01*
X31346Y76312D01*
X31365Y76299D01*
X31391Y76286D01*
X31508D01*
X31514Y76292D01*
X31540Y76318D01*
X31579Y76357D01*
X31637Y76415D01*
X31644Y76422D01*
X31650Y76428D01*
X31683Y76467D01*
X31715Y76512D01*
X31741Y76571D01*
X31747Y76584D01*
X31760Y76616D01*
X31767Y76674D01*
X31773Y76752D01*
Y76759D01*
Y76772D01*
Y76798D01*
X31767Y76824D01*
X31760Y76888D01*
X31754Y76914D01*
X31741Y76940D01*
X31734Y76947D01*
X31721Y76973D01*
X31689Y77012D01*
X31644Y77063D01*
X31637Y77070D01*
X31618Y77083D01*
X31585Y77102D01*
X31547Y77128D01*
X31495Y77161D01*
X31430Y77193D01*
X31352Y77225D01*
X31268Y77264D01*
X31255Y77271D01*
X31229Y77277D01*
X31184Y77297D01*
X31132Y77316D01*
X31015Y77355D01*
X30963Y77368D01*
X30924Y77381D01*
X30905D01*
X30886Y77387D01*
X30860D01*
X30788Y77394D01*
X30704Y77400D01*
X30607Y77407D01*
X30503Y77413D01*
X32046D01*
D02*
G37*
G36*
X38908Y75651D02*
X35571D01*
D01*
X38227D01*
X38208Y75644D01*
X38143Y75625D01*
X38059Y75592D01*
Y75599D01*
X38046Y75605D01*
X38033Y75612D01*
X38007D01*
X37968Y75618D01*
X37916Y75625D01*
X36789D01*
X36705Y75618D01*
X36620D01*
X36549Y75612D01*
X36523D01*
X36497Y75605D01*
X35927D01*
X35869Y75599D01*
X35817Y75592D01*
X35765Y75586D01*
X35733Y75579D01*
X35726D01*
X35713Y75573D01*
X35674Y75560D01*
X35616Y75534D01*
X35571Y75502D01*
Y75392D01*
X35577Y75385D01*
X35584Y75353D01*
X35590Y75314D01*
X35596Y75301D01*
Y75294D01*
Y75281D01*
X35603Y75255D01*
X35609Y75217D01*
X35622Y75178D01*
X35629Y75165D01*
X35648Y75139D01*
X35681Y75113D01*
X35700Y75106D01*
X35720Y75100D01*
X35726Y75093D01*
X35752D01*
X35772Y75087D01*
X35804D01*
X35843Y75093D01*
X35888Y75100D01*
X36296Y75119D01*
X36756D01*
X36789Y75126D01*
X36873Y75132D01*
X36957Y75145D01*
X37003D01*
X37054Y75139D01*
X37171D01*
X37229Y75145D01*
X37275Y75152D01*
X37301Y75165D01*
X37333D01*
X37372Y75158D01*
X37424D01*
X37482Y75152D01*
X37547D01*
X37683Y75145D01*
X37800D01*
X37897Y75152D01*
X37936Y75158D01*
X37968Y75165D01*
X38629D01*
X38668Y75171D01*
X38759Y75178D01*
X38798Y75184D01*
X38837Y75197D01*
X38843Y75204D01*
X38849Y75217D01*
X38869Y75236D01*
X38882Y75262D01*
X38895Y75294D01*
X38908Y75333D01*
Y75126D01*
Y75372D01*
X38901Y75417D01*
X38895Y75430D01*
X38888Y75456D01*
Y75489D01*
X38882Y75502D01*
X38869Y75528D01*
X38849Y75566D01*
X38824Y75612D01*
X38720Y75651D01*
X38908D01*
D01*
D02*
G37*
G36*
X25416D02*
X22079D01*
X24736D01*
X24717Y75644D01*
X24652Y75625D01*
X24568Y75592D01*
Y75599D01*
X24555Y75605D01*
X24542Y75612D01*
X24516D01*
X24477Y75618D01*
X24425Y75625D01*
X23298D01*
X23213Y75618D01*
X23129D01*
X23058Y75612D01*
X23032D01*
X23006Y75605D01*
X22436D01*
X22377Y75599D01*
X22325Y75592D01*
X22274Y75586D01*
X22241Y75579D01*
X22235D01*
X22222Y75573D01*
X22183Y75560D01*
X22125Y75534D01*
X22079Y75502D01*
Y75392D01*
X22086Y75385D01*
X22092Y75353D01*
X22099Y75314D01*
X22105Y75301D01*
Y75294D01*
Y75281D01*
X22112Y75255D01*
X22118Y75217D01*
X22131Y75178D01*
X22138Y75165D01*
X22157Y75139D01*
X22189Y75113D01*
X22209Y75106D01*
X22228Y75100D01*
X22235Y75093D01*
X22261D01*
X22280Y75087D01*
X22312D01*
X22351Y75093D01*
X22397Y75100D01*
X22805Y75119D01*
X23265D01*
X23298Y75126D01*
X23382Y75132D01*
X23466Y75145D01*
X23511D01*
X23563Y75139D01*
X23680D01*
X23738Y75145D01*
X23784Y75152D01*
X23809Y75165D01*
X23842D01*
X23881Y75158D01*
X23933D01*
X23991Y75152D01*
X24056D01*
X24192Y75145D01*
X24308D01*
X24406Y75152D01*
X24444Y75158D01*
X24477Y75165D01*
X25138D01*
X25177Y75171D01*
X25267Y75178D01*
X25306Y75184D01*
X25345Y75197D01*
X25352Y75204D01*
X25358Y75217D01*
X25378Y75236D01*
X25390Y75262D01*
X25403Y75294D01*
X25416Y75333D01*
Y75139D01*
Y75372D01*
X25410Y75417D01*
X25403Y75430D01*
X25397Y75456D01*
Y75489D01*
X25390Y75502D01*
X25378Y75528D01*
X25358Y75566D01*
X25332Y75612D01*
X25229Y75651D01*
X25416D01*
D01*
D02*
G37*
G36*
X27030Y77381D02*
X26810D01*
X26784Y77374D01*
X26751D01*
X26706Y77368D01*
X26654D01*
X26544Y77355D01*
X26427Y77348D01*
X26311Y77336D01*
X26259Y77329D01*
X26213Y77323D01*
X26175D01*
X26142Y77316D01*
X26136D01*
X26123Y77310D01*
X26084Y77303D01*
X26045Y77297D01*
X26032Y77290D01*
X26013D01*
X25980Y77284D01*
X25941Y77264D01*
X25935Y77251D01*
X25928Y77232D01*
X25922Y77219D01*
X25909Y77193D01*
X25896Y77154D01*
X25902Y77115D01*
Y77109D01*
Y77096D01*
X25909Y77057D01*
X25935Y77012D01*
X25948Y76992D01*
X25974Y76979D01*
X25980Y76973D01*
X26006Y76953D01*
X26045Y76927D01*
X26097Y76921D01*
X26110Y76908D01*
X26129Y76901D01*
X26110Y76577D01*
Y76571D01*
Y76558D01*
Y76538D01*
Y76512D01*
Y76474D01*
Y76435D01*
Y76337D01*
Y76227D01*
Y76111D01*
Y75988D01*
Y75864D01*
Y75858D01*
Y75845D01*
Y75826D01*
X26103Y75800D01*
Y75735D01*
X26097Y75651D01*
X26090Y75560D01*
Y75463D01*
X26084Y75379D01*
Y75301D01*
Y75288D01*
X26077Y75262D01*
X26071Y75217D01*
X26064Y75165D01*
X26058Y75100D01*
Y75035D01*
Y74964D01*
X26064Y74899D01*
Y74892D01*
Y74879D01*
Y74860D01*
Y74834D01*
X26058Y74782D01*
X26052Y74763D01*
X26045Y74750D01*
Y74743D01*
X26039Y74730D01*
Y74705D01*
X26032Y74659D01*
X26019Y74607D01*
X26013Y74536D01*
X26006Y74452D01*
X25993Y74348D01*
Y74342D01*
Y74335D01*
X25987Y74296D01*
X25980Y74238D01*
X25974Y74167D01*
X25967Y74018D01*
Y73946D01*
X25974Y73888D01*
Y73882D01*
X25980Y73869D01*
X25987Y73843D01*
X25993Y73817D01*
X26013Y73752D01*
X26045Y73694D01*
Y73687D01*
X26052Y73681D01*
X26071Y73648D01*
X26103Y73610D01*
X26155Y73577D01*
X26181D01*
X26213Y73564D01*
X26272Y73551D01*
X26311D01*
D01*
X28702D01*
X26311D01*
X26330Y73558D01*
X26395Y73571D01*
X26460Y73597D01*
Y73610D01*
X26466Y73635D01*
X26473Y73687D01*
X26486Y73765D01*
Y73772D01*
Y73791D01*
Y73810D01*
Y73843D01*
Y73914D01*
Y73979D01*
Y73992D01*
X26492Y74024D01*
Y74082D01*
X26499Y74160D01*
X26505Y74270D01*
X26512Y74329D01*
Y74400D01*
X26518Y74478D01*
X26524Y74555D01*
Y74646D01*
X26531Y74743D01*
Y74750D01*
Y74756D01*
Y74795D01*
Y74847D01*
X26537Y74912D01*
Y74970D01*
X26544Y75029D01*
X26550Y75074D01*
Y75087D01*
X26557Y75093D01*
X26563D01*
X26570Y75106D01*
X26583Y75113D01*
X26609Y75119D01*
X26641Y75126D01*
X26680Y75132D01*
X26725Y75126D01*
X26777Y75106D01*
X26784D01*
X26790Y75093D01*
X26829Y75068D01*
X26881Y75022D01*
X26946Y74970D01*
X27011Y74912D01*
X27075Y74854D01*
X27140Y74802D01*
X27185Y74756D01*
X27192Y74750D01*
X27205Y74737D01*
X27244Y74705D01*
X27296Y74659D01*
X27315Y74646D01*
X27334Y74633D01*
X27341Y74627D01*
X27347Y74607D01*
X27373Y74581D01*
X27412Y74530D01*
X27471Y74465D01*
X27548Y74387D01*
X27646Y74283D01*
X27704Y74219D01*
X27769Y74154D01*
X27775D01*
X27782Y74141D01*
X27814Y74108D01*
X27866Y74063D01*
X27931Y74005D01*
X27995Y73946D01*
X28060Y73888D01*
X28112Y73830D01*
X28157Y73791D01*
X28164Y73784D01*
X28183Y73772D01*
X28203Y73752D01*
X28235Y73733D01*
X28268Y73707D01*
X28300Y73694D01*
X28326Y73687D01*
X28352D01*
X28371Y73681D01*
X28391D01*
X28417Y73687D01*
X28443Y73700D01*
X28482Y73713D01*
X28488D01*
X28494Y73720D01*
X28520Y73733D01*
X28559Y73752D01*
X28598Y73784D01*
X28605D01*
X28611Y73791D01*
X28650Y73810D01*
X28682Y73843D01*
X28689Y73869D01*
X28695Y73895D01*
Y73901D01*
X28702Y73908D01*
Y73946D01*
X28689Y74005D01*
X28676Y74044D01*
X28656Y74076D01*
X28650Y74089D01*
X28618Y74115D01*
X28572Y74167D01*
X28501Y74231D01*
X28494Y74238D01*
X28482Y74244D01*
X28462Y74264D01*
X28430Y74290D01*
X28365Y74348D01*
X28300Y74413D01*
X28287Y74419D01*
X28255Y74432D01*
X28216Y74458D01*
X28183Y74504D01*
X28177Y74510D01*
X28164Y74523D01*
X28138Y74549D01*
X28106Y74581D01*
X28067Y74620D01*
X28021Y74666D01*
X27963Y74717D01*
X27905Y74769D01*
X27762Y74886D01*
X27607Y75009D01*
X27438Y75126D01*
X27257Y75236D01*
X27289D01*
X27296Y75242D01*
X27309Y75249D01*
X27328Y75262D01*
X27360Y75275D01*
X27399Y75288D01*
X27458Y75307D01*
X27522Y75327D01*
X27535D01*
X27561Y75333D01*
X27587Y75346D01*
X27633Y75366D01*
X27684Y75392D01*
X27749Y75424D01*
X27827Y75476D01*
X27834Y75482D01*
X27853Y75495D01*
X27879Y75521D01*
X27918Y75554D01*
X28002Y75618D01*
X28086Y75683D01*
X28093Y75690D01*
X28106Y75709D01*
X28132Y75741D01*
X28157Y75774D01*
X28190Y75819D01*
X28222Y75871D01*
X28281Y75981D01*
Y75988D01*
X28287Y76001D01*
Y76026D01*
X28294Y76065D01*
X28300Y76111D01*
Y76175D01*
X28306Y76247D01*
Y76337D01*
Y76344D01*
Y76350D01*
X28300Y76389D01*
X28294Y76448D01*
X28281Y76512D01*
X28268Y76577D01*
X28255Y76636D01*
X28235Y76681D01*
X28229Y76700D01*
X28222Y76707D01*
X28229Y76713D01*
X28242Y76739D01*
X28255Y76772D01*
X28261Y76817D01*
Y76824D01*
X28255Y76830D01*
X28229Y76862D01*
X28183Y76921D01*
X28132Y76986D01*
X28067Y77057D01*
X27989Y77135D01*
X27905Y77212D01*
X27808Y77277D01*
X27801Y77284D01*
X27782Y77290D01*
X27743Y77303D01*
X27697Y77323D01*
X27633Y77336D01*
X27555Y77348D01*
X27458Y77355D01*
X27347Y77361D01*
X27334D01*
X27302Y77368D01*
X27257D01*
X27192Y77374D01*
X27114D01*
X27030Y77381D01*
D02*
G37*
%LPD*%
G36*
X27121Y76940D02*
X27153D01*
X27192Y76934D01*
X27276Y76914D01*
X27360Y76901D01*
X27367D01*
X27380Y76895D01*
X27399Y76888D01*
X27425Y76875D01*
X27490Y76837D01*
X27561Y76785D01*
X27568Y76778D01*
X27574Y76772D01*
X27594Y76752D01*
X27613Y76726D01*
X27659Y76661D01*
X27704Y76584D01*
Y76571D01*
Y76558D01*
Y76532D01*
Y76493D01*
Y76441D01*
Y76370D01*
Y76363D01*
X27697Y76337D01*
X27691Y76292D01*
X27684Y76247D01*
X27672Y76188D01*
X27652Y76130D01*
X27626Y76072D01*
X27600Y76013D01*
X27594Y76007D01*
X27581Y75988D01*
X27555Y75955D01*
X27522Y75923D01*
X27477Y75890D01*
X27432Y75852D01*
X27380Y75819D01*
X27328Y75800D01*
X27315Y75793D01*
X27302Y75787D01*
X27276Y75780D01*
X27244Y75767D01*
X27205Y75754D01*
X27160Y75748D01*
X27108Y75735D01*
X27101D01*
X27082Y75728D01*
X27056Y75716D01*
X27017Y75709D01*
X26972Y75696D01*
X26920Y75690D01*
X26868D01*
X26810Y75696D01*
X26609D01*
X26602Y75703D01*
X26596Y75709D01*
Y75728D01*
Y75741D01*
Y75761D01*
Y75806D01*
Y75839D01*
Y75877D01*
Y75923D01*
Y75975D01*
Y76039D01*
Y76117D01*
Y76201D01*
Y76299D01*
Y76305D01*
Y76325D01*
Y76350D01*
Y76389D01*
X26589Y76435D01*
Y76487D01*
Y76597D01*
Y76707D01*
Y76811D01*
Y76850D01*
Y76888D01*
X26596Y76914D01*
Y76927D01*
X26615D01*
X26641Y76934D01*
X26667D01*
X26712Y76940D01*
X26771Y76947D01*
X27101D01*
X27121Y76940D01*
D02*
G37*
%LPC*%
G36*
X-88160Y6315D02*
X-88198D01*
X-88237D01*
X-88341D01*
X-88451D01*
X-88561D01*
X-88613D01*
X-88658Y6308D01*
X-88697D01*
X-88723D01*
X-88743D01*
X-88749D01*
X-88846D01*
X-88931D01*
X-89008D01*
X-89073D01*
X-89125D01*
X-89170D01*
X-89209D01*
X-89242D01*
X-89287D01*
X-89306D01*
X-89319D01*
X-89339D01*
X-89345Y6302D01*
X-89352Y6295D01*
Y6095D01*
X-89358Y6036D01*
Y5985D01*
X-89352Y5933D01*
X-89339Y5887D01*
X-89332Y5848D01*
X-89319Y5822D01*
X-89313Y5803D01*
Y5797D01*
X-89300Y5745D01*
X-89294Y5699D01*
X-89281Y5661D01*
X-89268Y5628D01*
X-89261Y5602D01*
X-89255Y5589D01*
X-89248Y5576D01*
X-89229Y5524D01*
X-89196Y5473D01*
X-89157Y5427D01*
X-89125Y5382D01*
X-89093Y5349D01*
X-89060Y5324D01*
X-89041Y5311D01*
X-89034Y5304D01*
X-88976Y5278D01*
X-88918Y5252D01*
X-88859Y5233D01*
X-88801Y5220D01*
X-88756Y5213D01*
X-88710Y5207D01*
X-88684Y5200D01*
X-88678D01*
X-88607D01*
X-88555D01*
X-88516D01*
X-88490D01*
X-88477D01*
X-88464D01*
X-88386Y5246D01*
X-88322Y5291D01*
X-88296Y5311D01*
X-88276Y5330D01*
X-88270Y5336D01*
X-88263Y5343D01*
X-88211Y5414D01*
X-88173Y5479D01*
X-88160Y5505D01*
X-88153Y5524D01*
X-88147Y5537D01*
Y5544D01*
X-88134Y5628D01*
X-88114Y5712D01*
X-88108Y5751D01*
Y5784D01*
X-88101Y5803D01*
Y6134D01*
X-88108Y6192D01*
X-88114Y6237D01*
Y6263D01*
X-88121Y6289D01*
Y6308D01*
X-88134D01*
X-88160Y6315D01*
D02*
G37*
G36*
X-88160Y41753D02*
X-88198D01*
X-88237D01*
X-88341D01*
X-88451D01*
X-88561D01*
X-88613D01*
X-88658Y41747D01*
X-88697D01*
X-88723D01*
X-88743D01*
X-88749D01*
X-88846D01*
X-88931D01*
X-89008D01*
X-89073D01*
X-89125D01*
X-89170D01*
X-89209D01*
X-89242D01*
X-89287D01*
X-89306D01*
X-89319D01*
X-89339D01*
X-89345Y41740D01*
X-89352Y41734D01*
Y41533D01*
X-89358Y41474D01*
Y41423D01*
X-89352Y41371D01*
X-89339Y41325D01*
X-89332Y41287D01*
X-89319Y41261D01*
X-89313Y41241D01*
Y41235D01*
X-89300Y41183D01*
X-89294Y41137D01*
X-89281Y41099D01*
X-89268Y41066D01*
X-89261Y41040D01*
X-89255Y41027D01*
X-89248Y41014D01*
X-89229Y40962D01*
X-89196Y40911D01*
X-89157Y40865D01*
X-89125Y40820D01*
X-89093Y40788D01*
X-89060Y40762D01*
X-89041Y40749D01*
X-89034Y40742D01*
X-88976Y40716D01*
X-88918Y40690D01*
X-88859Y40671D01*
X-88801Y40658D01*
X-88756Y40652D01*
X-88710Y40645D01*
X-88684Y40639D01*
X-88678D01*
X-88607D01*
X-88555D01*
X-88516D01*
X-88490D01*
X-88477D01*
X-88464D01*
X-88386Y40684D01*
X-88322Y40729D01*
X-88296Y40749D01*
X-88276Y40768D01*
X-88270Y40775D01*
X-88263Y40781D01*
X-88211Y40852D01*
X-88173Y40917D01*
X-88160Y40943D01*
X-88153Y40962D01*
X-88147Y40975D01*
Y40982D01*
X-88134Y41066D01*
X-88114Y41150D01*
X-88108Y41189D01*
Y41222D01*
X-88101Y41241D01*
Y41572D01*
X-88108Y41630D01*
X-88114Y41675D01*
Y41701D01*
X-88121Y41727D01*
Y41747D01*
X-88134D01*
X-88160Y41753D01*
D02*
G37*
%LPD*%
D10*
X12909Y69000D02*
G03*
X12909Y69000I-5906J0D01*
G01*
X-16714Y61500D02*
G03*
X-16714Y61500I-707J0D01*
G01*
X91246Y69227D02*
G03*
X91246Y69227I-1118J0D01*
G01*
X-10687Y-62815D02*
G03*
X-10687Y-62815I-671J0D01*
G01*
X-62298Y3500D02*
G03*
X-62298Y3500I-3202J0D01*
G01*
X12512Y59157D02*
Y61913D01*
X9756Y59157D02*
X12512D01*
X9756D02*
X12512Y61914D01*
X-2843Y78843D02*
X16842D01*
X-2843Y65970D02*
Y72030D01*
Y78371D02*
Y78843D01*
Y59158D02*
Y59629D01*
Y59158D02*
X16842D01*
Y59629D01*
Y78371D02*
Y78843D01*
Y65970D02*
Y72030D01*
X-48689Y77705D02*
Y79476D01*
X-54988Y77705D02*
X-48689Y77705D01*
Y79476D02*
X-21917D01*
Y78098D02*
Y79476D01*
Y78098D02*
X-16209Y78098D01*
X-22311Y62744D02*
Y64516D01*
X-26248Y62744D02*
X-22311D01*
X-48886Y62547D02*
Y64713D01*
Y62547D02*
X-44949Y62547D01*
X-99000Y54000D02*
Y61500D01*
X-117500D02*
X-99000D01*
X-117500Y26000D02*
Y61500D01*
Y26000D02*
X-99000D01*
X-99000Y34000D02*
X-99000Y26000D01*
Y17500D02*
Y25000D01*
X-117500D02*
X-99000D01*
X-117500Y-10500D02*
Y25000D01*
Y-10500D02*
X-99000D01*
X-99000Y-2500D02*
X-99000Y-10500D01*
X117713Y3737D02*
Y66729D01*
X90154Y7674D02*
Y62792D01*
X82280Y11611D02*
Y58855D01*
X31099Y11611D02*
X82280D01*
X31099D02*
Y58855D01*
X82280D01*
X113776Y7674D02*
Y31296D01*
X101965D02*
X113776D01*
X101965D02*
Y35233D01*
X113776D01*
Y39170D01*
X101965D02*
X113776D01*
X101965D02*
Y43107D01*
X113776D01*
Y47044D01*
X101965D02*
X113776D01*
X101965D02*
Y50981D01*
X113776D01*
Y54918D01*
X94091D02*
X113776D01*
X94091Y15548D02*
Y54918D01*
X87914Y3737D02*
X117713D01*
X87914Y66727D02*
X117713D01*
X80040Y3737D02*
X80582D01*
X72166D02*
X72708D01*
X64292D02*
X64834D01*
X56418D02*
X56960D01*
X48544D02*
X49086D01*
X40670D02*
X41212D01*
X32796D02*
X33338D01*
X23234D02*
Y11889D01*
Y3737D02*
X25464D01*
X23234Y19221D02*
Y19763D01*
Y27095D02*
Y27634D01*
Y34966D02*
Y35511D01*
Y42843D02*
Y43380D01*
Y50712D02*
Y51246D01*
Y66727D02*
X25464D01*
X23234Y58578D02*
Y66727D01*
X32796D02*
X33338D01*
X40670D02*
X41212D01*
X48544D02*
X49086D01*
X56418D02*
X56960D01*
X64292D02*
X64834D01*
X72166D02*
X72708D01*
X80040D02*
X80582D01*
X117201Y-65610D02*
Y-2224D01*
X32162Y-65610D02*
Y-2224D01*
X32163Y-2223D02*
X55785Y-2223D01*
X32162Y-65610D02*
X55784Y-65610D01*
X68776Y-2224D02*
X117201Y-2224D01*
X68776Y-65610D02*
X117201Y-65610D01*
X-45685Y-1185D02*
Y2235D01*
Y-1185D02*
X-42265D01*
X-45685Y38185D02*
X-42265D01*
X-45685Y34765D02*
Y38185D01*
X-6315Y34765D02*
Y38185D01*
X-9736D02*
X-6315D01*
X-9736Y-1185D02*
X-6315D01*
Y2235D01*
X-45685Y34765D02*
X-42265Y38185D01*
Y38185D01*
X-102000Y-20000D02*
Y-17000D01*
X-100163Y-13000D02*
X-96837D01*
X-101250Y-24500D02*
X-95750Y-24500D01*
X-71500Y-20000D02*
Y-17000D01*
X-76663Y-24000D02*
X-73337D01*
X-77750Y-12500D02*
X-72250Y-12500D01*
D11*
X-6516Y-65846D02*
G03*
X-6516Y-65836I787J5D01*
G01*
D12*
X-47614Y35670D02*
G03*
X-47614Y35660I-591J-5D01*
G01*
D13*
X-37910Y31490D02*
G03*
X-37910Y31470I-1181J-10D01*
G01*
D14*
X-35650Y-39500D02*
X-35650Y-63900D01*
X-35650Y-39500D02*
X-9450D01*
Y-65600D02*
Y-39500D01*
X-35650Y-65600D02*
X-9450Y-65600D01*
X-35650Y-65600D02*
Y-62600D01*
X-9268Y1768D02*
Y35232D01*
X-42732Y1768D02*
X-9268D01*
X-42732D02*
Y35232D01*
X-9268D01*
D15*
X24650Y-35250D02*
Y-32250D01*
X6350Y-55500D02*
X6350Y-58500D01*
X6350Y-48000D02*
Y-45000D01*
X24650Y-12550D02*
Y-9550D01*
X6350Y-38000D02*
Y-35000D01*
X24650Y-7000D02*
Y-4000D01*
X-12500Y-25650D02*
X-9500Y-25650D01*
X-18000Y-25650D02*
X-15000D01*
X24650Y-18100D02*
Y-15100D01*
X-23500Y-25650D02*
X-20500D01*
X-29000Y-25650D02*
X-26000D01*
X-34500Y-25650D02*
X-31500D01*
X-49000Y-63650D02*
X-46000D01*
X-49000Y-42150D02*
X-46000Y-42150D01*
X-10500Y72650D02*
X-7500D01*
X-62650Y12000D02*
X-62650Y15000D01*
X-110000Y-18650D02*
X-107000Y-18650D01*
X-115000Y-18650D02*
X-112000D01*
X-90500Y-18350D02*
X-87500D01*
X-62650Y35500D02*
Y38500D01*
X834Y47455D02*
X2955Y45333D01*
X833Y-10455D02*
X2954Y-8334D01*
X-54955Y-8333D02*
X-52834Y-10454D01*
X-55454Y45834D02*
X-53333Y47955D01*
X-61000Y-18315D02*
X-58000Y-18315D01*
X-66500Y-18350D02*
X-63500D01*
X-86000D02*
X-83000D01*
X-75886Y-11500D02*
Y-8500D01*
D16*
X23735Y-37800D02*
X25335D01*
X23735Y-40800D02*
X25335D01*
X23700Y-26000D02*
X25300D01*
X23700Y-29000D02*
X25300D01*
X12200Y-12500D02*
X13800D01*
X12200Y-9500D02*
X13800D01*
X5735Y-40000D02*
X7335Y-40000D01*
X5735Y-43000D02*
X7335Y-43000D01*
X12200Y-7000D02*
X13800D01*
X12200Y-4000D02*
X13800Y-4000D01*
X23735Y-57450D02*
X25335D01*
X23735Y-54450D02*
X25335D01*
X23700Y-51900D02*
X25300D01*
X23700Y-48900D02*
X25300Y-48900D01*
X-46000Y-53800D02*
X-46000Y-52200D01*
X-49000Y-53800D02*
Y-52200D01*
X86164Y-74000D02*
X87765Y-74000D01*
X86164Y-71000D02*
X87765Y-71000D01*
X23700Y-23650D02*
X25300Y-23650D01*
X23700Y-20650D02*
X25300Y-20650D01*
X23735Y-60000D02*
X25335Y-60000D01*
X23735Y-63000D02*
X25335Y-63000D01*
X23700Y-43350D02*
X25300Y-43350D01*
X23700Y-46350D02*
X25300Y-46350D01*
X96700Y-71000D02*
X98300D01*
X96700Y-74000D02*
X98300D01*
X-65054Y-44840D02*
X-64944Y-61830D01*
X-58444Y-61830D01*
X-51944Y-61830D01*
Y-43830D01*
X-65054D02*
X-51944D01*
X-65054D02*
X-65054Y-44840D01*
X-66035Y71201D02*
Y73800D01*
Y72500D02*
X-64985D01*
X-66335Y68500D02*
X-64735D01*
X-66335Y65500D02*
X-64735D01*
X-79035Y71201D02*
Y73800D01*
Y72500D02*
X-77985D01*
X-79335Y68500D02*
X-77735D01*
X-79335Y65500D02*
X-77735D01*
X-91035Y71201D02*
Y73800D01*
Y72500D02*
X-89985D01*
X-91335Y68500D02*
X-89735D01*
X-91335Y65500D02*
X-89735D01*
X-69109Y32990D02*
X-68999Y16000D01*
X-62499D01*
X-55999D01*
Y34000D01*
X-69109D02*
X-55999D01*
X-69109D02*
X-69109Y32990D01*
X-57326Y6977D02*
Y9706D01*
X-73674D02*
X-57326D01*
Y-2706D02*
Y23D01*
X-73674Y-2706D02*
Y23D01*
Y6977D02*
Y9706D01*
Y-2706D02*
X-57326D01*
X-87300Y-11500D02*
X-85700D01*
X-87300Y-8500D02*
X-85700D01*
X-75835Y-45000D02*
X-74235D01*
X-75835Y-42000D02*
X-74235D01*
X-75800Y-50000D02*
X-74200D01*
X-75800Y-47000D02*
X-74200D01*
X-78548Y-32859D02*
X-71649Y-32859D01*
X-78548Y-27141D02*
X-71649Y-27141D01*
X-73241Y-32859D02*
Y-27141D01*
D17*
X-65945Y-46330D02*
Y-42830D01*
X-65445Y-42830D01*
X-62445D01*
X-70000Y35000D02*
X-70000Y31500D01*
X-70000Y35000D02*
X-69500D01*
X-66500D01*
X-78548Y-27953D02*
Y-27141D01*
Y-32859D02*
Y-32087D01*
D18*
X-104640Y-63500D02*
X-97640D01*
X-118658Y-63528D02*
X-112640D01*
X-104640Y-29500D02*
X-97640Y-29500D01*
X-118658Y-29472D02*
X-112640Y-29472D01*
X-118658Y-29472D02*
X-118658Y-63528D01*
M02*
