G04*
G04 #@! TF.GenerationSoftware,Altium Limited,Altium Designer,20.0.2 (26)*
G04*
G04 Layer_Color=8388736*
%FSLAX25Y25*%
%MOIN*%
G70*
G01*
G75*
%ADD19R,0.05906X0.03937*%
%ADD20R,0.01968X0.06299*%
%ADD21R,0.08268X0.11811*%
%ADD24R,0.05512X0.09843*%
%ADD25R,0.06693X0.05512*%
%ADD39R,0.11030X0.04337*%
%ADD40R,0.07093X0.02762*%
%ADD41R,0.06312X0.10642*%
%ADD42R,0.07493X0.06312*%
%ADD43O,0.06299X0.01457*%
%ADD44O,0.01457X0.06299*%
G04:AMPARAMS|DCode=45|XSize=39.73mil|YSize=42.02mil|CornerRadius=11.93mil|HoleSize=0mil|Usage=FLASHONLY|Rotation=0.000|XOffset=0mil|YOffset=0mil|HoleType=Round|Shape=RoundedRectangle|*
%AMROUNDEDRECTD45*
21,1,0.03973,0.01815,0,0,0.0*
21,1,0.01587,0.04202,0,0,0.0*
1,1,0.02387,0.00793,-0.00907*
1,1,0.02387,-0.00793,-0.00907*
1,1,0.02387,-0.00793,0.00907*
1,1,0.02387,0.00793,0.00907*
%
%ADD45ROUNDEDRECTD45*%
G04:AMPARAMS|DCode=46|XSize=39.73mil|YSize=42.02mil|CornerRadius=11.93mil|HoleSize=0mil|Usage=FLASHONLY|Rotation=270.000|XOffset=0mil|YOffset=0mil|HoleType=Round|Shape=RoundedRectangle|*
%AMROUNDEDRECTD46*
21,1,0.03973,0.01815,0,0,270.0*
21,1,0.01587,0.04202,0,0,270.0*
1,1,0.02387,-0.00907,-0.00793*
1,1,0.02387,-0.00907,0.00793*
1,1,0.02387,0.00907,0.00793*
1,1,0.02387,0.00907,-0.00793*
%
%ADD46ROUNDEDRECTD46*%
%ADD47R,0.05124X0.05912*%
%ADD48O,0.08274X0.01581*%
%ADD49O,0.01581X0.08274*%
%ADD50R,0.04331X0.02756*%
G04:AMPARAMS|DCode=51|XSize=39.73mil|YSize=42.02mil|CornerRadius=11.93mil|HoleSize=0mil|Usage=FLASHONLY|Rotation=225.000|XOffset=0mil|YOffset=0mil|HoleType=Round|Shape=RoundedRectangle|*
%AMROUNDEDRECTD51*
21,1,0.03973,0.01815,0,0,225.0*
21,1,0.01587,0.04202,0,0,225.0*
1,1,0.02387,-0.01203,0.00081*
1,1,0.02387,-0.00081,0.01203*
1,1,0.02387,0.01203,-0.00081*
1,1,0.02387,0.00081,-0.01203*
%
%ADD51ROUNDEDRECTD51*%
G04:AMPARAMS|DCode=52|XSize=39.73mil|YSize=42.02mil|CornerRadius=11.93mil|HoleSize=0mil|Usage=FLASHONLY|Rotation=135.000|XOffset=0mil|YOffset=0mil|HoleType=Round|Shape=RoundedRectangle|*
%AMROUNDEDRECTD52*
21,1,0.03973,0.01815,0,0,135.0*
21,1,0.01587,0.04202,0,0,135.0*
1,1,0.02387,0.00081,0.01203*
1,1,0.02387,0.01203,0.00081*
1,1,0.02387,-0.00081,-0.01203*
1,1,0.02387,-0.01203,-0.00081*
%
%ADD52ROUNDEDRECTD52*%
%ADD53R,0.06424X0.05754*%
G04:AMPARAMS|DCode=54|XSize=67.06mil|YSize=19.81mil|CornerRadius=6.95mil|HoleSize=0mil|Usage=FLASHONLY|Rotation=0.000|XOffset=0mil|YOffset=0mil|HoleType=Round|Shape=RoundedRectangle|*
%AMROUNDEDRECTD54*
21,1,0.06706,0.00591,0,0,0.0*
21,1,0.05315,0.01981,0,0,0.0*
1,1,0.01391,0.02657,-0.00295*
1,1,0.01391,-0.02657,-0.00295*
1,1,0.01391,-0.02657,0.00295*
1,1,0.01391,0.02657,0.00295*
%
%ADD54ROUNDEDRECTD54*%
%ADD55R,0.04337X0.03353*%
%ADD56C,0.10642*%
%ADD57C,0.03359*%
%ADD58O,0.07099X0.04737*%
%ADD59O,0.09068X0.04737*%
D19*
X16646Y75496D02*
D03*
Y62504D02*
D03*
X-2646D02*
D03*
Y75496D02*
D03*
D20*
X-42882Y59791D02*
D03*
X-37960D02*
D03*
X-33039D02*
D03*
X-28118D02*
D03*
D21*
X-52921Y71209D02*
D03*
X-18079D02*
D03*
D24*
X68500Y64957D02*
D03*
X76374D02*
D03*
X84248D02*
D03*
X29130Y64954D02*
D03*
X37004Y64957D02*
D03*
X44878D02*
D03*
X52752D02*
D03*
X84248Y5500D02*
D03*
X76374Y5501D02*
D03*
X68500Y5500D02*
D03*
X52752D02*
D03*
X44878Y5497D02*
D03*
X37004Y5502D02*
D03*
X29130Y5508D02*
D03*
X60626Y64957D02*
D03*
Y5503D02*
D03*
D25*
X24007Y54912D02*
D03*
X24013Y47046D02*
D03*
X24011Y39177D02*
D03*
Y31300D02*
D03*
Y23429D02*
D03*
X24008Y15555D02*
D03*
D39*
X-111299Y58665D02*
D03*
Y29335D02*
D03*
Y22165D02*
D03*
Y-7165D02*
D03*
D40*
X-98701Y36618D02*
D03*
X-98701Y41539D02*
D03*
Y46461D02*
D03*
X-98701Y51382D02*
D03*
Y118D02*
D03*
X-98701Y5039D02*
D03*
Y9961D02*
D03*
X-98701Y14882D02*
D03*
D41*
X84248Y5500D02*
D03*
X76374Y5501D02*
D03*
X68500Y5500D02*
D03*
X60626Y5503D02*
D03*
X52752Y5500D02*
D03*
X44878Y5497D02*
D03*
X37004Y5502D02*
D03*
X29130Y5508D02*
D03*
Y64954D02*
D03*
X37004Y64957D02*
D03*
X44878D02*
D03*
X52752D02*
D03*
X60626D02*
D03*
X68500D02*
D03*
X76374D02*
D03*
X84248D02*
D03*
D42*
X24008Y15555D02*
D03*
X24011Y23429D02*
D03*
Y31300D02*
D03*
Y39177D02*
D03*
X24013Y47046D02*
D03*
X24007Y54912D02*
D03*
D43*
X-5768Y-63327D02*
D03*
Y-61358D02*
D03*
X-5768Y-59390D02*
D03*
X-5768Y-57421D02*
D03*
X-5768Y-55453D02*
D03*
Y-53484D02*
D03*
Y-51516D02*
D03*
X-5768Y-49547D02*
D03*
X-5768Y-47579D02*
D03*
X-5768Y-45610D02*
D03*
X-5768Y-43642D02*
D03*
X-5768Y-41673D02*
D03*
X-39232D02*
D03*
Y-43642D02*
D03*
Y-45610D02*
D03*
Y-47579D02*
D03*
X-39232Y-49547D02*
D03*
X-39232Y-51516D02*
D03*
X-39232Y-53484D02*
D03*
X-39232Y-55453D02*
D03*
X-39232Y-57421D02*
D03*
X-39232Y-59390D02*
D03*
X-39232Y-61358D02*
D03*
Y-63327D02*
D03*
D44*
X-11673Y-35768D02*
D03*
X-13642D02*
D03*
X-15610D02*
D03*
X-17579Y-35768D02*
D03*
X-19547Y-35768D02*
D03*
X-21516Y-35768D02*
D03*
X-23484Y-35768D02*
D03*
X-25453Y-35768D02*
D03*
X-27421Y-35768D02*
D03*
X-29390Y-35768D02*
D03*
X-31358Y-35768D02*
D03*
X-33327Y-35768D02*
D03*
X-33327Y-69232D02*
D03*
X-31358D02*
D03*
X-29390Y-69232D02*
D03*
X-27421D02*
D03*
X-25453D02*
D03*
X-23484D02*
D03*
X-21516D02*
D03*
X-19547D02*
D03*
X-17579Y-69232D02*
D03*
X-15610D02*
D03*
X-13642D02*
D03*
X-11673D02*
D03*
D45*
X21535Y-33750D02*
D03*
X27465D02*
D03*
X9465Y-57000D02*
D03*
X3536Y-57000D02*
D03*
X27500Y-39300D02*
D03*
X21571D02*
D03*
X27465Y-27500D02*
D03*
X21535D02*
D03*
X9465Y-46500D02*
D03*
X3535D02*
D03*
X21535Y-11050D02*
D03*
X27465D02*
D03*
X10035Y-11000D02*
D03*
X15965D02*
D03*
X9500Y-41500D02*
D03*
X3571D02*
D03*
X9465Y-36500D02*
D03*
X3535Y-36500D02*
D03*
X21535Y-5500D02*
D03*
X27465D02*
D03*
X10035Y-5500D02*
D03*
X15965Y-5500D02*
D03*
X21571Y-55950D02*
D03*
X27500D02*
D03*
X21535Y-50400D02*
D03*
X27465D02*
D03*
X21535Y-16600D02*
D03*
X27465D02*
D03*
X84000Y-72500D02*
D03*
X89929Y-72500D02*
D03*
X21535Y-22150D02*
D03*
X27465Y-22150D02*
D03*
X27500Y-61500D02*
D03*
X21571Y-61500D02*
D03*
X27465Y-44850D02*
D03*
X21535Y-44850D02*
D03*
X100464Y-72500D02*
D03*
X94535D02*
D03*
X-68500Y72500D02*
D03*
X-62571D02*
D03*
Y67000D02*
D03*
X-68500D02*
D03*
X-81500Y72500D02*
D03*
X-75571D02*
D03*
Y67000D02*
D03*
X-81500D02*
D03*
X-93500Y72500D02*
D03*
X-87571D02*
D03*
Y67000D02*
D03*
X-93500D02*
D03*
X-59535Y13500D02*
D03*
X-65465D02*
D03*
X-59535Y37000D02*
D03*
X-65465D02*
D03*
X-89465Y-10000D02*
D03*
X-83535D02*
D03*
X-79000D02*
D03*
X-73071D02*
D03*
X-78000Y-43500D02*
D03*
X-72071D02*
D03*
X-77965Y-48500D02*
D03*
X-72035D02*
D03*
D46*
X-11000Y-22535D02*
D03*
X-11000Y-28465D02*
D03*
X-16500Y-22535D02*
D03*
Y-28465D02*
D03*
X-47500Y-55965D02*
D03*
X-47500Y-50035D02*
D03*
X-22000Y-22535D02*
D03*
X-22000Y-28465D02*
D03*
X-27500Y-22535D02*
D03*
Y-28465D02*
D03*
X-33000Y-22535D02*
D03*
Y-28465D02*
D03*
X-47500Y-60535D02*
D03*
Y-66465D02*
D03*
X-47500Y-39035D02*
D03*
X-47500Y-44965D02*
D03*
X-9000Y69535D02*
D03*
Y75465D02*
D03*
X-108500Y-15535D02*
D03*
Y-21465D02*
D03*
X-113500Y-15535D02*
D03*
Y-21465D02*
D03*
X-89000D02*
D03*
Y-15535D02*
D03*
X-59500Y-21429D02*
D03*
Y-15500D02*
D03*
X-65000Y-21465D02*
D03*
Y-15535D02*
D03*
X-84500Y-21465D02*
D03*
Y-15535D02*
D03*
D47*
X-55000Y-48500D02*
D03*
X-55000Y-57161D02*
D03*
X-61890D02*
D03*
Y-48500D02*
D03*
X-59055Y29331D02*
D03*
Y20670D02*
D03*
X-65945D02*
D03*
Y29331D02*
D03*
D48*
X-48637Y33264D02*
D03*
Y31295D02*
D03*
Y29327D02*
D03*
Y27358D02*
D03*
Y25390D02*
D03*
Y23421D02*
D03*
Y21453D02*
D03*
Y19484D02*
D03*
Y17516D02*
D03*
Y15547D02*
D03*
Y13579D02*
D03*
Y11610D02*
D03*
Y9642D02*
D03*
Y7673D02*
D03*
Y5705D02*
D03*
Y3736D02*
D03*
X-3363D02*
D03*
Y5705D02*
D03*
Y7673D02*
D03*
Y9642D02*
D03*
Y11610D02*
D03*
Y13579D02*
D03*
Y15547D02*
D03*
Y17516D02*
D03*
Y19484D02*
D03*
Y21453D02*
D03*
Y23421D02*
D03*
Y25390D02*
D03*
Y27358D02*
D03*
Y29327D02*
D03*
Y31295D02*
D03*
Y33264D02*
D03*
D49*
X-40764Y-4137D02*
D03*
X-38795D02*
D03*
X-36827D02*
D03*
X-34858D02*
D03*
X-32890D02*
D03*
X-30921D02*
D03*
X-28953D02*
D03*
X-26984D02*
D03*
X-25016D02*
D03*
X-23047D02*
D03*
X-21079D02*
D03*
X-19110D02*
D03*
X-17142D02*
D03*
X-15173D02*
D03*
X-13205D02*
D03*
X-11236D02*
D03*
Y41137D02*
D03*
X-13205D02*
D03*
X-15173D02*
D03*
X-17142D02*
D03*
X-19110D02*
D03*
X-21079D02*
D03*
X-23047D02*
D03*
X-25016D02*
D03*
X-26984D02*
D03*
X-28953D02*
D03*
X-30921D02*
D03*
X-32890D02*
D03*
X-34858D02*
D03*
X-36827D02*
D03*
X-38795D02*
D03*
X-40764D02*
D03*
D50*
X-102831Y-22241D02*
D03*
Y-14760D02*
D03*
X-94169Y-22240D02*
D03*
Y-14761D02*
D03*
Y-18500D02*
D03*
X-70669Y-14760D02*
D03*
Y-22241D02*
D03*
X-79331Y-14761D02*
D03*
Y-22240D02*
D03*
Y-18499D02*
D03*
D51*
X4096Y48596D02*
D03*
X-96Y44404D02*
D03*
X-56096Y-11596D02*
D03*
X-51904Y-7404D02*
D03*
D52*
X4096Y-11596D02*
D03*
X-96Y-7404D02*
D03*
X-56596Y49096D02*
D03*
X-52404Y44904D02*
D03*
D53*
X-73512Y3500D02*
D03*
X-57488D02*
D03*
D54*
X-88579Y-59689D02*
D03*
Y-58508D02*
D03*
Y-56539D02*
D03*
Y-55358D02*
D03*
Y-53390D02*
D03*
Y-51421D02*
D03*
Y-49453D02*
D03*
Y-47484D02*
D03*
Y-45516D02*
D03*
Y-43547D02*
D03*
Y-41579D02*
D03*
Y-39610D02*
D03*
Y-37642D02*
D03*
Y-36461D02*
D03*
Y-34492D02*
D03*
Y-33311D02*
D03*
D55*
X-79616Y-30000D02*
D03*
X-70384D02*
D03*
D56*
X112205Y72835D02*
D03*
Y-72835D02*
D03*
X-112205D02*
D03*
Y72835D02*
D03*
D57*
X-94642Y-35122D02*
D03*
X-94642Y-57878D02*
D03*
D58*
X-108421Y-63528D02*
D03*
Y-29472D02*
D03*
D59*
X-92673Y-63528D02*
D03*
X-92673Y-29472D02*
D03*
M02*
