G04*
G04 #@! TF.GenerationSoftware,Altium Limited,Altium Designer,20.0.2 (26)*
G04*
G04 Layer_Color=128*
%FSLAX25Y25*%
%MOIN*%
G70*
G01*
G75*
%ADD77C,0.00200*%
D77*
X108268Y72835D02*
X116142D01*
X112205Y68898D02*
Y76772D01*
X108268Y-72835D02*
X116142D01*
X112205Y-76772D02*
Y-68898D01*
X-116142Y-72835D02*
X-108268D01*
X-112205Y-76772D02*
Y-68898D01*
X-116142Y72835D02*
X-108268D01*
X-112205Y68898D02*
Y76772D01*
X58658Y-3425D02*
X65745D01*
X62201Y-6968D02*
Y118D01*
X58658Y-64409D02*
X65745D01*
X62201Y-67952D02*
Y-60866D01*
X91335Y-7834D02*
X95665D01*
X93500Y-9999D02*
Y-5669D01*
X91335Y-17834D02*
X95665D01*
X93500Y-19999D02*
Y-15669D01*
X91335Y-50000D02*
X95665D01*
X93500Y-52165D02*
Y-47835D01*
X91335Y-60000D02*
X95665D01*
X93500Y-62165D02*
Y-57835D01*
X37241Y-16438D02*
X41178D01*
X39209Y-18406D02*
Y-14469D01*
X47241Y-21438D02*
X51178D01*
X49209Y-23406D02*
Y-19469D01*
X37241Y-26438D02*
X41178D01*
X39209Y-28406D02*
Y-24469D01*
X47241Y-31438D02*
X51178D01*
X49209Y-33406D02*
Y-29469D01*
X37241Y-36437D02*
X41178D01*
X39209Y-38406D02*
Y-34469D01*
X47241Y-41438D02*
X51178D01*
X49209Y-43406D02*
Y-39469D01*
X37241Y-46437D02*
X41178D01*
X39209Y-48406D02*
Y-44469D01*
X47241Y-51437D02*
X51178D01*
X49209Y-53406D02*
Y-49469D01*
X-95921Y-35122D02*
X-93362D01*
X-94642Y-36402D02*
Y-33843D01*
X-95921Y-57878D02*
X-93362D01*
X-94642Y-59158D02*
Y-56598D01*
X-109602Y-63528D02*
X-107240D01*
X-108421Y-64709D02*
Y-62347D01*
X-109602Y-29472D02*
X-107240D01*
X-108421Y-30654D02*
Y-28291D01*
X-93854Y-63528D02*
X-91492D01*
X-92673Y-64709D02*
Y-62347D01*
X-93854Y-29472D02*
X-91492D01*
X-92673Y-30654D02*
Y-28291D01*
X-44500Y-61500D02*
X-43500D01*
X-44000Y-62000D02*
Y-61000D01*
X-38500Y55500D02*
X-37500D01*
X-38000Y55000D02*
Y56000D01*
X-69695Y20920D02*
X-68695D01*
X-69195Y20419D02*
Y21419D01*
X-56305Y29081D02*
X-55305D01*
X-55805Y28580D02*
Y29581D01*
X-67500Y-32000D02*
X-66500D01*
X-67000Y-32500D02*
Y-31500D01*
X-67500Y-29500D02*
X-66500D01*
X-67000Y-30000D02*
Y-29000D01*
X-67500Y-27000D02*
X-66500D01*
X-67000Y-27500D02*
Y-26500D01*
X-44453Y-49547D02*
X-43453D01*
X-43953Y-50047D02*
Y-49047D01*
X19285Y-33500D02*
X20285D01*
X19785Y-34000D02*
Y-33000D01*
X25380Y5758D02*
X26380D01*
X25880Y5258D02*
Y6258D01*
X19396Y62254D02*
X20395D01*
X19895Y61754D02*
Y62754D01*
X-9750Y66285D02*
X-8750D01*
X-9250Y65785D02*
Y66785D01*
X-97250Y67250D02*
X-96250D01*
X-96750Y66750D02*
Y67750D01*
X-94250Y9750D02*
X-93250D01*
X-93750Y9250D02*
Y10250D01*
X-94750Y46250D02*
X-93750D01*
X-94250Y45750D02*
Y46750D01*
X-58718Y-9121D02*
X-57718D01*
X-58218Y-9621D02*
Y-8621D01*
X-85250Y-24715D02*
X-84250D01*
X-84750Y-25215D02*
Y-24215D01*
X-113750Y-12285D02*
X-112750D01*
X-113250Y-12785D02*
Y-11785D01*
X-86750Y-30250D02*
X-85750D01*
X-86250Y-30750D02*
Y-29750D01*
X-84750Y-59250D02*
X-83750D01*
X-84250Y-59750D02*
Y-58750D01*
X-48250Y-69715D02*
X-47250D01*
X-47750Y-70215D02*
Y-69215D01*
X-65640Y-56911D02*
X-64640D01*
X-65140Y-57411D02*
Y-56411D01*
X-55000Y-45000D02*
X-54000D01*
X-54500Y-45500D02*
Y-44500D01*
X-52000Y-39500D02*
X-51000D01*
X-51500Y-40000D02*
Y-39000D01*
X-38500Y-10000D02*
X-37500D01*
X-38000Y-10500D02*
Y-9500D01*
X-9500Y-32500D02*
X-8500D01*
X-9000Y-33000D02*
Y-32000D01*
X-7500Y-22500D02*
X-6500D01*
X-7000Y-23000D02*
Y-22000D01*
X-7500Y-5000D02*
X-6500D01*
X-7000Y-5500D02*
Y-4500D01*
X-83000Y-5500D02*
X-82000D01*
X-82500Y-6000D02*
Y-5000D01*
X-100832Y-22059D02*
X-99832D01*
X-100332Y-22559D02*
Y-21559D01*
X-94000Y-10000D02*
X-93000D01*
X-93500Y-10500D02*
Y-9500D01*
X-54000Y-2000D02*
X-53000D01*
X-53500Y-2500D02*
Y-1500D01*
X-70000Y-12000D02*
X-69000D01*
X-69500Y-12500D02*
Y-11500D01*
X-54000Y9500D02*
X-53000D01*
X-53500Y9000D02*
Y10000D01*
X-40500Y23000D02*
X-39500D01*
X-40000Y22500D02*
Y23500D01*
X-49500Y-10307D02*
X-48500D01*
X-49000Y-10808D02*
Y-9808D01*
X2500Y75500D02*
X3500D01*
X3000Y75000D02*
Y76000D01*
X-49000Y58500D02*
X-48000D01*
X-48500Y58000D02*
Y59000D01*
X-34750Y15750D02*
X-33750D01*
X-34250Y15250D02*
Y16250D01*
X-36500Y13000D02*
X-35500D01*
X-36000Y12500D02*
Y13500D01*
X-40000Y11000D02*
X-39000D01*
X-39500Y10500D02*
Y11500D01*
X-42500Y11000D02*
X-41500D01*
X-42000Y10500D02*
Y11500D01*
X-92500Y1500D02*
X-91500D01*
X-92000Y1000D02*
Y2000D01*
X-92500Y4000D02*
X-91500D01*
X-92000Y3500D02*
Y4500D01*
X-93000Y40500D02*
X-92000D01*
X-92500Y40000D02*
Y41000D01*
X-93000Y37500D02*
X-92000D01*
X-92500Y37000D02*
Y38000D01*
X-82000Y63000D02*
X-81000D01*
X-81500Y62500D02*
Y63500D01*
X-69000D02*
X-68000D01*
X-68500Y63000D02*
Y64000D01*
X-37500Y51500D02*
X-36500D01*
X-37000Y51000D02*
Y52000D01*
X-39500Y49500D02*
X-38500D01*
X-39000Y49000D02*
Y50000D01*
X-70000Y75500D02*
X-69000D01*
X-69500Y75000D02*
Y76000D01*
X-45000Y72000D02*
X-44000D01*
X-44500Y71500D02*
Y72500D01*
X-12000Y25000D02*
X-11000D01*
X-11500Y24500D02*
Y25500D01*
X-12000Y27500D02*
X-11000D01*
X-11500Y27000D02*
Y28000D01*
X-69500Y-48500D02*
X-68500D01*
X-69000Y-49000D02*
Y-48000D01*
X-69500Y-43500D02*
X-68500D01*
X-69000Y-44000D02*
Y-43000D01*
X-36000Y-13000D02*
X-35000D01*
X-35500Y-13500D02*
Y-12500D01*
X-40500Y-38000D02*
X-39500D01*
X-40000Y-38500D02*
Y-37500D01*
X74500Y-72000D02*
X75500D01*
X75000Y-72500D02*
Y-71500D01*
X77000Y-75000D02*
X78000D01*
X77500Y-75500D02*
Y-74500D01*
X89500Y-70000D02*
X90500D01*
X90000Y-70500D02*
Y-69500D01*
X-44500Y-46000D02*
X-43500D01*
X-44000Y-46500D02*
Y-45500D01*
Y-41000D02*
X-43000D01*
X-43500Y-41500D02*
Y-40500D01*
X11000Y75500D02*
X12000D01*
X11500Y75000D02*
Y76000D01*
X-14103Y32897D02*
X-13103D01*
X-13602Y32397D02*
Y33397D01*
X4000Y17500D02*
X5000D01*
X4500Y17000D02*
Y18000D01*
X84000Y58500D02*
X85000D01*
X84500Y58000D02*
Y59000D01*
X1904Y-5000D02*
X2904D01*
X2404Y-5500D02*
Y-4500D01*
X82000Y14000D02*
X83000D01*
X82500Y13500D02*
Y14500D01*
X77500Y14000D02*
X78500D01*
X78000Y13500D02*
Y14500D01*
X7000Y24500D02*
X8000D01*
X7500Y24000D02*
Y25000D01*
X7000Y20500D02*
X8000D01*
X7500Y20000D02*
Y21000D01*
X29035Y-22150D02*
X30035D01*
X29535Y-22650D02*
Y-21650D01*
X18965Y-44850D02*
X19965D01*
X19465Y-45350D02*
Y-44350D01*
X19000Y-61500D02*
X20000D01*
X19500Y-62000D02*
Y-61000D01*
X18500Y-22500D02*
X19500D01*
X19000Y-23000D02*
Y-22000D01*
X-21000Y-12500D02*
X-20000D01*
X-20500Y-13000D02*
Y-12000D01*
X-24000Y-15500D02*
X-23000D01*
X-23500Y-16000D02*
Y-15000D01*
X-27000Y-14000D02*
X-26000D01*
X-26500Y-14500D02*
Y-13500D01*
X-30000Y-17000D02*
X-29000D01*
X-29500Y-17500D02*
Y-16500D01*
X-33500D02*
X-32500D01*
X-33000Y-17000D02*
Y-16000D01*
X-17500Y-58000D02*
X-16500D01*
X-17000Y-58500D02*
Y-57500D01*
X-20500Y-56500D02*
X-19500D01*
X-20000Y-57000D02*
Y-56000D01*
X-24000D02*
X-23000D01*
X-23500Y-56500D02*
Y-55500D01*
X-33877Y-65623D02*
X-32877D01*
X-33377Y-66123D02*
Y-65123D01*
X-27000Y-54500D02*
X-26000D01*
X-26500Y-55000D02*
Y-54000D01*
X-31000D02*
X-30000D01*
X-30500Y-54500D02*
Y-53500D01*
M02*
