M48
;Layer_Color=9474304
;FILE_FORMAT=2:5
INCH,LZ
;TYPE=PLATED
T1F00S00C0.01000
T3F00S00C0.02559
T4F00S00C0.03937
T5F00S00C0.04331
T6F00S00C0.07087
T7F00S00C0.07874
%
T01
X-004775Y-0069715
X-0044Y-00615
X-0043953Y-0049547
X-0044Y-0046
X-00435Y-0041
X-004Y-0038
X-00515Y-00395
X-0049Y-0010307
X-0038Y-001
X-00355Y-0013
X-0033Y-00165
X-00295Y-0017
X-00265Y-0014
X-00235Y-00155
X-00205Y-00125
X-0007Y-0005
X0002404
X-0007Y-00225
X-0009Y-00325
X0019785Y-00335
X0019465Y-004485
X00195Y-00615
X0019Y-00225
X0029535Y-002215
X002588Y0005758
X-0036Y0013
X-00395Y0011
X-0042
X-00305Y-0054
X-00265Y-00545
X-00235Y-0056
X-002Y-00565
X-0017Y-0058
X-0033377Y-0065623
X0075Y-0072
X00775Y-0075
X009Y-007
X-006514Y-0056911
X-0069Y-00485
Y-00435
X-0067Y-0032
Y-00295
Y-0027
X-00695Y-0012
X-0058218Y-0009121
X-00535Y-0002
Y00095
X-009375Y000975
X-0092Y0004
Y00015
X-00935Y-001
X-00825Y-00055
X-008475Y-0024715
X-008625Y-003025
X-0100332Y-0022059
X-011325Y-0012285
X-008425Y-005925
X-00545Y-0045
X-0055805Y0029081
X-0069195Y002092
X-00925Y00375
Y00405
X-009425Y004625
X-009675Y006725
X-00815Y0063
X-00685Y00635
X-00695Y00755
X-00445Y0072
X-00485Y00585
X-0038Y00555
X-0037Y00515
X-0039Y00495
X-004Y0023
X-003425Y001575
X-00115Y0025
Y00275
X-0013602Y0032897
X00075Y00245
Y00205
X00045Y00175
X0003Y00755
X00115
X0019895Y0062254
X-000925Y0066285
X00845Y00585
X00825Y0014
X0078
T03
X-0094642Y-0057878
X-0094642Y-0035122
T04
X0039209Y-0046437
Y-0036437
Y-0026438
Y-0016438
X0049209Y-0021438
X0049209Y-0031438
Y-0041438
X0049209Y-0051437
T05
X00935Y-006
Y-005
Y-0017834
Y-0007834
T06
X0062201Y-0064409
Y-0003425
T07
X0112205Y-0072835
X-0112205
Y0072835
X0112205
M30
